<?xml version="1.0" encoding="utf-8"?>
<!-- Generator: Adobe Illustrator 23.0.2, SVG Export Plug-In . SVG Version: 6.00 Build 0)  -->
<!DOCTYPE svg PUBLIC "-//W3C//DTD SVG 1.1//EN" "http://www.w3.org/Graphics/SVG/1.1/DTD/svg11.dtd" [
	<!ENTITY ns_extend "http://ns.adobe.com/Extensibility/1.0/">
	<!ENTITY ns_ai "http://ns.adobe.com/AdobeIllustrator/10.0/">
	<!ENTITY ns_graphs "http://ns.adobe.com/Graphs/1.0/">
	<!ENTITY ns_vars "http://ns.adobe.com/Variables/1.0/">
	<!ENTITY ns_imrep "http://ns.adobe.com/ImageReplacement/1.0/">
	<!ENTITY ns_sfw "http://ns.adobe.com/SaveForWeb/1.0/">
	<!ENTITY ns_custom "http://ns.adobe.com/GenericCustomNamespace/1.0/">
	<!ENTITY ns_adobe_xpath "http://ns.adobe.com/XPath/1.0/">
]>
<svg version="1.1" id="Layer_1" xmlns:x="&ns_extend;" xmlns:i="&ns_ai;" xmlns:graph="&ns_graphs;"
	 xmlns="http://www.w3.org/2000/svg" xmlns:xlink="http://www.w3.org/1999/xlink" x="0px" y="0px" viewBox="0 0 720 720"
	 style="enable-background:new 0 0 720 720;" xml:space="preserve">
<style type="text/css">
	.Drop_x0020_Shadow{fill:none;}
	.Round_x0020_Corners_x0020_2_x0020_pt{fill:#FFFFFF;stroke:#231F20;stroke-miterlimit:10;}
	.Live_x0020_Reflect_x0020_X{fill:none;}
	.Bevel_x0020_Soft{fill:url(#SVGID_1_);}
	.Dusk{fill:#FFFFFF;}
	.Foliage_GS{fill:#FFDD00;}
	.Pompadour_GS{fill-rule:evenodd;clip-rule:evenodd;fill:#44ADE2;}
	.st0{fill-rule:evenodd;clip-rule:evenodd;}
</style>
<metadata>
	<sfw  xmlns="&ns_sfw;">
		<slices></slices>
		<sliceSourceBounds  bottomLeftOrigin="true" height="720" width="226.2" x="246.9" y="-720"></sliceSourceBounds>
	</sfw>
</metadata>
<linearGradient id="SVGID_1_" gradientUnits="userSpaceOnUse" x1="0" y1="0" x2="0.7071" y2="0.7071">
	<stop  offset="0" style="stop-color:#DEDFE3"/>
	<stop  offset="0.1783" style="stop-color:#DADBDF"/>
	<stop  offset="0.3611" style="stop-color:#CECFD3"/>
	<stop  offset="0.546" style="stop-color:#B9BCBF"/>
	<stop  offset="0.7324" style="stop-color:#9CA0A2"/>
	<stop  offset="0.9181" style="stop-color:#787D7E"/>
	<stop  offset="1" style="stop-color:#656B6C"/>
</linearGradient>
<path id="_x31_" class="st0" d="M329.6,76.3l7.5,0.2c1.2-5.2,2-10.3,2.3-15.6l-7-0.2c-0.8,4.7-8.5,5.6-9.4,0.9
	c-0.4-1.7,0-4.5,0.5-6.2l0,0v0l0,0l0-0.1l0,0l0,0l0,0l0-0.1c1.8-5.4,8.5-4.5,9.1,0.8v0l6.9,0.2c0-5.6-0.4-11.2-1.3-16.8l-4.6-0.1
	c-0.8,4.7-8.5,5.7-9.4,0.9c-0.6-2.6,0.1-7,2.2-9.1c3.1-3.1,7.1,0.3,7.5,3.6l3.5,0.1c-0.8-3.8-1.7-7.5-2.9-11.3
	c13.8,1.6,17.6-5.5,22.8-12.3c4.9-6.3,11.6-13.8,28.2-10.4c-4.2,10.2-6.7,21.8-7.5,34l6.3-0.2v0c0.4-3.5,4.8-6,7.9-3.6
	c2.1,2.6,2.3,5.7,1.8,9.1c-1,4.9-8.8,3.7-9.5-0.9l-6.6,0.2c-0.2,5.5,0,11.1,0.6,16.8l7.2-0.2v0c0.4-3.5,4.4-6,7.5-3.6
	c2.1,2.7,2.7,5.6,2.2,9.1c-0.9,4.7-8.7,3.8-9.5-0.9l-6.8,0.2c0.7,5.2,1.6,10.4,2.9,15.6l6.7-0.2c0.5-5.2,7.5-6,9.1-1
	c0.8,1.7,1,4.6,0.7,6.4c-0.9,4.6-8.7,3.9-9.5-0.8l-5.8,0.2c0.6,2.3,1.3,4.5,2.1,6.8c-6.1,3-12.9,7.2-13.2,24.6l0.1,3.3h0.5v3H372
	c2.1,90.4,4.2,180.5,6.3,270.9c50.1,2.8,63.7,36.6,63.4,52.6c-0.5,30.6-51.4,56.6,5.7,120.9c62.2,69.8,4.9,143.5-104.4,156.7
	c-1.6-32.3-40.5-41.1-68.6-57.2c-35.7-20.6-33.3-52.7-12.3-85c13.5-21,30.1-36,33.1-61.5c2.3-20.7-2.1-53.3-30.8-91.1
	c32.5-6.8,44.1,18.1,58.7,18.3c4.7,0,11.9-1.5,17.5-8.6c1.6-105.3,3.2-210.7,4.8-316.1h-0.3v-3h0.4l0-2.9h-0.1
	c-0.5-12.1-6-18.1-14-19.9c1.8-4,3.3-7.9,4.5-12l-6.6-0.2c-0.9,4.6-8.5,5.5-9.4,0.8c-0.5-1.8-0.2-5.9,1.3-8.1
	C324,69.6,329,72.3,329.6,76.3L329.6,76.3z"/>
</svg>
