<?xml version="1.0" encoding="utf-8"?>
<!-- Generator: Adobe Illustrator 23.0.2, SVG Export Plug-In . SVG Version: 6.00 Build 0)  -->
<!DOCTYPE svg PUBLIC "-//W3C//DTD SVG 1.1//EN" "http://www.w3.org/Graphics/SVG/1.1/DTD/svg11.dtd" [
	<!ENTITY ns_extend "http://ns.adobe.com/Extensibility/1.0/">
	<!ENTITY ns_ai "http://ns.adobe.com/AdobeIllustrator/10.0/">
	<!ENTITY ns_graphs "http://ns.adobe.com/Graphs/1.0/">
	<!ENTITY ns_vars "http://ns.adobe.com/Variables/1.0/">
	<!ENTITY ns_imrep "http://ns.adobe.com/ImageReplacement/1.0/">
	<!ENTITY ns_sfw "http://ns.adobe.com/SaveForWeb/1.0/">
	<!ENTITY ns_custom "http://ns.adobe.com/GenericCustomNamespace/1.0/">
	<!ENTITY ns_adobe_xpath "http://ns.adobe.com/XPath/1.0/">
]>
<svg version="1.1" id="Layer_1" xmlns:x="&ns_extend;" xmlns:i="&ns_ai;" xmlns:graph="&ns_graphs;"
	 xmlns="http://www.w3.org/2000/svg" xmlns:xlink="http://www.w3.org/1999/xlink" x="0px" y="0px" viewBox="0 0 720 720"
	 style="enable-background:new 0 0 720 720;" xml:space="preserve">
<style type="text/css">
	.Drop_x0020_Shadow{fill:none;}
	.Round_x0020_Corners_x0020_2_x0020_pt{fill:#FFFFFF;stroke:#231F20;stroke-miterlimit:10;}
	.Live_x0020_Reflect_x0020_X{fill:none;}
	.Bevel_x0020_Soft{fill:url(#SVGID_1_);}
	.Dusk{fill:#FFFFFF;}
	.Foliage_GS{fill:#FFDD00;}
	.Pompadour_GS{fill-rule:evenodd;clip-rule:evenodd;fill:#44ADE2;}
	.st0{fill:#FFFFFF;}
	.st1{fill:none;stroke:#FFFFFF;stroke-width:0.5212;stroke-miterlimit:10;}
	.st2{fill:none;stroke:#FFFFFF;stroke-width:0.5034;stroke-miterlimit:10;}
	.st3{fill:none;stroke:#000000;stroke-width:0.5034;stroke-miterlimit:10;}
</style>
<metadata>
	<sfw  xmlns="&ns_sfw;">
		<slices></slices>
		<sliceSourceBounds  bottomLeftOrigin="true" height="720" width="241.6" x="239.2" y="-720"></sliceSourceBounds>
	</sfw>
</metadata>
<linearGradient id="SVGID_1_" gradientUnits="userSpaceOnUse" x1="0" y1="0" x2="0.7071" y2="0.7071">
	<stop  offset="0" style="stop-color:#DEDFE3"/>
	<stop  offset="0.1783" style="stop-color:#DADBDF"/>
	<stop  offset="0.3611" style="stop-color:#CECFD3"/>
	<stop  offset="0.546" style="stop-color:#B9BCBF"/>
	<stop  offset="0.7324" style="stop-color:#9CA0A2"/>
	<stop  offset="0.9181" style="stop-color:#787D7E"/>
	<stop  offset="1" style="stop-color:#656B6C"/>
</linearGradient>
<g>
	<rect x="347.9" y="227.3" width="6.3" height="3"/>
	<ellipse transform="matrix(0.7071 -0.7071 0.7071 0.7071 -311.5994 427.3025)" cx="360" cy="589.8" rx="120.8" ry="120.8"/>
	<g>
		<path class="st0" d="M441.9,675.5c-9.9,9.5-21.4,17.3-34.2,22.9c-1.3,0.6-2.8,0-3.4-1.4l0,0c-0.5-1.3,0.1-2.7,1.3-3.3
			c12.2-5.4,23.2-12.8,32.7-21.9c1-1,2.6-0.9,3.5,0l0,0C443,672.8,442.9,674.5,441.9,675.5z"/>
		<path class="st0" d="M467.1,545.5L467.1,545.5c-1.3,0.5-2.7-0.1-3.3-1.3c-5.4-12.2-12.8-23.2-21.9-32.7c-1-1-0.9-2.6,0-3.5l0,0
			c1-1,2.6-1,3.6,0c9.5,9.9,17.3,21.4,22.9,34.2C469,543.5,468.4,545,467.1,545.5z"/>
		<path class="st0" d="M314.3,486.1c-12.2,5.4-23.2,12.8-32.7,21.9c-1,1-2.6,0.9-3.5,0l0,0c-1-1-1-2.6,0-3.6
			c9.9-9.5,21.5-17.3,34.2-22.9c1.3-0.6,2.8,0,3.4,1.4l0,0C316.2,484.1,315.6,485.5,314.3,486.1z"/>
		<path class="st0" d="M478.4,592.5c-0.3,14.2-3.1,27.8-8,40.3c-0.5,1.3-2,2-3.3,1.4l0,0c-1.3-0.5-1.9-2-1.4-3.3
			c4.7-12,7.4-25,7.7-38.6c0-1.4,1.2-2.5,2.5-2.5h0C477.3,589.9,478.5,591.1,478.4,592.5z"/>
		<path class="st0" d="M404.4,482.8L404.4,482.8c-0.5,1.3-2,1.9-3.3,1.4c-12-4.7-25-7.4-38.6-7.7c-1.4,0-2.5-1.2-2.5-2.5v0
			c0-1.4,1.2-2.6,2.6-2.5c14.2,0.3,27.8,3.1,40.3,8C404.3,480,404.9,481.5,404.4,482.8z"/>
		<path class="st0" d="M254.3,548.8c-4.7,12-7.4,25-7.7,38.6c0,1.4-1.2,2.5-2.5,2.5h0c-1.4,0-2.6-1.2-2.5-2.6
			c0.3-14.2,3.1-27.8,8-40.3c0.5-1.3,2-2,3.3-1.4l0,0C254.2,546.1,254.8,547.5,254.3,548.8z"/>
	</g>
	<path d="M391.6,32.2c-0.9,5.4-0.5,12-0.3,14.6c0.1,0.6-0.3,1.2-0.9,1.4c-2.1,0.7-7,2.9-8.6,10c-1.5,6.4,1.7,9,3.6,10
		c0.9,0.4,1.5,1.3,1.5,2.3l0.8,22c0,0.6-0.2,1.2-0.5,1.7c-5.7,7.6-9.2,15.5-11.1,20.8c-0.5,1.4-0.9,2.9-1.2,4.3
		c-0.3,1.2-0.5,2.4-0.6,3.6c-0.1,1.4-0.2,2.7-0.2,4.1c0.1,5,0.2,13.5,0.3,24.6c0,0.5,0,1,0,1.5c0.1,7.5,0.2,16.1,0.3,25.6
		c0,0.5,0,1,0,1.5c0.1,7.5,0.2,15.5,0.3,23.9c0,0.5,0,1,0,1.5c0.1,7.2,0.2,14.6,0.3,22.3c0,0.5,0,1,0,1.5c0.1,6.9,0.2,14.1,0.3,21.3
		c0,0.5,0,1,0,1.5c0.1,6.4,0.2,12.9,0.3,19.4c0,0.5,0,1,0,1.5c0.1,6.1,0.2,12.2,0.2,18.4c0,0.5,0,1,0,1.5c0.1,5.8,0.2,11.5,0.2,17.3
		c0,0.5,0,1,0,1.5c0.1,5.3,0.1,10.6,0.2,15.9c0,0.5,0,1,0,1.5c0.1,5.1,0.1,10.3,0.2,15.4c0,0.5,0,1,0,1.5c0.1,4.7,0.1,9.4,0.2,14
		c0,0.5,0,1,0,1.5c0.1,4.4,0.1,8.8,0.2,13.1c0,0.5,0,1,0,1.5c0.1,4.2,0.1,8.4,0.2,12.5c0,0.5,0,1,0,1.5c0.1,3.9,0.1,7.7,0.2,11.5
		c0,0.5,0,1,0,1.5c0.1,3.7,0.1,7.3,0.2,10.9c0,0.5,0,1,0,1.5c0,3.4,0.1,6.8,0.1,10.1c0,0.5,0,1,0,1.5c0,3.3,0.1,6.5,0.1,9.6
		c0,0.5,0,1,0,1.5c0,3,0.1,5.9,0.1,8.7c0,0.5,0,1,0,1.5c0,2.9,0.1,5.7,0.1,8.4c0,0.5,0,1,0,1.5c0,2.6,0.1,5.1,0.1,7.5
		c0,0.5,0,1,0,1.5c0,2.7,0.1,5.1,0.1,7.4c0,0.5,0,1,0,1.5c0,2.4,0.1,4.6,0.1,6.5c0,0.5,0,1,0,1.5c0.1,5,0.1,8.1,0.1,8.8l-33.5-0.5
		l0.1-8.3l0-1.5l0.1-6.5l0-1.5l0.1-7.4l0-1.5l0.1-7.5l0-1.5l0.1-8.4l0-1.5l0.1-8.7l0-1.5l0.1-9.6l0-1.5l0.1-10.1l0-1.5l0.1-10.9
		l0-1.5l0.1-11.5l0-1.5l0.1-12.5l0-1.5l0.1-13.1l0-1.5l0.2-14l0-1.5l0.2-15.4l0-1.5l0.2-15.9l0-1.5l0.2-17.3l0-1.5l0.2-18.4l0-1.5
		l0.2-19.4l0-1.5l0.1-5c0-0.5,0.2-1.1,0.5-1.5c1-1.5,3.3-5.6,3.5-12.8c0-0.5,0-1.1,0-2c0-0.5,0-1,0-1.5c0.1-4.6,0.2-12.6,0.3-22.3
		c0-0.5,0-1,0-1.5c0.1-7.4,0.2-15.6,0.3-23.9c0-0.5,0-1,0-1.5c0.1-8.8,0.2-17.6,0.3-25.6c0-0.5,0-1,0-1.5
		c0.1-10.4,0.2-19.3,0.3-24.6c0-1.4-0.1-2.7-0.2-4c-0.1-1.2-0.3-2.4-0.6-3.6c-0.3-1.4-0.7-2.9-1.2-4.3c-2-5.4-5.5-13.3-11.1-20.9
		c-0.4-0.5-0.6-1.1-0.5-1.7l0.8-22c0-1,0.6-1.9,1.5-2.3c2-1,5.1-3.5,3.6-10c-1.6-7-6.5-9.3-8.6-10c-0.6-0.2-1-0.8-0.9-1.4
		c0.2-2.6,0.6-9.2-0.3-14.6c-0.6-3.6-0.8-7-0.8-9.3c0-2.8,0.9-5.6,2.6-7.8c2-2.6,5.3-5.7,10.8-7.7c7.6-2.7,11.9-5.4,13.9-6.8
		c0.8-0.6,1.8-0.6,2.6-0.2c2.6,1.4,8.3,4.5,11.3,5.6c2.9,1.1,9,3.9,12.9,8.1c2.1,2.3,3.2,5.4,3.3,8.6
		C392.4,24.9,392.2,28.4,391.6,32.2z"/>
	<path class="st0" d="M454,589.8c0,51.9-42.1,94-94,94c-51.9,0-94-42.1-94-94c0-51.9,42.1-94,94-94C411.9,495.8,454,537.9,454,589.8
		z"/>
	<path class="st0" d="M462.5,547.3c-5.6-13.6-13.9-25.8-24.1-36c-10.2-10.2-22.4-18.5-36-24.1c-13.1-5.4-27.4-8.4-42.5-8.4
		s-29.4,3-42.5,8.4c-13.6,5.6-25.8,13.9-36,24.1c-10.2,10.2-18.5,22.4-24.1,36c-5.4,13.1-8.4,27.4-8.4,42.5c0,15,3,29.4,8.4,42.5
		c5.6,13.6,13.9,25.8,24.1,36c10.2,10.2,22.4,18.5,36,24.1c13.1,5.4,27.4,8.4,42.5,8.4s29.4-3,42.5-8.4c13.6-5.6,25.8-13.9,36-24.1
		c10.2-10.2,18.5-22.4,24.1-36c5.4-13.1,8.4-27.4,8.4-42.5C471,574.7,468,560.4,462.5,547.3z M360,692.3
		c-56.6,0-102.5-45.9-102.5-102.5c0-56.6,45.9-102.5,102.5-102.5c56.6,0,102.5,45.9,102.5,102.5C462.5,646.4,416.6,692.3,360,692.3z
		"/>
	<circle cx="360" cy="589.8" r="89.7"/>
	<path class="st0" d="M339.4,702.7c0,0.6-0.6,1.1-1.2,1c-7.9-1.5-15.4-3.8-22.6-6.8c-14.2-5.9-26.9-14.5-37.6-25.2
		c-10.7-10.7-19.3-23.4-25.2-37.6c-3-7.1-5.2-14.7-6.7-22.4c-0.1-0.5,0.2-0.9,0.6-1.1c1.3-0.6,3.3-1,6.1-0.8
		c2.6,0.2,5.4,1.3,7.7,2.5c3.3,1.7,5.8,4.6,7.1,8c16.7,44.9,48.3,60.3,59.9,64.5C334.8,687.6,339.5,695,339.4,702.7z"/>
	<polyline class="st1" points="350.4,673.7 346.3,622.9 350.4,228.1 	"/>
	<polyline class="st2" points="373.3,673.7 377.4,622.9 372,120.9 375.9,83.1 	"/>
	<polyline class="st2" points="355.8,673.2 354.1,623.8 356.1,121.2 352.5,83.1 	"/>
	<polyline class="st2" points="361.9,672.9 361.4,121.1 348.6,34.7 	"/>
	<polyline class="st2" points="366.6,673.2 370,623.6 366.7,121 379.4,36 	"/>
	<path class="st0" d="M374.8,119.3c-0.3,1.2-0.5,2.4-0.6,3.6h-21.2c-0.1-1.2-0.3-2.4-0.6-3.6H374.8z"/>
	<path class="st0" d="M378.5,459.1h-32.7l0-1.5h32.6C378.5,458.1,378.5,458.6,378.5,459.1z"/>
	<path class="st0" d="M378.4,449.2H346l0-1.5h32.4C378.4,448.1,378.4,448.6,378.4,449.2z"/>
	<path class="st0" d="M378.2,438.9h-32.2l0-1.5h32.1C378.2,437.8,378.2,438.4,378.2,438.9z"/>
	<path class="st0" d="M374.4,153.1H353c0-0.5,0-1,0-1.5h21.4C374.4,152,374.4,152.6,374.4,153.1z"/>
	<path class="st0" d="M374.8,180.3h-22c0-0.5,0-1,0-1.5h22C374.7,179.2,374.7,179.7,374.8,180.3z"/>
	<path class="st0" d="M375.1,205.7h-22.7c0-0.5,0-1,0-1.5h22.6C375.1,204.7,375.1,205.2,375.1,205.7z"/>
	<path class="st0" d="M375.4,229.5h-23.3c0-0.5,0-1,0-1.5h23.2C375.4,228.5,375.4,229,375.4,229.5z"/>
	<path class="st0" d="M375.7,252.4h-27.6l0-1.5h27.6C375.7,251.3,375.7,251.9,375.7,252.4z"/>
	<path class="st0" d="M376,273.3h-28.1l0-1.5H376C376,272.3,376,272.8,376,273.3z"/>
	<path class="st0" d="M378.1,427.7h-31.9l0-1.5h31.9C378.1,426.7,378.1,427.2,378.1,427.7z"/>
	<path class="st0" d="M377.9,416.1h-31.6l0-1.5h31.6C377.9,415.1,377.9,415.6,377.9,416.1z"/>
	<path class="st0" d="M377.8,403.7h-31.3l0-1.5h31.3C377.8,402.6,377.8,403.1,377.8,403.7z"/>
	<path class="st0" d="M377.6,390.7h-31l0-1.5h31C377.6,389.6,377.6,390.1,377.6,390.7z"/>
	<path class="st0" d="M377.4,376.6h-30.7l0-1.5h30.6C377.4,375.6,377.4,376.1,377.4,376.6z"/>
	<path class="st0" d="M377.2,362h-30.3l0-1.5h30.3C377.2,361,377.2,361.5,377.2,362z"/>
	<path class="st0" d="M377,346.5h-29.9l0-1.5H377C377,345.4,377,345.9,377,346.5z"/>
	<path class="st0" d="M376.8,329.5h-29.5l0-1.5h29.5C376.7,328.5,376.8,329,376.8,329.5z"/>
	<path class="st0" d="M376.5,312.1h-29.1l0-1.5h29C376.5,311.1,376.5,311.6,376.5,312.1z"/>
	<path class="st0" d="M376.3,293.3h-28.6l0-1.5h28.6C376.3,292.3,376.3,292.8,376.3,293.3z"/>
	<path class="st0" d="M378.7,468.1h-32.9l0-1.5h32.9C378.6,467.1,378.6,467.6,378.7,468.1z"/>
	<g>
		<path class="st0" d="M378.8,477.1h-33.1l0-1.5h33.1C378.8,476.1,378.8,476.6,378.8,477.1z"/>
		<path class="st0" d="M378.9,485.1h-33.3l0-1.5h33.3C378.9,484.1,378.9,484.6,378.9,485.1z"/>
	</g>
	<g>
		<g>
			<path d="M325.7,75.5l-0.7,1.6c-1.6,3.3-1.6,7.2,0,10.6l0.7,1.6c0.3,0.6,1,1.1,1.7,1.1l4.4,0.1c0.9,0,1.6-0.5,1.9-1.3l1.4-4.3
				c0.5-1.6,0.5-3.4-0.1-5l-1.5-4.3c-0.3-0.8-1-1.3-1.9-1.3l-4.2,0.1C326.7,74.5,326,74.9,325.7,75.5z"/>
			<rect x="333.3" y="80.8" width="7.3" height="3.3"/>
		</g>
		<g>
			<path d="M401.6,75.5l0.7,1.6c1.6,3.3,1.6,7.2,0,10.6l-0.7,1.6c-0.3,0.6-1,1.1-1.7,1.1l-4.4,0.1c-0.9,0-1.6-0.5-1.9-1.3l-1.4-4.3
				c-0.5-1.6-0.5-3.4,0.1-5l1.5-4.3c0.3-0.8,1-1.3,1.9-1.3l4.2,0.1C400.6,74.5,401.2,74.9,401.6,75.5z"/>
			<rect x="386.7" y="80.8" transform="matrix(-1 -1.224647e-16 1.224647e-16 -1 780.6463 164.7781)" width="7.3" height="3.3"/>
		</g>
		<g>
			<path d="M321.7,27.9l-0.7,1.6c-1.6,3.3-1.6,7.2,0,10.6l0.7,1.6c0.3,0.6,1,1.1,1.7,1.1l4.4,0.1c0.9,0,1.6-0.5,1.9-1.3l1.4-4.3
				c0.5-1.6,0.5-3.4-0.1-5l-1.5-4.3c-0.3-0.8-1-1.3-1.9-1.3l-4.2,0.1C322.7,26.9,322,27.3,321.7,27.9z"/>
			<rect x="329.3" y="33.1" width="7.3" height="3.3"/>
		</g>
		<g>
			<path d="M405.6,27.9l0.7,1.6c1.6,3.3,1.6,7.2,0,10.6l-0.7,1.6c-0.3,0.6-1,1.1-1.7,1.1l-4.4,0.1c-0.9,0-1.6-0.5-1.9-1.3l-1.4-4.3
				c-0.5-1.6-0.5-3.4,0.1-5l1.5-4.3c0.3-0.8,1-1.3,1.9-1.3l4.2,0.1C404.6,26.9,405.3,27.3,405.6,27.9z"/>
			<rect x="390.7" y="33.1" transform="matrix(-1 -1.224647e-16 1.224647e-16 -1 788.7011 69.5563)" width="7.3" height="3.3"/>
		</g>
	</g>
	<g>
		<g>
			<path class="st0" d="M349,32.2c0,1.4-1.1,2.6-2.6,2.6c-1.4,0-2.6-1.1-2.6-2.6c0-1.4,1.1-2.6,2.6-2.6
				C347.8,29.6,349,30.7,349,32.2z"/>
			<path class="st0" d="M349.8,34.4c0,1.7-1.5,3.1-3.4,3.1c-1.9,0-3.4-1.4-3.4-3.1c0-1.7,1.5-3.1,3.4-3.1
				C348.3,31.3,349.8,32.7,349.8,34.4z"/>
		</g>
		<g>
			<path class="st0" d="M384.3,32.2c0,1.4-1.1,2.6-2.6,2.6s-2.6-1.1-2.6-2.6c0-1.4,1.1-2.6,2.6-2.6S384.3,30.7,384.3,32.2z"/>
			<path class="st0" d="M385.1,34.4c0,1.7-1.5,3.1-3.4,3.1s-3.4-1.4-3.4-3.1c0-1.7,1.5-3.1,3.4-3.1S385.1,32.7,385.1,34.4z"/>
		</g>
		<g>
			<g>
				<path class="st0" d="M353,80c0,1.4-1.1,2.6-2.6,2.6c-1.4,0-2.6-1.1-2.6-2.6c0-1.4,1.1-2.6,2.6-2.6C351.9,77.5,353,78.6,353,80z"
					/>
				<path class="st0" d="M353.9,82.2c0,1.7-1.5,3.1-3.4,3.1c-1.9,0-3.4-1.4-3.4-3.1c0-1.7,1.5-3.1,3.4-3.1
					C352.3,79.2,353.9,80.5,353.9,82.2z"/>
			</g>
			<g>
				<path class="st0" d="M380.8,80c0,1.4-1.1,2.6-2.6,2.6c-1.4,0-2.6-1.1-2.6-2.6c0-1.4,1.1-2.6,2.6-2.6
					C379.7,77.5,380.8,78.6,380.8,80z"/>
				<path class="st0" d="M381.7,82.2c0,1.7-1.5,3.1-3.4,3.1c-1.9,0-3.4-1.4-3.4-3.1c0-1.7,1.5-3.1,3.4-3.1
					C380.1,79.2,381.7,80.5,381.7,82.2z"/>
			</g>
		</g>
	</g>
	<path class="st3" d="M381.8,493.5"/>
	<g>
		<path class="st0" d="M365.5,193c0,1-0.8,1.8-1.8,1.8c-1,0-1.8-0.8-1.8-1.8c0-1,0.8-1.8,1.8-1.8C364.7,191.2,365.5,192,365.5,193z"
			/>
		<path class="st0" d="M365.5,240.2c0,1-0.8,1.8-1.8,1.8c-1,0-1.8-0.8-1.8-1.8c0-1,0.8-1.8,1.8-1.8
			C364.7,238.5,365.5,239.2,365.5,240.2z"/>
		<path class="st0" d="M363.7,282.5c0,1-0.8,1.8-1.8,1.8c-1,0-1.8-0.8-1.8-1.8c0-1,0.8-1.8,1.8-1.8
			C362.9,280.7,363.7,281.5,363.7,282.5z"/>
		<path class="st0" d="M363.8,336.8c0,1-0.8,1.8-1.8,1.8c-1,0-1.8-0.8-1.8-1.8c0-1,0.8-1.8,1.8-1.8C363,335,363.8,335.8,363.8,336.8
			z"/>
		<g>
			<path class="st0" d="M354.7,368.7c0,1-0.8,1.8-1.8,1.8c-1,0-1.8-0.8-1.8-1.8c0-1,0.8-1.8,1.8-1.8
				C353.9,367,354.7,367.7,354.7,368.7z"/>
			<path class="st0" d="M372.9,368.7c0,1-0.8,1.8-1.8,1.8c-1,0-1.8-0.8-1.8-1.8c0-1,0.8-1.8,1.8-1.8
				C372.1,367,372.9,367.7,372.9,368.7z"/>
		</g>
		<path class="st0" d="M363.9,409.3c0,1-0.8,1.8-1.8,1.8c-1,0-1.8-0.8-1.8-1.8c0-1,0.8-1.8,1.8-1.8
			C363.1,407.5,363.9,408.3,363.9,409.3z"/>
		<path class="st0" d="M363.9,431.9c0,1-0.8,1.8-1.8,1.8c-1,0-1.8-0.8-1.8-1.8c0-1,0.8-1.8,1.8-1.8
			C363.1,430.2,363.9,431,363.9,431.9z"/>
	</g>
	<path class="st0" d="M385.5,625.8h-47.1c-1.4,0-2.5-1.1-2.5-2.5v-0.7c0-1.4,1.1-2.5,2.5-2.5h47.1c1.4,0,2.5,1.1,2.5,2.5v0.7
		C388,624.7,386.9,625.8,385.5,625.8z"/>
	<path d="M370.7,712.8H352c-1.2,0-2.3-0.9-2.4-2.1l-3.5-34.4c-0.2-1.5,1-2.8,2.5-2.8h25.5c1.5,0,2.7,1.3,2.5,2.8l-3.5,34.4
		C372.9,711.9,371.9,712.8,370.7,712.8z"/>
	<g>
		<rect x="360.4" y="710.9" width="1.8" height="4.1"/>
		<path d="M364,716.8c0,1.8-1.2,3.2-2.7,3.2c-1.5,0-2.7-1.4-2.7-3.2c0-1.8,1.2-3.2,2.7-3.2C362.8,713.6,364,715,364,716.8z"/>
	</g>
	<g>
		<path d="M328.1,221.9l-0.9,1.6c-1.9,3.3-1.9,7.2,0,10.6l0.9,1.6c0.4,0.6,1.1,1.1,2,1.1l5.2,0.1c1,0,1.9-0.5,2.2-1.3l1.7-4.3
			c0.6-1.6,0.6-3.4-0.1-5l-1.8-4.3c-0.3-0.8-1.2-1.3-2.2-1.3l-5,0.1C329.3,220.8,328.5,221.3,328.1,221.9z"/>
		<path d="M342,231.5h-2c-0.9,0-1.5-0.7-1.5-1.5v-2.3c0-0.9,0.7-1.5,1.5-1.5h2c0.9,0,1.5,0.7,1.5,1.5v2.3
			C343.5,230.8,342.8,231.5,342,231.5z"/>
		<path d="M344,232.3h-2c-0.9,0-1.5-0.7-1.5-1.5v-4c0-0.9,0.7-1.5,1.5-1.5h2c0.9,0,1.5,0.7,1.5,1.5v4
			C345.5,231.6,344.8,232.3,344,232.3z"/>
		<path d="M349.3,233.1h-5c-0.9,0-1.5-0.7-1.5-1.5V226c0-0.9,0.7-1.5,1.5-1.5h5c0.9,0,1.5,0.7,1.5,1.5v5.6
			C350.9,232.4,350.2,233.1,349.3,233.1z"/>
	</g>
	<path d="M350.1,222c0,2.2-1.5,4.1-3.3,4.1c-1.8,0-3.3-1.8-3.3-4.1c0-2.2,1.5-4.1,3.3-4.1C348.6,217.9,350.1,219.7,350.1,222z"/>
</g>
</svg>
