<?xml version="1.0" encoding="utf-8"?>
<!-- Generator: Adobe Illustrator 23.0.2, SVG Export Plug-In . SVG Version: 6.00 Build 0)  -->
<!DOCTYPE svg PUBLIC "-//W3C//DTD SVG 1.1//EN" "http://www.w3.org/Graphics/SVG/1.1/DTD/svg11.dtd" [
	<!ENTITY ns_extend "http://ns.adobe.com/Extensibility/1.0/">
	<!ENTITY ns_ai "http://ns.adobe.com/AdobeIllustrator/10.0/">
	<!ENTITY ns_graphs "http://ns.adobe.com/Graphs/1.0/">
	<!ENTITY ns_vars "http://ns.adobe.com/Variables/1.0/">
	<!ENTITY ns_imrep "http://ns.adobe.com/ImageReplacement/1.0/">
	<!ENTITY ns_sfw "http://ns.adobe.com/SaveForWeb/1.0/">
	<!ENTITY ns_custom "http://ns.adobe.com/GenericCustomNamespace/1.0/">
	<!ENTITY ns_adobe_xpath "http://ns.adobe.com/XPath/1.0/">
]>
<svg version="1.1" id="Layer_1" xmlns:x="&ns_extend;" xmlns:i="&ns_ai;" xmlns:graph="&ns_graphs;"
	 xmlns="http://www.w3.org/2000/svg" xmlns:xlink="http://www.w3.org/1999/xlink" x="0px" y="0px" viewBox="0 0 720 720"
	 style="enable-background:new 0 0 720 720;" xml:space="preserve">
<style type="text/css">
	.Drop_x0020_Shadow{fill:none;}
	.Round_x0020_Corners_x0020_2_x0020_pt{fill:#FFFFFF;stroke:#231F20;stroke-miterlimit:10;}
	.Live_x0020_Reflect_x0020_X{fill:none;}
	.Bevel_x0020_Soft{fill:url(#SVGID_1_);}
	.Dusk{fill:#FFFFFF;}
	.Foliage_GS{fill:#FFDD00;}
	.Pompadour_GS{fill-rule:evenodd;clip-rule:evenodd;fill:#44ADE2;}
	.st0{fill:#FFFFFF;}
	.st1{fill:#FFFFFF;stroke:#000000;stroke-width:0.6965;stroke-miterlimit:10;}
	.st2{fill:none;stroke:#000000;stroke-width:0.6965;stroke-miterlimit:10;}
</style>
<metadata>
	<sfw  xmlns="&ns_sfw;">
		<slices></slices>
		<sliceSourceBounds  bottomLeftOrigin="true" height="720" width="236.9" x="241.5" y="-720"></sliceSourceBounds>
	</sfw>
</metadata>
<linearGradient id="SVGID_1_" gradientUnits="userSpaceOnUse" x1="0" y1="0" x2="0.7071" y2="0.7071">
	<stop  offset="0" style="stop-color:#DEDFE3"/>
	<stop  offset="0.1783" style="stop-color:#DADBDF"/>
	<stop  offset="0.3611" style="stop-color:#CECFD3"/>
	<stop  offset="0.546" style="stop-color:#B9BCBF"/>
	<stop  offset="0.7324" style="stop-color:#9CA0A2"/>
	<stop  offset="0.9181" style="stop-color:#787D7E"/>
	<stop  offset="1" style="stop-color:#656B6C"/>
</linearGradient>
<g>
	<path d="M457,569.9c-9-14-19.2-34.5-9.2-56c10-21.5,15.9-36.5,14.2-58.4c-0.7-9.6-5.7-17.4-11.1-23.1c-5.2-5.5-14.5-2.5-15.5,5
		c-2,14.5-8,33.6-25.2,34.7c-28,1.7-31-18-31-18l-31.2-62.4c0,0,0.2,56.9-32.5,45.8c-18.7-6.4-23.3-26.3-23.8-42.1
		c-0.1-3.5-1.7-6.2-4-8l0.2-0.4c0.2-0.5-0.1-1.1-0.6-1.2l-0.2-0.1l3.3-3c0.5-0.4,0.4-1.2-0.2-1.5c-1.4-0.8-4.2-2-7.7-2.5
		c-0.6-0.1-1.2,0.5-1.1,1.1l0.8,4.3l0,0c-0.5-0.2-1,0.1-1.2,0.6l-0.2,0.5c-2.9,0-5.8,1.2-7.9,3.8c-15.7,18.6-19.6,48.1-8.7,76.4
		c14.6,38.1,23.4,59.3,1,102c-22.4,42.7-26,71.3-22.2,86.4c3.8,15,16.3,59.5,112.7,60.4l-2.3,4.1c-0.3,0.6,0,1.3,0.7,1.4
		c1.6,0.3,4.6,0.6,8.1,0c0.6-0.1,1-0.8,0.7-1.4l-2.2-4.1c97.8-0.2,110.3-21.3,116.6-55.4C483.4,624.5,466,583.9,457,569.9z"/>
	<path class="st0" d="M331,456.2c-5.3-1.9-10.5,2.9-9,8.3c4.5,16.2,9.1,46.3-5.6,75.6c-21.6,42.9-11.7,81.6,28.5,73.4l37,0.9
		c0,0,19.3-3.5,37.6,5.4c10.6,5.1,23.2,16.4,32.1,25.1c5.2,5.1,14.1,1.6,14.3-5.8c0.3-13-2.8-33.6-17.7-61.9
		c-28-53.4-8.1-64.3,0.7-85.8c6.8-16.7,5.8-34.6,0.9-44.4c-1.3-2.7-5.3-2-5.7,0.9c-1.6,11.5-7.4,33-28.1,35.7
		c-28.5,3.7-38.5-12.2-38.5-12.2l-29.9-7.5C347.7,463.9,341,459.9,331,456.2z"/>
	<path d="M402.2,20c-1.8-13.3-11.5-18.1-19.6-19.7c-6.1-1.3-12.1,2.4-13.8,8.3l-31.8,108.3c-0.5,1.6,0.2,3.3,1.6,4.2
		c0.1,0,0.1,0.1,0.2,0.1c5.5,3.5,8.8,9.6,8.6,16.1l-0.1,2.8l0,1.7l-0.5,26.3l0,1.7l-0.5,23.3l0,1.7l-0.5,22.2l0,1.7l-0.4,20.8l0,1.7
		l-0.4,19.3l0,1.7l-0.4,18l0,1.7l-0.4,17.1l0,1.7l-0.3,15.8l0,1.7l-0.3,15.2l0,1.7l-0.3,14.1l0,1.7l-0.3,13l0,1.7l-0.3,12.4l0,1.7
		l-0.2,11.7l0,1.7l-0.2,10.3l0,1.7l-0.2,10.4l0,1.7l-0.2,9.1l0,1.7l-0.2,8.7l0,1.7l-0.2,7.8l0,1.7l-0.2,8.2l0,1.7l-0.1,6.8l0,1.7
		l-0.1,6.5l0,1.7l-0.1,6.3l0,1.6c0,0,0.1,0,0.3,0.1c0.4,0.2,1.3,0.5,2.5,1c0.1,0.1,0.3,0.1,0.5,0.2c1.6,0.5,3.6,1.1,6.1,1.6
		c0.2,0,0.3,0.1,0.5,0.1c2,0.4,4.2,0.7,6.6,0.9c0.2,0,0.3,0,0.5,0c2,0.1,4.2,0.2,6.4,0.1c0.2,0,0.3,0,0.5,0c2.1-0.1,4.2-0.3,6.4-0.7
		c0.2,0,0.3-0.1,0.5-0.1c2.1-0.4,4.3-0.9,6.6-1.6c0.2,0,0.3-0.1,0.5-0.1c1.2-0.4,2.5-0.8,3.8-1.3c0,0,0,0,0,0l0-1.6l-0.1-6.3l0-1.7
		l-0.1-6.5l0-1.7l-0.1-6.8l0-1.7l-0.1-8.2l0-1.7l-0.1-7.8l0-1.7l-0.1-8.7l0-1.7l-0.1-9.1l0-1.7l-0.1-10.4l0-1.7l-0.1-10.3l0-1.7
		l-0.1-11.7l0-1.7l-0.1-12.4l0-1.7l-0.1-13l0-1.7l-0.1-14.1l0-1.7l-0.2-15.2l0-1.7l-0.2-15.8l0-1.7l-0.2-17.1l0-1.7l-0.2-18l0-1.7
		l-0.2-19.3l0-1.7l-0.2-20.8l0-1.7l-0.2-22.2l0-1.7l-0.2-23.3l0-1.7l-0.3-26.3l0-1.7l-0.1-6.9c0-2.7,0.5-5.5,1.7-8
		c4.3-9.3,11.7-15.1,14.9-17.3c1-0.7,1.6-1.8,1.5-3.1c-0.4-7.2-1.9-32.3-6.1-50.9c-4.1-18.2,6.9-28.4,10.8-31.3
		C401.9,22,402.4,21,402.2,20z"/>
	<g>
		<path class="st0" d="M379.1,22.5c-0.8,2.7-3.6,4.2-6.3,3.4c-2.7-0.8-4.2-3.6-3.4-6.3c0.8-2.7,3.6-4.2,6.3-3.4
			C378.4,17,379.9,19.8,379.1,22.5z"/>
		<path class="st0" d="M373.8,40.2c-0.8,2.7-3.6,4.2-6.3,3.4c-2.7-0.8-4.2-3.6-3.4-6.3c0.8-2.7,3.6-4.2,6.3-3.4
			C373.1,34.8,374.6,37.6,373.8,40.2z"/>
		<path class="st0" d="M368.6,58c-0.8,2.7-3.6,4.2-6.3,3.4c-2.7-0.8-4.2-3.6-3.4-6.3c0.8-2.7,3.6-4.2,6.3-3.4S369.3,55.3,368.6,58z"
			/>
		<path class="st0" d="M363.3,75.7c-0.8,2.7-3.6,4.2-6.3,3.4c-2.7-0.8-4.2-3.6-3.4-6.3c0.8-2.7,3.6-4.2,6.3-3.4
			C362.6,70.2,364.1,73,363.3,75.7z"/>
		<path class="st0" d="M358,93.4c-0.8,2.7-3.6,4.2-6.3,3.4s-4.2-3.6-3.4-6.3c0.8-2.7,3.6-4.2,6.3-3.4
			C357.3,87.9,358.8,90.7,358,93.4z"/>
		<path class="st0" d="M352.7,111.1c-0.8,2.7-3.6,4.2-6.3,3.4c-2.7-0.8-4.2-3.6-3.4-6.3c0.8-2.7,3.6-4.2,6.3-3.4
			C352,105.7,353.5,108.5,352.7,111.1z"/>
	</g>
	<g>
		<path d="M369.2,13.5l-6.4-2c-0.5-0.2-0.9-0.6-1-1.1l-0.7-2.9c-0.2-0.7-0.7-1.3-1.4-1.5l-2.2-0.5c-0.8-0.2-1.6,0.1-2.1,0.7L353.4,9
			c-0.8,1.1-1.1,2.5-1,3.8l0.5,3.5c0.1,0.8,0.7,1.4,1.5,1.6l2.2,0.5c0.7,0.2,1.5-0.1,2-0.6l1.4-1.7c0.4-0.4,1-0.6,1.5-0.5l6.5,1.8
			L369.2,13.5z"/>
		<path d="M364.1,31.2l-6.4-2c-0.5-0.2-0.9-0.6-1-1.1l-0.7-2.9c-0.2-0.7-0.7-1.3-1.4-1.5l-2.2-0.5c-0.8-0.2-1.6,0.1-2.1,0.7
			l-2.1,2.8c-0.8,1.1-1.1,2.5-1,3.8l0.5,3.5c0.1,0.8,0.7,1.4,1.5,1.6l2.2,0.5c0.7,0.2,1.5-0.1,2-0.6l1.4-1.7c0.4-0.4,1-0.6,1.5-0.5
			l6.5,1.8L364.1,31.2z"/>
		<path d="M358.9,48.9l-6.4-2c-0.5-0.2-0.9-0.6-1-1.1l-0.7-2.9c-0.2-0.7-0.7-1.3-1.4-1.5l-2.2-0.5c-0.8-0.2-1.6,0.1-2.1,0.7
			l-2.1,2.8c-0.8,1.1-1.1,2.5-1,3.8l0.5,3.5c0.1,0.8,0.7,1.4,1.5,1.6l2.2,0.5c0.7,0.2,1.5-0.1,2-0.6l1.4-1.7c0.4-0.4,1-0.6,1.5-0.5
			l6.5,1.8L358.9,48.9z"/>
		<path d="M353.8,66.7l-6.4-2c-0.5-0.2-0.9-0.6-1-1.1l-0.7-2.9c-0.2-0.7-0.7-1.3-1.4-1.5l-2.2-0.5c-0.8-0.2-1.6,0.1-2.1,0.7
			l-2.1,2.8c-0.8,1.1-1.1,2.5-1,3.8l0.5,3.5c0.1,0.8,0.7,1.4,1.5,1.6l2.2,0.5c0.7,0.2,1.5-0.1,2-0.6l1.4-1.7c0.4-0.4,1-0.6,1.5-0.5
			l6.5,1.8L353.8,66.7z"/>
		<path d="M348.6,84.4l-6.4-2c-0.5-0.2-0.9-0.6-1-1.1l-0.7-2.9c-0.2-0.7-0.7-1.3-1.4-1.5l-2.2-0.5c-0.8-0.2-1.6,0.1-2.1,0.7
			l-2.1,2.8c-0.8,1.1-1.1,2.5-1,3.8l0.5,3.5c0.1,0.8,0.7,1.4,1.5,1.6l2.2,0.5c0.7,0.2,1.5-0.1,2-0.6l1.4-1.7c0.4-0.4,1-0.6,1.5-0.5
			l6.5,1.8L348.6,84.4z"/>
		<path d="M343.4,102.1l-6.4-2c-0.5-0.2-0.9-0.6-1-1.1l-0.7-2.9c-0.2-0.7-0.7-1.3-1.4-1.5l-2.2-0.5c-0.8-0.2-1.6,0.1-2.1,0.7
			l-2.1,2.8c-0.8,1.1-1.1,2.5-1,3.8l0.5,3.5c0.1,0.8,0.7,1.4,1.5,1.6l2.2,0.5c0.7,0.2,1.5-0.1,2-0.6l1.4-1.7c0.4-0.4,1-0.6,1.5-0.5
			l6.5,1.8L343.4,102.1z"/>
	</g>
	<path class="st1" d="M386.5,614.3v-7.8c0-0.8-0.6-1.4-1.4-1.4h-51c-0.8,0-1.4,0.6-1.4,1.4v29.1c0,0.8,0.6,1.4,1.4,1.4h51
		c0.8,0,1.4-0.6,1.4-1.4l0,0c0-0.8,0.6-1.4,1.4-1.4h4.1c0.8,0,1.4-0.6,1.4-1.4v-15.7c0-0.8-0.6-1.4-1.4-1.4h-4.1
		C387.2,615.7,386.5,615.1,386.5,614.3z"/>
	<g>
		<polygon class="st0" points="381.5,448.2 341,448.2 341.1,446.5 381.5,446.5 		"/>
		<polygon class="st0" points="381.4,438.8 341.2,438.8 341.3,437 381.4,437 		"/>
		<polygon class="st0" points="381.3,428.3 341.4,428.3 341.5,426.6 381.3,426.6 		"/>
		<polygon class="st0" points="381.2,417.5 341.7,417.5 341.7,415.7 381.1,415.7 		"/>
		<polygon class="st0" points="381,405.3 341.9,405.3 341.9,403.6 381,403.6 		"/>
		<polygon class="st0" points="380.9,393.3 342.2,393.3 342.2,391.5 380.9,391.5 		"/>
		<polygon class="st0" points="380.8,379.9 342.4,379.9 342.5,378.1 380.8,378.1 		"/>
		<polygon class="st0" points="380.6,365.7 342.7,365.7 342.8,364 380.6,364 		"/>
		<polygon class="st0" points="380.5,351 343,351 343.1,349.3 380.5,349.3 		"/>
		<polygon class="st0" points="380.3,335.3 343.4,335.3 343.4,333.5 380.3,333.5 		"/>
		<polygon class="st0" points="380.2,318.4 343.7,318.4 343.8,316.7 380.2,316.7 		"/>
		<polygon class="st0" points="380,300.9 344.1,300.9 344.1,299.1 380,299.1 		"/>
		<polygon class="st0" points="379.8,282 344.5,282 344.5,280.3 379.8,280.3 		"/>
		<polygon class="st0" points="379.6,262.3 344.9,262.3 344.9,260.6 379.6,260.6 		"/>
		<polygon class="st0" points="379.4,241.3 345.3,241.3 345.4,239.6 379.4,239.6 		"/>
		<polygon class="st0" points="379.2,218.8 345.8,218.8 345.8,217 379.2,217 		"/>
		<polygon class="st0" points="378.9,194.8 346.3,194.8 346.3,193.1 378.9,193.1 		"/>
		<polygon class="st0" points="378.7,169.8 346.8,169.8 346.9,168 378.7,168 		"/>
		<polygon class="st0" points="378.4,141.8 347.4,141.8 347.4,140.1 378.4,140.1 		"/>
		<polygon class="st0" points="381.6,458.2 340.8,458.2 340.8,456.5 381.6,456.5 		"/>
		<polygon class="st0" points="381.7,466.7 340.6,466.7 340.7,465 381.6,465 		"/>
		<polygon class="st0" points="381.7,474.9 340.5,474.9 340.5,473.2 381.7,473.2 		"/>
		<path class="st0" d="M381.8,482.7c-0.1,0-0.2,0.1-0.3,0.1h-41c-0.2-0.1-0.3-0.1-0.3-0.1l0-1.6h41.5L381.8,482.7z"/>
	</g>
	<g>
		<path d="M343.5,484l-2.8,138.7l-0.5,0l2.8-138.8C343.2,483.9,343.4,483.9,343.5,484z"/>
		<path class="st0" d="M351,112.1l-0.3,14.2L343.5,484c-0.2-0.1-0.3-0.1-0.5-0.2l7.1-357.5l0.3-14.2L351,112.1z"/>
	</g>
	<g>
		<path d="M350.1,485.7l-2,136.2l-0.5,0l2-136.3C349.8,485.6,350,485.7,350.1,485.7z"/>
		<path class="st0" d="M355.9,92.9l-0.5,33.5l-5.3,359.3c-0.2,0-0.3-0.1-0.5-0.1l5.3-359.2l0.5-33.5L355.9,92.9z"/>
	</g>
	<g>
		<path d="M357.2,486.6l-1.3,135.2l-0.5,0l1.3-135.2C356.9,486.6,357.1,486.6,357.2,486.6z"/>
		<path class="st0" d="M361,77l-0.5,49.4l-3.4,360.2c-0.2,0-0.3,0-0.5,0l3.4-360.2l0.5-49.4H361z"/>
	</g>
	<g>
		<path d="M364.1,486.6l-0.6,135.2l-0.5,0l0.6-135.2C363.8,486.7,363.9,486.6,364.1,486.6z"/>
		<path class="st0" d="M366,59l-0.3,67.4l-1.6,360.2c-0.2,0-0.3,0-0.5,0l1.6-360.2l0.3-67.4H366z"/>
	</g>
	<g>
		<path d="M371.1,622.2h-0.5l-0.1-136.3c0.2,0,0.3-0.1,0.5-0.1L371.1,622.2z"/>
		<path class="st0" d="M371,485.8c-0.2,0-0.3,0.1-0.5,0.1l-0.2-359.5l0-86.8h0.5l0,86.8L371,485.8z"/>
	</g>
	<g>
		<path d="M378.8,622.5h-0.5l-0.7-138.3c0.2,0,0.3-0.1,0.5-0.1L378.8,622.5z"/>
		<path class="st0" d="M378.1,484.1c-0.2,0.1-0.3,0.1-0.5,0.1l-1.8-357.7l-0.5-101.8h0.5l0.5,101.8L378.1,484.1z"/>
	</g>
	<g>
		<g>
			<path class="st0" d="M364.9,205.6c0,1.4-1.1,2.5-2.5,2.5c-1.4,0-2.5-1.1-2.5-2.5c0-1.4,1.1-2.5,2.5-2.5
				C363.8,203,364.9,204.2,364.9,205.6z"/>
			<path class="st0" d="M364.9,250.3c0,1.4-1.1,2.5-2.5,2.5c-1.4,0-2.5-1.1-2.5-2.5c0-1.4,1.1-2.5,2.5-2.5
				C363.8,247.7,364.9,248.9,364.9,250.3z"/>
			<circle class="st0" cx="361.9" cy="290" r="2.5"/>
			<path class="st0" d="M364.2,326c0,1.4-1.1,2.5-2.5,2.5c-1.4,0-2.5-1.1-2.5-2.5c0-1.4,1.1-2.5,2.5-2.5
				C363.1,323.5,364.2,324.6,364.2,326z"/>
			<path class="st0" d="M353.4,371.8c0,1.4-1.1,2.5-2.5,2.5c-1.4,0-2.5-1.1-2.5-2.5c0-1.4,1.1-2.5,2.5-2.5
				C352.3,369.3,353.4,370.4,353.4,371.8z"/>
			<path class="st0" d="M373.7,371.8c0,1.4-1.1,2.5-2.5,2.5c-1.4,0-2.5-1.1-2.5-2.5c0-1.4,1.1-2.5,2.5-2.5
				C372.6,369.3,373.7,370.4,373.7,371.8z"/>
			<path class="st0" d="M363.5,410.2c0,1.4-1.1,2.5-2.5,2.5c-1.4,0-2.5-1.1-2.5-2.5s1.1-2.5,2.5-2.5
				C362.4,407.7,363.5,408.8,363.5,410.2z"/>
		</g>
		<path class="st0" d="M363.4,432.4c0,1.4-1.1,2.5-2.5,2.5c-1.4,0-2.5-1.1-2.5-2.5c0-1.4,1.1-2.5,2.5-2.5
			C362.3,429.9,363.4,431,363.4,432.4z"/>
		<path class="st0" d="M363.2,469.5c0,1.4-1.1,2.5-2.5,2.5c-1.4,0-2.5-1.1-2.5-2.5c0-1.4,1.1-2.5,2.5-2.5
			C362.1,467,363.2,468.1,363.2,469.5z"/>
		<circle class="st0" cx="360.7" cy="452.3" r="2.5"/>
	</g>
	<path d="M348.4,638.2h-0.5c-0.8,0-1.4-0.6-1.4-1.4v-4.6c0-0.8,0.6-1.4,1.4-1.4h0.5c0.8,0,1.4,0.6,1.4,1.4v4.6
		C349.8,637.6,349.2,638.2,348.4,638.2z"/>
	<path d="M356.1,638.2h-0.5c-0.8,0-1.4-0.6-1.4-1.4v-4.6c0-0.8,0.6-1.4,1.4-1.4h0.5c0.8,0,1.4,0.6,1.4,1.4v4.6
		C357.5,637.6,356.9,638.2,356.1,638.2z"/>
	<path d="M363.8,638.2h-0.5c-0.8,0-1.4-0.6-1.4-1.4v-4.6c0-0.8,0.6-1.4,1.4-1.4h0.5c0.8,0,1.4,0.6,1.4,1.4v4.6
		C365.2,637.6,364.6,638.2,363.8,638.2z"/>
	<path d="M371.5,638.2H371c-0.8,0-1.4-0.6-1.4-1.4v-4.6c0-0.8,0.6-1.4,1.4-1.4h0.5c0.8,0,1.4,0.6,1.4,1.4v4.6
		C372.9,637.6,372.3,638.2,371.5,638.2z"/>
	<path d="M379.2,638.2h-0.5c-0.8,0-1.4-0.6-1.4-1.4v-4.6c0-0.8,0.6-1.4,1.4-1.4h0.5c0.8,0,1.4,0.6,1.4,1.4v4.6
		C380.6,637.6,380,638.2,379.2,638.2z"/>
	<path class="st2" d="M377.5,594.8h-35.6c-3.3,0-6-2.4-6.5-5.5c-0.1-0.6,0-1.3,0.2-1.9l0,0c1.6-3.7,1.6-8,0-11.7l0,0
		c-0.2-0.6-0.3-1.2-0.2-1.9c0.5-3.1,3.3-5.5,6.5-5.5h35.6c3.3,0,6,2.4,6.5,5.5c0.1,0.6,0,1.3-0.2,1.9l0,0c-1.6,3.7-1.6,8,0,11.7l0,0
		c0.2,0.6,0.3,1.2,0.2,1.9C383.5,592.4,380.8,594.8,377.5,594.8z"/>
	<g>
		<g>
			<circle cx="341.5" cy="575.2" r="1.8"/>
			<circle cx="348.6" cy="575.2" r="1.8"/>
			<path d="M358,575.2c0,1-0.8,1.8-1.8,1.8c-1,0-1.8-0.8-1.8-1.8c0-1,0.8-1.8,1.8-1.8C357.2,573.4,358,574.2,358,575.2z"/>
			<path d="M365.3,575.2c0,1-0.8,1.8-1.8,1.8c-1,0-1.8-0.8-1.8-1.8c0-1,0.8-1.8,1.8-1.8C364.5,573.4,365.3,574.2,365.3,575.2z"/>
			<path d="M372.7,575.2c0,1-0.8,1.8-1.8,1.8s-1.8-0.8-1.8-1.8c0-1,0.8-1.8,1.8-1.8S372.7,574.2,372.7,575.2z"/>
			<path d="M380.1,575.2c0,1-0.8,1.8-1.8,1.8s-1.8-0.8-1.8-1.8c0-1,0.8-1.8,1.8-1.8S380.1,574.2,380.1,575.2z"/>
			<circle cx="341.5" cy="588.5" r="1.8"/>
			<circle cx="348.6" cy="588.5" r="1.8"/>
			<path d="M358,588.5c0,1-0.8,1.8-1.8,1.8c-1,0-1.8-0.8-1.8-1.8s0.8-1.8,1.8-1.8C357.2,586.7,358,587.5,358,588.5z"/>
			<path d="M365.3,588.5c0,1-0.8,1.8-1.8,1.8c-1,0-1.8-0.8-1.8-1.8s0.8-1.8,1.8-1.8C364.5,586.7,365.3,587.5,365.3,588.5z"/>
			<path d="M372.7,588.5c0,1-0.8,1.8-1.8,1.8s-1.8-0.8-1.8-1.8s0.8-1.8,1.8-1.8S372.7,587.5,372.7,588.5z"/>
			<path d="M380.1,588.5c0,1-0.8,1.8-1.8,1.8s-1.8-0.8-1.8-1.8s0.8-1.8,1.8-1.8S380.1,587.5,380.1,588.5z"/>
		</g>
		<g>
			<g>
				<path d="M460.5,641.2c0,1.3-1,2.3-2.3,2.3c-1.3,0-2.3-1-2.3-2.3c0-1.3,1-2.3,2.3-2.3C459.4,638.9,460.5,639.9,460.5,641.2z"/>
				<path d="M453.4,596c0,1.3-1,2.3-2.3,2.3c-1.3,0-2.3-1-2.3-2.3c0-1.3,1-2.3,2.3-2.3C452.3,593.6,453.4,594.7,453.4,596z"/>
				<path d="M434.2,553.4c0,1.3-1,2.3-2.3,2.3s-2.3-1-2.3-2.3c0-1.3,1-2.3,2.3-2.3S434.2,552.1,434.2,553.4z"/>
				<path d="M436.8,511.3c0,1.3-1,2.3-2.3,2.3c-1.3,0-2.3-1-2.3-2.3c0-1.3,1-2.3,2.3-2.3C435.7,509,436.8,510,436.8,511.3z"/>
				<path d="M389.4,486.3c0,1.3-1,2.3-2.3,2.3s-2.3-1-2.3-2.3s1-2.3,2.3-2.3S389.4,485,389.4,486.3z"/>
				<path d="M330.1,461.3c0,1.3-1,2.3-2.3,2.3c-1.3,0-2.3-1-2.3-2.3c0-1.3,1-2.3,2.3-2.3C329.1,459,330.1,460,330.1,461.3z"/>
				<path d="M327.5,533c0,1.3-1,2.3-2.3,2.3s-2.3-1-2.3-2.3c0-1.3,1-2.3,2.3-2.3S327.5,531.8,327.5,533z"/>
				<path d="M312.8,572.3c0,1.3-1,2.3-2.3,2.3s-2.3-1-2.3-2.3c0-1.3,1-2.3,2.3-2.3S312.8,571,312.8,572.3z"/>
				<path d="M325.3,609.2c0,1.3-1,2.3-2.3,2.3s-2.3-1-2.3-2.3c0-1.3,1-2.3,2.3-2.3S325.3,608,325.3,609.2z"/>
				<path d="M394.6,610.3c0,1.3-1,2.3-2.3,2.3c-1.3,0-2.3-1-2.3-2.3c0-1.3,1-2.3,2.3-2.3C393.5,608,394.6,609,394.6,610.3z"/>
				<path d="M390.4,581.5c0,1.3-1,2.3-2.3,2.3c-1.3,0-2.3-1-2.3-2.3s1-2.3,2.3-2.3C389.4,579.2,390.4,580.2,390.4,581.5z"/>
				<path d="M333.7,581.5c0,1.3-1,2.3-2.3,2.3c-1.3,0-2.3-1-2.3-2.3s1-2.3,2.3-2.3C332.7,579.2,333.7,580.2,333.7,581.5z"/>
				<path d="M449.9,458.8c0,1.3-1,2.3-2.3,2.3c-1.3,0-2.3-1-2.3-2.3s1-2.3,2.3-2.3C448.9,456.5,449.9,457.5,449.9,458.8z"/>
			</g>
			<g>
				<g>
					<path d="M342.6,609.6c0,1.1-0.9,1.9-1.9,1.9c-1.1,0-1.9-0.9-1.9-1.9c0-1.1,0.9-1.9,1.9-1.9
						C341.7,607.7,342.6,608.6,342.6,609.6z"/>
					<path d="M350,609.6c0,1.1-0.9,1.9-1.9,1.9c-1.1,0-1.9-0.9-1.9-1.9c0-1.1,0.9-1.9,1.9-1.9C349.1,607.7,350,608.6,350,609.6z"/>
					<path d="M357.9,609.6c0,1.1-0.9,1.9-1.9,1.9c-1.1,0-1.9-0.9-1.9-1.9c0-1.1,0.9-1.9,1.9-1.9C357,607.7,357.9,608.6,357.9,609.6z
						"/>
					<path d="M365.5,609.6c0,1.1-0.9,1.9-1.9,1.9c-1.1,0-1.9-0.9-1.9-1.9c0-1.1,0.9-1.9,1.9-1.9
						C364.7,607.7,365.5,608.6,365.5,609.6z"/>
					<path d="M373.3,609.6c0,1.1-0.9,1.9-1.9,1.9c-1.1,0-1.9-0.9-1.9-1.9c0-1.1,0.9-1.9,1.9-1.9
						C372.4,607.7,373.3,608.6,373.3,609.6z"/>
					<circle cx="379.1" cy="609.6" r="1.9"/>
				</g>
				<path d="M340.7,638.2h-0.5c-0.8,0-1.4-0.6-1.4-1.4v-4.6c0-0.8,0.6-1.4,1.4-1.4h0.5c0.8,0,1.4,0.6,1.4,1.4v4.6
					C342.1,637.6,341.5,638.2,340.7,638.2z"/>
				<path d="M342,623.5c0,1.1-0.9,1.9-1.9,1.9c-1.1,0-1.9-0.9-1.9-1.9s0.9-1.9,1.9-1.9C341.2,621.6,342,622.4,342,623.5z"/>
				<path d="M349.4,623.5c0,1.1-0.9,1.9-1.9,1.9c-1.1,0-1.9-0.9-1.9-1.9s0.9-1.9,1.9-1.9C348.6,621.6,349.4,622.4,349.4,623.5z"/>
				<path d="M357.3,623.5c0,1.1-0.9,1.9-1.9,1.9c-1.1,0-1.9-0.9-1.9-1.9s0.9-1.9,1.9-1.9C356.5,621.6,357.3,622.4,357.3,623.5z"/>
				<path d="M365,623.5c0,1.1-0.9,1.9-1.9,1.9s-1.9-0.9-1.9-1.9s0.9-1.9,1.9-1.9S365,622.4,365,623.5z"/>
				<circle cx="370.8" cy="623.5" r="1.9"/>
				<path d="M380.5,623.5c0,1.1-0.9,1.9-1.9,1.9c-1.1,0-1.9-0.9-1.9-1.9s0.9-1.9,1.9-1.9C379.6,621.6,380.5,622.4,380.5,623.5z"/>
			</g>
		</g>
	</g>
</g>
</svg>
