<?xml version="1.0" encoding="utf-8"?>
<!-- Generator: Adobe Illustrator 23.0.2, SVG Export Plug-In . SVG Version: 6.00 Build 0)  -->
<!DOCTYPE svg PUBLIC "-//W3C//DTD SVG 1.1//EN" "http://www.w3.org/Graphics/SVG/1.1/DTD/svg11.dtd" [
	<!ENTITY ns_extend "http://ns.adobe.com/Extensibility/1.0/">
	<!ENTITY ns_ai "http://ns.adobe.com/AdobeIllustrator/10.0/">
	<!ENTITY ns_graphs "http://ns.adobe.com/Graphs/1.0/">
	<!ENTITY ns_vars "http://ns.adobe.com/Variables/1.0/">
	<!ENTITY ns_imrep "http://ns.adobe.com/ImageReplacement/1.0/">
	<!ENTITY ns_sfw "http://ns.adobe.com/SaveForWeb/1.0/">
	<!ENTITY ns_custom "http://ns.adobe.com/GenericCustomNamespace/1.0/">
	<!ENTITY ns_adobe_xpath "http://ns.adobe.com/XPath/1.0/">
]>
<svg version="1.1" id="Layer_1" xmlns:x="&ns_extend;" xmlns:i="&ns_ai;" xmlns:graph="&ns_graphs;"
	 xmlns="http://www.w3.org/2000/svg" xmlns:xlink="http://www.w3.org/1999/xlink" x="0px" y="0px" viewBox="0 0 720 720"
	 style="enable-background:new 0 0 720 720;" xml:space="preserve">
<style type="text/css">
	.Drop_x0020_Shadow{fill:none;}
	.Round_x0020_Corners_x0020_2_x0020_pt{fill:#FFFFFF;stroke:#231F20;stroke-miterlimit:10;}
	.Live_x0020_Reflect_x0020_X{fill:none;}
	.Bevel_x0020_Soft{fill:url(#SVGID_1_);}
	.Dusk{fill:#FFFFFF;}
	.Foliage_GS{fill:#FFDD00;}
	.Pompadour_GS{fill-rule:evenodd;clip-rule:evenodd;fill:#44ADE2;}
	.st0{fill:#FFFFFF;}
</style>
<metadata>
	<sfw  xmlns="&ns_sfw;">
		<slices></slices>
		<sliceSourceBounds  bottomLeftOrigin="true" height="720" width="340.9" x="189.6" y="-720"></sliceSourceBounds>
	</sfw>
</metadata>
<linearGradient id="SVGID_1_" gradientUnits="userSpaceOnUse" x1="0" y1="0" x2="0.7071" y2="0.7071">
	<stop  offset="0" style="stop-color:#DEDFE3"/>
	<stop  offset="0.1783" style="stop-color:#DADBDF"/>
	<stop  offset="0.3611" style="stop-color:#CECFD3"/>
	<stop  offset="0.546" style="stop-color:#B9BCBF"/>
	<stop  offset="0.7324" style="stop-color:#9CA0A2"/>
	<stop  offset="0.9181" style="stop-color:#787D7E"/>
	<stop  offset="1" style="stop-color:#656B6C"/>
</linearGradient>
<g>
	<path d="M529.3,699L404.6,383.3c-0.9-2.3-2.9-3.9-5.3-4.4c-10.2-2-15.9-10.5-18.9-18.1v0l0,0c-0.1-0.4-0.3-0.7-0.4-1
		c-1-2.6-1.7-5.1-2.1-7c0-0.1,0-0.2-0.1-0.2c-0.2-0.9-0.3-1.6-0.5-2.2c0-0.2-0.1-0.3-0.1-0.5c-0.1-0.8-0.2-1.3-0.2-1.3h-33.8
		c-0.1,0.4-0.1,0.9-0.2,1.3c0,0.2-0.1,0.5-0.1,0.7c-0.1,0.7-0.2,1.3-0.4,2c0,0.2-0.1,0.4-0.1,0.6v0c-0.6,2.4-1.3,4.6-2.2,6.6
		c-0.2,0.4-0.4,0.8-0.5,1.2c-5.3,10.9-14.9,15.7-19.8,17.4c-1.9,0.7-3.5,2.2-4.2,4.1L190.7,699c-6,15.2,12.7,27.9,24.7,16.8
		l125.4-116.7c10.9-10.1,27.7-10.1,38.5,0l125.3,116.7C516.6,726.9,535.3,714.1,529.3,699z M341.8,408.6h0.5l-0.1,4.9h-0.5
		L341.8,408.6z M371.2,413.6l-0.5,0l0-4.9h0.5L371.2,413.6z M349.2,408.6h0.5l0,4.9h-0.5L349.2,408.6z M371.7,483.5h-0.5l-0.3-43.7
		h0.5L371.7,483.5z M348.7,483.5l0.3-43.7h0.5l-0.3,43.7H348.7z M356.6,408.6h0.5l0,4.9h-0.5L356.6,408.6z M356.7,483.5l0-43.7h0.5
		l0,43.7H356.7z M363.2,483.5l0-43.7h0.5l0,43.7H363.2z M363.8,413.6l-0.5,0l0-4.9h0.5L363.8,413.6z M341.9,439.9l-0.5,43.7h-0.5
		l0.5-43.7H341.9z M379.5,483.5H379l-0.6-43.7h0.5L379.5,483.5z M340.3,526.8l0-0.4l0-1.3l0.2-15.3l0.5,0l-0.2,15.3l0,1.3l0,0.4
		l0,0.4h-0.5L340.3,526.8z M348.3,526.8l0-0.4l0-1.3l0.1-15.3h0.5l-0.1,15.3l0,1.3l0,0.4v0.4h-0.5V526.8z M356.7,526.5l0-1.3l0-15.3
		l0.5,0l0,15.3l0,1.3v0.8l-0.5,0V526.5z M363.2,526.5l0-1.3l0-15.3h0.5l0,15.3l0,1.3v0.8l-0.5,0V526.5z M371.6,526.8l0-0.4l0-1.3
		l-0.1-15.3h0.5l0.1,15.3l0,1.3l0,0.4v0.4h-0.5V526.8z M379.5,526.8l0-0.4l0-1.3l-0.2-15.3h0.5l0.2,15.3l0,1.3l0,0.4l0,0.4h-0.5
		L379.5,526.8z M378.1,413.6l-0.1-4.9h0.5l0.1,4.9H378.1z M340.1,544.6l0.1-9.2h0.5l-0.1,9.2H340.1z M348.2,544.6l0.1-9.2l0.5,0
		l-0.1,9.2L348.2,544.6z M356.7,535.4h0.5l0,9.2h-0.5L356.7,535.4z M363.2,544.6l0-9.2l0.5,0l0,9.2H363.2z M371.7,535.4h0.5l0.1,9.2
		l-0.5,0L371.7,535.4z M379.7,535.4l0.5,0l0.1,9.2l-0.5,0L379.7,535.4z"/>
	<path class="st0" d="M509.2,671.7L402.3,406.3c-0.4-0.9-1.2-1.5-2.2-1.5l-73.9,0c-1.1,0-2.1,0.8-2.3,1.9l-30.6,157.7
		c-0.4,2,2.1,3.3,3.5,1.8l19.9-20.5c0.7-0.7,1.6-1.1,2.6-1.1h20.7l0.1-9.2h0.5l-0.1,9.2h7.6l0.1-9.2l0.5,0l-0.1,9.2l8.1,0l0-9.2h0.5
		l0,9.2h6l0-9.2l0.5,0l0,9.2l8.1,0l-0.1-9.2h0.5l0.1,9.2l7.6,0l-0.1-9.2l0.5,0l0.1,9.2h15.1c2,0,3.6,1.6,3.6,3.6v53.4
		c0,0.8,0.4,1.6,1.1,2.1l105.5,70.8C507.6,675.9,510.1,673.9,509.2,671.7z M378.9,439.9l0.6,43.7H379l-0.6-43.7H378.9z M371.4,439.9
		l0.3,43.7h-0.5l-0.3-43.7H371.4z M363.7,439.9l0,43.7h-0.5l0-43.7H363.7z M357.1,439.9l0,43.7h-0.5l0-43.7H357.1z M349,439.9h0.5
		l-0.3,43.7h-0.5L349,439.9z M341.9,439.9l-0.5,43.7h-0.5l0.5-43.7H341.9z M340.3,526.8l0-0.4l0-1.3l0.2-15.3l0.5,0l-0.2,15.3l0,1.3
		l0,0.4l0,0.4h-0.5L340.3,526.8z M348.3,526.8l0-0.4l0-1.3l0.1-15.3h0.5l-0.1,15.3l0,1.3l0,0.4v0.4h-0.5V526.8z M356.7,526.5l0-1.3
		l0-15.3l0.5,0l0,15.3l0,1.3v0.8l-0.5,0V526.5z M363.2,526.5l0-1.3l0-15.3h0.5l0,15.3l0,1.3v0.8l-0.5,0V526.5z M371.6,526.8l0-0.4
		l0-1.3l-0.1-15.3h0.5l0.1,15.3l0,1.3l0,0.4v0.4h-0.5V526.8z M379.5,526.8l0-0.4l0-1.3l-0.2-15.3h0.5l0.2,15.3l0,1.3l0,0.4l0,0.4
		h-0.5L379.5,526.8z M378.5,408.6l0.1,4.9h-0.5l-0.1-4.9H378.5z M371.2,408.6l0,4.9l-0.5,0l0-4.9H371.2z M363.8,408.6l0,4.9l-0.5,0
		l0-4.9H363.8z M357.1,408.6l0,4.9h-0.5l0-4.9H357.1z M349.7,408.6l0,4.9h-0.5l0-4.9H349.7z M342.2,408.6l-0.1,4.9h-0.5l0.1-4.9
		H342.2z"/>
	<g>
		<path d="M302.3,556.9c0,1.3-1,2.3-2.3,2.3s-2.3-1-2.3-2.3c0-1.3,1-2.3,2.3-2.3C301.3,554.6,302.3,555.6,302.3,556.9z"/>
		<path d="M318.3,477.4c0,1.3-1,2.3-2.3,2.3c-1.3,0-2.3-1-2.3-2.3c0-1.3,1-2.3,2.3-2.3C317.3,475.1,318.3,476.1,318.3,477.4z"/>
		<path d="M439.2,506c0,1.3-1,2.3-2.3,2.3c-1.3,0-2.3-1-2.3-2.3c0-1.3,1-2.3,2.3-2.3C438.1,503.7,439.2,504.7,439.2,506z"/>
		<g>
			<g>
				<ellipse transform="matrix(0.9239 -0.3827 0.3827 0.9239 -183.6315 203.9114)" cx="420.8" cy="563.5" rx="9.7" ry="9.7"/>
				<circle cx="449.4" cy="575.2" r="9.7"/>
				<circle cx="438.4" cy="539.1" r="9.7"/>
			</g>
			<path d="M469.5,579.5c0,1.3-1,2.3-2.3,2.3s-2.3-1-2.3-2.3s1-2.3,2.3-2.3C468.4,577.2,469.5,578.2,469.5,579.5z"/>
			<path d="M461.5,609.4c0,1.3-1,2.3-2.3,2.3s-2.3-1-2.3-2.3c0-1.3,1-2.3,2.3-2.3S461.5,608.1,461.5,609.4z"/>
			<path d="M464,609.4c0,2.7-2.2,4.8-4.8,4.8s-4.8-2.2-4.8-4.8c0-2.7,2.2-4.8,4.8-4.8C461.9,604.6,464,606.7,464,609.4z"/>
			<path d="M405.8,600.8c0,1.3-1,2.3-2.3,2.3c-1.3,0-2.3-1-2.3-2.3s1-2.3,2.3-2.3S405.8,599.6,405.8,600.8z"/>
			<ellipse transform="matrix(0.7071 -0.7071 0.7071 0.7071 -323.0481 547.1967)" cx="499" cy="663.6" rx="2.3" ry="2.3"/>
		</g>
		<path d="M330.7,409.9c0,1.3-1,2.3-2.3,2.3s-2.3-1-2.3-2.3c0-1.3,1-2.3,2.3-2.3S330.7,408.6,330.7,409.9z"/>
		<path d="M400.3,409.9c0,1.3-1,2.3-2.3,2.3s-2.3-1-2.3-2.3c0-1.3,1-2.3,2.3-2.3S400.3,408.6,400.3,409.9z"/>
	</g>
	<path d="M340.4,525.2l0,1.3l0,0.4h-0.6c-0.3,0-0.5-0.2-0.5-0.5v-0.6c0-0.3,0.2-0.5,0.5-0.5H340.4z"/>
	<path d="M342,525.7v0.6c0,0.3-0.2,0.5-0.5,0.5h-0.6l0-0.4l0-1.3h0.6C341.8,525.2,342,525.4,342,525.7z"/>
	<path d="M341.4,526.7v0.4c0,0,0,0.1,0,0.1c0,0.1-0.1,0.2-0.3,0.2h-1c-0.1,0-0.2-0.1-0.3-0.2c0,0,0-0.1,0-0.1v-0.4
		c0-0.2,0.1-0.3,0.3-0.3h0.2l0,0.4l0,0.4h0.5l0-0.4l0-0.4h0.3C341.3,526.5,341.4,526.6,341.4,526.7z"/>
	<path d="M347.7,525.2l0.7,0l0,1.3l0,0.4h-0.7c-0.3,0-0.5-0.2-0.5-0.5v-0.6C347.1,525.4,347.4,525.2,347.7,525.2z"/>
	<path d="M349.9,525.7v0.6c0,0.3-0.2,0.5-0.5,0.5h-0.6l0-0.4l0-1.3h0.6C349.7,525.2,349.9,525.4,349.9,525.7z"/>
	<path d="M349.3,526.7v0.4c0,0,0,0.1,0,0.1c0,0.1-0.1,0.2-0.3,0.2h-1c-0.1,0-0.2-0.1-0.3-0.2c0,0,0-0.1,0-0.1v-0.4
		c0-0.2,0.1-0.3,0.3-0.3h0.3l0,0.4v0.4h0.5v-0.4l0-0.4h0.2C349.2,526.5,349.3,526.6,349.3,526.7z"/>
	<path d="M356.7,525.2l0,1.3v0.4h-0.6c-0.3,0-0.5-0.2-0.5-0.5v-0.6c0-0.3,0.2-0.5,0.5-0.5L356.7,525.2z"/>
	<path d="M358.3,525.7v0.6c0,0.3-0.2,0.5-0.5,0.5h-0.6v-0.4l0-1.3l0.6,0C358.1,525.2,358.3,525.4,358.3,525.7z"/>
	<path d="M357.7,526.7v0.4c0,0,0,0.1,0,0.1c0,0.1-0.1,0.2-0.3,0.2h-1c-0.1,0-0.2-0.1-0.3-0.2c0,0,0-0.1,0-0.1v-0.4
		c0-0.2,0.1-0.3,0.3-0.3h0.3v0.8l0.5,0v-0.8h0.2C357.6,526.5,357.7,526.6,357.7,526.7z"/>
	<path d="M362.6,525.2l0.6,0l0,1.3v0.4h-0.6c-0.3,0-0.5-0.2-0.5-0.5l0-0.6C362.1,525.4,362.3,525.2,362.6,525.2z"/>
	<path d="M364.8,525.7v0.6c0,0.3-0.2,0.5-0.5,0.5h-0.6v-0.4l0-1.3h0.6C364.6,525.2,364.8,525.4,364.8,525.7z"/>
	<path d="M364.2,526.7v0.4c0,0,0,0.1,0,0.1c0,0.1-0.1,0.2-0.3,0.2h-1c-0.1,0-0.2-0.1-0.3-0.2c0,0,0-0.1,0-0.1v-0.4
		c0-0.2,0.1-0.3,0.3-0.3h0.2v0.8l0.5,0v-0.8h0.3C364.1,526.5,364.2,526.6,364.2,526.7z"/>
	<path d="M371.6,526.5l0,0.4H371c-0.3,0-0.5-0.2-0.5-0.5v-0.6c0-0.3,0.2-0.5,0.5-0.5h0.6L371.6,526.5z"/>
	<path d="M373.3,525.7v0.6c0,0.3-0.2,0.5-0.5,0.5h-0.6l0-0.4l0-1.3h0.7C373,525.2,373.3,525.4,373.3,525.7z"/>
	<path d="M372.6,526.7v0.4c0,0,0,0.1,0,0.1c0,0.1-0.1,0.2-0.3,0.2h-1c-0.1,0-0.2-0.1-0.3-0.2c0,0,0-0.1,0-0.1v-0.4
		c0-0.2,0.1-0.3,0.3-0.3h0.2l0,0.4v0.4h0.5v-0.4l0-0.4h0.3C372.5,526.5,372.6,526.6,372.6,526.7z"/>
	<path d="M379.5,526.5l0,0.4h-0.6c-0.3,0-0.5-0.2-0.5-0.5v-0.6c0-0.3,0.2-0.5,0.5-0.5l0.6,0L379.5,526.5z"/>
	<path d="M381.2,525.7v0.6c0,0.3-0.2,0.5-0.5,0.5H380l0-0.4l0-1.3l0.6,0C380.9,525.2,381.2,525.4,381.2,525.7z"/>
	<path d="M380.5,526.7v0.4c0,0,0,0.1,0,0.1c0,0.1-0.1,0.2-0.3,0.2h-1c-0.1,0-0.2-0.1-0.3-0.2c0,0,0-0.1,0-0.1v-0.4
		c0-0.2,0.1-0.3,0.3-0.3h0.3l0,0.4l0,0.4h0.5l0-0.4l0-0.4h0.2C380.4,526.5,380.5,526.6,380.5,526.7z"/>
	<g>
		<path d="M385,416.4V437c0,1.6-1.3,2.8-2.8,2.8h-44c-1.6,0-2.8-1.3-2.8-2.8v-20.7c0-1.6,1.3-2.8,2.8-2.8h44
			C383.8,413.6,385,414.8,385,416.4z"/>
		<g>
			<g>
				<circle class="st0" cx="341.9" cy="420.1" r="1.9"/>
				<circle class="st0" cx="349.4" cy="420.1" r="1.9"/>
				<path class="st0" d="M358.8,420.1c0,1.1-0.9,1.9-1.9,1.9c-1.1,0-1.9-0.9-1.9-1.9s0.9-1.9,1.9-1.9
					C358,418.2,358.8,419,358.8,420.1z"/>
				<circle class="st0" cx="363.5" cy="420.1" r="1.9"/>
				<path class="st0" d="M372.9,420.1c0,1.1-0.9,1.9-1.9,1.9c-1.1,0-1.9-0.9-1.9-1.9s0.9-1.9,1.9-1.9
					C372.1,418.2,372.9,419,372.9,420.1z"/>
				<path class="st0" d="M380.5,420.1c0,1.1-0.9,1.9-1.9,1.9c-1.1,0-1.9-0.9-1.9-1.9c0-1.1,0.9-1.9,1.9-1.9
					C379.6,418.2,380.5,419,380.5,420.1z"/>
			</g>
			<g>
				<circle class="st0" cx="341.9" cy="433.3" r="1.9"/>
				<circle class="st0" cx="349.4" cy="433.3" r="1.9"/>
				<path class="st0" d="M358.8,433.3c0,1.1-0.9,1.9-1.9,1.9c-1.1,0-1.9-0.9-1.9-1.9c0-1.1,0.9-1.9,1.9-1.9
					C358,431.4,358.8,432.3,358.8,433.3z"/>
				<circle class="st0" cx="363.5" cy="433.3" r="1.9"/>
				<path class="st0" d="M372.9,433.3c0,1.1-0.9,1.9-1.9,1.9c-1.1,0-1.9-0.9-1.9-1.9c0-1.1,0.9-1.9,1.9-1.9
					C372.1,431.4,372.9,432.3,372.9,433.3z"/>
				<path class="st0" d="M380.5,433.3c0,1.1-0.9,1.9-1.9,1.9c-1.1,0-1.9-0.9-1.9-1.9c0-1.1,0.9-1.9,1.9-1.9S380.5,432.3,380.5,433.3
					z"/>
			</g>
		</g>
	</g>
	<g>
		<path d="M385,486.4V507c0,1.6-1.3,2.8-2.8,2.8l-44,0c-1.6,0-2.8-1.3-2.8-2.8v-20.7c0-1.6,1.3-2.8,2.8-2.8h44
			C383.8,483.5,385,484.8,385,486.4z"/>
		<g>
			<g>
				<path class="st0" d="M342.9,490.1c0,1.1-0.9,1.9-1.9,1.9c-1.1,0-1.9-0.9-1.9-1.9c0-1.1,0.9-1.9,1.9-1.9
					C342,488.2,342.9,489,342.9,490.1z"/>
				<path class="st0" d="M350.8,490.1c0,1.1-0.9,1.9-1.9,1.9s-1.9-0.9-1.9-1.9c0-1.1,0.9-1.9,1.9-1.9
					C349.9,488.2,350.8,489,350.8,490.1z"/>
				<path class="st0" d="M358.8,490.1c0,1.1-0.9,1.9-1.9,1.9c-1.1,0-1.9-0.9-1.9-1.9c0-1.1,0.9-1.9,1.9-1.9
					C358,488.2,358.8,489,358.8,490.1z"/>
				<path class="st0" d="M365.4,490.1c0,1.1-0.9,1.9-1.9,1.9c-1.1,0-1.9-0.9-1.9-1.9c0-1.1,0.9-1.9,1.9-1.9
					C364.6,488.2,365.4,489,365.4,490.1z"/>
				<path class="st0" d="M373.5,490.1c0,1.1-0.9,1.9-1.9,1.9c-1.1,0-1.9-0.9-1.9-1.9c0-1.1,0.9-1.9,1.9-1.9
					C372.7,488.2,373.5,489,373.5,490.1z"/>
				<path class="st0" d="M381.3,490.1c0,1.1-0.9,1.9-1.9,1.9c-1.1,0-1.9-0.9-1.9-1.9c0-1.1,0.9-1.9,1.9-1.9
					C380.4,488.2,381.3,489,381.3,490.1z"/>
			</g>
			<g>
				<path class="st0" d="M342.9,503.3c0,1.1-0.9,1.9-1.9,1.9c-1.1,0-1.9-0.9-1.9-1.9c0-1.1,0.9-1.9,1.9-1.9
					C342,501.4,342.9,502.3,342.9,503.3z"/>
				<circle class="st0" cx="348.8" cy="503.3" r="1.9"/>
				<circle class="st0" cx="356.9" cy="503.3" r="1.9"/>
				<path class="st0" d="M365.4,503.3c0,1.1-0.9,1.9-1.9,1.9c-1.1,0-1.9-0.9-1.9-1.9c0-1.1,0.9-1.9,1.9-1.9
					C364.6,501.4,365.4,502.3,365.4,503.3z"/>
				<path class="st0" d="M373.6,503.3c0,1.1-0.9,1.9-1.9,1.9c-1.1,0-1.9-0.9-1.9-1.9c0-1.1,0.9-1.9,1.9-1.9
					C372.7,501.4,373.6,502.3,373.6,503.3z"/>
				<circle class="st0" cx="379.4" cy="503.3" r="1.9"/>
			</g>
		</g>
	</g>
	<g>
		<g>
			<path d="M392.2,531.3c0,3-2.4,5.4-5.4,5.4s-5.4-2.4-5.4-5.4s2.4-5.4,5.4-5.4S392.2,528.3,392.2,531.3z"/>
			<path d="M339,531.3c0,3-2.4,5.4-5.4,5.4c-3,0-5.4-2.4-5.4-5.4c0-3,2.4-5.4,5.4-5.4C336.6,525.9,339,528.3,339,531.3z"/>
		</g>
		<g>
			<path class="st0" d="M388.7,531.3c0,1-0.8,1.9-1.9,1.9s-1.9-0.8-1.9-1.9s0.8-1.9,1.9-1.9C387.8,529.4,388.7,530.3,388.7,531.3z"
				/>
			<path class="st0" d="M335.5,531.3c0,1-0.8,1.9-1.9,1.9c-1,0-1.9-0.8-1.9-1.9c0-1,0.8-1.9,1.9-1.9
				C334.7,529.4,335.5,530.3,335.5,531.3z"/>
		</g>
		<rect x="335.9" y="527.2" width="48.3" height="8.2"/>
	</g>
	<g>
		<path class="st0" d="M390.4,568.4H330c-3.5,0-6.3-2.8-6.3-6.3v-0.2c0-3.5,2.8-6.3,6.3-6.3h60.4c3.5,0,6.3,2.8,6.3,6.3v0.2
			C396.8,565.5,393.9,568.4,390.4,568.4z"/>
		<g>
			<g>
				<path d="M385.7,562.8h8.9c0.3,0,0.5,0.3,0.4,0.5c-0.6,2.1-2.6,3.7-4.9,3.7c-2.3,0-4.3-1.5-4.9-3.7
					C385.3,563,385.5,562.8,385.7,562.8z"/>
				<path d="M394.7,561h-8.9c-0.3,0-0.5-0.3-0.4-0.5c0.6-2.1,2.6-3.7,4.9-3.7c2.3,0,4.3,1.5,4.9,3.7
					C395.1,560.8,394.9,561,394.7,561z"/>
			</g>
			<g>
				<path d="M325.8,562.8h8.9c0.3,0,0.5,0.3,0.4,0.5c-0.6,2.1-2.5,3.7-4.9,3.7c-2.3,0-4.3-1.5-4.9-3.7
					C325.3,563,325.5,562.8,325.8,562.8z"/>
				<path d="M334.7,561h-8.9c-0.3,0-0.5-0.3-0.4-0.5c0.6-2.1,2.6-3.7,4.9-3.7c2.3,0,4.3,1.5,4.9,3.7C335.2,560.8,335,561,334.7,561z
					"/>
			</g>
		</g>
	</g>
	<g>
		<path d="M376.6,101.9l0.3,20.1l0,2.7l0.3,19.4l0,2.7l0.3,17.5l0,2.7l0.2,16.9l0,2.7l0.2,15l0,2.7l0.2,15l0,2.7l0.2,14l0,2.7
			l0.2,12.3l0,2.7l0.2,12.6l0,2.7l0.2,11.5l0,2.7l0.2,10.7l0,2.7l0.1,9.3l0,2.7l0.1,9.6l0,2.7l0.1,8.9l0,2.7l0.1,7.9l0,2.7l0.1,7.1
			l0,2.7l0.1,7.2l0,1v0l0,1.7l0.1,6.8l0,2.7l0.1,5.6l0,2.7l0.1,5.2l0,2.7l0.1,5.7l0,2.7l0.1,3.8l0,2.7l0,1.8l0,2
			c0,1-0.8,1.8-1.8,1.8h-38.5c-1,0-1.8-0.8-1.8-1.8l0-2l0-1.8l0-2.7l0.1-3.8l0-2.7l0.1-5.7l0-2.7l0.1-5.2l0-2.7l0.1-5.6l0-2.7
			l0.1-6.8l0-1.5l0-1.2l0.1-7.2l0-2.7l0.1-7.1l0-2.7l0.1-7.9l0-2.7l0.1-8.9l0-2.7l0.1-9.6l0-2.7l0.1-9.3l0-2.7l0.2-10.7l0-2.7
			l0.2-11.5l0-2.7l0.2-12.6l0-2.7l0.2-12.3l0-2.7l0.2-14l0-2.7l0.2-15l0-2.7l0.2-15l0-2.7l0.2-16.9l0-2.7l0.3-17.5l0-2.7l0.3-19.4
			l0-2.7l0.3-19.9c0-3-1.2-5.9-3.5-7.9l-10.7-9.7c-2.6-2.3-3.6-6-2.7-9.3l0.7-2.6l0.9-3.1l4.9-16.9l0.9-3.1l4.9-16.9l0.9-3.1
			l5.4-18.7c4.2-14.4,24.6-14.4,28.8,0l5.4,18.7l0.9,3.1l4.9,16.9l0.9,3.1l4.9,16.9l0.9,3.1l0.8,2.7c0.9,3.3,0,6.8-2.5,9.2
			l-10.2,9.6C377.7,96.2,376.5,99,376.6,101.9z"/>
		<g>
			<g>
				<path d="M392.9,24.6l0.7,1.5c1.5,3.1,1.5,6.8,0,10l-0.7,1.5c-0.3,0.6-0.9,1-1.6,1l-4.1,0.1c-0.8,0-1.5-0.5-1.8-1.2l-1.4-4.1
					c-0.5-1.5-0.5-3.2,0.1-4.7l1.5-4.1c0.3-0.7,1-1.2,1.8-1.2l4,0.1C392,23.6,392.6,24,392.9,24.6z"/>
				<rect x="378.9" y="29.5" transform="matrix(-1 -1.224647e-16 1.224647e-16 -1 764.6324 62.185)" width="6.8" height="3.1"/>
			</g>
			<g>
				<g>
					<path d="M326,24.6l-0.7,1.5c-1.5,3.1-1.5,6.8,0,10l0.7,1.5c0.3,0.6,0.9,1,1.6,1l4.1,0.1c0.8,0,1.5-0.5,1.8-1.2l1.4-4.1
						c0.5-1.5,0.5-3.2-0.1-4.7l-1.5-4.1c-0.3-0.7-1-1.2-1.8-1.2l-4,0.1C326.9,23.6,326.3,24,326,24.6z"/>
					<rect x="333.2" y="29.5" width="6.8" height="3.1"/>
				</g>
				<g>
					<path d="M320.3,44.7l-0.7,1.5c-1.5,3.1-1.5,6.8,0,10l0.7,1.5c0.3,0.6,0.9,1,1.6,1l4.1,0.1c0.8,0,1.5-0.5,1.8-1.2l1.4-4.1
						c0.5-1.5,0.5-3.2-0.1-4.7l-1.5-4.1c-0.3-0.7-1-1.2-1.8-1.2l-4,0.1C321.2,43.7,320.6,44.1,320.3,44.7z"/>
					<rect x="327.5" y="49.6" width="6.8" height="3.1"/>
				</g>
				<g>
					<path d="M315.3,64.7l-0.7,1.5c-1.5,3.1-1.5,6.8,0,10l0.7,1.5c0.3,0.6,0.9,1,1.6,1l4.1,0.1c0.8,0,1.5-0.5,1.8-1.2l1.4-4.1
						c0.5-1.5,0.5-3.2-0.1-4.7l-1.5-4.1c-0.3-0.7-1-1.2-1.8-1.2l-4,0.1C316.2,63.7,315.5,64.1,315.3,64.7z"/>
					<rect x="322.4" y="69.6" width="6.8" height="3.1"/>
				</g>
				<g>
					<path d="M398.6,44.7l0.7,1.5c1.5,3.1,1.5,6.8,0,10l-0.7,1.5c-0.3,0.6-0.9,1-1.6,1l-4.1,0.1c-0.8,0-1.5-0.5-1.8-1.2l-1.4-4.1
						c-0.5-1.5-0.5-3.2,0.1-4.7l1.5-4.1c0.3-0.7,1-1.2,1.8-1.2l4,0.1C397.7,43.7,398.3,44.1,398.6,44.7z"/>
					<rect x="384.6" y="49.6" transform="matrix(-1 -1.224647e-16 1.224647e-16 -1 776.0294 102.2226)" width="6.8" height="3.1"/>
				</g>
				<g>
					<path d="M403.7,64.7l0.7,1.5c1.5,3.1,1.5,6.8,0,10l-0.7,1.5c-0.3,0.6-0.9,1-1.6,1l-4.1,0.1c-0.8,0-1.5-0.5-1.8-1.2l-1.4-4.1
						c-0.5-1.5-0.5-3.2,0.1-4.7l1.5-4.1c0.3-0.7,1-1.2,1.8-1.2l4,0.1C402.8,63.7,403.4,64.1,403.7,64.7z"/>
					<rect x="389.7" y="69.6" transform="matrix(-1 -1.224647e-16 1.224647e-16 -1 786.1602 142.2603)" width="6.8" height="3.1"/>
				</g>
			</g>
		</g>
		<g>
			<circle class="st0" cx="346.1" cy="29.8" r="2.9"/>
			<path class="st0" d="M350,32.1c0,1.7-1.8,3.2-3.9,3.2c-2.2,0-3.9-1.4-3.9-3.2c0-1.7,1.8-3.2,3.9-3.2
				C348.3,28.9,350,30.3,350,32.1z"/>
		</g>
		<g>
			<path class="st0" d="M375.7,29.8c0,1.6-1.3,2.9-2.9,2.9c-1.6,0-2.9-1.3-2.9-2.9c0-1.6,1.3-2.9,2.9-2.9
				C374.4,26.9,375.7,28.2,375.7,29.8z"/>
			<path class="st0" d="M376.8,32.1c0,1.7-1.8,3.2-3.9,3.2c-2.2,0-3.9-1.4-3.9-3.2c0-1.7,1.8-3.2,3.9-3.2
				C375,28.9,376.8,30.3,376.8,32.1z"/>
		</g>
		<g>
			<circle class="st0" cx="341.7" cy="49.3" r="2.9"/>
			<path class="st0" d="M345.6,51.6c0,1.7-1.8,3.2-3.9,3.2c-2.2,0-3.9-1.4-3.9-3.2s1.8-3.2,3.9-3.2
				C343.8,48.4,345.6,49.8,345.6,51.6z"/>
		</g>
		<g>
			<circle class="st0" cx="377.9" cy="49.3" r="2.9"/>
			<path class="st0" d="M381.8,51.6c0,1.7-1.8,3.2-3.9,3.2c-2.2,0-3.9-1.4-3.9-3.2c0-1.7,1.8-3.2,3.9-3.2
				C380.1,48.4,381.8,49.8,381.8,51.6z"/>
		</g>
		<g>
			<path class="st0" d="M338.8,69.5c0,1.6-1.3,2.9-2.9,2.9c-1.6,0-2.9-1.3-2.9-2.9c0-1.6,1.3-2.9,2.9-2.9
				C337.6,66.6,338.8,67.9,338.8,69.5z"/>
			<path class="st0" d="M339.9,71.8c0,1.7-1.8,3.2-3.9,3.2c-2.2,0-3.9-1.4-3.9-3.2c0-1.7,1.8-3.2,3.9-3.2
				C338.1,68.6,339.9,70,339.9,71.8z"/>
		</g>
		<g>
			<path class="st0" d="M386.5,69.5c0,1.6-1.3,2.9-2.9,2.9s-2.9-1.3-2.9-2.9c0-1.6,1.3-2.9,2.9-2.9S386.5,67.9,386.5,69.5z"/>
			<path class="st0" d="M387.5,71.8c0,1.7-1.8,3.2-3.9,3.2c-2.2,0-3.9-1.4-3.9-3.2c0-1.7,1.8-3.2,3.9-3.2
				C385.8,68.6,387.5,70,387.5,71.8z"/>
		</g>
		<g>
			<g>
				<polygon points="349.5,439.9 349.1,483.5 348.7,483.5 349,439.9 				"/>
				<polygon points="348.9,509.8 348.8,525.2 348.3,525.2 348.5,509.8 				"/>
				<polygon points="348.8,525.2 348.8,526.5 348.8,526.8 348.8,527.2 348.3,527.2 348.3,526.8 348.3,526.5 348.3,525.2 				"/>
				<polygon points="348.7,535.4 348.7,544.6 348.2,544.6 348.3,535.4 				"/>
				<rect x="348.2" y="544.6" class="st0" width="0.5" height="13"/>
				<polygon class="st0" points="348.8,527.2 348.8,527.4 348.7,535.4 348.3,535.4 348.3,527.4 348.3,527.2 				"/>
				<polygon class="st0" points="349.1,483.5 349.1,488.2 349.1,491.9 349,501.4 349,505.2 348.9,509.8 348.5,509.8 348.5,505 
					348.5,501.6 348.5,501.6 348.6,491.8 348.6,488.3 348.7,483.5 				"/>
				<polygon points="349.7,408.6 349.7,413.6 349.2,413.6 349.2,408.6 				"/>
				<polygon class="st0" points="349.2,413.6 349.7,413.6 349.6,418.2 349.6,422 349.5,431.4 349.5,435.2 349.5,439.9 349,439.9 
					349,435.2 349.1,431.4 349.1,422 349.2,418.2 				"/>
				<path class="st0" d="M352,99.6l-0.2,22.4l0,2.7l-0.1,19.4l0,2.7l-0.1,17.5l0,2.7l-0.1,16.9l0,2.7l-0.1,15l0,2.7l-0.1,15l0,2.7
					l-0.1,14l0,2.7l-0.1,12.3l0,2.7l-0.1,12.6l0,2.7l-0.1,11.5l0,2.7l-0.1,10.7l0,2.7l0,3.1l0,4.2l0,2l0,2.7l-0.1,9.6l0,2.7
					l-0.1,8.9l0,2.7l-0.1,7.9l0,2.7l0,5.8l0,1.3l0,2.7l-0.1,7.2l0,2.7l-0.1,6.8l0,2.7l0,5.6l0,2.7l0,5.2l0,2.7l0,5.7l0,2.7l0,3.8
					l0,2.7l0,1.8l0,3.8h-0.5l0-3.8l0-1.8l0-2.7l0-3.8l0-2.7l0-5.7l0-2.7l0-5.2l0-2.7l0-5.6l0-2.7l0.1-6.8l0-2.7l0.1-7.2l0-2.7l0-1.3
					l0-5.8l0-2.7l0.1-7.9l0-2.7l0.1-8.9l0-2.7l0.1-9.6l0-2.7l0-2l0-4.2v0l0-3.1l0-2.7l0.1-10.7l0-2.7l0.1-11.5l0-2.7l0.1-12.6l0-2.7
					l0.1-12.3l0-2.7l0.1-14l0-2.7l0.1-15l0-2.7l0.1-15l0-2.7l0.1-16.9l0-2.7l0.1-17.5l0-2.7l0.1-19.4l0-2.7l0.2-22.4
					c0-2.7-0.2-5.5-0.7-8.2l-6.5-37.6l-0.4-2.4l0.5-0.1l0.4,2l6.5,37.9C351.8,94.1,352.1,96.8,352,99.6z"/>
			</g>
			<g>
				<rect x="356.7" y="439.9" width="0.5" height="43.7"/>
				<polygon points="357.1,413.6 356.6,413.6 356.6,408.6 357.1,408.6 				"/>
				<path class="st0" d="M357.1,408.6h-0.5l0-3.8v-1.8l0-2.7l0-3.8v-2.7l0-5.7l0-2.7l0-5.2l0-2.7l0-5.6l0-2.7l0-6.8v-2.7l0-7.2
					l0-2.7v-1.3l0-5.8l0-2.7l0-7.9l0-2.7l0-8.9v-2.7l0-9.6v-2.7l0-9.3v-2.7l0-10.7v-2.7l0-11.5l0-2.7l0-12.6v-2.7l0-12.3l0-2.7l0-14
					l0-2.7l0-15v-2.7l0-15v-2.7l0-16.9l0-2.7l0-17.5l0-2.7l0-19.4v-2.7l0-24.1c0-1.8-0.1-3.6-0.3-5.4L349.2,34l-0.3-2.6l0.5-0.1
					l0.3,2.1l6.9,59c0.2,1.8,0.3,3.6,0.3,5.4l0,24.1l0,2.7l0,19.4l0,2.7l0,17.5l0,2.7l0,16.9v2.7l0,15v2.7l0,15l0,2.7l0,14l0,2.7
					l0,12.3v2.7l0,12.6l0,2.7l0,11.5v2.7l0,10.7v2.7l0,9.3v2.7l0,9.6v2.7l0,8.9l0,2.7l0,7.9l0,2.7l0,5.8v1.3l0,2.7l0,7.2v2.7l0,6.8
					l0,2.7l0,5.6l0,2.7l0,5.2v2.7l0,5.7l0,2.7l0,3.8l0,2.7v1.8L357.1,408.6z"/>
				<polygon class="st0" points="357.1,439.9 356.7,439.9 356.7,435.2 356.7,431.4 356.6,422 356.6,418.2 356.6,413.6 357.1,413.6 
					357.1,418.2 357.1,422 357.1,431.4 357.1,435.2 				"/>
				<polygon points="357.2,526.5 357.2,527.2 356.7,527.2 356.7,526.5 356.7,525.2 356.7,509.8 357.2,509.8 357.2,525.2 				"/>
				<polygon class="st0" points="357.2,509.8 356.7,509.8 356.7,505.2 356.7,501.4 356.7,492 356.7,488.2 356.7,483.5 357.2,483.5 
					357.2,488.2 357.2,492 357.2,501.4 357.2,505.2 				"/>
				<rect x="356.7" y="535.4" width="0.5" height="9.2"/>
				<polygon class="st0" points="357.2,535.4 356.7,535.4 356.7,527.4 356.7,527.2 357.2,527.2 357.2,527.4 				"/>
				<rect x="356.7" y="544.6" class="st0" width="0.5" height="13"/>
			</g>
			<g>
				<polygon points="341.9,439.9 341.3,483.5 340.9,483.5 341.4,439.9 				"/>
				<polygon points="341,509.8 340.8,525.2 340.8,526.5 340.8,526.8 340.8,527.2 340.3,527.2 340.3,526.8 340.4,526.5 340.4,525.2 
					340.6,509.8 				"/>
				<polygon points="340.7,535.4 340.6,544.6 340.1,544.6 340.2,535.4 				"/>
				<polygon class="st0" points="340.1,544.6 340.6,544.6 340.5,556.3 340,556.3 				"/>
				<polygon class="st0" points="340.8,527.2 340.8,527.4 340.7,535.4 340.2,535.4 340.3,527.4 340.3,527.2 				"/>
				<polygon class="st0" points="341.3,483.5 341.3,488.2 341.2,491.9 341.2,491.9 341.1,501.6 341.1,505 341,509.8 340.6,509.8 
					340.6,504.7 340.6,504.7 340.6,501.8 340.8,491.6 340.8,488.5 340.9,483.5 				"/>
				<polygon points="342.2,408.6 342.2,413.6 341.7,413.6 341.8,408.6 				"/>
				<polygon class="st0" points="341.7,413.6 342.2,413.6 342.1,418.2 342.1,422 342,431.4 341.9,435.2 341.9,439.9 341.4,439.9 
					341.4,435.2 341.5,431.5 341.6,422 341.6,418.2 				"/>
				<path class="st0" d="M345.9,97.9l-0.3,24.1l0,2.7l-0.2,19.4l0,2.7l-0.2,17.5l0,2.7l-0.2,16.9l0,2.7l-0.2,15l0,2.7l-0.2,15l0,2.7
					l-0.2,14l0,2.7l-0.1,12.3l0,2.7l-0.1,12.6l0,2.7l-0.1,11.5l0,2.7l-0.1,10.7l0,2.7l-0.1,9.3l0,2.7l-0.1,9.6l0,2.7l-0.1,8.9l0,2.7
					l-0.1,7.9l0,2.7l-0.1,7.1l0,0.7l0,2l-0.1,7.2l0,2.7l-0.1,6.8l0,2.7l-0.1,5.6l0,2.7l-0.1,5.2l0,2.7l-0.1,5.7l0,2.7l0,3.8l0,2.7
					l0,1.8l0,3.8h-0.5l0-3.8l0-1.8l0-2.7l0-3.8l0-2.7l0.1-5.7l0-2.7l0.1-5.2l0-2.7l0.1-5.6l0-2.7l0.1-6.8l0-2.7l0.1-6.6v0l0-0.6
					l0-2.7l0.1-7.1l0-2.7l0.1-7.9l0-2.7l0.1-8.9l0-2.7l0.1-9.6l0-2.7l0.1-9.3l0-2.7l0.1-10.7l0-2.7l0.1-11.5l0-2.7l0.1-12.6l0-2.7
					l0.1-12.3l0-2.7l0.2-14l0-2.7l0.2-15l0-2.7l0.2-15l0-2.7l0.2-16.9l0-2.7l0.2-17.5l0-2.7l0.2-19.4l0-2.7l0.3-24.1
					c0-1.6-0.2-3.2-0.7-4.7l-6.2-19l-0.1-0.5l0.5-0.1l0.1,0.3l6.3,19.2C345.7,94.6,345.9,96.3,345.9,97.9z"/>
			</g>
			<g>
				<polygon points="379.5,483.5 379,483.5 378.4,439.9 378.9,439.9 				"/>
				<polygon points="380,527.2 379.6,527.2 379.5,526.8 379.5,526.5 379.5,525.2 379.3,509.8 379.8,509.8 380,525.2 380,526.5 
					380,526.8 				"/>
				<polygon class="st0" points="379.8,509.8 379.3,509.8 379.3,505.1 379.2,501.5 379.1,491.9 379.1,488.2 379,483.5 379.5,483.5 
					379.5,488.4 379.6,491.7 379.7,501.8 379.7,504.8 				"/>
				<polygon points="380.3,544.6 379.8,544.6 379.7,535.4 380.1,535.4 				"/>
				<polygon class="st0" points="380.1,535.4 379.7,535.4 379.6,527.4 379.6,527.2 380,527.2 380,527.4 				"/>
				
					<rect x="379.9" y="544.6" transform="matrix(0.9999 -1.337744e-02 1.337744e-02 0.9999 -7.33 5.1339)" class="st0" width="0.5" height="11.7"/>
				<polygon points="378.6,413.6 378.1,413.6 378,408.6 378.5,408.6 				"/>
				<polygon class="st0" points="378.9,435.2 378.9,439.9 378.4,439.9 378.4,435.2 378.3,431.4 378.2,422 378.2,418.2 378.1,413.6 
					378.6,413.6 378.6,418.2 378.7,422 378.8,431.4 				"/>
				<path class="st0" d="M381.6,73.7l-0.2,0.7l-6.1,18.8c-0.5,1.5-0.7,3.1-0.7,4.7l0.3,24.1l0,2.7l0.2,19.4l0,2.7l0.2,17.5l0,2.7
					l0.2,16.9l0,2.7l0.2,15l0,2.7l0.2,15l0,2.7l0.2,14l0,2.7l0.2,12.3l0,2.7l0.2,12.6l0,2.7l0.1,11.5l0,2.7l0.1,10.7l0,2.7l0.1,9.3
					l0,2.7l0.1,9.6l0,2.7l0.1,8.9l0,2.7l0.1,7.9l0,2.7l0.1,7.1l0,2.7l0,0.2l0.1,7l0,2.7l0.1,6.8l0,2.7l0.1,5.6l0,2.7l0.1,5.2l0,2.7
					l0.1,5.7l0,2.7l0,3.8l0,2.7l0,1.8l0,3.8H378l0-3.8l0-1.8l0-2.7l0-3.8l0-2.7l-0.1-5.7l0-2.7l-0.1-5.2l0-2.7l-0.1-5.6l0-2.7
					l-0.1-6.8l0-2.7l-0.1-7.2l0-2.2l0-0.5l-0.1-7.1l0-2.7l-0.1-7.9l0-2.7l-0.1-8.9l0-2.7l-0.1-9.6l0-2.7l-0.1-9.3l0-2.7l-0.1-10.7
					l0-2.7l-0.1-11.5l0-2.7l-0.2-12.6l0-2.7l-0.2-12.3l0-2.7l-0.2-14l0-2.7l-0.2-15l0-2.7l-0.2-15l0-2.7L375,167l0-2.7l-0.2-17.5
					l0-2.7l-0.2-19.4l0-2.7l-0.3-24.1c0-1.7,0.2-3.3,0.7-4.9l6.2-18.9l0.2-0.6L381.6,73.7z"/>
			</g>
			<g>
				<polygon points="371.7,483.5 371.3,483.5 370.9,439.9 371.4,439.9 				"/>
				<polygon points="372.1,526.8 372.1,527.2 371.6,527.2 371.6,526.8 371.6,526.5 371.6,525.2 371.5,509.8 371.9,509.8 
					372.1,525.2 372.1,526.5 				"/>
				<polygon class="st0" points="371.9,509.8 371.5,509.8 371.4,505.2 371.4,501.4 371.3,492 371.3,488.2 371.3,483.5 371.7,483.5 
					371.8,488.3 371.8,491.8 371.9,501.6 371.9,505 				"/>
				<polygon points="372.2,544.6 371.7,544.6 371.7,535.4 372.1,535.4 				"/>
				<polygon class="st0" points="372.1,535.4 371.7,535.4 371.6,527.4 371.6,527.2 372.1,527.2 372.1,527.4 				"/>
				
					<rect x="371.8" y="544.6" transform="matrix(1 -6.582996e-03 6.582996e-03 1 -3.6201 2.461)" class="st0" width="0.5" height="13"/>
				<polygon points="371.2,413.6 370.7,413.6 370.7,408.6 371.2,408.6 				"/>
				<polygon class="st0" points="371.4,435.2 371.4,439.9 370.9,439.9 370.9,435.2 370.9,431.4 370.8,422 370.8,418.2 370.7,413.6 
					371.2,413.6 371.3,418.2 371.3,422 371.3,422 371.4,431.4 				"/>
				<path class="st0" d="M376.4,51.5l0,0.2l-0.4,2.6l-6.4,37.1c-0.5,2.7-0.7,5.5-0.7,8.2l0.2,22.4l0,2.7l0.1,19.4l0,2.7l0.1,17.5
					l0,2.7l0.1,16.9l0,2.7l0.1,15l0,2.7l0.1,15l0,2.7l0.1,14l0,2.7l0.1,12.3l0,2.7l0.1,12.6l0,2.7l0.1,11.5l0,2.7l0.1,10.7l0,2.7
					l0,3.1l0,4.2l0,2l0,2.7l0.1,9.6l0,2.7l0.1,8.9l0,2.7l0.1,7.9l0,2.7l0,5.8l0,1.3l0,2.7l0.1,7.2l0,2.7l0.1,6.8l0,2.7l0,5.6l0,2.7
					l0,5.2l0,2.7l0,5.7l0,2.7l0,3.8l0,2.7l0,1.8l0,3.8h-0.5l0-3.8l0-1.8l0-2.7l0-3.8l0-2.7l0-5.7l0-2.7l0-5.2l0-2.7l0-5.6l0-2.7
					l-0.1-6.8l0-2.7l-0.1-7.2l0-2.7l0-1.3l0-5.8l0-2.7l-0.1-7.9l0-2.7l-0.1-8.9l0-2.7l-0.1-9.6l0-2.7l0-2l0-4.2l0-3.1l0-2.7
					l-0.1-10.7l0-2.7l-0.1-11.5l0-2.7l-0.1-12.6l0-2.7l-0.1-12.3l0-2.7l-0.1-14l0-2.7l-0.1-15l0-2.7l-0.1-15l0-2.7l-0.1-16.9l0-2.7
					l-0.1-17.5l0-2.7l-0.1-19.4l0-2.7l-0.2-22.4c0-2.8,0.2-5.6,0.7-8.3l6.4-37.3l0.5-2.6l0,0L376.4,51.5z"/>
			</g>
			<g>
				<rect x="363.3" y="439.9" width="0.5" height="43.7"/>
				<polygon points="363.7,509.8 363.7,525.2 363.7,526.5 363.7,527.2 363.2,527.2 363.2,526.5 363.2,525.2 363.2,509.8 				"/>
				<rect x="363.2" y="535.4" width="0.5" height="9.2"/>
				<rect x="363.2" y="544.6" class="st0" width="0.5" height="13"/>
				<polygon class="st0" points="363.7,527.2 363.7,527.4 363.7,535.4 363.2,535.4 363.2,527.4 363.2,527.2 				"/>
				<polygon class="st0" points="363.7,483.5 363.7,488.2 363.7,492 363.7,501.4 363.7,505.2 363.7,509.8 363.2,509.8 363.2,505.2 
					363.2,501.4 363.2,492 363.2,488.2 363.2,483.5 				"/>
				<polygon points="363.8,408.6 363.8,413.6 363.3,413.6 363.3,408.6 				"/>
				<polygon class="st0" points="363.3,413.6 363.8,413.6 363.8,418.2 363.8,422 363.8,431.4 363.8,435.2 363.7,439.9 363.3,439.9 
					363.3,435.2 363.3,431.4 363.3,422 363.3,418.2 				"/>
				<path class="st0" d="M371.5,31.4l-0.1,0.9l-0.3,2.6l-6.8,57.7c-0.2,1.8-0.3,3.6-0.3,5.4l0,24.1v2.7l0,19.4l0,2.7l0,17.5l0,2.7
					l0,16.9l0,2.7l0,15v2.7l0,15l0,2.7l0,14l0,2.7l0,12.3v2.7l0,12.6l0,2.7l0,11.5v2.7l0,10.7v2.7l0,9.3v2.7l0,9.6v2.7l0,8.9l0,2.7
					l0,7.9l0,2.7l0,5.8v1.3l0,2.7l0,7.2v2.7l0,6.8l0,2.7l0,5.6l0,2.7l0,5.2v2.7l0,5.7v2.7l0,3.8l0,2.7v1.8l0,3.8h-0.5l0-3.8v-1.8
					l0-2.7l0-3.8v-2.7l0-5.7v-2.7l0-5.2l0-2.7l0-5.6l0-2.7l0-6.8v-2.7l0-7.2l0-2.7v-1.3l0-5.8l0-2.7l0-7.9l0-2.7l0-8.9v-2.7l0-9.6
					v-2.7l0-9.3v-2.7l0-10.7l0-2.7l0-11.5l0-2.7l0-12.6v-2.7l0-12.3l0-2.7l0-14l0-2.7l0-15v-2.7l0-15v-2.7l0-16.9l0-2.7l0-17.5
					l0-2.7l0-19.4v-2.7l0-24.1c0-1.8,0.1-3.6,0.3-5.4l6.8-57.8L371,32v0l0.1-0.6L371.5,31.4z"/>
			</g>
		</g>
		<g>
			<g>
				<path class="st0" d="M362.5,394.5c0,1.2-0.9,2.1-2.1,2.1c-1.2,0-2.1-0.9-2.1-2.1c0-1.2,0.9-2.1,2.1-2.1
					C361.6,392.4,362.5,393.4,362.5,394.5z"/>
				<path class="st0" d="M362.5,374.6c0,1.2-0.9,2.1-2.1,2.1c-1.2,0-2.1-0.9-2.1-2.1c0-1.2,0.9-2.1,2.1-2.1
					C361.6,372.5,362.5,373.5,362.5,374.6z"/>
				<path class="st0" d="M362.5,356.3c0,1.2-0.9,2.1-2.1,2.1c-1.2,0-2.1-0.9-2.1-2.1c0-1.2,0.9-2.1,2.1-2.1
					C361.6,354.2,362.5,355.1,362.5,356.3z"/>
				<path class="st0" d="M362.5,336.1c0,1.2-0.9,2.1-2.1,2.1c-1.2,0-2.1-0.9-2.1-2.1c0-1.2,0.9-2.1,2.1-2.1
					C361.6,334,362.5,334.9,362.5,336.1z"/>
			</g>
			<g>
				<path class="st0" d="M370.2,299.5c1.2,0,2.1,0.9,2.1,2.1c0,1.2-0.9,2.1-2.1,2.1c-1.2,0-2.1-0.9-2.1-2.1
					C368.1,300.4,369,299.5,370.2,299.5z"/>
				<path class="st0" d="M350.2,299.5c1.2,0,2.1,0.9,2.1,2.1c0,1.2-0.9,2.1-2.1,2.1s-2.1-0.9-2.1-2.1
					C348.1,300.4,349.1,299.5,350.2,299.5z"/>
			</g>
			<g>
				<path class="st0" d="M362.5,260.5c0,1.2-0.9,2.1-2.1,2.1c-1.2,0-2.1-0.9-2.1-2.1c0-1.2,0.9-2.1,2.1-2.1
					C361.6,258.4,362.5,259.4,362.5,260.5z"/>
				<g>
					<path class="st0" d="M362.5,194.9c0,1.2-0.9,2.1-2.1,2.1c-1.2,0-2.1-0.9-2.1-2.1c0-1.2,0.9-2.1,2.1-2.1
						C361.6,192.8,362.5,193.7,362.5,194.9z"/>
					<path class="st0" d="M362.5,156.1c0,1.2-0.9,2.1-2.1,2.1c-1.2,0-2.1-0.9-2.1-2.1c0-1.2,0.9-2.1,2.1-2.1
						C361.6,154,362.5,155,362.5,156.1z"/>
					<path class="st0" d="M362.5,229c0,1.2-0.9,2.1-2.1,2.1c-1.2,0-2.1-0.9-2.1-2.1c0-1.2,0.9-2.1,2.1-2.1
						C361.6,226.9,362.5,227.8,362.5,229z"/>
				</g>
			</g>
		</g>
		<g>
			<polygon class="st0" points="376.9,124.5 343.1,124.5 343.1,122.3 376.9,122.3 			"/>
			<polygon class="st0" points="377.2,146.6 342.8,146.6 342.8,144.4 377.2,144.4 			"/>
			<polygon class="st0" points="377.5,166.8 342.5,166.8 342.5,164.6 377.5,164.6 			"/>
			<polygon class="st0" points="377.8,186.3 342.2,186.3 342.2,184.2 377.8,184.2 			"/>
			<polygon class="st0" points="378.1,204 341.9,204 342,201.8 378,201.8 			"/>
			<polygon class="st0" points="378.3,221.7 341.7,221.7 341.7,219.5 378.3,219.5 			"/>
			<polygon class="st0" points="378.6,238.3 341.4,238.3 341.5,236.2 378.5,236.2 			"/>
			<polygon class="st0" points="378.8,253.3 341.2,253.3 341.3,251.1 378.7,251.1 			"/>
			<polygon class="st0" points="379,268.5 341,268.5 341,266.4 379,266.4 			"/>
			<polygon class="st0" points="379.2,282.7 340.8,282.7 340.8,280.5 379.2,280.5 			"/>
			<polygon class="st0" points="379.4,296.1 340.6,296.1 340.6,294 379.4,294 			"/>
			<polygon class="st0" points="379.6,308.1 340.4,308.1 340.5,305.9 379.5,305.9 			"/>
			<polygon class="st0" points="379.7,320.4 340.3,320.4 340.3,318.2 379.7,318.2 			"/>
			<polygon class="st0" points="379.9,331.9 340.1,331.9 340.1,329.8 379.9,329.8 			"/>
			<polygon class="st0" points="380.1,342.5 339.9,342.5 340,340.3 380,340.3 			"/>
			<polygon class="st0" points="380.2,352.3 339.8,352.3 339.8,350.1 380.2,350.1 			"/>
			<polygon class="st0" points="380.4,362.2 339.6,362.2 339.7,360.1 380.3,360.1 			"/>
			<polygon class="st0" points="380.5,371.7 339.5,371.7 339.6,369.5 380.5,369.5 			"/>
			<polygon class="st0" points="380.6,382.3 339.4,382.3 339.4,380.1 380.6,380.1 			"/>
			<polygon class="st0" points="380.7,390.7 339.3,390.7 339.3,388.6 380.7,388.6 			"/>
			<polygon class="st0" points="380.8,400.6 339.2,400.6 339.2,398.5 380.8,398.5 			"/>
		</g>
	</g>
</g>
</svg>
