<?xml version="1.0" encoding="utf-8"?>
<!-- Generator: Adobe Illustrator 23.0.2, SVG Export Plug-In . SVG Version: 6.00 Build 0)  -->
<!DOCTYPE svg PUBLIC "-//W3C//DTD SVG 1.1//EN" "http://www.w3.org/Graphics/SVG/1.1/DTD/svg11.dtd" [
	<!ENTITY ns_extend "http://ns.adobe.com/Extensibility/1.0/">
	<!ENTITY ns_ai "http://ns.adobe.com/AdobeIllustrator/10.0/">
	<!ENTITY ns_graphs "http://ns.adobe.com/Graphs/1.0/">
	<!ENTITY ns_vars "http://ns.adobe.com/Variables/1.0/">
	<!ENTITY ns_imrep "http://ns.adobe.com/ImageReplacement/1.0/">
	<!ENTITY ns_sfw "http://ns.adobe.com/SaveForWeb/1.0/">
	<!ENTITY ns_custom "http://ns.adobe.com/GenericCustomNamespace/1.0/">
	<!ENTITY ns_adobe_xpath "http://ns.adobe.com/XPath/1.0/">
]>
<svg version="1.1" id="Layer_1" xmlns:x="&ns_extend;" xmlns:i="&ns_ai;" xmlns:graph="&ns_graphs;"
	 xmlns="http://www.w3.org/2000/svg" xmlns:xlink="http://www.w3.org/1999/xlink" x="0px" y="0px" viewBox="0 0 720 720"
	 style="enable-background:new 0 0 720 720;" xml:space="preserve">
<style type="text/css">
	.Drop_x0020_Shadow{fill:none;}
	.Round_x0020_Corners_x0020_2_x0020_pt{fill:#FFFFFF;stroke:#231F20;stroke-miterlimit:10;}
	.Live_x0020_Reflect_x0020_X{fill:none;}
	.Bevel_x0020_Soft{fill:url(#SVGID_1_);}
	.Dusk{fill:#FFFFFF;}
	.Foliage_GS{fill:#FFDD00;}
	.Pompadour_GS{fill-rule:evenodd;clip-rule:evenodd;fill:#44ADE2;}
	.st0{fill:#FFFFFF;}
	.st1{fill:none;stroke:#FFFFFF;stroke-width:1.263;stroke-miterlimit:10;}
</style>
<metadata>
	<sfw  xmlns="&ns_sfw;">
		<slices></slices>
		<sliceSourceBounds  bottomLeftOrigin="true" height="720" width="359.5" x="180.2" y="-720"></sliceSourceBounds>
	</sfw>
</metadata>
<linearGradient id="SVGID_1_" gradientUnits="userSpaceOnUse" x1="0" y1="0" x2="0.7071" y2="0.7071">
	<stop  offset="0" style="stop-color:#DEDFE3"/>
	<stop  offset="0.1783" style="stop-color:#DADBDF"/>
	<stop  offset="0.3611" style="stop-color:#CECFD3"/>
	<stop  offset="0.546" style="stop-color:#B9BCBF"/>
	<stop  offset="0.7324" style="stop-color:#9CA0A2"/>
	<stop  offset="0.9181" style="stop-color:#787D7E"/>
	<stop  offset="1" style="stop-color:#656B6C"/>
</linearGradient>
<g>
	<g>
		<g>
			<path d="M336.7,63.7L336.7,63.7c-0.1,0-0.2-0.1-0.2-0.2v-8c0-0.1,0.1-0.2,0.2-0.2l0,0c0.1,0,0.2,0.1,0.2,0.2v8
				C337,63.6,336.9,63.7,336.7,63.7z"/>
			<g>
				<path d="M339.9,63.4h-46.6v-7.9h46.6c0.4,0,0.8,0.3,0.8,0.8v6.4C340.7,63.1,340.3,63.4,339.9,63.4z"/>
				<rect x="339.7" y="56.2" width="3.9" height="6.6"/>
				<path d="M342.4,57c0,0,0.5-3.7,3.1-7.6c0.9-1.3,2.4-2,4-1.9c4.6,0.5,13.9,2.7,13.9,11.9c0,9.1-9,11.8-13.6,12.6
					c-1.7,0.3-3.4-0.5-4.4-1.9c-1.3-2-2.9-5.1-2.9-8.1L342.4,57z"/>
				<path d="M338,63.7L338,63.7c-0.1,0-0.2-0.1-0.2-0.2v-8c0-0.1,0.1-0.2,0.2-0.2l0,0c0.1,0,0.2,0.1,0.2,0.2v8
					C338.2,63.6,338.1,63.7,338,63.7z"/>
			</g>
		</g>
		<g>
			<path d="M335.7,95L335.7,95c-0.1,0-0.2-0.1-0.2-0.2v-8c0-0.1,0.1-0.2,0.2-0.2l0,0c0.1,0,0.2,0.1,0.2,0.2v8
				C336,94.9,335.9,95,335.7,95z"/>
			<g>
				<path d="M338.9,94.8h-48v-7.9h48c0.4,0,0.8,0.3,0.8,0.8V94C339.7,94.4,339.3,94.8,338.9,94.8z"/>
				<rect x="338.7" y="87.5" width="3.9" height="6.6"/>
				<path d="M341.4,88.3c0,0,0.5-3.7,3.1-7.6c0.9-1.3,2.4-2,4-1.9c4.6,0.5,13.9,2.7,13.9,11.9c0,9.1-9,11.8-13.6,12.6
					c-1.7,0.3-3.4-0.5-4.4-1.9c-1.3-2-2.9-5.1-2.9-8.1L341.4,88.3z"/>
				<path d="M337,95L337,95c-0.1,0-0.2-0.1-0.2-0.2v-8c0-0.1,0.1-0.2,0.2-0.2l0,0c0.1,0,0.2,0.1,0.2,0.2v8
					C337.2,94.9,337.1,95,337,95z"/>
			</g>
		</g>
	</g>
	<g>
		<g>
			<path d="M268.4,79.3L268.4,79.3c0.1,0,0.2-0.1,0.2-0.2v-8c0-0.1-0.1-0.2-0.2-0.2l0,0c-0.1,0-0.2,0.1-0.2,0.2v8
				C268.2,79.2,268.3,79.3,268.4,79.3z"/>
			<g>
				<path d="M264.8,79h51.1v-7.9h-51.1c-0.2,0-0.3,0.2-0.3,0.3v7.2C264.5,78.9,264.7,79,264.8,79z"/>
				<rect x="261.6" y="71.8" transform="matrix(-1 -1.224647e-16 1.224647e-16 -1 527.0415 150.1142)" width="3.9" height="6.6"/>
				<path d="M262.7,72.6c0,0-0.5-3.7-3.1-7.6c-0.9-1.3-2.4-2-4-1.9c-4.6,0.5-13.9,2.7-13.9,11.9c0,9.1,9,11.8,13.6,12.6
					c1.7,0.3,3.4-0.5,4.4-1.9c1.3-2,2.9-5.1,2.9-8.1L262.7,72.6z"/>
				<path d="M267.2,79.3L267.2,79.3c0.1,0,0.2-0.1,0.2-0.2v-8c0-0.1-0.1-0.2-0.2-0.2l0,0c-0.1,0-0.2,0.1-0.2,0.2v8
					C266.9,79.2,267,79.3,267.2,79.3z"/>
			</g>
		</g>
		<g>
			<path d="M268.9,110.7L268.9,110.7c0.1,0,0.2-0.1,0.2-0.2v-8c0-0.1-0.1-0.2-0.2-0.2l0,0c-0.1,0-0.2,0.1-0.2,0.2v8
				C268.6,110.6,268.8,110.7,268.9,110.7z"/>
			<g>
				<path d="M265.7,110.5h50.7v-7.9h-50.7c-0.4,0-0.8,0.3-0.8,0.8v6.4C264.9,110.1,265.3,110.5,265.7,110.5z"/>
				<rect x="262" y="103.2" transform="matrix(-1 -1.224647e-16 1.224647e-16 -1 527.9443 213.0479)" width="3.9" height="6.6"/>
				<path d="M263.2,104c0,0-0.5-3.7-3.1-7.6c-0.9-1.3-2.4-2-4-1.9c-4.6,0.5-13.9,2.7-13.9,11.9c0,9.1,9,11.8,13.6,12.6
					c1.7,0.3,3.4-0.5,4.4-1.9c1.3-2,2.9-5.1,2.9-8.1L263.2,104z"/>
				<path d="M267.6,110.7L267.6,110.7c0.1,0,0.2-0.1,0.2-0.2v-8c0-0.1-0.1-0.2-0.2-0.2h0c-0.1,0-0.2,0.1-0.2,0.2v8
					C267.4,110.6,267.5,110.7,267.6,110.7z"/>
			</g>
		</g>
	</g>
	<path d="M412,551.6c-4.2-10.2-2.5-17.5-1.1-21.1c1-2.5,0.6-5.4-1.1-7.6c-0.4-0.6-0.9-1-1.2-1.3c-0.1-0.1-0.2-0.3-0.2-0.5
		c0-0.2,0.1-0.4,0.3-0.5c1-0.7,1.3-1.9,0.8-3l-1.1-2.2c-0.9-1.9-3.3-2.7-5.2-1.7c-31.2,15.7-35.8-33.5-35.9-62.3
		c0-10.2,8.2-18.4,18.3-18.4c0.3,0,0.7,0,1,0c5.8,0.3,9.3-6.2,5.9-10.9c-0.1-0.1-0.1-0.2-0.2-0.3c-3.7-5-4.8-11.5-2.8-17.5
		c35.4-109.7-49.1-124.5-67-126.3l-4.2-156.1c-0.1-3.9,0-7.9,0.3-11.8c2-26.4-1.6-53.4-3.3-63.9c-0.1-0.6,0.1-1.2,0.6-1.6
		c0.7-0.7,1.1-1.6,1-2.7c-0.2-2.4-0.7-4.8-1-6.3c-0.1-0.5,0.2-0.9,0.7-0.9h3.1c0.7,0,1.3-0.6,1.3-1.3v-1.4c0-0.4,0.3-0.7,0.7-0.7
		h0.3c1.9,0,3.5-1.6,3.5-3.5v-3.8c0-1.9-1.6-3.5-3.5-3.5h-3.6c-0.4,0-0.7-0.3-0.7-0.7c0-0.2,0-0.5-0.1-0.8l-1.4-4.5
		c-0.3-1.1-1.3-1.8-2.5-1.8H312c-0.4,0-0.7-0.3-0.8-0.6l-2.4-11.5c-0.1-0.4-0.5-0.6-0.9-0.5c-2.1,1-3.8,0.2-4.4-0.2
		c-0.2-0.1-0.5-0.1-0.7,0c-2,1.2-3.6,0.8-4.4,0.3c-0.4-0.2-0.9,0-0.9,0.4L295,12.2c-0.1,0.4-0.4,0.6-0.8,0.6h-1.7
		c-1.1,0-2.1,0.7-2.5,1.8l-1.4,4.5c-0.1,0.3-0.1,0.5-0.1,0.8c0,0.4-0.3,0.7-0.7,0.7h-3.6c-1.9,0-3.5,1.6-3.5,3.5v3.8
		c0,1.9,1.6,3.5,3.5,3.5h0.3c0.4,0,0.7,0.3,0.7,0.7v1.4c0,0.7,0.6,1.3,1.3,1.3h3.1c0.5,0,0.8,0.4,0.7,0.9c-0.4,1.5-0.8,3.9-1.1,6.4
		c-0.1,1,0.3,2,1,2.7c0.4,0.4,0.6,1,0.5,1.6c-1.7,10.5-5.2,37.4-3.3,63.8c0.3,3.9,0.4,7.9,0.3,11.8l-4.2,156.1
		c-17.6,1.8-102.6,16.4-67.1,126.4c1.9,5.9,0.9,12.5-2.8,17.5c-0.1,0.1-0.1,0.2-0.2,0.3c-3.4,4.5-0.1,10.9,5.5,10.9
		c0.1,0,0.3,0,0.4,0c10.5-0.6,19.4,7.8,19.4,18.4c-0.1,28.8-4.6,78-35.9,62.3c-1.9-1-4.3-0.2-5.2,1.7l-1.1,2.2
		c-0.2,0.3-0.2,0.7-0.2,1c0,0.8,0.4,1.5,1,1.9c0.3,0.2,0.4,0.7,0.1,1c-0.1,0.1-0.1,0.1-0.2,0.2c-2.4,2.3-2.9,6-1.5,9
		c1.7,3.5,3.2,10.2-1.7,20.5c-7.6,15.8-13.9,29.1-13.9,66.6c0,45.9,47.7,83.6,109.1,88.6c4.5,0.4,9.1,0.6,13.7,0.6
		c4.8,0,9.6-0.2,14.3-0.6c61.1-5.1,108.5-42.8,108.5-88.5C425.9,581.1,418,566.4,412,551.6z"/>
	<g>
		<path class="st0" d="M277.3,474.1c-0.3-0.4-0.5-0.9-0.7-1.4c-1.2-3.1-4-7.4-10.3-6.6c-9.7,1.2-16,11.9-16.7,41
			c-0.7,29.1-1.5,35.9-7.1,41.4c-3.4,3.4-7,1.2-9.4-0.9c-1.1-1-1.3-2.6-0.5-3.8c0.2-0.3,0.5-0.6,0.9-0.7c1.8-0.7,3.9-7.4-1.9-9.2
			c-5.4-1.6-10.9,5.4-5.6,11.9c0.5,0.6,0.9,1.2,1.3,1.8c4.8,8.4,16.3,8.7,23.8-3.9c8.8-14.7,7.6-39.2,7.1-52.9
			c-0.5-13.7,3.7-21.7,8.3-22.1c2.3-0.2,4,1.3,5.2,2.9c0.4,0.6,0.5,1.4,0.1,2l0,0c-0.9,1.8-2,7.1,2,7.1
			C277.4,480.7,279,477.1,277.3,474.1z"/>
		<path class="st0" d="M328.9,474.1c0.3-0.4,0.5-0.9,0.7-1.4c1.2-3.1,4-7.4,10.3-6.6c9.7,1.2,16,11.9,16.7,41
			c0.7,29.1,1.5,35.9,7.1,41.4c3.4,3.4,7,1.2,9.4-0.9c1.1-1,1.3-2.6,0.5-3.8c-0.2-0.3-0.5-0.6-0.9-0.7c-1.8-0.7-3.9-7.4,1.9-9.2
			c5.4-1.6,10.9,5.4,5.6,11.9c-0.5,0.6-0.9,1.2-1.3,1.8c-4.8,8.4-16.3,8.7-23.8-3.9c-8.8-14.7-7.6-39.2-7.1-52.9
			c0.5-13.7-3.7-21.7-8.3-22.1c-2.3-0.2-4,1.3-5.2,2.9c-0.4,0.6-0.5,1.4-0.1,2l0,0c0.9,1.8,2,7.1-2,7.1
			C328.8,480.7,327.2,477.1,328.9,474.1z"/>
	</g>
	<path class="st0" d="M331.9,517.4h-57.7c-0.9,0-1.6-0.7-1.6-1.6l0,0c0-4.4,3.6-8,8-8h45c4.4,0,8,3.6,8,8l0,0
		C333.6,516.6,332.8,517.4,331.9,517.4z"/>
	<g>
		<g>
			<polyline class="st1" points="295.1,72.8 285,510.4 287.3,577.9 			"/>
			<polyline class="st1" points="311.2,103.5 321.2,510.4 318.8,577.7 			"/>
		</g>
		<polyline class="st1" points="297.5,577 295.7,512.4 299.9,89.7 		"/>
		<polyline class="st1" points="308.7,577.1 309.9,512.4 305.7,60.1 		"/>
	</g>
	<g>
		<path class="st0" d="M327.3,573.1c-0.6,6.7-2.7,24.3-7.5,37.9c-6,17.2-4,58-1.7,74.3c1.2,8.7,0.8,16.6-0.7,21.3
			c-4.7,0.4-9.5,0.6-14.3,0.6c-4.6,0-9.2-0.2-13.7-0.6c-2.6-3.6-2.8-10.2-1.3-21.3c2.2-16.3,4.3-57.1-1.7-74.3
			c-4.7-13.4-6.8-30.7-7.4-37.6c-0.1-1.4,1.2-2.6,2.6-2.3c1.6,0.4,3.8,0.8,6.6,1.2c6.2,0.9,15.4,1.4,27.1,0c3-0.4,6.2-0.8,9.6-1.5
			C326.1,570.6,327.4,571.7,327.3,573.1z"/>
		<path d="M290.3,592.9c0,1.8-1.4,3.2-3.2,3.2c-1.8,0-3.2-1.4-3.2-3.2c0-1.8,1.4-3.2,3.2-3.2C288.9,589.7,290.3,591.1,290.3,592.9z"
			/>
		<path d="M300.6,592.9c0,1.8-1.4,3.2-3.2,3.2c-1.8,0-3.2-1.4-3.2-3.2c0-1.8,1.4-3.2,3.2-3.2C299.2,589.7,300.6,591.1,300.6,592.9z"
			/>
		<path d="M312,592.9c0,1.8-1.4,3.2-3.2,3.2c-1.8,0-3.2-1.4-3.2-3.2c0-1.8,1.4-3.2,3.2-3.2C310.5,589.7,312,591.1,312,592.9z"/>
		<path d="M322.3,592.9c0,1.8-1.4,3.2-3.2,3.2c-1.8,0-3.2-1.4-3.2-3.2c0-1.8,1.4-3.2,3.2-3.2C320.8,589.7,322.3,591.1,322.3,592.9z"
			/>
		<path d="M289.3,579.9v5c0,1.1-0.9,2-2,2c-1.1,0-2-0.9-2-2v-5H289.3z"/>
		<path d="M299.5,579.9v5c0,1.1-0.9,2-2,2c-1.1,0-2-0.9-2-2v-5H299.5z"/>
		<path d="M310.7,579.9v5c0,1.1-0.9,2-2,2c-1.1,0-2-0.9-2-2v-5H310.7z"/>
		<path d="M320.8,579.9v5c0,1.1-0.9,2-2,2s-2-0.9-2-2v-5H320.8z"/>
		<g>
			<g>
				<path class="st0" d="M317,579.8v-4.3c0-1,0.8-1.8,1.9-1.8c0.5,0,1,0.2,1.3,0.5c0.3,0.3,0.5,0.8,0.5,1.3v4.3H317z"/>
				<path d="M318.9,573.7c0.5,0,0.9,0.2,1.2,0.5c0.3,0.3,0.5,0.8,0.5,1.2v4.2h-3.5v-4.2C317.1,574.5,317.9,573.7,318.9,573.7
					 M318.9,573.5c-1.1,0-2,0.9-2,2v4.5h4v-4.5c0-0.5-0.2-1-0.6-1.4C319.9,573.7,319.4,573.5,318.9,573.5L318.9,573.5z"/>
			</g>
		</g>
		<g>
			<g>
				<path class="st0" d="M306.8,579.8v-4.3c0-1,0.8-1.8,1.8-1.8c0.5,0,1,0.2,1.3,0.5c0.4,0.3,0.5,0.8,0.5,1.3v4.3H306.8z"/>
				<path d="M308.7,573.7c0.5,0,0.9,0.2,1.2,0.5c0.3,0.3,0.5,0.8,0.5,1.2v4.2H307v-4.2C307,574.5,307.7,573.7,308.7,573.7
					 M308.7,573.5c-1.1,0-2,0.9-2,2v4.5h4v-4.5c0-0.5-0.2-1-0.6-1.4C309.7,573.7,309.2,573.5,308.7,573.5L308.7,573.5z"/>
			</g>
		</g>
		<g>
			<g>
				<path class="st0" d="M295.6,579.8v-4.3c0-1,0.8-1.8,1.8-1.8c0.5,0,1,0.2,1.3,0.5c0.4,0.3,0.5,0.8,0.5,1.3v4.3H295.6z"/>
				<path d="M297.5,573.7c0.5,0,0.9,0.2,1.2,0.5c0.3,0.3,0.5,0.8,0.5,1.2v4.2h-3.5v-4.2C295.8,574.5,296.5,573.7,297.5,573.7
					 M297.5,573.5c-1.1,0-2,0.9-2,2v4.5h4v-4.5c0-0.5-0.2-1-0.6-1.4C298.5,573.7,298,573.5,297.5,573.5L297.5,573.5z"/>
			</g>
		</g>
		<g>
			<g>
				<path class="st0" d="M285.5,579.8v-4.3c0-1,0.8-1.8,1.8-1.8c0.5,0,1,0.2,1.3,0.5c0.4,0.3,0.5,0.8,0.5,1.3v4.3H285.5z"/>
				<path d="M287.3,573.7c0.5,0,0.9,0.2,1.2,0.5c0.3,0.3,0.5,0.8,0.5,1.2v4.2h-3.5v-4.2C285.6,574.5,286.4,573.7,287.3,573.7
					 M287.3,573.5c-1.1,0-2,0.9-2,2v4.5h4v-4.5c0-0.5-0.2-1-0.6-1.4C288.3,573.7,287.9,573.5,287.3,573.5L287.3,573.5z"/>
			</g>
		</g>
	</g>
	<g>
		<g>
			<path class="st0" d="M309.3,63.2h-12.4c-2,0-3.7-1.6-3.7-3.7v0c0-2,1.6-3.7,3.7-3.7h12.4c2,0,3.7,1.6,3.7,3.7l0,0
				C313,61.5,311.3,63.2,309.3,63.2z"/>
		</g>
		<g>
			<path class="st0" d="M309.3,94.5h-12.4c-2,0-3.7-1.6-3.7-3.7v0c0-2,1.6-3.7,3.7-3.7h12.4c2,0,3.7,1.6,3.7,3.7l0,0
				C312.9,92.9,311.3,94.5,309.3,94.5z"/>
		</g>
		<g>
			<path class="st0" d="M309.4,78.7H297c-2,0-3.7-1.6-3.7-3.7l0,0c0-2,1.6-3.7,3.7-3.7h12.4c2,0,3.7,1.6,3.7,3.7v0
				C313,77.1,311.4,78.7,309.4,78.7z"/>
		</g>
		<g>
			<path class="st0" d="M309.3,110.2h-12.4c-2,0-3.7-1.6-3.7-3.7v0c0-2,1.6-3.7,3.7-3.7h12.4c2,0,3.7,1.6,3.7,3.7l0,0
				C312.9,108.6,311.3,110.2,309.3,110.2z"/>
		</g>
	</g>
	<g>
		<g>
			<g>
				<path d="M501.1,28.5c0.2,0.9,0.5,3.4-1,9.9c-0.4,1.7-0.8,13.8,0.2,98.3c0.6,49.9,1.6,118.8,2.9,204.5c2.2,139.5,4.7,279.5,5,293
					l-2.9,1.4c-0.2-30.2-2.4-319.5-4.5-374.8c-2.2-58.7-3.2-206.5-2.7-219.6c0.3-7,0.8-10.3,1.3-11.9c0.1-0.4,0.5-0.8,1-0.8
					L501.1,28.5 M502,26.9l-1.5,0c-1.2,0-2.3,0.8-2.6,2c-0.5,1.8-1,5.4-1.3,12.3c-0.5,13.7,0.5,161,2.7,219.7
					c2.2,58.7,4.5,377.3,4.5,377.3l6.1-2.9c0,0-10.6-585.2-8.2-596.5C504.2,27.5,502,26.9,502,26.9L502,26.9z"/>
			</g>
		</g>
		<path d="M503.6,19.1c-1.4,3.9-4.3,13.6-4.2,25.7c0,1.2,0.6,2.4,1.6,3.1l0,0c0.8,0.6,1.8,0.9,2.8,0.8c2.4-0.2,7.1-0.6,11.9-0.3
			c1.9,0.1,3.3,1.7,3.2,3.6c-1.2,14.9-5.8,76.6-7.5,117.4c-1.9,46.6-2.9,307.6,13,465.8c0,0.4-0.2,0.8-0.6,1l-3.3,1.1
			c-0.4,0.1-0.7,0.5-0.6,0.9l0.8,12c0.1,0.8-0.5,1.5-1.3,1.6l-4,0.4c-0.8,0.1-1.6-0.5-1.6-1.4l-0.9-14.6c0-0.7-0.5-1.3-1.2-1.5
			l-1.1-0.4c-0.4-0.2-0.9-0.1-1.3,0.1l-4.8,2.2c-0.6,0.3-0.9,0.8-0.9,1.5l3.3,41.6c0.3,3.8,3.3,6.9,7.1,7.3
			c2.9,0.3,6.9,0.5,12.1,0.4c1.1,0,2,0.8,2.1,1.9l1.1,13.5c0,0.2,0.2,0.4,0.4,0.4l0,0c0.2,0,0.4,0.1,0.4,0.4l1.1,14.4
			c0.1,1,0.9,1.9,2,1.9c1.3,0.1,3.2,0,5.2-0.6c0.9-0.3,1.5-1.2,1.4-2.2l-1.1-14.1c0-0.2,0.1-0.5,0.4-0.5l0,0
			c0.2-0.1,0.4-0.3,0.4-0.5c-0.7-10.7-14.8-223.9-18-303c-3.3-80.3-2-287.7,5.2-361.5c0.1-1.4-0.7-2.6-2-3.1
			c-2.4-0.8-6.5-2.4-10.4-4.8c-4.9-3-6.1-6-5.6-9.3c0.2-1.4-0.8-2.7-2.2-2.9l-0.1,0C505.1,17.3,504,18,503.6,19.1z"/>
		<path class="st0" d="M522,669.9c0,2.6-2.1,4.8-4.8,4.8s-4.8-2.1-4.8-4.8c0-2.6,2.1-4.8,4.8-4.8S522,667.3,522,669.9z"/>
		<circle cx="517.3" cy="669.9" r="3.1"/>
	</g>
</g>
</svg>
