<?xml version="1.0" encoding="utf-8"?>
<!-- Generator: Adobe Illustrator 23.0.2, SVG Export Plug-In . SVG Version: 6.00 Build 0)  -->
<!DOCTYPE svg PUBLIC "-//W3C//DTD SVG 1.1//EN" "http://www.w3.org/Graphics/SVG/1.1/DTD/svg11.dtd" [
	<!ENTITY ns_extend "http://ns.adobe.com/Extensibility/1.0/">
	<!ENTITY ns_ai "http://ns.adobe.com/AdobeIllustrator/10.0/">
	<!ENTITY ns_graphs "http://ns.adobe.com/Graphs/1.0/">
	<!ENTITY ns_vars "http://ns.adobe.com/Variables/1.0/">
	<!ENTITY ns_imrep "http://ns.adobe.com/ImageReplacement/1.0/">
	<!ENTITY ns_sfw "http://ns.adobe.com/SaveForWeb/1.0/">
	<!ENTITY ns_custom "http://ns.adobe.com/GenericCustomNamespace/1.0/">
	<!ENTITY ns_adobe_xpath "http://ns.adobe.com/XPath/1.0/">
]>
<svg version="1.1" id="Layer_1" xmlns:x="&ns_extend;" xmlns:i="&ns_ai;" xmlns:graph="&ns_graphs;"
	 xmlns="http://www.w3.org/2000/svg" xmlns:xlink="http://www.w3.org/1999/xlink" x="0px" y="0px" viewBox="0 0 720 720"
	 style="enable-background:new 0 0 720 720;" xml:space="preserve">
<style type="text/css">
	.Drop_x0020_Shadow{fill:none;}
	.Round_x0020_Corners_x0020_2_x0020_pt{fill:#FFFFFF;stroke:#231F20;stroke-miterlimit:10;}
	.Live_x0020_Reflect_x0020_X{fill:none;}
	.Bevel_x0020_Soft{fill:url(#SVGID_1_);}
	.Dusk{fill:#FFFFFF;}
	.Foliage_GS{fill:#FFDD00;}
	.Pompadour_GS{fill-rule:evenodd;clip-rule:evenodd;fill:#44ADE2;}
</style>
<metadata>
	<sfw  xmlns="&ns_sfw;">
		<slices></slices>
		<sliceSourceBounds  bottomLeftOrigin="true" height="720" width="262.7" x="228.6" y="-720"></sliceSourceBounds>
	</sfw>
</metadata>
<linearGradient id="SVGID_1_" gradientUnits="userSpaceOnUse" x1="0" y1="0" x2="0.7071" y2="0.7071">
	<stop  offset="0" style="stop-color:#DEDFE3"/>
	<stop  offset="0.1783" style="stop-color:#DADBDF"/>
	<stop  offset="0.3611" style="stop-color:#CECFD3"/>
	<stop  offset="0.546" style="stop-color:#B9BCBF"/>
	<stop  offset="0.7324" style="stop-color:#9CA0A2"/>
	<stop  offset="0.9181" style="stop-color:#787D7E"/>
	<stop  offset="1" style="stop-color:#656B6C"/>
</linearGradient>
<path d="M489,599.4c-6.6-31.3-18.7-36.8-13.6-55.5c0,0,5.6-5.6,4-8.6c-1.5-3-5-10.1-9.1-9.1c-4,1-7.1,8.1-20.2,1.5
	C437,521.2,432,493,432,468.3c0-24.7,11.1-37.8,21.2-34.8c10.1,3,10.6-3,8.6-6.1c-2-3-8.6-10.6-4-23.7c4.5-13.1,17.6-36.8,6-70.6
	c-11.6-33.8-41.9-56-81.7-56l-6.4-185.6h15.8c0.1,4.9,1.3,8.4,9.2,8.4c5.9,0,12-5.9,12-13.5c0-7.5-6.1-13.8-12-13.8
	c-10.3,0-9.5,4.9-9.2,11.4h-16l-0.8-22.9h18c0.5,1.8,2.4,3,9,3c5.9,0,12-2.9,12-6.5c0-3.6-6.1-6.6-12-6.6c-6.9,0-8.8,1.1-9.2,2.7
	h-18.1l-0.3-9.8c0,0,1-3,4.4-7.7c3.4-4.7,4.7-2.7,6.4-5.4c1.7-2.7,3.7-6.4,2-9.1c-1.7-2.7-8.1,0-8.1-2c0-2-1-7.7-3.4-7.7
	c-2.3,0-4.7,0.7-5-2.7c-0.3-3.4-1-9.4-4.7-9.4h-5.2h-0.7h-5.2c-3.7,0-4.4,6.1-4.7,9.4c-0.3,3.4-2.7,2.7-5.1,2.7
	c-2.3,0-3.4,5.7-3.4,7.7c0,2-6.4-0.7-8.1,2c-1.7,2.7,0.3,6.4,2,9.1c1.7,2.7,3,0.7,6.4,5.4c3.4,4.7,4.4,7.7,4.4,7.7l-0.8,23.9h-21.6
	c0.3-4.6,0.7-8.1-9.2-8.1c-5.9,0-12,4.7-12,10.4c0,5.7,6.1,10.1,12,10.1c6.9,0,8.7-2,9.1-5h21.5l-0.8,23.5h-20.6
	c0.3-6.5,1.1-11.4-9.2-11.4c-5.9,0-12,6.3-12,13.8c0,7.5,6.1,13.5,12,13.5c7.9,0,9.1-3.5,9.2-8.4h20.3L338,277.1
	c-39.9,0-70.1,22.2-81.7,56c-11.6,33.8,1.5,57.5,6,70.6c4.5,13.1-2,20.7-4,23.7c-2,3-1.5,9.1,8.6,6.1c10.1-3,21.2,10.1,21.2,34.8
	c0,24.7-5,53-18.2,59.5c-13.1,6.6-16.1-0.5-20.2-1.5c-4-1-7.6,6.1-9.1,9.1c-1.5,3,4,8.6,4,8.6c5,18.7-7.1,24.2-13.6,55.5
	c-6.6,31.3,0,66.6,25.7,92.8C282.5,718.5,347,720,347,720h12.6h0.7H373c0,0,64.6-1.5,90.3-27.7C489,666,495.5,630.7,489,599.4z"/>
</svg>
