<?xml version="1.0" encoding="utf-8"?>
<!-- Generator: Adobe Illustrator 23.0.2, SVG Export Plug-In . SVG Version: 6.00 Build 0)  -->
<!DOCTYPE svg PUBLIC "-//W3C//DTD SVG 1.1//EN" "http://www.w3.org/Graphics/SVG/1.1/DTD/svg11.dtd" [
	<!ENTITY ns_extend "http://ns.adobe.com/Extensibility/1.0/">
	<!ENTITY ns_ai "http://ns.adobe.com/AdobeIllustrator/10.0/">
	<!ENTITY ns_graphs "http://ns.adobe.com/Graphs/1.0/">
	<!ENTITY ns_vars "http://ns.adobe.com/Variables/1.0/">
	<!ENTITY ns_imrep "http://ns.adobe.com/ImageReplacement/1.0/">
	<!ENTITY ns_sfw "http://ns.adobe.com/SaveForWeb/1.0/">
	<!ENTITY ns_custom "http://ns.adobe.com/GenericCustomNamespace/1.0/">
	<!ENTITY ns_adobe_xpath "http://ns.adobe.com/XPath/1.0/">
]>
<svg version="1.1" id="Layer_1" xmlns:x="&ns_extend;" xmlns:i="&ns_ai;" xmlns:graph="&ns_graphs;"
	 xmlns="http://www.w3.org/2000/svg" xmlns:xlink="http://www.w3.org/1999/xlink" x="0px" y="0px" viewBox="0 0 720 720"
	 style="enable-background:new 0 0 720 720;" xml:space="preserve">
<style type="text/css">
	.Drop_x0020_Shadow{fill:none;}
	.Round_x0020_Corners_x0020_2_x0020_pt{fill:#FFFFFF;stroke:#231F20;stroke-miterlimit:10;}
	.Live_x0020_Reflect_x0020_X{fill:none;}
	.Bevel_x0020_Soft{fill:url(#SVGID_1_);}
	.Dusk{fill:#FFFFFF;}
	.Foliage_GS{fill:#FFDD00;}
	.Pompadour_GS{fill-rule:evenodd;clip-rule:evenodd;fill:#44ADE2;}
</style>
<metadata>
	<sfw  xmlns="&ns_sfw;">
		<slices></slices>
		<sliceSourceBounds  bottomLeftOrigin="true" height="720" width="236.3" x="241.8" y="-720"></sliceSourceBounds>
	</sfw>
</metadata>
<linearGradient id="SVGID_1_" gradientUnits="userSpaceOnUse" x1="0" y1="0" x2="0.7071" y2="0.7071">
	<stop  offset="0" style="stop-color:#DEDFE3"/>
	<stop  offset="0.1783" style="stop-color:#DADBDF"/>
	<stop  offset="0.3611" style="stop-color:#CECFD3"/>
	<stop  offset="0.546" style="stop-color:#B9BCBF"/>
	<stop  offset="0.7324" style="stop-color:#9CA0A2"/>
	<stop  offset="0.9181" style="stop-color:#787D7E"/>
	<stop  offset="1" style="stop-color:#656B6C"/>
</linearGradient>
<g>
	<g>
		<path d="M411,702.3c-2.9,0-117-3.3-117-3.3l0,0l0-0.6l0.3-0.5l-0.3,0.5l0,0.6l-0.2,0l-33.4-19.5l-8.2-50.8l3.2-18.3l22.4-28
			l8.6-29.6c-0.2-0.7-1.1-4.4-4.3-17.3l0,0c-1.9-7.4-5.3-19.3-8.2-29.2l0,0c-3-10-5.4-18-5.4-18l0,0l0-0.1l6.9-45l0-0.1
			c0,0,6.2-13.7,9.3-22.4l0,0c3-8.4,9.5-8.9,10.4-8.8l0,0c0.1,0,0.1,0,0.1,0l0,0l0.6,0l0,0.6c0,0,0,0.3,0,0.7l0,0
			c0,4.4,0.3,27.2,6.2,38.3l0,0c2,3.7,4.4,6,7.5,6.1l0,0c1.6,0.1,2.9,0.1,4.1,0.1l0,0c3.5,0,4.9-0.3,5.2-0.6l0,0
			c0.3-0.2,0.2-0.5,0.6-1.4l0,0c0.3-0.6,0.9-1.1,2-1.5l0,0c4.5-1.7,11.6-4.4,17.1-14.6l0,0c2-3.6,6.9-5.5,12.6-6.7l0,0
			c5.7-1.1,12.3-1.4,17.8-1.4l0,0c6.2,0,10.9,0.4,10.9,0.4l0,0l0.4,0l0.1,0.4c0,0,1.4,4.2,3.5,8.7l0,0c2.1,4.5,5,9.1,7.4,10l0,0
			c2.7,1,7.7,2.1,12.1,2.8l0,0c3.6,0.7,6.7,1.1,7.7,1.3l0,0l14.9-12.7l0.6-13l0.3-5.5l4.4,3.3l11.3,18.4l0,0.1
			c0,0,5.8,23.3,5.8,45.9l0,0c0,10.1-1.2,20.2-4.5,27.9l0,0c-4,9.1-5.7,18-5.7,26l0,0c0,13.6,5,25,12.6,31.7l0,0
			c6,5.3,12.4,13.4,17.3,21.2l0,0c4.9,7.8,8.3,15.2,8.3,19.6l0,0c0,0.4,0,0.7-0.1,1.1l0,0c-1.3,7.5-17.6,57.7-31.3,70.9l0,0
			c-12.9,12.3-28.8,12.6-33.1,12.6l0,0C411.4,702.3,411.1,702.3,411,702.3L411,702.3z M311.9,698.2c10.7,0.3,25.1,0.7,39.5,1.1l0,0
			c28.9,0.8,58.1,1.7,59.6,1.7l0,0c0.2,0,0.4,0,0.7,0l0,0c4.2,0,19.8-0.4,32.3-12.3l0,0c13.2-12.5,29.8-63.1,30.9-70.2l0,0
			c0-0.3,0.1-0.6,0.1-0.9l0,0c0-3.8-3.3-11.3-8.1-18.9l0,0c-4.8-7.7-11.2-15.7-17-20.9l0,0c-8-7-13.1-18.8-13.1-32.7l0,0
			c0-8.2,1.8-17.3,5.8-26.5l0,0c3.3-7.5,4.4-17.4,4.4-27.4l0,0c0-11.2-1.4-22.6-2.9-31.2l0,0c-1.3-8-2.6-13.5-2.8-14.3l0,0
			l-11.1-18.1l-2.3-1.7l-0.1,3.2l-0.6,13.5l-15.8,13.4l-0.3,0c0,0-14.5-2.1-20.2-4.2l0,0c-3.2-1.2-5.9-6.1-8.1-10.6l0,0
			c-1.8-3.7-3.1-7.3-3.5-8.4l0,0c-1.2-0.1-5.3-0.4-10.4-0.4l0,0c-5.4,0-11.9,0.3-17.5,1.4l0,0c-5.6,1.1-10.2,3.1-11.8,6.1l0,0
			c-5.7,10.5-13.2,13.6-17.8,15.2l0,0c-1.4,0.6-1.3,0.8-1.4,1.3l0,0c0,0.6-0.5,1.7-1.9,2l0,0c-1,0.2-2.4,0.4-4.8,0.4l0,0
			c-1.1,0-2.5,0-4.1-0.1l0,0c-3.8-0.2-6.6-2.9-8.6-6.8l0,0c-2-3.9-3.4-9-4.3-14.2l0,0c-1.9-10.5-2-21.6-2-24.6l0,0c0,0,0-0.1,0-0.1
			l0,0c-1.7,0.2-6.3,1.2-8.7,8l0,0c-3,8.4-8.8,21.3-9.3,22.4l0,0l-6.8,44.6c0.7,2.3,10.1,32.8,13.6,47.2l0,0
			c3.7,14.9,4.4,17.4,4.4,17.4l0,0l0,0.2l-8.8,30.1l-22.4,28l-3.1,17.8l8,50l32.6,19.1C295.2,697.7,302,697.9,311.9,698.2
			L311.9,698.2z"/>
	</g>
	<g>
		<path d="M343.5,73.2L333,71.9c0,0,0.6-2.1-1-3.9c-1.7-1.9-10.6-0.8-10.8,6.6c-0.3,9.3,11.6,12,12.2,5c0.1-1.5,0-2.3,0-2.3l7.5,0.6
			L343.5,73.2z"/>
	</g>
	<g>
		<path d="M343.5,50.6L333,49.3c0,0,0.6-2.1-1-3.9c-1.7-1.9-10.6-0.8-10.8,6.6c-0.3,9.3,11.6,12,12.2,5c0.1-1.5,0-2.3,0-2.3l7.5,0.6
			L343.5,50.6z"/>
	</g>
	<g>
		<path d="M343.5,28.6L333,27.3c0,0,0.6-2.1-1-3.9c-1.7-1.9-10.6-0.8-10.8,6.6c-0.3,9.3,11.6,12,12.2,5c0.1-1.5,0-2.3,0-2.3l7.5,0.6
			L343.5,28.6z"/>
	</g>
	<g>
		<path d="M377.4,73.2l10.6-1.2c0,0-0.6-2.1,1-3.9c1.7-1.9,10.6-0.8,10.8,6.6c0.3,9.3-11.6,12-12.2,5c-0.1-1.5,0-2.3,0-2.3l-7.5,0.6
			L377.4,73.2z"/>
	</g>
	<g>
		<path d="M377.4,50.6l10.6-1.2c0,0-0.6-2.1,1-3.9c1.7-1.9,10.6-0.8,10.8,6.6c0.3,9.3-11.6,12-12.2,5c-0.1-1.5,0-2.3,0-2.3l-7.5,0.6
			L377.4,50.6z"/>
	</g>
	<g>
		<path d="M377.4,28.6l10.6-1.2c0,0-0.6-2.1,1-3.9c1.7-1.9,10.6-0.8,10.8,6.6c0.3,9.3-11.6,12-12.2,5c-0.1-1.5,0-2.3,0-2.3l-7.5,0.6
			L377.4,28.6z"/>
	</g>
	<g>
		<path d="M357.4,710.6v6c0,0-1.7,0-1.7,0.8c0,0.8,0.5,2.6,4.9,2.6c6.4,0,5.9-2.4,5.3-3c-0.6-0.6-1.7-0.6-1.7-0.6V711L357.4,710.6z"
			/>
	</g>
	<g>
		<path d="M441.4,563.9c-4.4-13.7-1.2-28.6,5.6-39.8c6.8-11.2,21.8-64.2-18.7-100.2c-5.6-5,3.1,29.3-24.3,29.3
			c-27.4,0-24.9-31.7-24.9-44.2c0-12.5-4.4-290.6-4.4-298.1c0-7.5,5-19.9,8.7-21.8c0,0,0.6-68.4,4.4-82.8c0,0-16.2-1.2-19.9-5
			c-3.7-3.7-5.6,1.2-5.6,1.2s-6.8-4.4-11.8-0.6c-5,3.7-16.8,3.7-16.8,3.7s6.2,66,2.5,82.1c0,0,9.3,5,9.3,24.3
			c0,19.3-5,273.2-5,294.3c0,10.7,0.8,22.2-1.8,31c0.4,1.7,1.7,12.6-23.9,21.9c-0.2,0.1-0.3,0.1-0.3,0.1c0.1,0,0.2-0.1,0.3-0.1
			c1.6-0.6,19.5-6.3,24.1-20.9c-3.3,2.2-4,15.4-21.5,14c-26-2.2-18.4-35.2-15.6-41.7c1.9-4.4-24.3,2.5-36.1,36.1
			c-11.8,33.6-0.6,70.9,11.8,90.2c12.4,19.3-17.1,47.3-25.2,58.8c-10,14.2-45.7,120.4,108.6,117.3c91.5-1.8,117-33.6,117-79
			S445.8,577.6,441.4,563.9z M290.2,520.8c16.5,33.3,0.8,61.6-3.4,67.2c-4.2,5.6-15.7,17.6-23.8,32.4c-21.4,39.1,21,73.6,21,73.6
			c-40.1-31.1-33.6-74.1-9.6-97.4c24-23.3,23-55.4,12.4-75.9c-10.6-20.5-14.9-43.3-12.4-60.7c2-14.2,14.6-36.9,19.2-44.8
			c0.3-0.6,0.4-0.9,0.4-0.9s-0.1,0.2-0.1,0.5c0.9-1.5,1.4-2.3,1.4-2.3c-0.6,1.4-1.3,2.7-1.9,4c-1.8,6.6-6.7,26.3-2.5,33.2
			c5.1,8.2,11.4,10.6,11.4,10.6s-21-4.3-16.3-25.6C273.4,469.4,276.5,493,290.2,520.8z M380.6,442.4l-1.2-13.5
			c3.1,22.1,24.4,36.3,24.4,36.3C392,460.5,380.6,442.4,380.6,442.4z M442.5,459.7c7.6,26.1-1.6,46.2-1.6,46.2
			c5.4-14.3,0.8-35.8-1.1-42.3c-1.9-6.5-12.3-36.1-12.3-36.1S434.9,433.6,442.5,459.7z M428.7,455.8c-2.6,2.6-9.3,5.9-11.5,6.8
			c0,0,12.5-9.5,13.5-17C430.7,445.7,431.3,453.2,428.7,455.8z M442.5,573.2c-14.5-16-9.9-39.4-9.9-39.4s1.4,14.7,4.8,25.3
			c3.3,10.6,17.8,23.9,24.9,33.2c7.1,9.3,10.4,23.6,10.4,23.6C470.3,607.5,457,589.2,442.5,573.2z"/>
	</g>
	<g>
		<g>
			<path d="M379.5,446.6c0,0,12.4,25.5,30.5,25.5c18,0,21.5-12.1,21.5-12.1s9,14.9,9,30.8c0,15.9-9.6,26.1-12.1,38.6
				c-2.5,12.4-0.6,37.7,8.4,47.6c3.1,3.4-1.9,5.9-6.8,5.9c-5,0-15.6-1.2-24-5c-8.4-3.7-15.9-5.3-21.2-5.3c-5.3,0-30.8,1.5-39.5,4.7
				c-5.9,2.1-15.2,6.5-23.9,6.5c-4.1,0-8.1-1-11.5-3.7c0,0,7.8-30.2,6.5-60.4c-1.2-30.2-14.6-50.1-14.6-50.1s3.7,1,8.5,1
				c5.8,0,13.1-1.4,17.3-7.5c7.8-11.2,12.5-13.4,12.5-16.5H379.5 M379.5,445.4H340c-0.7,0-1.2,0.6-1.2,1.2c0,1.1-1.1,2.4-3.2,4.6
				c-2.2,2.4-5.2,5.7-9,11.2c-4,5.8-11.1,7-16.3,7c-4.6,0-8.2-0.9-8.2-0.9c-0.1,0-0.2,0-0.3,0c-0.4,0-0.8,0.2-1,0.5
				c-0.3,0.4-0.3,1,0,1.4c0.1,0.2,13.2,20,14.4,49.4c1.2,29.6-6.4,59.7-6.5,60c-0.1,0.5,0.1,1,0.4,1.3c3.3,2.6,7.5,4,12.3,4
				c7.3,0,15.1-3,20.7-5.2c1.3-0.5,2.5-1,3.6-1.4c8.6-3.1,34.1-4.6,39.1-4.6c5.7,0,13.2,1.9,20.7,5.2c9.1,4,20,5.1,24.5,5.1
				c3.4,0,7.6-1.2,8.8-3.7c0.4-0.8,0.7-2.4-1-4.3c-8.6-9.4-10.5-34.3-8.1-46.5c1-4.8,3.1-9.3,5.3-14.1c3.4-7.3,6.9-14.9,6.9-24.7
				c0-16-8.8-30.8-9.2-31.4c-0.2-0.4-0.6-0.6-1.1-0.6c-0.1,0-0.1,0-0.2,0c-0.5,0.1-0.9,0.4-1,0.9c-0.1,0.5-3.5,11.2-20.3,11.2
				c-17.1,0-29.2-24.6-29.4-24.8C380.4,445.6,380,445.4,379.5,445.4L379.5,445.4z"/>
		</g>
	</g>
	<g>
		<path d="M306.5,474.5c0-1.1,0.9-2,2-2c1.1,0,2,0.9,2,2c0,1.1-0.9,2-2,2C307.4,476.5,306.5,475.6,306.5,474.5z"/>
	</g>
	<g>
		<path d="M338.7,452.9c0-1.1,0.9-2,2-2c1.1,0,2,0.9,2,2c0,1.1-0.9,2-2,2C339.5,454.9,338.7,454,338.7,452.9z"/>
	</g>
	<g>
		<path d="M377.2,452.9c0-1.1,0.9-2,2-2c1.1,0,2,0.9,2,2c0,1.1-0.9,2-2,2C378.1,454.9,377.2,454,377.2,452.9z"/>
	</g>
	<g>
		<path d="M429.9,467.5c0-1.1,0.9-2,2-2c1.1,0,2,0.9,2,2c0,1.1-0.9,2-2,2C430.8,469.4,429.9,468.6,429.9,467.5z"/>
	</g>
	<g>
		<path d="M432.2,502.9c0-1.1,0.9-2,2-2c1.1,0,2,0.9,2,2c0,1.1-0.9,2-2,2C433.1,504.9,432.2,504,432.2,502.9z"/>
	</g>
	<g>
		<path d="M420.6,540.7c0-1.1,0.9-2,2-2c1.1,0,2,0.9,2,2c0,1.1-0.9,2-2,2C421.5,542.7,420.6,541.8,420.6,540.7z"/>
	</g>
	<g>
		<path d="M431.6,579.7c0-1.1,0.9-2,2-2c1.1,0,2,0.9,2,2c0,1.1-0.9,2-2,2C432.5,581.7,431.6,580.8,431.6,579.7z"/>
	</g>
	<g>
		<path d="M313.4,578.8c0-1.1,0.9-2,2-2c1.1,0,2,0.9,2,2c0,1.1-0.9,2-2,2C314.2,580.8,313.4,579.9,313.4,578.8z"/>
	</g>
	<g>
		<path d="M318.3,544c0-1.1,0.9-2,2-2c1.1,0,2,0.9,2,2c0,1.1-0.9,2-2,2C319.2,546,318.3,545.1,318.3,544z"/>
	</g>
	<g>
		<path d="M317.5,508.5c0-1.1,0.9-2,2-2c1.1,0,2,0.9,2,2c0,1.1-0.9,2-2,2C318.4,510.5,317.5,509.6,317.5,508.5z"/>
	</g>
	<g>
		<path d="M392.3,562.7c-1.7,0-53.1,0-58.9,0c-5.8,0-10.6-0.4-10.6,4.1c0,6.9,6.6,8.7,11.8,8.7c5.2,0,41.9,0,45.8,0
			c3.9,0,15.6-1.7,15.6-7.7C396,561.8,393.9,562.7,392.3,562.7z M328,572.6c-2.3-2.9-4.6-7.7,0.6-7.9c0,0,3.7-0.2,3.9,1.2
			c0.2,1.4,2.5,7.3,5.6,8.7C338.2,574.7,330.3,575.5,328,572.6z M380.3,571c0,0-29.7,0-31.5,0c-1.9,0-3.3,0.8-3.3,0.8v-3.3
			c-2.5,0-5.9,0-6.6,0c-1.2,0-0.2-1.5-0.2-1.5s0.2,1.5,0.2-0.8c0-2.3,4.8-1.9,7-1.9c1.3,0,1.9,1.4,2.1,2.6
			c4.2,0.2,12.2,0.8,12.2,1.5c0,1,5.2,0.6,5.2,0.6h7.1c0,0,1.7,0,3.5,0c1.9,0,2.1-1.9,2.9-1.9c0.8,0,1.4-0.2,1.4,1.4
			C380.3,570.4,380.3,571,380.3,571z M383.6,574.7v-10.4c0,0,1.2,8.3,1.9,7.3c0.6-1,2.1-1.7,2.1-1.7h4.8
			C390.2,573.9,383.6,574.7,383.6,574.7z"/>
	</g>
	<g>
		<g>
			<path d="M437.7,611.1c-6.6,0-11.9-5.3-11.9-11.9s5.4-11.9,11.9-11.9c6.6,0,11.9,5.4,11.9,11.9S444.3,611.1,437.7,611.1
				L437.7,611.1z"/>
		</g>
		<g>
			<path d="M437.7,587.6c6.4,0,11.6,5.2,11.6,11.6c0,6.4-5.2,11.6-11.6,11.6c-6.4,0-11.6-5.2-11.6-11.6
				C426.1,592.8,431.3,587.6,437.7,587.6 M437.7,586.9c-6.7,0-12.2,5.5-12.2,12.2c0,6.7,5.5,12.2,12.2,12.2
				c6.7,0,12.2-5.5,12.2-12.2C450,592.4,444.5,586.9,437.7,586.9L437.7,586.9z"/>
		</g>
	</g>
	<g>
		<path d="M445.6,593.6h-1.9c0,0,0,0,0,1.2c0,0.7-0.9,1.8-1.7,2.6c-0.8-1.5-2.4-2.6-4.3-2.6c-1.6,0-3.1,0.8-3.9,2
			c-0.8-0.8-1.6-1.8-1.6-2.4c0-1.2,0-1.2,0-1.2h-1.9c0,0-2.7,6.6,0,10l3.4-0.5c0.9,1.2,2.3,2,3.9,2c1.6,0,2.9-0.8,3.8-1.9l0,0.2
			l3.9,0.6C448.3,600.2,445.6,593.6,445.6,593.6z"/>
	</g>
	<g>
		<path d="M408.9,685.4c-3.7,0-6.7,3-6.7,6.7c0,3.7,3,6.7,6.7,6.7c3.7,0,6.7-3,6.7-6.7C415.6,688.4,412.6,685.4,408.9,685.4z
			 M408.9,695.3c-1.8,0-3.3-1.5-3.3-3.3c0-1.8,1.5-3.3,3.3-3.3c1.8,0,3.3,1.5,3.3,3.3C412.1,693.9,410.7,695.3,408.9,695.3z"/>
	</g>
	<g>
		<path d="M417.2,665.5c-4.1,0-7.5,3.3-7.5,7.5c0,4.1,3.3,7.5,7.5,7.5c4.1,0,7.5-3.3,7.5-7.5C424.6,668.8,421.3,665.5,417.2,665.5z
			 M417.5,677.7c-2.2,0-4-1.8-4-4c0-2.2,1.8-4,4-4c2.2,0,4,1.8,4,4C421.5,675.9,419.7,677.7,417.5,677.7z"/>
	</g>
	<g>
		<path d="M409.7,676c0.2,0.5,0.4,0.8,0.4,0.8C409.9,676.5,409.8,676.2,409.7,676z M417.5,662.7c-6.9-0.1-11.5,5.7-7.8,13.3
			c-0.6-1.3-1.4-4-0.3-6.5c1-3.7,4.4-6.1,8.8-6c1.9,0,3.3,0.7,4.3,1.6C421.5,663.8,419.9,662.8,417.5,662.7z M424.4,669.4
			c-0.4-0.5-0.8-1-1.3-1.5c0.8,1,1.4,2.2,1.5,3.4C424.6,671.3,424.6,670.5,424.4,669.4z"/>
	</g>
	<g>
		<path d="M444.7,666.4c-4.1,0-7.5,3.4-7.5,7.5c0,4.1,3.3,7.5,7.5,7.5c4.1,0,7.5-3.4,7.5-7.5C452.2,669.8,448.8,666.4,444.7,666.4z
			 M445,678.7c-2.2,0-4-1.8-4-4c0-2.2,1.8-4,4-4c2.2,0,4,1.8,4,4C449,676.9,447.2,678.7,445,678.7z"/>
	</g>
	<g>
		<path d="M437.2,676.9c0.2,0.5,0.4,0.8,0.4,0.8C437.4,677.4,437.3,677.2,437.2,676.9z M445,663.7c-6.9-0.1-11.5,5.8-7.8,13.3
			c-0.6-1.3-1.4-4-0.3-6.5c1-3.7,4.4-6.1,8.8-6c1.9,0,3.3,0.7,4.3,1.6C449,664.7,447.4,663.7,445,663.7z M452,670.3
			c-0.4-0.5-0.8-1.1-1.3-1.5c0.8,1,1.4,2.2,1.5,3.4C452.2,672.2,452.2,671.4,452,670.3z"/>
	</g>
	<g>
		<path d="M427.1,632.8c-4.1,0-7.5,3.4-7.5,7.5c0,4.1,3.3,7.5,7.5,7.5c4.1,0,7.5-3.3,7.5-7.5C434.6,636.2,431.3,632.8,427.1,632.8z
			 M427.4,645c-2.2,0-4-1.8-4-4c0-2.2,1.8-4,4-4c2.2,0,4,1.8,4,4C431.4,643.3,429.6,645,427.4,645z"/>
	</g>
	<g>
		<path d="M419.6,643.3c0.2,0.5,0.4,0.8,0.4,0.8C419.9,643.8,419.7,643.6,419.6,643.3z M427.4,630c-6.9-0.1-11.5,5.8-7.8,13.3
			c-0.6-1.3-1.4-4-0.3-6.5c1-3.7,4.4-6.1,8.8-6c1.9,0,3.3,0.7,4.3,1.6C431.4,631.1,429.8,630.1,427.4,630z M434.4,636.7
			c-0.3-0.5-0.8-1.1-1.3-1.5c0.8,1,1.4,2.2,1.5,3.4C434.6,638.6,434.6,637.8,434.4,636.7z"/>
	</g>
	<g>
		<path d="M454.8,632.4c-4.1,0-7.5,3.4-7.5,7.5c0,4.1,3.4,7.5,7.5,7.5c4.1,0,7.5-3.3,7.5-7.5C462.3,635.7,458.9,632.4,454.8,632.4z
			 M455.1,644.6c-2.2,0-4-1.8-4-4c0-2.2,1.8-4,4-4c2.2,0,4,1.8,4,4C459.1,642.8,457.3,644.6,455.1,644.6z"/>
	</g>
	<g>
		<path d="M447.3,642.8c0.2,0.5,0.4,0.8,0.4,0.8C447.5,643.3,447.4,643.1,447.3,642.8z M455.1,629.6c-6.9-0.1-11.4,5.7-7.8,13.3
			c-0.6-1.3-1.4-4-0.3-6.5c1-3.7,4.4-6.1,8.8-6c1.9,0,3.3,0.7,4.3,1.6C459.1,630.6,457.5,629.6,455.1,629.6z M462.1,636.2
			c-0.4-0.5-0.8-1-1.3-1.5c0.8,1,1.4,2.2,1.5,3.4C462.3,638.1,462.3,637.3,462.1,636.2z"/>
	</g>
	<g>
		<g>
			<path d="M385.7,465.9h-46.1c-6.2,0-11.5,0-11.5,6.8c0,6.5-0.9,17.8,7.2,17.8h47c4,0,7.8-1.5,7.8-8
				C390,476.1,391.6,465.9,385.7,465.9z M388.7,482.3c0,6.2-3.6,7.6-7.4,7.6h-44.9c-7.7,0-6.8-10.9-6.8-17c0-6.5,5.1-6.5,11-6.5h44
				C390.2,466.5,388.7,476.2,388.7,482.3z"/>
		</g>
		<g>
			<g>
				<path d="M358.4,478.5c0,1-0.8,1.8-1.9,1.8H349c-1,0-1.9-0.8-1.9-1.8l0,0c0-1,0.8-1.8,1.9-1.8h7.5
					C357.5,476.7,358.4,477.5,358.4,478.5L358.4,478.5z"/>
			</g>
			<g>
				<path d="M344.7,478.5c0,1-0.4,1.8-0.9,1.8H340c-0.5,0-0.9-0.8-0.9-1.8l0,0c0-1,0.4-1.8,0.9-1.8h3.7
					C344.3,476.7,344.7,477.5,344.7,478.5L344.7,478.5z"/>
			</g>
			<g>
				<path d="M379.8,478.5c0,1-0.4,1.8-0.9,1.8h-3.7c-0.5,0-0.9-0.8-0.9-1.8l0,0c0-1,0.4-1.8,0.9-1.8h3.7
					C379.4,476.7,379.8,477.5,379.8,478.5L379.8,478.5z"/>
			</g>
			<g>
				<path d="M372.1,478.5c0,1-0.8,1.8-1.9,1.8h-7.5c-1,0-1.9-0.8-1.9-1.8l0,0c0-1,0.8-1.8,1.9-1.8h7.5
					C371.2,476.7,372.1,477.5,372.1,478.5L372.1,478.5z"/>
			</g>
		</g>
	</g>
	<g>
		<g>
			<path d="M386.9,521.9h-46c-6.2,0-11.5,0-11.5,6.8c0,6.5-0.9,17.8,7.2,17.8h47c4,0,7.8-1.5,7.8-8
				C391.3,532.1,392.8,521.9,386.9,521.9z M389.9,538.4c0,6.2-3.6,7.6-7.4,7.6h-44.9c-7.7,0-6.8-10.9-6.8-17c0-6.5,5.1-6.5,11-6.5
				h44C391.4,522.5,389.9,532.2,389.9,538.4z"/>
		</g>
		<g>
			<g>
				<path d="M359.6,534.5c0,1-0.8,1.8-1.9,1.8h-7.5c-1,0-1.9-0.8-1.9-1.8l0,0c0-1,0.8-1.8,1.9-1.8h7.5
					C358.8,532.7,359.6,533.5,359.6,534.5L359.6,534.5z"/>
			</g>
			<g>
				<path d="M345.9,534.5c0,1-0.4,1.8-0.9,1.8h-3.7c-0.5,0-0.9-0.8-0.9-1.8l0,0c0-1,0.4-1.8,0.9-1.8h3.7
					C345.5,532.7,345.9,533.5,345.9,534.5L345.9,534.5z"/>
			</g>
			<g>
				<path d="M381.1,534.5c0,1-0.4,1.8-0.9,1.8h-3.7c-0.5,0-0.9-0.8-0.9-1.8l0,0c0-1,0.4-1.8,0.9-1.8h3.7
					C380.7,532.7,381.1,533.5,381.1,534.5L381.1,534.5z"/>
			</g>
			<g>
				<path d="M373.3,534.5c0,1-0.8,1.8-1.9,1.8H364c-1,0-1.9-0.8-1.9-1.8l0,0c0-1,0.8-1.8,1.9-1.8h7.5
					C372.5,532.7,373.3,533.5,373.3,534.5L373.3,534.5z"/>
			</g>
		</g>
	</g>
	<g>
		<path d="M377.1,263.5H343c0,0.5,0,1,0,1.6h34.1C377.1,264.6,377.1,264,377.1,263.5z M379.2,407.9c0-0.4,0-0.9,0-1.6h-38.6
			c0,0,0,0.1,0,0.2c0,0.5,0,0.9,0,1.4H379.2z M377.6,296.5h-35.2c0,0.5,0,1,0,1.5h35.2C377.6,297.5,377.6,297,377.6,296.5z
			 M377.4,279.7h-34.6c0,0.5,0,1,0,1.6h34.7C377.4,280.7,377.4,280.2,377.4,279.7z M376.6,226.5h-32.9c0,0.5,0,1,0,1.6h32.9
			C376.6,227.5,376.6,227,376.6,226.5z M376.8,244.8h-33.5c0,0.5,0,1,0,1.6h33.5C376.9,245.9,376.8,245.4,376.8,244.8z M377.8,310.8
			h-35.7c0,0.5,0,1,0,1.5h35.7C377.8,311.9,377.8,311.3,377.8,310.8z M375.2,138.8h-30c0,0.5,0,1,0,1.6h30
			C375.3,139.8,375.2,139.3,375.2,138.8z M375.9,185.4h-31.5c0,0.5,0,1,0,1.6H376C376,186.5,376,185.9,375.9,185.4z M376.3,206
			h-32.2c0,0.5,0,1,0,1.6h32.2C376.3,207,376.3,206.5,376.3,206z M375.6,162.7h-30.7c0,0.5,0,1,0,1.6h30.8
			C375.6,163.7,375.6,163.2,375.6,162.7z M374.9,112.3h-29.3c0,0.6,0,1.5,0,2.5h29.3C374.9,113.8,374.9,112.9,374.9,112.3z
			 M379.2,415.4h-38.4c0,0.5,0,1,0,1.6h38.4C379.2,416.4,379.2,415.9,379.2,415.4z M340.6,424.4h38.8c0-0.5-0.1-1-0.1-1.6h-38.7
			C340.7,423.3,340.7,423.9,340.6,424.4z M379.6,431.2h-39.2v1.6h39.3v-0.5L379.6,431.2z M378.1,325.7h-36.1c0,0.5,0,1,0,1.6h36.2
			C378.1,326.8,378.1,326.3,378.1,325.7z M379.1,395.8h-38.3c0,0.5,0,1.1,0,1.6h38.4C379.1,396.8,379.1,396.3,379.1,395.8z
			 M340.4,440.2h39.3v-1.5h-39.3V440.2z M378.9,385.5h-38c0,0.5,0,1,0,1.5H379C378.9,386.5,378.9,386,378.9,385.5z M378.3,338.8
			h-36.6c0,0.5,0,1,0,1.6h36.6C378.3,339.9,378.3,339.3,378.3,338.8z M378.5,351.9h-37c0,0.5,0,1,0,1.6h37
			C378.5,352.9,378.5,352.4,378.5,351.9z M378.6,362.5h-37.3c0,0.5,0,1,0,1.6h37.4C378.6,363.5,378.6,363,378.6,362.5z M378.8,375.8
			h-37.7c0,0.5,0,1,0,1.5h37.8C378.8,376.9,378.8,376.4,378.8,375.8z"/>
	</g>
	<g>
		<path d="M362.2,427.7c0,1.4-1.2,2.6-2.6,2.6c-1.4,0-2.6-1.2-2.6-2.6s1.2-2.6,2.6-2.6C361.1,425.2,362.2,426.3,362.2,427.7z"/>
	</g>
	<g>
		<path d="M362.2,410.9c0,1.4-1.2,2.6-2.6,2.6c-1.4,0-2.6-1.2-2.6-2.6s1.2-2.6,2.6-2.6C361.1,408.4,362.2,409.5,362.2,410.9z"/>
	</g>
	<g>
		<path d="M362.2,391.9c0,1.4-1.2,2.6-2.6,2.6c-1.4,0-2.6-1.2-2.6-2.6s1.2-2.6,2.6-2.6C361.1,389.3,362.2,390.4,362.2,391.9z"/>
	</g>
	<g>
		<path d="M362.2,370.1c0,1.4-1.2,2.6-2.6,2.6c-1.4,0-2.6-1.2-2.6-2.6c0-1.4,1.2-2.6,2.6-2.6C361.1,367.5,362.2,368.7,362.2,370.1z"
			/>
	</g>
	<g>
		<path d="M349.9,332.6c0,1.4-1.2,2.6-2.6,2.6c-1.4,0-2.6-1.2-2.6-2.6c0-1.4,1.2-2.6,2.6-2.6C348.7,330.1,349.9,331.2,349.9,332.6z"
			/>
	</g>
	<g>
		<path d="M375.6,332.8c0,1.4-1.2,2.6-2.6,2.6c-1.4,0-2.6-1.2-2.6-2.6c0-1.4,1.2-2.6,2.6-2.6C374.4,330.3,375.6,331.4,375.6,332.8z"
			/>
	</g>
	<g>
		<path d="M362.7,288.7c0,1.4-1.2,2.6-2.6,2.6c-1.4,0-2.6-1.2-2.6-2.6c0-1.4,1.2-2.6,2.6-2.6C361.6,286.1,362.7,287.2,362.7,288.7z"
			/>
	</g>
	<g>
		<path d="M362.7,255.3c0,1.4-1.2,2.6-2.6,2.6c-1.4,0-2.6-1.2-2.6-2.6c0-1.4,1.2-2.6,2.6-2.6C361.6,252.7,362.7,253.8,362.7,255.3z"
			/>
	</g>
	<g>
		<path d="M362.7,218.4c0,1.4-1.2,2.6-2.6,2.6c-1.4,0-2.6-1.2-2.6-2.6c0-1.4,1.2-2.6,2.6-2.6C361.6,215.8,362.7,216.9,362.7,218.4z"
			/>
	</g>
	<g>
		<path d="M362.7,174.2c0,1.4-1.2,2.6-2.6,2.6c-1.4,0-2.6-1.2-2.6-2.6c0-1.4,1.2-2.6,2.6-2.6C361.6,171.6,362.7,172.7,362.7,174.2z"
			/>
	</g>
	<g>
		<path d="M361.8,110.1v-0.6v-0.6h7.4c-0.3-2.7-1.6-12.3-1.6-17.2l0,0c0-5.6-0.6-9.2-0.6-10.4l0,0c0-0.7-0.7-2.6-2.3-3.9l0,0
			c-1.4-1.2-2.9-2.7-3.4-3.2l0,0h-0.9c-0.5,0.5-2,2-3.4,3.2l0,0c-1.5,1.3-2.3,3.2-2.3,3.9l0,0c0,1.2-0.6,4.8-0.6,10.4l0,0
			c0,4.9-1.2,14.5-1.6,17.2l0,0h7.4h1.9v0.6V110.1h-1.9h-8.8l0.1-0.7c0,0,1.7-12.2,1.7-17.8l0,0c0-5.6,0.6-9.5,0.6-10.4l0,0
			c0-1.3,0.9-3.2,2.7-4.8l0,0c1.6-1.4,3.5-3.3,3.5-3.3l0,0l0.2-0.2h2l0.2,0.2c0,0,1.9,1.9,3.5,3.3l0,0c1.8,1.6,2.7,3.5,2.7,4.8l0,0
			c0,0.9,0.6,4.8,0.6,10.4l0,0c0,5.5,1.7,17.7,1.7,17.8l0,0l0.1,0.7H361.8L361.8,110.1z"/>
	</g>
	<g>
		<path d="M340.7,422.8l0.1,23l-1.4,0.9l-0.6-9.3C338.8,437.5,340.3,428.9,340.7,422.8z"/>
	</g>
	<g>
		<path d="M380.7,448.1c0.1,0.2,0.2,0.3,0.3,0.5l0.6-9.2c0,0-1.5-8.6-1.9-14.7l-0.1,21.8C380,447,380.4,447.5,380.7,448.1z"/>
	</g>
	<g>
		<path d="M340.2,29c0-2.5,2-4.6,4.6-4.6c2.5,0,4.6,2,4.6,4.6c0,2.5-2,4.6-4.6,4.6C342.3,33.5,340.2,31.5,340.2,29z"/>
	</g>
	<g>
		<path d="M341.7,50.6c0-2.5,2-4.6,4.6-4.6c2.5,0,4.6,2,4.6,4.6c0,2.5-2,4.6-4.6,4.6C343.7,55.1,341.7,53.1,341.7,50.6z"/>
	</g>
	<g>
		<path d="M342.9,73.2c0-2.5,2-4.6,4.6-4.6c2.5,0,4.6,2,4.6,4.6s-2,4.6-4.6,4.6C345,77.7,342.9,75.7,342.9,73.2z"/>
	</g>
	<g>
		<path d="M369.5,73.8c0-2.5,2-4.6,4.6-4.6c2.5,0,4.6,2,4.6,4.6s-2,4.6-4.6,4.6C371.5,78.3,369.5,76.3,369.5,73.8z"/>
	</g>
	<g>
		<path d="M370.3,50.1c0-2.5,2-4.6,4.6-4.6c2.5,0,4.6,2,4.6,4.6c0,2.5-2,4.6-4.6,4.6C372.3,54.7,370.3,52.7,370.3,50.1z"/>
	</g>
	<g>
		<path d="M372,28.1c0-2.5,2-4.6,4.6-4.6c2.5,0,4.6,2,4.6,4.6c0,2.5-2,4.6-4.6,4.6C374,32.7,372,30.7,372,28.1z"/>
	</g>
	<g>
		<polygon points="341.3,569.5 347.3,113.6 347.9,74.6 349.1,74.6 348.5,113.6 342.5,569.5 341.3,569.5 		"/>
	</g>
	<g>
		<path d="M348.7,565.2l3.7-451.9l-5-63l1.2-0.1l5,63.1l-3.7,452L348.7,565.2L348.7,565.2z M347.5,50.2L347.5,50.2L347.5,50.2
			L347.5,50.2L347.5,50.2z"/>
	</g>
	<g>
		<polygon points="355,572.8 357.4,113.6 346.9,29.1 348.1,28.9 358.7,113.6 356.2,572.8 355,572.8 		"/>
	</g>
	<g>
		<polygon points="362.2,572.2 362.4,113.8 373.4,31 374.6,31.1 363.7,113.9 363.5,572.2 362.2,572.2 		"/>
	</g>
	<g>
		<polygon points="367.8,114.2 372.4,50.7 373.6,50.8 369.1,114.2 370.7,572.8 369.5,572.8 367.8,114.2 		"/>
	</g>
	<g>
		<polygon points="371.5,113.4 373,73.1 373,73.1 374.2,73.2 372.8,113.4 379.2,574.7 378,574.7 371.5,113.4 		"/>
	</g>
</g>
</svg>
