<?xml version="1.0" encoding="utf-8"?>
<!-- Generator: Adobe Illustrator 23.0.2, SVG Export Plug-In . SVG Version: 6.00 Build 0)  -->
<!DOCTYPE svg PUBLIC "-//W3C//DTD SVG 1.1//EN" "http://www.w3.org/Graphics/SVG/1.1/DTD/svg11.dtd" [
	<!ENTITY ns_extend "http://ns.adobe.com/Extensibility/1.0/">
	<!ENTITY ns_ai "http://ns.adobe.com/AdobeIllustrator/10.0/">
	<!ENTITY ns_graphs "http://ns.adobe.com/Graphs/1.0/">
	<!ENTITY ns_vars "http://ns.adobe.com/Variables/1.0/">
	<!ENTITY ns_imrep "http://ns.adobe.com/ImageReplacement/1.0/">
	<!ENTITY ns_sfw "http://ns.adobe.com/SaveForWeb/1.0/">
	<!ENTITY ns_custom "http://ns.adobe.com/GenericCustomNamespace/1.0/">
	<!ENTITY ns_adobe_xpath "http://ns.adobe.com/XPath/1.0/">
]>
<svg version="1.1" id="Layer_1" xmlns:x="&ns_extend;" xmlns:i="&ns_ai;" xmlns:graph="&ns_graphs;"
	 xmlns="http://www.w3.org/2000/svg" xmlns:xlink="http://www.w3.org/1999/xlink" x="0px" y="0px" viewBox="0 0 720 720"
	 style="enable-background:new 0 0 720 720;" xml:space="preserve">
<style type="text/css">
	.Drop_x0020_Shadow{fill:none;}
	.Round_x0020_Corners_x0020_2_x0020_pt{fill:#FFFFFF;stroke:#231F20;stroke-miterlimit:10;}
	.Live_x0020_Reflect_x0020_X{fill:none;}
	.Bevel_x0020_Soft{fill:url(#SVGID_1_);}
	.Dusk{fill:#FFFFFF;}
	.Foliage_GS{fill:#FFDD00;}
	.Pompadour_GS{fill-rule:evenodd;clip-rule:evenodd;fill:#44ADE2;}
</style>
<metadata>
	<sfw  xmlns="&ns_sfw;">
		<slices></slices>
		<sliceSourceBounds  bottomLeftOrigin="true" height="221.1" width="720" x="0" y="-470.5"></sliceSourceBounds>
	</sfw>
</metadata>
<linearGradient id="SVGID_1_" gradientUnits="userSpaceOnUse" x1="0" y1="0" x2="0.7071" y2="0.7071">
	<stop  offset="0" style="stop-color:#DEDFE3"/>
	<stop  offset="0.1783" style="stop-color:#DADBDF"/>
	<stop  offset="0.3611" style="stop-color:#CECFD3"/>
	<stop  offset="0.546" style="stop-color:#B9BCBF"/>
	<stop  offset="0.7324" style="stop-color:#9CA0A2"/>
	<stop  offset="0.9181" style="stop-color:#787D7E"/>
	<stop  offset="1" style="stop-color:#656B6C"/>
</linearGradient>
<path d="M719.3,305.9c-3-45.7-15.9-60.4-27.4-55.5c-11.6,4.9-16.5,26.2-16.5,26.2c-23.8,26.2-38.4,25.6-97.6,30.5
	c-59.2,4.9-204.8,7.6-204.8,7.6c-0.3-3,0.9-6.1,0.9-6.1c2.3-5,7.2-7.3,12.8-7.3c5.6,0,4.1-1.8,4.1-1.8c-1.7-1.7-9.8-1.9-15,1.7
	c-7.2,5-6.5,13.5-6.5,13.5l-11.3,0l-0.3-2.1c-1-2.5-9-2.1-9-2.1l0-17.3l6.4,0c1,0,1.8-0.8,1.8-1.8l0-5.2c0-1-0.8-1.8-1.8-1.8
	l-17.2,0c-1,0-1.8,0.8-1.8,1.8l0,5.2c0,1,0.8,1.8,1.8,1.8l5.7,0l0,17.3c0,0-6.6-0.2-8.8,1.4c-2.2,1.6-1.7,6.1-1.7,6.1l-4.4,0
	c-0.1-3.1-0.3-3.7-0.3-3.7c-1.1-3.3-9.3-3.5-9.3-3.5l0-17.5l5.6,0c1,0,1.8-0.8,1.8-1.8l0-5.2c0-1-0.8-1.8-1.8-1.8l-17.2,0
	c-1,0-1.8,0.8-1.8,1.8l0,5.2c0,1,0.8,1.8,1.8,1.8l5,0l0,17.5c0,0,0,0-2.9,0c-2.9,0-5.9,1.1-7.2,2.9c-1.2,1.8-1.2,4.4-1.2,4.4l-2.4,0
	c-0.1-4.9-2.1-5.4-3.5-6.4c-1.5-1-6.6-0.7-6.6-0.7l0-17.8l5.1,0c1,0,1.8-0.8,1.8-1.8l0-5.2c0-1-0.8-1.8-1.8-1.8l-17.2,0
	c-1,0-1.8,0.8-1.8,1.8l0,5.2c0,1,0.8,1.8,1.8,1.8l5,0l0,17.8c-1.1,0-7.3-0.2-9.3,2.5c-2.1,2.7-1.5,5.8-1.5,5.8s-111.6,0.3-123.8,0
	c-12.2-0.3-25,7-25,7l-38.7,0.3l-50.5-0.3c-0.4-0.5-1.2-1.4-2.5-2.7c-5.2-5.5-14.6-4-15.2-6.4c-0.6-2.4-7.3-1.8-11-2.1
	c-3.7-0.3-3.5,15.1-3.8,17.2c0,0-0.3,4.3,0.3,10.5c0.6,6.4,1.4,6.9,6,6.9c4.6,0,7.6,0.5,8.2-1.4c0.6-1.8,4.3,0.3,10.1-1.5
	c5.8-1.8,7.3-6.1,7.3-6.1l22.3,0l28.7,0.3l21.6,1.2c-0.3,0-2.2,0.6-8.2,11.3c-6.7,11.9-6.4,34.2,4,52.8
	c10.4,18.6,32.3,25.9,39.9,25.9c7.6,0,44.8,0.6,44.8,0.6s4.9,4.3,13.1,4.3c8.2,0,64-0.6,71.3-0.6c0.1,0,0.2,0,0.3,0l0,30.2
	c0,2,1.6,3.6,3.7,3.6l19.2,0c2,0,3.7-1.6,3.7-3.7l0-18.9l4,0l0,19.2c0,2,1.6,3.7,3.7,3.7l19.8,0c2,0,3.6-1.7,3.7-3.7l0-19.2l3.4,0
	l0,18.6c0,2,1.6,3.7,3.7,3.7l18.6,0c2,0,3.7-1.6,3.7-3.6l0-34.2c7,0,143.2-1.2,149.4-1.5c6.4-0.3,5.5-2.7,5.5-2.7
	c7.9,0,36.4-0.9,36.4-0.9l7.3-1.1c0,0,0,0,0.2,2c0.2,2.1,4.3,1.8,4.3,1.8c26.1-0.9,34.1-24,35.2-35.7c1.1-11.7-1.4-14.9-2.7-14.9
	c-1.4,0,0,3.4-0.9,12.1c-0.9,8.7-9.4,17.7-9.4,17.7l-4.9-4c0,0,4-9.2,6.1-24.1c2.1-14.9-4.3-36-4.3-36s9.1-1.2,48.2,4.3
	c39,5.5,46.4,24.4,46.4,24.4s4.9,40.9,23.8,27.5C716.2,387.6,722.3,351.6,719.3,305.9z M271.9,394.6l-73.5,0c0,0-13.4,1.5-19.2,10.7
	c0,0-2.8,4.3-2.4,10.1c0,0-27.7,1.8-37.2,0.6c-9.5-1.2-20.7-8.2-27.4-20.1c-6.7-11.9-4.9-29.9-0.3-38.7c4.6-8.8,14.6-14.6,14.6-14.6
	l145.5,0L271.9,394.6z M561,401.9c-7,9.5-15.9,9-15.9,9l-25.9,0.1c0,0,2.4-6.4-1.7-13.4c-4.9-8.3-25.2-8.2-25.2-8.2l-87.1,0
	c1.2-0.4,2.4-0.9,3.4-1.5l80.3,0l0-5.5l-22.1,0l0-3l-8.8,0l0-2.4l4.3,0l0-3.7l-11.9,0l0,3.7l4.3,0l0,2.4l-8.8,0l0,3l-31.6,0
	c1.7-2.6,2.6-5.7,2.6-9.1c0-9.3-7.6-16.9-16.9-16.9c-9.3,0-16.9,7.6-16.9,16.9c0,7.5,4.9,13.9,11.6,16.1l-36.9,0v-44.8l3,0
	c0,0,158.6,0,183.3,0c24.7,0,23.5,22.3,23.5,31.1C567.7,384.5,568,392.5,561,401.9z M400.1,388.4c-8.3,0-15.1-6.8-15.1-15.1
	c0-8.3,6.8-15.1,15.1-15.1c8.3,0,15.1,6.8,15.1,15.1C415.2,381.7,408.4,388.4,400.1,388.4z"/>
</svg>
