<?xml version="1.0" encoding="utf-8"?>
<!-- Generator: Adobe Illustrator 23.0.2, SVG Export Plug-In . SVG Version: 6.00 Build 0)  -->
<!DOCTYPE svg PUBLIC "-//W3C//DTD SVG 1.1//EN" "http://www.w3.org/Graphics/SVG/1.1/DTD/svg11.dtd" [
	<!ENTITY ns_extend "http://ns.adobe.com/Extensibility/1.0/">
	<!ENTITY ns_ai "http://ns.adobe.com/AdobeIllustrator/10.0/">
	<!ENTITY ns_graphs "http://ns.adobe.com/Graphs/1.0/">
	<!ENTITY ns_vars "http://ns.adobe.com/Variables/1.0/">
	<!ENTITY ns_imrep "http://ns.adobe.com/ImageReplacement/1.0/">
	<!ENTITY ns_sfw "http://ns.adobe.com/SaveForWeb/1.0/">
	<!ENTITY ns_custom "http://ns.adobe.com/GenericCustomNamespace/1.0/">
	<!ENTITY ns_adobe_xpath "http://ns.adobe.com/XPath/1.0/">
]>
<svg version="1.1" id="Layer_1" xmlns:x="&ns_extend;" xmlns:i="&ns_ai;" xmlns:graph="&ns_graphs;"
	 xmlns="http://www.w3.org/2000/svg" xmlns:xlink="http://www.w3.org/1999/xlink" x="0px" y="0px" viewBox="0 0 720 720"
	 style="enable-background:new 0 0 720 720;" xml:space="preserve">
<style type="text/css">
	.Drop_x0020_Shadow{fill:none;}
	.Round_x0020_Corners_x0020_2_x0020_pt{fill:#FFFFFF;stroke:#231F20;stroke-miterlimit:10;}
	.Live_x0020_Reflect_x0020_X{fill:none;}
	.Bevel_x0020_Soft{fill:url(#SVGID_1_);}
	.Dusk{fill:#FFFFFF;}
	.Foliage_GS{fill:#FFDD00;}
	.Pompadour_GS{fill-rule:evenodd;clip-rule:evenodd;fill:#44ADE2;}
</style>
<metadata>
	<sfw  xmlns="&ns_sfw;">
		<slices></slices>
		<sliceSourceBounds  bottomLeftOrigin="true" height="192.6" width="720" x="0" y="-456.3"></sliceSourceBounds>
	</sfw>
</metadata>
<linearGradient id="SVGID_1_" gradientUnits="userSpaceOnUse" x1="0" y1="0" x2="0.7071" y2="0.7071">
	<stop  offset="0" style="stop-color:#DEDFE3"/>
	<stop  offset="0.1783" style="stop-color:#DADBDF"/>
	<stop  offset="0.3611" style="stop-color:#CECFD3"/>
	<stop  offset="0.546" style="stop-color:#B9BCBF"/>
	<stop  offset="0.7324" style="stop-color:#9CA0A2"/>
	<stop  offset="0.9181" style="stop-color:#787D7E"/>
	<stop  offset="1" style="stop-color:#656B6C"/>
</linearGradient>
<g>
	<path d="M675.6,275.2c0-0.3,0.4-1.1,1.2-2.4c0.8-1.3,1.8-2.5,3.1-3.8c1.3-1.3,2.9-2.5,4.8-3.6c1.9-1.1,4-1.7,6.2-1.7
		c1,0,3,0.4,6.2,1.2c3.2,0.8,6.4,3.7,9.8,8.6c3.4,4.9,6.4,12.7,9.1,23.4c2.7,10.7,4.1,25.9,4.1,45.6c-0.3,7-0.8,13.1-1.4,18.2
		c-0.6,5.1-1.6,10.6-2.9,16.5c-1.3,5.9-2.9,11.4-5,16.5c-2.1,5.1-4.6,9.3-7.7,12.6c-3,3.4-6.8,5-11.2,5c-2.2,0-4.6-0.8-7.2-2.4
		c-1-0.3-2.9-2-5.7-5.2c-2.9-3.2-6.2-10.4-10-21.5c0-0.3-0.6-0.9-1.9-1.9c-1-0.6-2.4-1.6-4.3-3.1c-1.9-1.4-4.9-3.4-9.1-6
		c-0.9-0.6-5.6-2.4-13.9-5.3c-8.3-2.9-22.6-5.4-43-7.7c1.9,2.9,3.5,6.1,4.8,9.6c1.3,2.9,2.3,6.2,3.1,10c0.8,3.8,1.2,7.8,1.2,11.9
		c0,7.3-1.3,14.4-3.8,21.3c-2.6,6.8-6.2,13-11,18.4c-4.8,5.4-10.5,9.8-17.2,13.2c-6.7,3.3-14,5.3-22,6c-2.9,0.3-10,0.7-21.5,1
		c-11.5,0.3-25.6,0.7-42.5,1.2c-16.9,0.5-35.6,0.9-56.2,1.2s-41.4,0.6-62.6,0.9c-21.2,0.3-41.7,0.6-61.6,1c-19.9,0.3-37.6,0.7-53,1
		c-15.4,0.3-27.9,0.6-37.2,0.7c-9.4,0.2-14.1,0.4-14.1,0.7l0.5,0c-3.2,0-7.1-0.1-11.7-0.5c-4.6-0.3-9.3-1-14.1-1.9
		c-4.8-0.9-9.5-2.4-14.1-4.3c-4.6-1.9-8.9-4.6-12.7-8.1c-1-1-2.5-2.5-4.8-4.6c-2.2-2-4.4-5-6.5-8.8c-2.1-3.8-4-8.6-5.7-14.3
		c-1.7-5.7-2.6-12.4-2.6-20.1c0-1.9,0-3.8,0-5.7c0-1.9,0.2-4,0.5-6.2c0-0.7,0.3-2.3,0.9-5c0.6-2.7,1.8-5.8,3.3-9.3
		c1.6-3.5,3.8-7.2,6.5-11.2c2.7-4,6.1-7.4,10.3-10.3l-5.2,0c-1.6,0-3.7,0-6.5,0c-2.7,0-6-0.2-9.8-0.5c-0.9,0-1.7,0.1-2.4,0.3
		c-0.6,0.2-1.1,0.2-1.4,0.2c-0.3,0-0.5,0-0.5-0.2c0-0.1-0.2-0.2-0.5-0.3c-1-0.3-1.2-0.3-0.7,0c0.5,0.3,0.7,0.8,0.7,1.4
		c0,0.6-0.8,1.2-2.4,1.7c-1.6,0.5-4.9,0.7-10,0.7c-2.2,0-3.8-0.3-4.8-1c0.6,0.3,1.1,0.6,1.4,0.9c1,1,1.4,2.1,1.4,3.4
		c0,0.6-0.3,1.4-1,2.4c-0.6,1-1.8,1.4-3.3,1.4c-2.6,0-4-1.3-4.3-3.8c0-0.6,0.5-1.4,1.4-2.4c1-1,1.4-1.6,1.4-1.9l-1.4,0
		c-0.6,0-1.3,0-2.1,0c-0.8,0-1.5,0.2-2.1,0.5l-1,0c-0.3,0-0.5-0.2-0.5-0.5l-0.5-0.5c-1.9,0-3.3-0.1-4-0.2c-0.8-0.2-1.5-0.3-1.9-0.5
		c-0.5-0.1-1.1-0.4-1.9-0.7c-0.8-0.3-2-0.5-3.6-0.5c-3.5,0-7.8,0.2-12.9,0.5c-5.1,0.3-9.1,0.5-11.9,0.5c-0.7,0-1.1-0.1-1.5-0.5
		c-0.3-0.3-0.8-0.6-1.4-1c-0.3,0-0.5,0.1-0.5,0.2c0,0.2-0.2,0.2-0.5,0.2c-0.6,0-1-0.2-1-0.5c0-0.3-0.3-0.5-1-0.5
		c-1,1-1.7,1.4-2.4,1.4c-1.3,0-1.9-0.1-1.9-0.5c0-0.3-0.8-0.5-2.4-0.5c-1.9,0.6-3.8,1-5.8,1c-0.6,0-1.3-0.2-1.9-0.5
		c-0.6,0-1-0.1-1.2-0.2c-0.1-0.1-0.4-0.3-0.7-0.3l-1,0c0,0.3-0.1,0.5-0.5,0.5l-1.4,0c-0.6,0-0.9,0-0.7,0c0.2,0-0.2-0.2-1.2-0.5
		c-1.6,0-2.8,0.3-3.6,0.7c-0.8,0.5-1.5,0.7-2.2,0.7c-0.3,0-0.6-0.1-1-0.5c-0.6,0.6-1.6,1.3-2.9,1.9c-2.5,1.3-5.4,1.9-8.6,1.9
		c-1.6,0-2.8,0.3-3.6,1c-0.8,0.6-1.4,1.3-1.9,1.9c-0.5,0.6-1.2,1.3-2.1,1.9c-1,0.6-2.4,1-4.3,1c-0.3,0-0.8-0.1-1.4-0.3
		c-0.6-0.1-1.3-0.9-1.9-2.2c-0.6-1.3-1.2-3.3-1.7-6.2c-0.5-2.9-0.7-6.8-0.7-11.9c0-2.6,0.5-5.7,1.4-9.6c0.9-3.8,2.7-5.7,5.3-5.7
		c0,0.3,0.9,1.1,2.9,2.4c1.9,1.3,4.3,2.5,7.2,3.8c2.8,1.3,5.9,2.4,9.1,3.3c3.2,1,5.9,1.4,8.1,1.4c0.6,0,1.3-0.1,1.9-0.2
		c0.6-0.1,1.3-0.2,1.9-0.2c2.9,0.3,5.3,0.5,7.2,0.5c1.3,0.3,2.8,0.5,4.8,0.5l2.4,0c0.3,0,0.5-0.1,0.5-0.5c0-0.3,0.3-0.5,1-0.5
		c2.2,0,3.5,0.2,3.8,0.7c0.3,0.5,1,0.7,1.9,0.7c0.7,0,1.3-0.2,1.9-0.7c0.6-0.5,1.3-0.7,1.9-0.7c0.3,0,0.6,0.1,1,0.2
		c0.3,0.2,0.6,0.2,0.9,0.2c0.3,0,0.5-0.2,0.5-0.5c3.5,0.3,6.7,0.5,9.5,0.5c2.6,0.3,4.9,0.5,7.2,0.5c2.2,0,3.5,0,3.8,0
		c0.6,0,1.2,0.1,1.7,0.3c0.5,0.2,1,0.2,1.7,0.2l1.9,0l0.9-1c0.6-0.6,1.8-1,3.3-1c7.3,0,12.6,0.1,15.8,0.2c3.2,0.2,5.3,0.2,6.5,0.2
		c1.1,0,1.7,0.2,1.7,0.5c0,0.3,0.7,0.5,2.1,0.5c1.4,0,4,0.1,7.6,0.3c3.7,0.2,9.6,0.2,17.9,0.3c11.1,0,25.8-0.2,43.9-0.5
		c18.2-0.3,38.3-0.7,60.4-1.2c22.2-0.5,45.5-1,70.2-1.7c24.7-0.6,49.1-1.2,73.3-1.9c24.2-0.6,47.5-1.3,69.8-2.1
		c22.3-0.8,42.2-1.5,59.7-2.1c17.5-0.6,31.9-1.3,43.2-1.9c11.3-0.6,17.9-1.1,19.8-1.4c3.2-0.3,8.8-1,16.9-1.9c8.1-1,17.5-2.7,28-5.2
		c1.9-0.7,6.1-1.9,12.7-3.8c6.5-1.9,14.1-6.4,22.7-13.4c0-0.6,0.4-2.3,1.2-5C669.9,287.1,672,282.2,675.6,275.2z M110.8,352.6
		c0-1.6-0.4-2.5-1.2-2.6c-0.8-0.1-1.4-0.2-1.7-0.2c-0.3,0.3-0.9,0.5-1.7,0.7c-0.8,0.2-1.2,0.9-1.2,2.2c0,1.3,0.4,2,1.2,2.2
		c0.8,0.2,1.5,0.2,2.2,0.2C110.1,355,110.8,354.2,110.8,352.6z M216.4,351.6c-1.3,0-3.8,0.1-7.4,0.3c-3.7,0.2-7.5,0.2-11.5,0.2
		c-4,0-7.6,0.1-11,0.2c-3.4,0.2-5.2,0.3-5.5,0.3c-7,0.9-12.7,3.1-17,6.4c-4.3,3.4-7.7,7.3-10,11.7c-2.4,4.5-4,8.8-4.8,13.2
		c-0.8,4.3-1.2,7.9-1.2,10.8c0,11.5,2.1,20.3,6.2,26.5c4.1,6.2,8.9,10.7,14.3,13.6c5.4,2.9,10.9,4.5,16.5,5
		c5.6,0.5,9.9,0.7,13.1,0.7c13.1,0,29.9-0.1,50.4-0.5c20.6-0.3,42.5-0.6,66-0.9c23.4-0.3,47.1-0.7,71.2-1.2
		c24-0.5,46.2-0.9,66.4-1.2c20.3-0.3,37.4-0.6,51.6-1c14.2-0.3,23-0.5,26.5-0.5c7.6,0,14.5-0.3,20.5-1c6-0.6,11.5-2.2,16.2-4.5
		c4.8-2.4,9.1-5.7,12.9-10c3.8-4.3,7.2-10.3,10-17.9c1.3-3.8,1.9-7.9,1.9-12.4c0-5.1-0.8-9.7-2.4-13.9c-1.6-4.1-3.3-7.6-5.2-10.5
		c-2.2-3.5-5-6.4-8.1-8.6L216.4,351.6z"/>
</g>
</svg>
