<?xml version="1.0" encoding="utf-8"?>
<!-- Generator: Adobe Illustrator 23.0.2, SVG Export Plug-In . SVG Version: 6.00 Build 0)  -->
<!DOCTYPE svg PUBLIC "-//W3C//DTD SVG 1.1//EN" "http://www.w3.org/Graphics/SVG/1.1/DTD/svg11.dtd" [
	<!ENTITY ns_extend "http://ns.adobe.com/Extensibility/1.0/">
	<!ENTITY ns_ai "http://ns.adobe.com/AdobeIllustrator/10.0/">
	<!ENTITY ns_graphs "http://ns.adobe.com/Graphs/1.0/">
	<!ENTITY ns_vars "http://ns.adobe.com/Variables/1.0/">
	<!ENTITY ns_imrep "http://ns.adobe.com/ImageReplacement/1.0/">
	<!ENTITY ns_sfw "http://ns.adobe.com/SaveForWeb/1.0/">
	<!ENTITY ns_custom "http://ns.adobe.com/GenericCustomNamespace/1.0/">
	<!ENTITY ns_adobe_xpath "http://ns.adobe.com/XPath/1.0/">
]>
<svg version="1.1" id="Layer_1" xmlns:x="&ns_extend;" xmlns:i="&ns_ai;" xmlns:graph="&ns_graphs;"
	 xmlns="http://www.w3.org/2000/svg" xmlns:xlink="http://www.w3.org/1999/xlink" x="0px" y="0px" viewBox="0 0 720 720"
	 style="enable-background:new 0 0 720 720;" xml:space="preserve">
<style type="text/css">
	.Drop_x0020_Shadow{fill:none;}
	.Round_x0020_Corners_x0020_2_x0020_pt{fill:#FFFFFF;stroke:#231F20;stroke-miterlimit:10;}
	.Live_x0020_Reflect_x0020_X{fill:none;}
	.Bevel_x0020_Soft{fill:url(#SVGID_1_);}
	.Dusk{fill:#FFFFFF;}
	.Foliage_GS{fill:#FFDD00;}
	.Pompadour_GS{fill-rule:evenodd;clip-rule:evenodd;fill:#44ADE2;}
</style>
<metadata>
	<sfw  xmlns="&ns_sfw;">
		<slices></slices>
		<sliceSourceBounds  bottomLeftOrigin="true" height="720" width="408.4" x="155.8" y="-720"></sliceSourceBounds>
	</sfw>
</metadata>
<linearGradient id="SVGID_1_" gradientUnits="userSpaceOnUse" x1="0" y1="0" x2="0.7071" y2="0.7071">
	<stop  offset="0" style="stop-color:#DEDFE3"/>
	<stop  offset="0.1783" style="stop-color:#DADBDF"/>
	<stop  offset="0.3611" style="stop-color:#CECFD3"/>
	<stop  offset="0.546" style="stop-color:#B9BCBF"/>
	<stop  offset="0.7324" style="stop-color:#9CA0A2"/>
	<stop  offset="0.9181" style="stop-color:#787D7E"/>
	<stop  offset="1" style="stop-color:#656B6C"/>
</linearGradient>
<path d="M155.8,7.6c0,0,36.4,0.5,41.8-7.6l28.8,6.5c0,0,20.1,7.1,21.7,9.2c1.6,2.2,2.2,2.7,10.3,4.9c8.1,2.2,44,15.2,44,15.2
	s0.5-5.4,8.7-3.8c8.1,1.6,44,13.6,61.4,26.1c17.4,12.5,21.7,30.4,8.7,45.6c0,0,0.6,8.7,2.7,8.7c2.2,0,11.4,3.3,8.2,6
	c-3.3,2.7-10.3,6.5-9.2,9.2c1.1,2.7,8.7,6,3.3,11.4c-5.4,5.4-3.3,9.8-3.3,17.9c0,0,9.2,7.1,8.7,12.5c-0.5,5.4-0.5,6-0.5,9.8
	s2.7,8.2-0.5,13c-3.3,4.9,5.4,1.1,5.4,9.8c0,8.7,3.8,21.2-0.5,22.3c-4.3,1.1,4.4,9.8,6.5,14.7c2.2,4.9,4.9,8.2,4.9,17.9
	c0,9.8,0,51.1,0,51.1s7.1-2.7,7.1,7.1s-2.7,14.1-8.7,11.9c0,0,0,6,1.1,10.3c1.1,4.3,9.2-6.5,15.2-3.3c6,3.3,13.6,15.2,14.7,23.3
	c1.1,8.2-6.5,22.3-14.7,24.4c-8.2,2.2-12-4.3-12-4.3s-4.3-2.2-4.3,3.8c0,6,5.4,5.4,4.3,10.9c-1.1,5.4,2.2,44,2.2,44s27.7-4.9,32,1.6
	L461,397c0,0-13-16.3-13-21.2c0-4.9,9.8-10.9,33.7,0c23.9,10.9,67.3,39.7,79.8,60.3c12.5,20.6-22.3,9.8-22.3,9.8
	s-15.2,0.5-31.5,38.6c-16.3,38-19,92.9-18.5,120c0.5,27.2,7.1,69.5-21.7,96.1c-28.8,26.6-60.3,15.2-60.3,15.2s-13.6,7.1-26.1,2.7
	c-12.5-4.4-25-14.1-25-32.6c0,0-15.8-2.7-21.7-2.7c-6,0-2.7-36.9-15.2-56.5l11.4-0.5l2.7,2.2l2.7-41.8c0,0,3.3-7.1,4.9-9.8
	c1.6-2.7,5.4-7.1,0.5-10.3c-4.9-3.3-5.4,1.1-6-14.1c-0.5-15.2,1.6-23.9,1.6-23.9s-4.3-9.8-3.8-16.8c0.5-7.1,4.9-8.7,4.9-8.7
	s-4.9-4.3-4.3-15.2c0.5-10.9,3.3-13.6,3.3-13.6s-7.1-8.2-6.5-20.1c0.5-12,7.6-10.3,13-14.1c5.4-3.8,6.5-3.3,7.1-15.8
	c0.5-12.5,0.5-29.3,0.5-29.3s-7.1,2.2-10.9-4.3c-3.8-6.5-1.6-14.7-1.6-27.2c0-12.5-1.1-34.2,7.1-35.8s8.7-6,4.9-6.5
	c-3.8-0.5-10.9,2.7-12-9.2c-1.1-11.9,3.8-36.9,3.8-41.8c0-4.9,8.2-3.8,10.9-3.8c2.7,0,2.2-18.5-1.6-21.7c-3.8-3.3-13.6,3.3-13.6-7.6
	c0-10.9,2.2-101.6,4.3-104.8c2.2-3.3,5.4-3.8,5.4-10.9c0-7.1-2.7-15.2,1.6-17.9c4.3-2.7,4.3-11.4-5.4-22.3
	c-9.8-10.9-26.1-15.2-34.2-18.5c-8.1-3.3-11.9-11.4-11.9-11.4l-36.9-11.4l-2.2,2.2l-16.3-6l-19.6-4.3c0,0-6,6-8.1,7.1
	c-2.2,1.1-8.7,1.1-7.6-3.3c1.1-4.3,4.9-5.4,0.5-7.1c-4.3-1.6-7.1,4.3-10.9,4.9c-3.8,0.5-8.1,1.1-7.1-3.8c1.1-4.9,1.1-4.9,1.1-4.9
	L155.8,7.6z"/>
</svg>
