<?xml version="1.0" encoding="utf-8"?>
<!-- Generator: Adobe Illustrator 23.0.2, SVG Export Plug-In . SVG Version: 6.00 Build 0)  -->
<!DOCTYPE svg PUBLIC "-//W3C//DTD SVG 1.1//EN" "http://www.w3.org/Graphics/SVG/1.1/DTD/svg11.dtd" [
	<!ENTITY ns_extend "http://ns.adobe.com/Extensibility/1.0/">
	<!ENTITY ns_ai "http://ns.adobe.com/AdobeIllustrator/10.0/">
	<!ENTITY ns_graphs "http://ns.adobe.com/Graphs/1.0/">
	<!ENTITY ns_vars "http://ns.adobe.com/Variables/1.0/">
	<!ENTITY ns_imrep "http://ns.adobe.com/ImageReplacement/1.0/">
	<!ENTITY ns_sfw "http://ns.adobe.com/SaveForWeb/1.0/">
	<!ENTITY ns_custom "http://ns.adobe.com/GenericCustomNamespace/1.0/">
	<!ENTITY ns_adobe_xpath "http://ns.adobe.com/XPath/1.0/">
]>
<svg version="1.1" id="Layer_1" xmlns:x="&ns_extend;" xmlns:i="&ns_ai;" xmlns:graph="&ns_graphs;"
	 xmlns="http://www.w3.org/2000/svg" xmlns:xlink="http://www.w3.org/1999/xlink" x="0px" y="0px" viewBox="0 0 720 720"
	 style="enable-background:new 0 0 720 720;" xml:space="preserve">
<style type="text/css">
	.Drop_x0020_Shadow{fill:none;}
	.Round_x0020_Corners_x0020_2_x0020_pt{fill:#FFFFFF;stroke:#231F20;stroke-miterlimit:10;}
	.Live_x0020_Reflect_x0020_X{fill:none;}
	.Bevel_x0020_Soft{fill:url(#SVGID_1_);}
	.Dusk{fill:#FFFFFF;}
	.Foliage_GS{fill:#FFDD00;}
	.Pompadour_GS{fill-rule:evenodd;clip-rule:evenodd;fill:#44ADE2;}
	.st0{fill:#FFFFFF;}
</style>
<metadata>
	<sfw  xmlns="&ns_sfw;">
		<slices></slices>
		<sliceSourceBounds  bottomLeftOrigin="true" height="720" width="272.1" x="224" y="-720"></sliceSourceBounds>
	</sfw>
</metadata>
<linearGradient id="SVGID_1_" gradientUnits="userSpaceOnUse" x1="0" y1="0" x2="0.7071" y2="0.7071">
	<stop  offset="0" style="stop-color:#DEDFE3"/>
	<stop  offset="0.1783" style="stop-color:#DADBDF"/>
	<stop  offset="0.3611" style="stop-color:#CECFD3"/>
	<stop  offset="0.546" style="stop-color:#B9BCBF"/>
	<stop  offset="0.7324" style="stop-color:#9CA0A2"/>
	<stop  offset="0.9181" style="stop-color:#787D7E"/>
	<stop  offset="1" style="stop-color:#656B6C"/>
</linearGradient>
<g>
	<path d="M325.7,90.2c0.1-0.9,0-2.5,0-2.5s-0.4-1-1.3-1.7c-0.9-0.7-0.1-3.4,1.9-3.8c1.5-0.3,3.3-0.9,3.3-0.9s0.4-0.4,0.1-2
		c-0.3-1.6,0-3.7,0-3.7l-0.1-2.9c0,0-1.4-0.1-2.1-0.4c-1.9-1-1.6-3.9-1.5-5.1c0.1-1.1,0.4-2.3,0.4-2.3s-1.2-0.1-1.7-1.7
		c-0.6-1.6,0.4-3.7,1.8-3.9c1.4-0.2,3.4-0.6,3.4-0.6s0.5-1.3-0.4-3.2c-0.8-1.9-0.5-2.4-0.5-3.2l0-1.4c0,0,0.6,0.1,0.9-0.2
		c0.3-0.4,0.2-1.1,0.2-1.1l-2.7-0.2c0,0-0.7-1.8-0.9-3c-0.5-2.7,0.6-4,0.6-4s-0.5-0.9-1.2-1.7c-0.7-0.9-2-3,1.3-4.1
		c3.2-1.1,3.2-0.2,3.4-1.6c0.2-1.4,0.7-4,0.7-6.5c-0.1-2.5-0.5-3.8-0.5-4.8c0-1,1.1-1.3,1.1-1.3s0.1-2.3,0.3-3.7
		c0.2-1.4,0.2-2.2,2-1.7c1.8,0.4,3.2,0.9,4.1,0.9c0.9,0,1.1-0.2,0.3-1.8c-0.8-1.6-1.6-4.3,1.7-6.6c2.7-1.9,4.2,0.5,6,0.4
		c1.8-0.1,1.9-0.1,1.3-1.4c-0.6-1.4-1-3.4,2.2-4.2c3.2-0.7,4.4-1.1,6.4-2.3c2-1.2,2.6-2.5,4.4-0.9c1.8,1.6,3.2,1.3,6.7,1.8
		c3,0.4,3.4,2.3,3.4,3.3c0,1,1.1,2.1,2,1.5c1.5-1.1,4.7-1.2,5.9,1.6c1.2,2.8,1.8,5.5,1.8,5.5s1.4-0.3,2.2-0.5
		c1.4-0.4,2.6-0.7,2.8,2.1c0.4,4.5,1.2,5.1,1.2,6.3c0,1.3,0.2,2,0.1,3.4c-0.1,1.4-0.5,3.8-0.4,5.4c0,1.5,0,2.5,1.5,2.5
		c1.5-0.1,1.8,1.5,2,2.2c0.2,0.8-0.6,1.2-1.2,1.4c-0.6,0.3,0.2,0.6,0.8,0.6c0.6,0,1.3,0.7,1.6,1.7c0.3,1-0.2,2.2-0.2,2.2
		s0.8,0.7,0.8,1.5c0,0.8,0.6,2.1,0,2.4c-0.6,0.3-1.3,0.3-1.8,0.3c-0.5,0-1.1,1.1-2.7,0.7c-1.2-0.3-1.5,0.4-1.5,0.4l-0.6,8.9
		c0,0,2.7-0.3,2.8,2.4c0.1,0.9-0.8,1.9-0.8,1.9s2.3-0.2,3,2.7c0.3,1.2,0.6,2.7,0.2,3.7c-0.6,1.5-1.5,2.3-1.5,2.3s-0.6,0.3-2.1,0.6
		c-1.5,0.3-3.2,0.1-3.2,0.1l-0.1,3.6l0,1.3c0,0.5-0.2,2.2-0.2,2.2l0.1,2l0.8,0.2c0,0,2.3,1.4,2.3,2.6c0.1,1.2-0.9,2.1-0.9,2.1
		s1.8-0.7,2.1,0.9c0.3,1.6,0.6,3.9,0.7,5.1c0,1.1-0.9,1.8-2.2,2.8c-1.2,0.9-3.4,1-3.4,1l-0.5,1c0,0,0.3,1.1-0.4,2.2
		c-0.7,1-0.1,1.9-0.7,2.7c-0.6,0.8-1.5,2.2-1.4,3.5c0,1.3-1.1,2.3-2.4,3.1c-1.4,0.8-2.6,1.5-3.8,5c-2.1,6.2-1.1,7.3-1.1,7.3
		s0.2,0.8,0.1,2.1c0,0.6-0.3,1.2-0.2,2.1c0,0.8-0.1,8.7-0.1,17.3c0.1,20.4,0.5,52.6,0.7,59.9c0.2,4.8,0.2,23.3,0.4,43.6
		c0.2,23.9,0.9,49.7,0.9,53.4c0.1,5.2,0.5,38.3,0.9,53.9c0.1,5,0.3,8.1,0.3,8.1s-0.4,0.8,3.1,0.8c1.8,0,15.6,1.3,26.8,4.2
		c3,0.8,8.4,2.6,13.2,4.4c4.4,1.7,8.3,3.4,12.7,5.7c8.1,4.2,14.7,9.3,19.4,14.8c7.4,8.6,14.4,19.9,16.1,35.5
		c0.6,5.8,0.8,13.5-0.5,19.9c-2.2,10.8-4.4,15.8-6.5,21.3c-2.5,6.5-5.3,13.7-6.7,19.2c-2.2,8.8-4.8,17.4,2.4,29.2
		c1.6,2.7,4.1,7.5,7.5,13.2c5.9,10,13.8,22.9,19.4,34c5.3,10.5,7.7,18.3,8.9,22.4c1.7,5.9,5.3,17.5,4.6,32.4
		c-0.4,7.8-2.4,17.3-4.6,24.3c-1.3,4.2-2.7,7.2-3.7,9.2c-3.2,6.7-6.8,11.9-10.3,17.9c-3.9,6.7-8.5,13.2-15.2,20
		c-12.6,12.9-29.6,21.7-39.3,24.5c-2.6,0.7-10.6,3.2-20.4,4.9c-7.7,1.3-16.5,2.1-24.5,2.6c-18.8,1.2-31.1,0.4-37.3-0.3
		c-7.9-0.9-18.8-1.8-31.5-4.9c-11.5-2.7-23.9-7.5-28.5-10c-1.4-0.7-5-2.3-8.1-4c-3.3-1.8-6-3.6-9.5-6c-5.4-3.8-9.4-7.9-14.5-13.2
		c-10.4-10.9-16.4-24.6-18.8-31.1c-1.9-5.3-6.7-21.9-5.7-38.5c0.6-9.1,2.5-18.7,4.9-26.5c1.4-4.7,4-11.5,6.7-17.5
		c2.8-6.2,5.6-11.5,6.9-13.8c6.8-12.8,15.8-28.3,17.3-31c0.6-1.1,2.5-5,3.9-9c1.3-3.5,2.1-6.9,2.2-11.7c0.1-8.6-4.3-19.3-6-23.9
		c-2.3-6-8.5-19.9-10.6-35.1c-1.4-10.3-0.1-21.2,2.4-30.4c3-11.1,8.8-21.2,17.1-29c8.7-8.2,20-14,26.6-16.1
		c5.4-1.8,10.5-3.9,16.7-5.1c8.5-1.5,18-2,18-2s0.5-40.8,1.2-71.3c0.3-14.9,0.5-27.8,0.6-31.5c0.1-3.1,0.2-15.3,0.5-29.6
		c0.8-39.4,1.9-104.6,1.9-104.6s-0.6-2.3-0.4-3.7c0.2-1.4,0.9-4.2-0.4-8.4c-1.3-4.2-1.4-4.2-2.2-5.8c-0.8-1.6-1-5.6-1-5.6
		s-1.3-0.6-1.3-1.4c0-0.8,0.6-1.4,0.6-2.2c0-0.8-0.4-1.1-0.4-1.1s-1.5,0.4-2.2,0.3C325.9,95.1,325.5,91.8,325.7,90.2z"/>
	<polygon class="st0" points="367.2,70.1 365.3,86 364,86 365,69.8 	"/>
	<polygon class="st0" points="367.7,70 366,85.6 374.1,85.6 375.2,69.5 	"/>
	<path class="st0" d="M370,92.9l-5.3,0.1l-0.2,4.2c0,0,0.2,1,2.2,1.9c2,0.9,2.8,0.5,2.8,0.5L370,92.9z"/>
	<path class="st0" d="M373.6,92.7l-3,0.3l-0.7,6.8c0,0,1.5-0.3,2.4-0.6c0.9-0.3,0.9-0.1,0.9-1.5C373.2,96.4,373.6,92.7,373.6,92.7z"
		/>
	<path class="st0" d="M347.1,93.1l-1.4,0.2c0,0,0,1.2-0.9,1.1c-0.9-0.1-1.1-0.2-1.6-0.1c-0.5,0.1-1,0.1-1,0.1l0.3,7.2
		c0,0,0.9,0.3,2.8-0.4c1.8-0.7,2.2-0.8,2.1-2.8L347.1,93.1z"/>
	<path class="st0" d="M341.5,94.5c0,0-1.4,0.1-1.9,0.1c-0.6,0-1.4-0.7-1.4,0.7c0,2.7-0.1,3.8,1.1,4.7c1.2,0.9,2.5,1.2,2.5,1.2
		L341.5,94.5z"/>
	<path class="st0" d="M341,70.9l-3.1,0.1l-0.1,15c0,0,0.8,0.1,1.9-0.1c1.1-0.1,1.6-0.1,1.6-0.1L341,70.9z"/>
	<path class="st0" d="M342.2,71.4l0,13.8c0,0,0.9,0.3,1.4,0c0.5-0.3,0.5-0.2,1.2,0.1c0.7,0.3,0.6,0.3,1.2,0c0.6-0.4,0.8,0,0.8-1.4
		c0-1.4-0.2-12.7-0.2-12.7L342.2,71.4z"/>
</g>
</svg>
