<?xml version="1.0" encoding="utf-8"?>
<!-- Generator: Adobe Illustrator 23.0.2, SVG Export Plug-In . SVG Version: 6.00 Build 0)  -->
<!DOCTYPE svg PUBLIC "-//W3C//DTD SVG 1.1//EN" "http://www.w3.org/Graphics/SVG/1.1/DTD/svg11.dtd" [
	<!ENTITY ns_extend "http://ns.adobe.com/Extensibility/1.0/">
	<!ENTITY ns_ai "http://ns.adobe.com/AdobeIllustrator/10.0/">
	<!ENTITY ns_graphs "http://ns.adobe.com/Graphs/1.0/">
	<!ENTITY ns_vars "http://ns.adobe.com/Variables/1.0/">
	<!ENTITY ns_imrep "http://ns.adobe.com/ImageReplacement/1.0/">
	<!ENTITY ns_sfw "http://ns.adobe.com/SaveForWeb/1.0/">
	<!ENTITY ns_custom "http://ns.adobe.com/GenericCustomNamespace/1.0/">
	<!ENTITY ns_adobe_xpath "http://ns.adobe.com/XPath/1.0/">
]>
<svg version="1.1" id="Layer_1" xmlns:x="&ns_extend;" xmlns:i="&ns_ai;" xmlns:graph="&ns_graphs;"
	 xmlns="http://www.w3.org/2000/svg" xmlns:xlink="http://www.w3.org/1999/xlink" x="0px" y="0px" viewBox="0 0 720 720"
	 style="enable-background:new 0 0 720 720;" xml:space="preserve">
<style type="text/css">
	.Drop_x0020_Shadow{fill:none;}
	.Round_x0020_Corners_x0020_2_x0020_pt{fill:#FFFFFF;stroke:#231F20;stroke-miterlimit:10;}
	.Live_x0020_Reflect_x0020_X{fill:none;}
	.Bevel_x0020_Soft{fill:url(#SVGID_1_);}
	.Dusk{fill:#FFFFFF;}
	.Foliage_GS{fill:#FFDD00;}
	.Pompadour_GS{fill-rule:evenodd;clip-rule:evenodd;fill:#44ADE2;}
	.st0{fill-rule:evenodd;clip-rule:evenodd;}
</style>
<metadata>
	<sfw  xmlns="&ns_sfw;">
		<slices></slices>
		<sliceSourceBounds  bottomLeftOrigin="true" height="720" width="262.5" x="228.7" y="-720"></sliceSourceBounds>
	</sfw>
</metadata>
<linearGradient id="SVGID_1_" gradientUnits="userSpaceOnUse" x1="0" y1="0" x2="0.7071" y2="0.7071">
	<stop  offset="0" style="stop-color:#DEDFE3"/>
	<stop  offset="0.1783" style="stop-color:#DADBDF"/>
	<stop  offset="0.3611" style="stop-color:#CECFD3"/>
	<stop  offset="0.546" style="stop-color:#B9BCBF"/>
	<stop  offset="0.7324" style="stop-color:#9CA0A2"/>
	<stop  offset="0.9181" style="stop-color:#787D7E"/>
	<stop  offset="1" style="stop-color:#656B6C"/>
</linearGradient>
<path class="st0" d="M324.1,82.2l5.2,0.5l4.3-17.8l-5.1-0.4c-1.5,3.5-8.8,3.8-9.2-0.6c-0.2-2.7,1-6.5,3.3-8.3c3.3-2.6,7.3,1.1,7,4.6
	l5.1,0.4l4.3-17.7l-5-0.5c-1.4,3.6-8.8,4.2-9.3-0.2c-0.2-2.7,1.1-6.7,3.3-8.4c3.4-2.7,7.2,1.2,7,4.2v0v0v0v0v0v0v0v0v0v0l0,0v0v0
	l0,0l5.1,0.5l6.6-27.3c1.9-7.9,6-11.6,12.2-11.4c6.2-0.3,10.3,3.5,12.2,11.4l6.6,27.3l4.9-0.5c-0.3-3.4,3.8-6.9,7-4.3
	c2.1,1.7,3.4,5,2.8,7.7c-1,4.4-6.9,6-8.9,1l-4.9,0.5l4.3,17.7l5-0.4c-0.4-3.5,3.7-7.2,7-4.6c2.1,1.7,2.4,4.8,2.5,7.6
	c0.1,4.9-5.6,5.9-8.4,1.2l-5,0.4l4.3,17.8l5-0.5c-0.4-3.4,4-6.7,7-4.3c2.5,2,3.4,5.3,3.4,8.4c-0.5,4.3-8.1,3.9-9.4,0.2l-5,0.5
	l4.8,19.9c-10.6,1.9-18.8,8-22.1,19c0.3,0,6.4,261.1,6.9,281.9c0.2,5.4,10.6,10.9,14.9,12.1c31.2,90.9,64.2,184.1,96,274.9
	c7.6,23.4-13.1,34.1-26.5,16.4l-78.1-87.9c-10.7-11.8-18-13.4-24.9-13.5c-6.9,0.1-14.2,1.8-24.9,13.5L257,711.1
	c-13.4,17.7-34.3,7-26.5-16.4c31.7-90.9,64.7-184,95.9-274.9c6.2-1.6,11.5-5.5,14.8-10.9c1.5-94.2,3-188.5,4.5-282.7
	c-3.3-11.2-11.4-17.5-22.2-19.4l4.8-19.9l-5.1-0.5c-2,4.5-9.3,4.2-9.3-0.2c-0.2-1.8,0.4-4.4,1.4-6C317.4,75.3,324.1,76.9,324.1,82.2
	L324.1,82.2z"/>
</svg>
