<?xml version="1.0" encoding="utf-8"?>
<!-- Generator: Adobe Illustrator 23.0.2, SVG Export Plug-In . SVG Version: 6.00 Build 0)  -->
<!DOCTYPE svg PUBLIC "-//W3C//DTD SVG 1.1//EN" "http://www.w3.org/Graphics/SVG/1.1/DTD/svg11.dtd" [
	<!ENTITY ns_extend "http://ns.adobe.com/Extensibility/1.0/">
	<!ENTITY ns_ai "http://ns.adobe.com/AdobeIllustrator/10.0/">
	<!ENTITY ns_graphs "http://ns.adobe.com/Graphs/1.0/">
	<!ENTITY ns_vars "http://ns.adobe.com/Variables/1.0/">
	<!ENTITY ns_imrep "http://ns.adobe.com/ImageReplacement/1.0/">
	<!ENTITY ns_sfw "http://ns.adobe.com/SaveForWeb/1.0/">
	<!ENTITY ns_custom "http://ns.adobe.com/GenericCustomNamespace/1.0/">
	<!ENTITY ns_adobe_xpath "http://ns.adobe.com/XPath/1.0/">
]>
<svg version="1.1" id="Layer_1" xmlns:x="&ns_extend;" xmlns:i="&ns_ai;" xmlns:graph="&ns_graphs;"
	 xmlns="http://www.w3.org/2000/svg" xmlns:xlink="http://www.w3.org/1999/xlink" x="0px" y="0px" viewBox="0 0 720 720"
	 style="enable-background:new 0 0 720 720;" xml:space="preserve">
<style type="text/css">
	.Drop_x0020_Shadow{fill:none;}
	.Round_x0020_Corners_x0020_2_x0020_pt{fill:#FFFFFF;stroke:#231F20;stroke-miterlimit:10;}
	.Live_x0020_Reflect_x0020_X{fill:none;}
	.Bevel_x0020_Soft{fill:url(#SVGID_1_);}
	.Dusk{fill:#FFFFFF;}
	.Foliage_GS{fill:#FFDD00;}
	.Pompadour_GS{fill-rule:evenodd;clip-rule:evenodd;fill:#44ADE2;}
	.st0{fill-rule:evenodd;clip-rule:evenodd;}
</style>
<metadata>
	<sfw  xmlns="&ns_sfw;">
		<slices></slices>
		<sliceSourceBounds  bottomLeftOrigin="true" height="720" width="537.7" x="91.2" y="-720"></sliceSourceBounds>
	</sfw>
</metadata>
<linearGradient id="SVGID_1_" gradientUnits="userSpaceOnUse" x1="0" y1="0" x2="0.7071" y2="0.7071">
	<stop  offset="0" style="stop-color:#DEDFE3"/>
	<stop  offset="0.1783" style="stop-color:#DADBDF"/>
	<stop  offset="0.3611" style="stop-color:#CECFD3"/>
	<stop  offset="0.546" style="stop-color:#B9BCBF"/>
	<stop  offset="0.7324" style="stop-color:#9CA0A2"/>
	<stop  offset="0.9181" style="stop-color:#787D7E"/>
	<stop  offset="1" style="stop-color:#656B6C"/>
</linearGradient>
<path class="st0" d="M359,487.8c11.9-10.4,30.3-25.6,52.7-43.9c0-0.8,0-1.6,0-2.4v0v-0.1v-0.1v-0.1v-0.1l0-0.3v-0.1l0-0.9v-0.1v-0.1
	v-0.1l0,0v-0.1v-0.1c-0.2-23.3-8.4-37.6-22.1-32.7c-3.3,1.2-5.8,1.1-6.3-0.9c-3-2.4-1.7-8.6,2.4-13.2c1.2-1.3,2.1-2.6,2.7-3.9
	c0.5-12.6-11.2-24.8-10.5-58.7l0-0.2c0-1.7,0-3.3,0-5.1c1.1-54,35.8-81.5,93.9-84.1c2.7-51.1,5.4-102.1,7.4-153.2
	c-0.3-5.7-10.5-2.9-17.9-2.9c-9.1,11.3-23.2,0.6-17.2-8.4c-0.1-4.2-0.2-8.4-0.3-12.7c-3-7.4,16.5-10.5,16.2-2.6
	c0.1,1.5,0.2,3,0.3,4.5c9.2,0.4,18.9,1.4,18.8-6.5c-0.1-1.3-0.1-4.3-0.2-7.9c-1.4-4.4-10.8-1.9-17.7-2c-9.1,11.3-23.2,0.6-17.2-8.4
	c-0.1-4.2-0.2-8.4-0.3-12.7c-3-7.4,16.5-10.5,16.2-2.6c0.1,1.5,0.2,3,0.3,4.5c7.9,0.4,16.2,1.2,18.3-3.7c0-2.7-0.1-4.9-0.1-6
	c-0.2-1.8-4.4-1.2-5.2-2.3c-1.4-2.4-1.4-4.9-0.3-7.5c0.6-1.3,4.9,0.2,5.8-1.6c1.7-4.1,0.1-8.1,3.1-8.9c4.1-0.1,7.7-0.1,11.9,0
	c3,0.8,1.4,4.8,3.1,8.9c1,1.8,5.3,0.3,5.8,1.6c1.1,2.5,1.1,5-0.3,7.5c-0.8,1.1-5,0.5-5.2,2.3c0,1.1-0.1,3.2-0.1,6
	c2.1,4.8,10.4,4.1,18.3,3.7c0.1-1.5,0.2-3,0.3-4.5c-0.3-7.9,19.2-4.8,16.2,2.6c-0.1,4.2-0.2,8.4-0.3,12.7c6,9.1-8.1,19.7-17.2,8.4
	c-6.9,0.1-16.3-2.4-17.7,2c-0.1,3.7-0.1,6.6-0.2,7.9c-0.1,7.9,9.7,6.9,18.8,6.5c0.1-1.5,0.2-3,0.3-4.5c-0.3-7.9,19.2-4.8,16.2,2.6
	c-0.1,4.2-0.2,8.4-0.3,12.7c6,9.1-8.1,19.7-17.2,8.4c-7.4,0.1-17.5-2.7-17.9,2.9c2,51.2,3.3,102.4,4.6,153.6
	c44.2,3.5,73.8,22.4,83.8,57.4c12.7-11.2,25-22.3,36.7-33c4.3-3.2,8.9,3.1,6.4,6.2c-7.2,6.4-13,12.6-20.2,19.1
	c4.7,5.5,9.3,10,14.7,14.9c-8.3,9.6-21.2,20.7-33.8,31.7c-1,29.9-12,40.9-10.3,53.1c0.7,0.7,1.6,1.5,2.6,2.2
	c5.9,4.2,6.1,10.9,2.4,13.2c-0.6,1.9-3,2-6.3,0.8c-14.4-5.1-22.6,10.9-22.1,36.1c0.9,13.3,4.2,29.1,10.4,46.2
	c10.5,29.1,39.8,8.1,35.3,23.8c0,0.6-0.2,1.4-0.5,2.3c-0.2,0.4-0.3,0.8-0.4,1.2c-0.5,2-0.8,4-1,6.3c-0.3,9.8,4.7,22.9,13.8,46.4
	c22.1,57.2,2.8,107.1-41.3,131.3c-3,1.7-6.2,3.4-9.5,4.8c0.8-0.4,1.7-0.9,2.5-1.3c-10.6,4.9-22.4,8.3-35.2,10.2
	c-21.4,9.7-68.2,6.3-110.9-2.6c-44.5-9.3-68.9-43.1-77-60.6c-1.4-2.9-0.9-5.9,1-8.7l0,0c0.2-0.2,0.3-0.5,0.5-0.7l0,0
	c0.2-0.2,0.3-0.4,0.5-0.7l0.1-0.1c0.2-0.2,0.4-0.5,0.6-0.7l0,0c0.2-0.2,0.5-0.5,0.7-0.7l0,0c0.2-0.2,0.5-0.5,0.8-0.7l0,0
	c0.3-0.2,0.5-0.4,0.8-0.7l0.1-0.1c0.3-0.2,0.5-0.4,0.8-0.7l0,0l0,0l0.2-0.1c-4.3-20.3-2.4-43.3,7-67.7c8-20.6,12.8-33.3,13.6-42.7
	c0.1-1.3,0.1-2.5,0.1-3.7c-64.5,53.3-129.5,106-194.6,158.5c0.2,0.5,0.3,1,0.3,1.4c-14.6,11.4-29.7,23.9-41.9,31
	c-3.8-6.2-7.5-11.5-12-17.1c-7.6,5.9-14.8,10.5-22.4,16.4c-3.4,1.9-8.9-3.8-4.9-7.4C111.2,691.6,315.9,525.4,359,487.8L359,487.8z
	 M366.1,512.6c-2.4-7.7,2.6-7.1,9.7-7.1l27.9-23.2c2.8-8.5,4.9-16.6,6.4-24.3c-18.6,15.2-33.9,27.8-43.5,36.3
	c-32.8,29.1-189.8,159.1-204.4,170.6c1.9,3.1,0.4,5.8-6.9,10.2c-3.6,4.2,0.9,10.1,5.8,7.5c2.9-2.2,5.9-4.7,8.8-6.9
	c0.2,0.2,0.4,0.4,0.6,0.7l195.6-162.8C366.1,513.2,366.1,512.9,366.1,512.6L366.1,512.6z M137.2,689.5L137.2,689.5
	c-2.2,1.8-2.5,5.1-0.7,7.3c1.8,2.2,5.1,2.5,7.3,0.7c2.2-1.8,2.5-5.1,0.7-7.3C142.6,687.9,139.4,687.7,137.2,689.5L137.2,689.5z
	 M597.8,306.5L597.8,306.5c-2.2,1.8-2.5,5.1-0.7,7.3c1.8,2.2,5.1,2.5,7.3,0.7c2.2-1.8,2.5-5.1,0.7-7.3
	C603.2,305,599.9,304.7,597.8,306.5L597.8,306.5z"/>
</svg>
