<?xml version="1.0" encoding="utf-8"?>
<!-- Generator: Adobe Illustrator 23.0.2, SVG Export Plug-In . SVG Version: 6.00 Build 0)  -->
<!DOCTYPE svg PUBLIC "-//W3C//DTD SVG 1.1//EN" "http://www.w3.org/Graphics/SVG/1.1/DTD/svg11.dtd" [
	<!ENTITY ns_extend "http://ns.adobe.com/Extensibility/1.0/">
	<!ENTITY ns_ai "http://ns.adobe.com/AdobeIllustrator/10.0/">
	<!ENTITY ns_graphs "http://ns.adobe.com/Graphs/1.0/">
	<!ENTITY ns_vars "http://ns.adobe.com/Variables/1.0/">
	<!ENTITY ns_imrep "http://ns.adobe.com/ImageReplacement/1.0/">
	<!ENTITY ns_sfw "http://ns.adobe.com/SaveForWeb/1.0/">
	<!ENTITY ns_custom "http://ns.adobe.com/GenericCustomNamespace/1.0/">
	<!ENTITY ns_adobe_xpath "http://ns.adobe.com/XPath/1.0/">
]>
<svg version="1.1" id="Layer_1" xmlns:x="&ns_extend;" xmlns:i="&ns_ai;" xmlns:graph="&ns_graphs;"
	 xmlns="http://www.w3.org/2000/svg" xmlns:xlink="http://www.w3.org/1999/xlink" x="0px" y="0px" viewBox="0 0 720 720"
	 style="enable-background:new 0 0 720 720;" xml:space="preserve">
<style type="text/css">
	.Drop_x0020_Shadow{fill:none;}
	.Round_x0020_Corners_x0020_2_x0020_pt{fill:#FFFFFF;stroke:#231F20;stroke-miterlimit:10;}
	.Live_x0020_Reflect_x0020_X{fill:none;}
	.Bevel_x0020_Soft{fill:url(#SVGID_1_);}
	.Dusk{fill:#FFFFFF;}
	.Foliage_GS{fill:#FFDD00;}
	.Pompadour_GS{fill-rule:evenodd;clip-rule:evenodd;fill:#44ADE2;}
</style>
<metadata>
	<sfw  xmlns="&ns_sfw;">
		<slices></slices>
		<sliceSourceBounds  bottomLeftOrigin="true" height="720" width="306.6" x="206.7" y="-720"></sliceSourceBounds>
	</sfw>
</metadata>
<linearGradient id="SVGID_1_" gradientUnits="userSpaceOnUse" x1="0" y1="0" x2="0.7071" y2="0.7071">
	<stop  offset="0" style="stop-color:#DEDFE3"/>
	<stop  offset="0.1783" style="stop-color:#DADBDF"/>
	<stop  offset="0.3611" style="stop-color:#CECFD3"/>
	<stop  offset="0.546" style="stop-color:#B9BCBF"/>
	<stop  offset="0.7324" style="stop-color:#9CA0A2"/>
	<stop  offset="0.9181" style="stop-color:#787D7E"/>
	<stop  offset="1" style="stop-color:#656B6C"/>
</linearGradient>
<path d="M424.6,552.9c1.9,16.3,3.9,33.2,6.1,50.8c0,0,22.1,76.9-53.8,108.6C300.9,744,270.1,669,271.1,653.6
	c1-15.4,6.7-38.4,32.7-33.6c26,4.8,32.7,25,31.7,33.6c-1,8.6-9.2,28-32.7,26.9c0,0,26,37.5,70.2,14.4c44.2-23.1,44.2-46.1,41.3-85.6
	c-0.5-7.2-2.8-27-6.1-54.8c-10.8,0.6-17.9,0-17.9,0s-183.6,20.2-183.6-128.8c0-142.7,112.8-186.6,160.4-213.7c-5.5-50-8.9-87-8-95.8
	C362.4,83.6,406.6,0,445.1,0c38.5,0,40,30,41,59.8c1,29.8-4.5,91.1-4.5,91.1s-8.6,48.7-90.2,107.5c2.2,22.8,5.1,49.5,8.5,81
	c30,1.3,113.4,13.4,113.4,109.6C513.3,525.4,461,547,424.6,552.9z M386.2,199.6c40-29.5,82.3-81.4,82.3-126.9
	c0-50.5-23.4-29.4-23.4-29.4s-44.2,25.9-54.8,60.6C384.8,121.8,380.9,130.2,386.2,199.6z M406.7,542.4
	c-5.2-42.5-12.3-99.8-19.5-158.7c-80.4,3.9-77.6,102-26.7,116.1c0,0-61.5-6.7-61.5-79.8c0-60.3,61.5-76,83-79.7
	c-2.9-23.8-5.7-47.4-8.3-69.8c-94.6,62.3-140.1,84.7-140.1,160c0,75.9,76.9,112.6,158.6,112.6C397.3,543.3,402.1,543,406.7,542.4z
	 M487.4,450.8c0-13.7-8.7-61.8-82.4-66.8c4.9,43.6,10.9,94.8,18,154.9C477.4,522.4,487.4,463.2,487.4,450.8z"/>
</svg>
