<?xml version="1.0" encoding="utf-8"?>
<!-- Generator: Adobe Illustrator 23.0.2, SVG Export Plug-In . SVG Version: 6.00 Build 0)  -->
<!DOCTYPE svg PUBLIC "-//W3C//DTD SVG 1.1//EN" "http://www.w3.org/Graphics/SVG/1.1/DTD/svg11.dtd" [
	<!ENTITY ns_extend "http://ns.adobe.com/Extensibility/1.0/">
	<!ENTITY ns_ai "http://ns.adobe.com/AdobeIllustrator/10.0/">
	<!ENTITY ns_graphs "http://ns.adobe.com/Graphs/1.0/">
	<!ENTITY ns_vars "http://ns.adobe.com/Variables/1.0/">
	<!ENTITY ns_imrep "http://ns.adobe.com/ImageReplacement/1.0/">
	<!ENTITY ns_sfw "http://ns.adobe.com/SaveForWeb/1.0/">
	<!ENTITY ns_custom "http://ns.adobe.com/GenericCustomNamespace/1.0/">
	<!ENTITY ns_adobe_xpath "http://ns.adobe.com/XPath/1.0/">
]>
<svg version="1.1" id="Layer_1" xmlns:x="&ns_extend;" xmlns:i="&ns_ai;" xmlns:graph="&ns_graphs;"
	 xmlns="http://www.w3.org/2000/svg" xmlns:xlink="http://www.w3.org/1999/xlink" x="0px" y="0px" viewBox="0 0 720 720"
	 style="enable-background:new 0 0 720 720;" xml:space="preserve">
<style type="text/css">
	.Drop_x0020_Shadow{fill:none;}
	.Round_x0020_Corners_x0020_2_x0020_pt{fill:#FFFFFF;stroke:#231F20;stroke-miterlimit:10;}
	.Live_x0020_Reflect_x0020_X{fill:none;}
	.Bevel_x0020_Soft{fill:url(#SVGID_1_);}
	.Dusk{fill:#FFFFFF;}
	.Foliage_GS{fill:#FFDD00;}
	.Pompadour_GS{fill-rule:evenodd;clip-rule:evenodd;fill:#44ADE2;}
	.st0{fill-rule:evenodd;clip-rule:evenodd;}
	.st1{fill-rule:evenodd;clip-rule:evenodd;stroke:#231F20;stroke-width:0.8268;stroke-miterlimit:22.9256;}
</style>
<metadata>
	<sfw  xmlns="&ns_sfw;">
		<slices></slices>
		<sliceSourceBounds  bottomLeftOrigin="true" height="720" width="286.2" x="216.9" y="-720"></sliceSourceBounds>
	</sfw>
</metadata>
<linearGradient id="SVGID_1_" gradientUnits="userSpaceOnUse" x1="0" y1="0" x2="0.7071" y2="0.7071">
	<stop  offset="0" style="stop-color:#DEDFE3"/>
	<stop  offset="0.1783" style="stop-color:#DADBDF"/>
	<stop  offset="0.3611" style="stop-color:#CECFD3"/>
	<stop  offset="0.546" style="stop-color:#B9BCBF"/>
	<stop  offset="0.7324" style="stop-color:#9CA0A2"/>
	<stop  offset="0.9181" style="stop-color:#787D7E"/>
	<stop  offset="1" style="stop-color:#656B6C"/>
</linearGradient>
<g id="_x32_2_1_">
	<path class="st0" d="M355.9,710.3c-101.3,10.6-161.5-60-127-149.2c12-31.1,13.8-42.8,9.9-54c-6.3-18.3,25.4,5.5,36.3-24.7
		c19-52.7,14.5-96.7-8.5-86.7c-13.9,6-14.3-5.7-7.6-13.1c13.6-15.1-9-26.9-8.1-70.2c1.2-56,37.2-84.4,97.4-87c1.9-0.1,4.4-0.7,7-1.3
		c0.8-1,2.5-1.2,4.7-0.9c2.1-0.3,3.9-0.1,4.7,0.9c2.5,0.6,5.1,1.2,7,1.3c60.3,2.7,96.3,31.1,97.4,87c0.9,43.3-24.7,58.5-8.1,70.2
		c8.8,6.1,5.5,17.7-4.7,13.8c-23.6-8.3-30.5,33.2-11.5,86c10.9,30.2,41.4,8.2,36.5,24.8c-3.4,11.4-4,21.5,8,52.6
		c34.4,89.2-24,161.1-125.3,150.6c-1.4-2.1-2.8-4.3-4.1-6.4C358.7,706,357.3,708.2,355.9,710.3z"/>
	<path class="st0" d="M355.9,715.8c-101.3,10.6-164-61.5-129.5-150.7c12-31.1,17.1-44.7,12.8-55.8c-5-13,25,8.7,36-21.5
		c19-52.7,11.5-99.1-12.1-90.7c-6,2.1-9.2,0.3-4-9.1c9.8-17.8-9-26.9-8.1-70.2c1.2-56,37.2-84.4,97.4-87c1.9-0.1,4.4-0.7,7-1.3
		c0.8-1.1,2.5-1.2,4.7-0.9c2.1-0.3,3.9-0.1,4.7,0.9c2.5,0.6,5.1,1.2,7,1.3c60.3,2.7,96.3,31.1,97.4,87c0.9,43.3-17.9,52.4-8.1,70.2
		c5.2,9.4,2,11.2-4,9.1c-23.6-8.3-31.1,38-12.1,90.7c10.9,30.2,41,8.5,36,21.5c-4.3,11.1,0.8,24.7,12.8,55.8
		c34.4,89.2-28.2,161.3-129.5,150.7c-1.4-2.1-2.8-4.3-4.1-6.4C358.7,711.5,357.3,713.7,355.9,715.8z"/>
	<path class="st0" d="M457.8,342.8c5.3,35.3-28.5,43.3-24.4,101.7c2,18.6,8.7,47.7,17.9,55.8c18.4,16.3,28.7,37.4,34.9,60.8
		c8.6,30.4-111.9,8.9-103.7-89.2c-4.8-48.7,2.3-78.4,21.4-89.2c-14.5,17.3-21.5,43.7-13.5,88.2c5.9,61.7,94.1,105.3,75.8,65.3
		c-28.9-44.6-35.9-60.8-37.9-91c-7.1-48.3,28.3-88.6-0.5-83.5C425.5,335.8,460.8,323.5,457.8,342.8z"/>
	<path class="st0" d="M361.6,485.9c5.8,0,10.5-18.6,10.5-41.4c0-22.8-4.7-41.4-10.5-41.4c-5.8,0-10.5,18.6-10.5,41.4
		C351.1,467.3,355.8,485.9,361.6,485.9z"/>
	<path class="st1" d="M335.3,473.4h48.8c1.6,0,3,1.3,3,3v6.7c0,1.7-1.3,3-3,3h-48.8c-1.6,0-3-1.3-3-3v-6.7
		C332.3,474.7,333.6,473.4,335.3,473.4z"/>
	<path class="st0" d="M357.8,575.5c-13.7-2.3-17.4-1.4-17.8,6.4c-0.3,27,12.8,34.1,12.4,65.5c-0.1,51.1-11.1,69.3,5.4,72.6
		c16.6-3.2,5.5-21.4,5.4-72.6c-0.4-31.4,12.7-38.5,12.4-65.5C375.1,574.1,371.4,573.2,357.8,575.5z"/>
	<path class="st1" d="M342.2,574.3h31.5c1.1,0,1.9,0.6,1.9,1.3v3c0,0.7-0.9,1.3-1.9,1.3h-31.5c-1.1,0-1.9-0.6-1.9-1.3v-3
		C340.3,574.9,341.1,574.3,342.2,574.3z"/>
	<path class="st0" d="M361.9,326.9c49.2,0,89.2-20.7,89.2-46.1c0-25.4-40.1-46.1-89.2-46.1c-49.2,0-89.3,20.7-89.3,46.1
		C272.6,306.1,312.7,326.9,361.9,326.9z"/>
	<path class="st0" d="M361.2,415.6l-17.7,0.3c-3.2-0.3-4.7-2.1-4.4-5.4c4.5-114.6,12.2-229.1,16.7-343.7c-0.3-5.9-10.8-3-18.5-3
		c-9.4,11.7-24,0.7-17.8-8.7c-0.1-4.4-0.2-8.7-0.3-13.1c-3.1-7.7,17.1-10.8,16.8-2.7c0.1,1.6,0.2,3.1,0.3,4.7
		c9.5,0.5,19.6,1.5,19.5-6.7c-0.2-5.4-0.4-10.8-0.7-16.1c-0.2-1.9-4.5-1.2-5.4-2.3c-1.5-2.5-1.4-5.1-0.3-7.7c0.6-1.4,5,0.2,6-1.7
		c1.8-4.2,0.1-8.4,3.2-9.2l6.1-0.2l0,0h0.1h0.1l0,0l6.1,0.2c3.1,0.9,1.4,5,3.2,9.2c1,1.9,5.4,0.3,6,1.7c1.1,2.6,1.1,5.2-0.3,7.7
		c-0.8,1.1-5.2,0.5-5.4,2.3c-0.2,5.4-0.4,10.8-0.7,16.1c-0.1,8.2,10,7.2,19.5,6.7c0.1-1.6,0.2-3.1,0.3-4.7c-0.3-8.1,19.9-5,16.8,2.7
		c-0.1,4.4-0.2,8.7-0.3,13.1c6.2,9.4-8.4,20.4-17.8,8.7c-7.6,0.1-18.2-2.8-18.5,3c4.5,114.6,5.7,229.1,10.2,343.7
		c0.3,3.2-1.1,5-4.4,5.4C373.7,415.8,367.1,415.7,361.2,415.6z"/>
	<path class="st0" d="M276,520.8c8.6,17.8,34,11.3,32.6-44.6c-1.5-26,7-41.1,15.1-33.2c-2.2,0.5-3.9,2.5-3.9,4.9c0,2.8,2.2,5,5,5
		s5-2.2,5-5c0-1.7-0.8-3.2-2.1-4.1c-9.4-17.5-29.1,1.6-27.1,33.7c0.9,39.5-10.3,58.6-21.9,43.6c0,0,0,0,0,0c0.1,0,0.2,0,0.3,0
		c3.3,0,6-2.7,6-6c0-3.3-2.7-6-6-6c-3.3,0-6,2.7-6,6c0,1,0.2,1.9,0.7,2.7c0,0,0,0-0.1,0c-0.2,0,0.1,0.3,0.6,0.8
		c0.3,0.4,0.6,0.7,0.9,1C275.7,520.2,276.2,520.8,276,520.8z"/>
	<path class="st0" d="M345,593.8c-2.2-110.3,9.5-314.5,13.2-524.5c0.5,0,1,0.1,1.5,0.1c-2.3,219.1-14.9,410.4-11.6,524.3
		C347.1,593.8,346,593.8,345,593.8z"/>
	<path class="st0" d="M354,593.8c-2.2-110.3,4.6-314.1,8.3-524.1c0.5,0,1,0.1,1.5,0.1c-2.3,219.1-10,410-6.7,524
		C356,593.8,355,593.8,354,593.8z"/>
	<path class="st0" d="M372.4,593.9c4.3-110.3-2.4-314.6-2-524.6c-0.5,0-1,0.1-1.5,0.1c-2,219.1,6,410.6,0.4,524.5
		C370.3,593.9,371.3,593.9,372.4,593.9z"/>
	<path class="st0" d="M364.5,593.7c4.3-110.3,1.4-314.1,1.8-524.2c-0.5,0-1,0.1-1.5,0.1c-2,219.1,2.1,410.1-3.4,524
		C362.4,593.7,363.4,593.7,364.5,593.7z"/>
	<path class="st0" d="M346.4,598.9c1.6,0,2.9-1.3,2.9-2.9c0-1.6-1.3-2.9-2.9-2.9c-1.6,0-2.9,1.3-2.9,2.9
		C343.5,597.6,344.8,598.9,346.4,598.9z"/>
	<path class="st0" d="M355.3,598.9c1.6,0,2.9-1.3,2.9-2.9c0-1.6-1.3-2.9-2.9-2.9c-1.6,0-2.9,1.3-2.9,2.9
		C352.4,597.6,353.7,598.9,355.3,598.9z"/>
	<path class="st0" d="M370.7,598.9c1.6,0,2.9-1.3,2.9-2.9c0-1.6-1.3-2.9-2.9-2.9c-1.6,0-2.9,1.3-2.9,2.9
		C367.8,597.6,369.1,598.9,370.7,598.9z"/>
	<path class="st0" d="M362.9,598.9c1.6,0,2.9-1.3,2.9-2.9c0-1.6-1.3-2.9-2.9-2.9c-1.6,0-2.9,1.3-2.9,2.9
		C360,597.6,361.3,598.9,362.9,598.9z"/>
	<path class="st0" d="M274.2,520.8c8.6,17.8,34,11.3,32.6-44.6c-1.5-26,7-41.1,15.1-33.2c-2.2,0.5-3.9,2.5-3.9,4.9c0,2.8,2.2,5,5,5
		c2.8,0,5-2.2,5-5c0-1.7-0.8-3.2-2.1-4.1c-9.4-17.5-29.1,1.6-27.1,33.7c0.9,39.5-10.3,58.6-21.9,43.6c0,0,0,0,0,0c0.1,0,0.2,0,0.3,0
		c3.3,0,6-2.7,6-6c0-3.3-2.7-6-6-6c-3.3,0-6,2.7-6,6c0,1,0.2,1.9,0.7,2.7c0,0-0.1,0-0.1,0c-0.2,0,0.1,0.3,0.6,0.8
		c0.3,0.4,0.6,0.7,0.9,1C273.9,520.2,274.4,520.8,274.2,520.8z"/>
	<path class="st0" d="M447.8,520.8c-8.6,17.8-34,11.3-32.6-44.6c1.5-26-7-41.1-15.1-33.2c2.2,0.5,3.9,2.5,3.9,4.9c0,2.8-2.2,5-5,5
		c-2.8,0-5-2.2-5-5c0-1.7,0.8-3.2,2.1-4.1c9.4-17.5,29.1,1.6,27.1,33.7c-0.9,39.5,10.3,58.6,21.9,43.6c0,0,0,0,0,0
		c-0.1,0-0.2,0-0.3,0c-3.3,0-6-2.7-6-6c0-3.3,2.7-6,6-6s6,2.7,6,6c0,1-0.2,1.9-0.7,2.7c0,0,0.1,0,0.1,0c0.2,0-0.1,0.3-0.6,0.8
		c-0.3,0.4-0.6,0.7-0.9,1C448.1,520.2,447.6,520.8,447.8,520.8z"/>
	<path class="st0" d="M445.8,520.8c-8.6,17.8-34,11.3-32.6-44.6c1.5-26-7-41.1-15.1-33.2c2.2,0.5,3.9,2.5,3.9,4.9c0,2.8-2.2,5-5,5
		c-2.8,0-5-2.2-5-5c0-1.7,0.8-3.2,2.1-4.1c9.4-17.5,29.1,1.6,27.1,33.7c-0.9,39.5,10.3,58.6,21.9,43.6c0,0,0,0,0,0
		c-0.1,0-0.2,0-0.3,0c-3.3,0-6-2.7-6-6c0-3.3,2.7-6,6-6c3.3,0,6,2.7,6,6c0,1-0.2,1.9-0.7,2.7c0,0,0.1,0,0.1,0c0.2,0-0.1,0.3-0.6,0.8
		c-0.3,0.4-0.6,0.7-0.9,1C446.1,520.2,445.6,520.8,445.8,520.8z"/>
	<path class="st1" d="M343,475.4h33.5c1.1,0,2,0.9,2,2.1v4.6c0,1.1-0.9,2-2,2H343c-1.1,0-2.1-0.9-2.1-2v-4.6
		C340.9,476.3,341.8,475.4,343,475.4z"/>
	<path class="st1" d="M344.6,476.9h30.2c1,0,1.8,0.6,1.8,1.4v3c0,0.7-0.8,1.3-1.8,1.3h-30.2c-1,0-1.9-0.6-1.9-1.3v-3
		C342.8,477.5,343.6,476.9,344.6,476.9z"/>
	<path class="st0" d="M340.1,413.1c-12-3.9,2.3-63.2-42.4-67.3c16.8-4.5,33.3-7.4,43.4,36.4C340.8,392.5,340.4,402.8,340.1,413.1z"
		/>
	<path class="st0" d="M243,506.9c26.3,6.5,36.5-15.4,43.5-56.1c5.7-33.7-3-64.7-24.5-60.1c-2.5-3.9,4-5.1,2.5-9.5
		c-6.4-30.4-8.3-59.3,2-83.8c-20.6,98.7,39.1,73.8,27.9,146.6C283.5,518.9,262,511.5,243,506.9z"/>
</g>
</svg>
