<?xml version="1.0" encoding="utf-8"?>
<!-- Generator: Adobe Illustrator 23.0.2, SVG Export Plug-In . SVG Version: 6.00 Build 0)  -->
<!DOCTYPE svg PUBLIC "-//W3C//DTD SVG 1.1//EN" "http://www.w3.org/Graphics/SVG/1.1/DTD/svg11.dtd" [
	<!ENTITY ns_extend "http://ns.adobe.com/Extensibility/1.0/">
	<!ENTITY ns_ai "http://ns.adobe.com/AdobeIllustrator/10.0/">
	<!ENTITY ns_graphs "http://ns.adobe.com/Graphs/1.0/">
	<!ENTITY ns_vars "http://ns.adobe.com/Variables/1.0/">
	<!ENTITY ns_imrep "http://ns.adobe.com/ImageReplacement/1.0/">
	<!ENTITY ns_sfw "http://ns.adobe.com/SaveForWeb/1.0/">
	<!ENTITY ns_custom "http://ns.adobe.com/GenericCustomNamespace/1.0/">
	<!ENTITY ns_adobe_xpath "http://ns.adobe.com/XPath/1.0/">
]>
<svg version="1.1" id="Layer_1" xmlns:x="&ns_extend;" xmlns:i="&ns_ai;" xmlns:graph="&ns_graphs;"
	 xmlns="http://www.w3.org/2000/svg" xmlns:xlink="http://www.w3.org/1999/xlink" x="0px" y="0px" viewBox="0 0 720 720"
	 style="enable-background:new 0 0 720 720;" xml:space="preserve">
<style type="text/css">
	.Drop_x0020_Shadow{fill:none;}
	.Round_x0020_Corners_x0020_2_x0020_pt{fill:#FFFFFF;stroke:#231F20;stroke-miterlimit:10;}
	.Live_x0020_Reflect_x0020_X{fill:none;}
	.Bevel_x0020_Soft{fill:url(#SVGID_1_);}
	.Dusk{fill:#FFFFFF;}
	.Foliage_GS{fill:#FFDD00;}
	.Pompadour_GS{fill-rule:evenodd;clip-rule:evenodd;fill:#44ADE2;}
</style>
<metadata>
	<sfw  xmlns="&ns_sfw;">
		<slices></slices>
		<sliceSourceBounds  bottomLeftOrigin="true" height="720" width="412.1" x="153.9" y="-720"></sliceSourceBounds>
	</sfw>
</metadata>
<linearGradient id="SVGID_1_" gradientUnits="userSpaceOnUse" x1="0" y1="0" x2="0.7071" y2="0.7071">
	<stop  offset="0" style="stop-color:#DEDFE3"/>
	<stop  offset="0.1783" style="stop-color:#DADBDF"/>
	<stop  offset="0.3611" style="stop-color:#CECFD3"/>
	<stop  offset="0.546" style="stop-color:#B9BCBF"/>
	<stop  offset="0.7324" style="stop-color:#9CA0A2"/>
	<stop  offset="0.9181" style="stop-color:#787D7E"/>
	<stop  offset="1" style="stop-color:#656B6C"/>
</linearGradient>
<g id="_x32_3">
	<g>
		<path d="M208.4,606c-2.8,4.2-36.2,48.6-39.5,53.6c-3.3,5-8.2,8.2-11.8,6.1c-3.6-2.1-4.3-8-1.2-9.8c3.4-2.1,4.9,1,8.2-1.9
			c3.3-2.9,23.5-44.4,33.2-57C197.2,597,205.3,604,208.4,606z M194.8,658.3L179.2,648l23.9-33.3c0,0,0.8,0.4,1,1.8
			c-2.3,3.1-3.7,7-1.3,8.8c1.9,1.5,4.5,1.1,6.6-1.4c1.9-2.1,4.4-6.9,4.4-6.9l4.4,2L194.8,658.3z M194.7,644.1
			c2.7-0.6,4.5-3.2,3.9-5.6c-0.6-2.5-3.3-4-6-3.3c-2.7,0.6-4.5,3.2-3.9,5.6C189.3,643.2,191.9,644.7,194.7,644.1z M550,106.3
			C488.5,203.1,254.7,557.5,218.2,619 M565.1,81.7c-2.4,4.3-3.5,10.6-7.5,17c-4,6.4-8.9-0.8-13.6-3.7c-3.2-2-3.9-2.7-7.2,3.6
			c-15.6,30-222.9,357.9-327.4,505.7l-11-9.2c79.2-90,315.5-475.7,336-508.7c5.7-9.1,10.5-10,14.4-6.9c3.9,3.1,9.3,4.8,12.7-0.4
			C565,73.8,567.5,77.4,565.1,81.7z M237.9,559.5l-5-4.1l-10.9,14.8l5.1,3.7L237.9,559.5z"/>
	</g>
	<path d="M432.9,704.6c-0.2-0.2-0.3-0.4-0.3-0.6c-0.1-1.2,2.9-2.9,7.4-3.5c3.5-0.4,6.6,0,7.7,1c0.2,0.2,0.3,0.4,0.3,0.6
		c0.1,0.6-0.6,1.3-1.9,2c-1.4,0.7-3.4,1.2-5.5,1.5C437.1,706.1,433.9,705.7,432.9,704.6z M437.3,708.2l3.9,11.8l3-12.3L437.3,708.2z
		 M406.4,110l10.6,0.5l1.9-56.9l10.6,0.6l3.3,56.5l9.2,0.9l-7.5-65l-22.1-0.2L406.4,110z M421.8,56.5l-1,12.8l0.8,0l0.3,44.6
		l3,391.1l12.9-0.3l-0.1-3.2L426.5,69.8l1.5,0l-1.4-12.9L421.8,56.5z M337.3,669.3c-22.9-22.1-27.8-51-29.5-60.5
		c-2.4-14.1,4.2-32.4,10.1-48.6c5.1-14.3,9.6-26.6,6.5-32.4c-3-5.6-3.3-10.4-0.9-12.9c2-2.1,5.7-2.1,9.6-0.1
		c3.3,1.7,7.6,1.5,11.7-0.5c5.8-2.9,16.4-12,21.3-40.5c4-23.1-3.8-34.7-8.7-39.5c-6.4-6.2-13.8-7.1-17.5-4.9
		c-3.6,2.1-7.4,2.3-9.3,0.4c-2.3-2.3-1.3-6.7,2.8-11.8c5.3-6.7,3.4-18.8,1-34.2c-3-18.8-6.7-42.2,2.8-63.2
		c4.4-9.8,22.6-42,68.9-43.6l0.3,0l5.6-165.7l7,0.4l1-19.8l0.3-9.8l3.2,422.9l-11.1,0.2l4.3-389.1l0-0.3l-1.5,0l-4.3,389.5l-3.2,0.1
		c-0.7,0-1.4,0.3-1.9,0.9c-0.5,0.5-0.8,1.2-0.8,2c0,1.5,1.3,2.7,2.8,2.7l3.2-0.1l1.6,37.2l1.5-0.1l-1.6-37.1l11.2-0.2l1.7,38.3
		l1.5-0.1l-1.7-38.2l12.8-0.3l0.9,38.5l1.5,0l-0.9-38.5l11.4-0.2l0.3,39.5l1.5,0l-0.3-39.5l5.3-0.1c0.7,0,1.4-0.3,1.9-0.9
		c0.5-0.5,0.8-1.2,0.8-2c0-1.5-1.3-2.7-2.8-2.7l-5.3,0.1v-0.1l-16.6-386.8l0-0.3l-1.5,0.1l16.7,387.1v0.1l-11.4,0.2L428.2,76.1
		L428,70l0.7,6.4l0.7,17l2,19.1l7.2,0.4l7.2,162.6l0,0.3l0.3,0c22.3-0.3,41.3,6.9,56.4,21.5c5.7,5.4,10.5,11.8,14.5,18.7
		c15.6,27.4,10.9,51.8,7.5,69.7c-2.3,12-4.1,21.5,1,27.3c4.1,4.7,5.5,9,3.6,11.4c-1.7,2.2-5.7,2.3-9.6,0.3
		c-3.6-1.9-9.4-0.6-14.3,3.1c-5,3.8-15.8,15.5-9.8,42.5c4.4,19.9,11.3,29.8,16.3,34.6c7.5,7.2,14.7,7.1,18.7,4.8
		c3.8-2.2,7.5-2.3,9.7-0.3c2.5,2.4,2.4,7.1-0.4,12.8c-2.9,6.1,2,17.9,7.6,31.5c6.4,15.4,13.5,32.9,12.9,48.7
		c-2.3,56.3-42.7,88.6-120.3,95.8C394.7,701.1,360.2,691.4,337.3,669.3z M488.4,541.7c3,2.9,6.5,4.5,10.8,4.8
		c8.6,0.7,14.5-8.5,15-12.4c0.4-2.8-0.7-5.8-2.7-7.7c-1.2-1.1-2.6-1.8-4.2-2.1c-2.1-0.3-4.1,0.3-5.5,1.7c-1.5,1.5-2.2,3.7-1.9,5.9
		c0.3,1.7,0.8,3,1.6,3.8c0.6,0.6,1.2,0.9,1.8,1.1c0.7,0.4,1.6,0.9,1.9,1.5c0.4,0.9,0.1,2.3-0.8,3.5c-0.6,0.9-2.3,3-5.3,3
		c-1.7,0-3.3-0.6-4.6-1.9c-5.1-5-6.3-19.3-7.6-34.6c-1.5-17.8-3.2-37.9-11.5-46c-2.4-2.3-5.1-3.5-8.4-3.7c-2.8-0.1-5.2,0.8-7.4,2.9
		c-3,2.8-4.4,6.7-4.4,8.6c0,2.3,0.7,5.4,2.8,7.5c0.9,0.8,1.9,1.4,3.1,1.8c1.9,0.6,3.7,0,5-1.6c1.5-1.9,1.9-4.6,0.9-6.6
		c-0.2-0.4-0.6-0.9-1.1-1.4c-0.6-0.6-1.3-1.1-1.8-1.5c-1.4-0.9-2.5-1.9-2.6-3.1c-0.2-1.6,0-2.7,0.7-3.4c0.7-0.7,1.9-1.1,3.5-0.9
		c1.4,0.1,2.6,0.7,3.6,1.7c4.6,4.4,5.5,16.7,6.6,31C477.3,511.9,478.8,532.5,488.4,541.7z M437.8,549.7l0.1,5.9l3.7-0.1l-0.1-5.9
		L437.8,549.7z M424.1,549.2l0.1,5.9l3.7-0.1l-0.1-5.9L424.1,549.2z M411,548.6l0.1,5.9l3.7-0.1l-0.1-5.9L411,548.6z M401.9,553.1
		l0,0.4c-1.2,12.6,2.1,21.3,6,31.3c4.6,12,9.8,25.7,9.6,50.5c-0.3,27.8,7.8,39.8,12.7,44.5c2.9,2.8,6.1,4.5,8.8,4.5
		c0.1,0,0.3,0,0.4,0c0.4,0,0.8-0.1,1.1-0.3c6.6-1.8,14.8-22.8,13.3-52.9c-1.1-22.3,2.2-36.9,4.9-48.7l0.1-0.4
		c0.3-1.1,0.5-2.2,0.8-3.3c0.7-0.9,1.1-1.9,1.1-3.1c0-0.4-0.1-0.8-0.2-1.2c1.1-5.6,2.1-12.2,1.1-19.5l-0.2-1.3l-0.4,0.3
		c-0.9,0.6-3.3,1.1-6.6,1.5l-0.1-5.5l-3.7,0.1l0.1,5.8c-14.7,1.3-40.4,1-48.2-2.7L401.9,553.1z M376.8,509.6
		c-1.1,19.6-2,36.6-11.1,36.8c-1.7,0-3.3-0.6-4.5-1.8c-1.4-1.4-2.2-3.4-1.7-4.5c0.3-0.8,1.1-1.2,1.8-1.6c1.3-0.7,2.9-1.5,3.3-5
		c0.3-2.2-0.5-4.3-2-5.8c-1.5-1.4-3.5-2-5.6-1.6c-4.9,0.9-7.2,5.9-6.6,10c0.3,1.9,2.1,5.3,4.8,8c2.2,2.1,5.9,4.6,10.5,4
		c19.3-2.2,20.6-29.4,21.7-53.4c0.8-17.2,1.5-32.1,9.2-32.9c3.2-0.4,4.7,1.1,4.4,4.2c-0.2,1.4-1.4,2.3-2.5,3.2
		c-1.1,0.8-2.2,1.6-2.8,2.9c-1,2.2-0.4,5.1,1.4,6.9c1.3,1.3,3,1.7,4.7,1.1c5.8-1.9,5.7-8.7,5.7-9.4c-0.1-1.8-1.4-5.4-4.2-8.1
		c-1.6-1.5-4.3-3.3-7.9-3C379.4,460.7,378,486.7,376.8,509.6z M437.3,692.6c116.1-10.8,119.2-76.4,117.4-96.2
		c-1-11.5-5.8-25.1-10.3-38.3c-5.2-15.2-10.2-29.5-7.4-35.4c0.6-1.2,1-2.1,1.4-2.9c1.4-2.7,2.2-4.2,1.3-7.2c-0.3-1.1-1-1.9-1.9-2.3
		c-2-0.7-4.3,0.7-7.2,2.5c-0.7,0.4-1.5,0.9-2.3,1.4c-1.9,1.1-5.6,0.6-9.6-1.3c-3.1-1.5-6.3-3.8-9.3-6.7
		c-5.4-5.2-14.9-17.1-17.9-37.9c-3.6-25.1,3.1-36.7,9.4-42c6.4-5.4,14.2-5.7,17.5-4.7c1.1,0.3,1.9,0.7,2.7,1
		c1.9,0.8,3.8,1.6,5.5-0.6c1.9-2.4-0.4-5.1-3.8-8.9c-0.6-0.6-1.2-1.3-1.8-2.1c-4.2-5-2.7-13.8-0.8-24.9c2.9-16.8,6.9-39.8-6.8-65
		c-2-3.7-6.4-10.9-13.9-18.1c-10.1-9.8-27.8-21.3-54.8-20.9l-0.3,0l0,3.1h0.3c25.9-0.4,43,10.7,52.7,20.1
		c7.2,6.9,11.4,13.8,13.3,17.3c13.1,24.3,9.3,46.7,6.5,63c-2.1,11.9-3.7,21.3,1.5,27.4c0.6,0.8,1.3,1.5,1.9,2.2
		c1.2,1.4,3.8,4.4,3.6,4.9c-0.3,0.4-0.3,0.4-2-0.3c-0.8-0.3-1.7-0.7-2.9-1.1c-4.2-1.3-13-1-20.5,5.3c-6.8,5.8-14.2,18.3-10.4,44.8
		c3.1,21.7,13.1,34.2,18.8,39.7c3.2,3.1,6.7,5.6,10,7.2c5.1,2.5,9.6,2.9,12.5,1.2c0.8-0.5,1.6-0.9,2.3-1.4c1.2-0.7,4-2.5,4.4-2.3
		c0,0,0.1,0.1,0.1,0.3c0.5,1.8,0.2,2.4-1.1,5c-0.4,0.8-0.9,1.8-1.5,3c-3.3,7,1.6,21.3,7.3,37.7c4.5,13,9.2,26.5,10.2,37.6
		c1.7,19.1-1.4,82.3-114.6,92.9c-41.1,2.3-72.7-6.7-94-26.6c-0.3-0.3-0.6-0.5-0.8-0.8c-24.6-23.7-26-54.3-26.1-60.2
		c-0.1-14.4,5-29.6,9.5-42.9c4.7-13.8,8.3-24.7,5-31c-0.3-0.5-0.6-1-0.8-1.5l-0.1-0.1c-2.6-4.8-3.2-6.4-1.6-7.5
		c0.2-0.2,1.5,0.4,2.4,0.8c1.4,0.6,3.3,1.5,5.8,2.1c5.3,1.3,10.9,0,16-3.6c10.8-7.8,18.3-25.1,20.5-47.7
		c2.3-24.3-4.4-36.5-10.6-42.5l-0.1-0.1c-5.3-5.1-12.1-7.5-19.1-6.7c-2.1,0.2-3.8,0.6-5.1,0.9c0.7-1.1,1.8-2.6,3-4.2l0.8-1.1
		c5.1-7.2,3.1-18.4,0.7-32.7c-2.7-15.7-6.1-35.3-0.3-54.9c6.1-20.7,30-42.3,63.9-43.5l0.3,0l-0.1-3.1l-0.3,0
		c-35.4,1.2-60.3,23.9-66.7,45.7c-5.9,20.3-2.5,40.3,0.2,56.3c2.3,13.6,4.2,24.3-0.1,30.4l-0.8,1.1c-4.3,6.1-5.1,7.2-4.1,8.6
		c0.8,1.2,2.2,0.9,4.3,0.5c1.3-0.3,2.8-0.6,4.8-0.8c6.1-0.7,12,1.4,16.7,5.8l0.2-0.2l-0.1,0.4c7.9,7.8,11.3,22,9.6,40
		c-2.1,21.7-9.1,38.2-19.2,45.5c-4.4,3.1-9,4.2-13.5,3.2c-2.2-0.5-3.9-1.3-5.3-1.9c-2-0.9-3.8-1.7-5.4-0.5c-4,2.9-1.7,7.3,0.7,11.5
		l0.1,0.1c0.3,0.5,0.5,1,0.8,1.5c2.7,5.1-0.9,16-5.2,28.6c-4.6,13.6-9.8,28.9-9.7,43.9c0,6.1,1.6,37.8,27,62.4
		c0.3,0.3,0.6,0.5,0.9,0.8C362.9,685.7,395.3,695,437.3,692.6z M414.2,17.9l-4.9-0.3l-3.9,19.3l6,0.2l-1,6.9l27.4,0.5l-1.2-6.4
		l4.8,0.2l-4.2-18.7l-4.3-0.3l-3.5-18.4l-2.8-0.3c-0.2,0.9-0.9,3.6-3.2,3.5c-0.7,0-1.2-0.3-1.8-0.8c-1-1-1.4-2.5-1.6-3.2l-3.2,0.3
		L414.2,17.9z M404.3,33.4l2.7-12.6l-4.1,0.3l-2,10.8L404.3,33.4z M443,22.1l-3.7,0l2.7,12.6l3.6-2L443,22.1z M390.3,74.5l0.1-0.2
		l3.8-0.2l0.1-6.7l-3.4-0.3l0-0.3c0,0-0.3-4.7-2.8-7.2c-0.8-0.8-1.8-1.3-2.9-1.4c-3.5-0.5-6,1.7-12.6,8.1l2.4,2.3l-2.9,0.9l-0.4,2.1
		l2.4,1.4l-1.8,1.9c4.2,5,8.2,7.9,11.1,8.1C388.2,83.3,390.3,74.6,390.3,74.5z M454.7,63.1l0,0.2l-3.8,0.6l0.6,6.7l3.4-0.1l0,0.3
		c0,0,0.7,4.1,3,6.4c1,1,2.2,1.5,3.5,1.5c3.5,0.1,5.8-2.3,11.7-9.3l-2.6-2.1l2.8-1.2l0.2-2.2l-2.5-1.1l1.6-2.1
		c-4.7-4.5-9-7-11.9-6.9C455.9,54.1,454.7,63,454.7,63.1z M458.6,92.8l-0.1,0.2l-3.8,0.2l0,6.7l3.4,0.3l0,0.3c0,0,0.3,4.7,2.8,7.1
		c0.8,0.8,1.8,1.3,2.9,1.4c3.5,0.5,6-1.7,12.5-8.2l-2.4-2.3l2.9-0.9l0.4-2.1l-2.4-1.4l1.8-1.9c-4.2-4.9-8.3-7.8-11.2-8
		C460.6,83.9,458.6,92.7,458.6,92.8z M388,104.6l0.1-0.2l3.8-0.1l0.2-6.7l-3.4-0.3l0-0.3c0-0.1-0.2-4.8-2.7-7.3
		c-0.8-0.8-1.7-1.2-2.8-1.4c-3.5-0.6-6,1.6-12.7,7.9l2.4,2.4l-2.9,0.9l-0.4,2.1l2.3,1.4l-1.9,1.9c4.2,5.1,8.1,8,11,8.2
		C385.8,113.4,388,104.7,388,104.6z M407.9,75.5l0.7-7.3l-11.8-0.6l-0.2,6.5L407.9,75.5z M394.7,97.9l0,6.6l9.8,0.8l0.2-7.3
		L394.7,97.9z M448.9,64.1l-10.4,0l0.8,6.8l10-0.5L448.9,64.1z M452.7,93.3l-9.9-0.5l0.6,7.8l9.6-0.7L452.7,93.3z M459.1,556.7
		c0.2-0.1,0.4-0.1,0.6-0.2c0.6,4.8,0.3,9.6-0.8,15.9c-0.9-0.7-1.9-1.1-3-1.1c-1.2,0-2.4,0.5-3.2,1.4c-0.9,0.9-1.3,2-1.3,3.3
		c0,2.5,2.2,4.6,4.7,4.5c0.4,0,0.8-0.1,1.2-0.2l-0.4,1.8c-2.7,11.9-6.1,26.6-5,49.2c0.1,1.1,0.1,2.1,0.1,3.1l0,1c0,0.7,0,1.4,0,2.1
		l0,1.1c0,0.7,0,1.3,0,2l0,1c0,0.8,0,1.6-0.1,2.4l0,0.5c0,1-0.1,1.9-0.1,2.8l0,0.6c0,0.7-0.1,1.4-0.2,2.1l-0.1,0.8
		c-0.1,0.7-0.1,1.3-0.2,1.9l-0.1,0.7c-0.1,0.7-0.2,1.5-0.3,2.2l0,0.3c-0.2,1.6-0.5,3.3-0.8,4.9l-0.1,0.3c-0.1,0.7-0.3,1.3-0.4,2
		l-0.1,0.3c-0.2,0.7-0.3,1.4-0.5,2.1c-0.5,2.1-1.1,4.1-1.8,6c-2.2,6.3-5,10.2-7.3,10.6c-2.2,0-5-1.5-7.5-3.9
		c-4.6-4.4-12.1-15.8-11.6-42.7c0.5-24.5-4.5-37.9-8.9-49.8c-0.5-1.4-1-2.7-1.5-4c0.1,0,0.3,0,0.4,0c1.2,0,2.4-0.5,3.2-1.4
		c0.9-0.9,1.3-2,1.3-3.3c0-2.5-2.2-4.6-4.7-4.5c-1.1,0-2.1,0.4-2.9,1.1c-1.5-5.8-2-11-1.5-16.8C416,559.1,448.9,559.5,459.1,556.7z
		 M429.5,580.5c0.9-0.9,1.3-2.1,1.3-3.3c0-2.5-2.2-4.6-4.7-4.5c-1.2,0-2.4,0.5-3.2,1.4c-0.9,0.9-1.3,2-1.3,3.3
		c0,1.2,0.5,2.4,1.4,3.3c0.9,0.9,2,1.3,3.3,1.3C427.5,581.8,428.7,581.3,429.5,580.5z M440.2,572.1c-1.2,0-2.4,0.5-3.2,1.4
		c-0.9,0.9-1.3,2-1.3,3.3c0,1.2,0.5,2.4,1.4,3.3c0.9,0.8,2,1.3,3.3,1.3c1.2,0,2.4-0.5,3.2-1.4c0.9-0.9,1.3-2.1,1.3-3.3
		C444.9,574.2,442.7,572.1,440.2,572.1z M412.9,577c0-0.5-0.2-1-0.6-1.4c-0.4-0.4-0.9-0.6-1.4-0.6c-1.1,0-2,0.9-1.9,2
		c0,1,0.9,2,2,1.9C412.1,579,412.9,578.1,412.9,577z M428.2,577.2c0-0.5-0.2-1-0.6-1.4c-0.4-0.4-0.9-0.6-1.4-0.6c-1.1,0-2,0.9-1.9,2
		c0,1.1,0.9,2,2,1.9C427.4,579.2,428.2,578.3,428.2,577.2z M438.3,576.7c0,1,1,2,2,1.9c1.1,0,2-0.9,1.9-2c0-0.5-0.2-1-0.6-1.4
		c-0.4-0.4-0.9-0.6-1.4-0.6C439.2,574.8,438.3,575.7,438.3,576.7z M457.9,575.9c0-0.5-0.2-1-0.6-1.4c-0.4-0.4-0.9-0.6-1.4-0.6
		c-1.1,0-2,0.9-1.9,2c0,1.1,0.9,2,2,1.9C457.1,577.9,457.9,577,457.9,575.9z"/>
</g>
</svg>
