<?xml version="1.0" encoding="utf-8"?>
<!-- Generator: Adobe Illustrator 23.0.2, SVG Export Plug-In . SVG Version: 6.00 Build 0)  -->
<!DOCTYPE svg PUBLIC "-//W3C//DTD SVG 1.1//EN" "http://www.w3.org/Graphics/SVG/1.1/DTD/svg11.dtd" [
	<!ENTITY ns_extend "http://ns.adobe.com/Extensibility/1.0/">
	<!ENTITY ns_ai "http://ns.adobe.com/AdobeIllustrator/10.0/">
	<!ENTITY ns_graphs "http://ns.adobe.com/Graphs/1.0/">
	<!ENTITY ns_vars "http://ns.adobe.com/Variables/1.0/">
	<!ENTITY ns_imrep "http://ns.adobe.com/ImageReplacement/1.0/">
	<!ENTITY ns_sfw "http://ns.adobe.com/SaveForWeb/1.0/">
	<!ENTITY ns_custom "http://ns.adobe.com/GenericCustomNamespace/1.0/">
	<!ENTITY ns_adobe_xpath "http://ns.adobe.com/XPath/1.0/">
]>
<svg version="1.1" id="Layer_1" xmlns:x="&ns_extend;" xmlns:i="&ns_ai;" xmlns:graph="&ns_graphs;"
	 xmlns="http://www.w3.org/2000/svg" xmlns:xlink="http://www.w3.org/1999/xlink" x="0px" y="0px" viewBox="0 0 720 720"
	 style="enable-background:new 0 0 720 720;" xml:space="preserve">
<style type="text/css">
	.Drop_x0020_Shadow{fill:none;}
	.Round_x0020_Corners_x0020_2_x0020_pt{fill:#FFFFFF;stroke:#231F20;stroke-miterlimit:10;}
	.Live_x0020_Reflect_x0020_X{fill:none;}
	.Bevel_x0020_Soft{fill:url(#SVGID_1_);}
	.Dusk{fill:#FFFFFF;}
	.Foliage_GS{fill:#FFDD00;}
	.Pompadour_GS{fill-rule:evenodd;clip-rule:evenodd;fill:#44ADE2;}
	.st0{fill-rule:evenodd;clip-rule:evenodd;}
</style>
<metadata>
	<sfw  xmlns="&ns_sfw;">
		<slices></slices>
		<sliceSourceBounds  bottomLeftOrigin="true" height="720" width="216.7" x="251.6" y="-720"></sliceSourceBounds>
	</sfw>
</metadata>
<linearGradient id="SVGID_1_" gradientUnits="userSpaceOnUse" x1="0" y1="0" x2="0.7071" y2="0.7071">
	<stop  offset="0" style="stop-color:#DEDFE3"/>
	<stop  offset="0.1783" style="stop-color:#DADBDF"/>
	<stop  offset="0.3611" style="stop-color:#CECFD3"/>
	<stop  offset="0.546" style="stop-color:#B9BCBF"/>
	<stop  offset="0.7324" style="stop-color:#9CA0A2"/>
	<stop  offset="0.9181" style="stop-color:#787D7E"/>
	<stop  offset="1" style="stop-color:#656B6C"/>
</linearGradient>
<path class="st0" d="M465.8,249.2c-8.1,21.2-32.5,25.8-54,32.2c-20.3,126.5-21.1,257.6-26,387.9c-2.6,31-27,55.1-55.2,50
	c-21.3-3.9-44.5-16-44.4-46.7c2-92.1,3.9-184.2,5.9-276.4c-6.2-3.9-12.4-7.9-18.6-11.8c0.5,10.3-0.7,19.7-1.9,30
	c9.9,3.9,12.3,9.6,10.8,24c-1.4,4.3-9.7,3.6-14.6,4.1c-6.1-0.2-14.9-0.7-15.4-5.7c-0.7-10.7,2.8-18.1,10.5-23
	c-5.1-123.9-5.7-262.9-11.2-394.1c-0.7-25,42.2-27.3,43.5-1.6c3.2,139.5,6.5,279,9.7,418.4c31.3-13,58.3,4,64.6,36.2
	c0.2-64.5-2.4-128-7.8-193.6c-23-4-63.5-27.4-55.9-47.5C330,174,490.4,190.1,465.8,249.2L465.8,249.2z M291.6,352.9
	c-2.9-111.1-5.7-222.2-8.6-333.3c-0.5-10.2-19.3-10.6-18.9,0.2c2.8,106.3,5.6,212.5,8.4,318.8C278.8,343.4,285.2,348.1,291.6,352.9
	L291.6,352.9z M337.9,635.6c12.5-4.5,18.8-13.6,19.5-28.6c0.4-45.1,0.8-90.3,1.2-135.4c-0.5-32.2-53.6-43.7-54.3-9.3
	c-0.1,11.1-0.2,22.3-0.4,33.4c11-10.8,35.1,1.3,35.6,18.3C339,554.5,338.5,595,337.9,635.6L337.9,635.6z M367.7,617.4
	c-0.4,16.1-0.7,32.2-1,48.3c-1.8,27.4-16.3,38.2-33.7,38.8c-19.5-0.9-36.5-17-32.1-45.8c13.3,13.5,34.1,6.4,36.5-9.1
	C353.3,648.5,364.1,635.1,367.7,617.4L367.7,617.4z M324.5,649.1c-6.9-1.6-13.5-3.6-19.6-8c-0.3,6.8,3.3,15.3,11.1,15.6
	C320.6,656.4,323.6,654.2,324.5,649.1L324.5,649.1z M325.7,636.8c0-39-0.1-78.1-0.1-117.1c-0.1-17-17.5-19.9-17.8-2
	c0.4,34.5,0.8,69,1.2,103.5C309.5,635.1,318.7,634.6,325.7,636.8L325.7,636.8z"/>
</svg>
