<?xml version="1.0" encoding="utf-8"?>
<!-- Generator: Adobe Illustrator 23.0.2, SVG Export Plug-In . SVG Version: 6.00 Build 0)  -->
<!DOCTYPE svg PUBLIC "-//W3C//DTD SVG 1.1//EN" "http://www.w3.org/Graphics/SVG/1.1/DTD/svg11.dtd" [
	<!ENTITY ns_extend "http://ns.adobe.com/Extensibility/1.0/">
	<!ENTITY ns_ai "http://ns.adobe.com/AdobeIllustrator/10.0/">
	<!ENTITY ns_graphs "http://ns.adobe.com/Graphs/1.0/">
	<!ENTITY ns_vars "http://ns.adobe.com/Variables/1.0/">
	<!ENTITY ns_imrep "http://ns.adobe.com/ImageReplacement/1.0/">
	<!ENTITY ns_sfw "http://ns.adobe.com/SaveForWeb/1.0/">
	<!ENTITY ns_custom "http://ns.adobe.com/GenericCustomNamespace/1.0/">
	<!ENTITY ns_adobe_xpath "http://ns.adobe.com/XPath/1.0/">
]>
<svg version="1.1" id="Layer_1" xmlns:x="&ns_extend;" xmlns:i="&ns_ai;" xmlns:graph="&ns_graphs;"
	 xmlns="http://www.w3.org/2000/svg" xmlns:xlink="http://www.w3.org/1999/xlink" x="0px" y="0px" viewBox="0 0 720 720"
	 style="enable-background:new 0 0 720 720;" xml:space="preserve">
<style type="text/css">
	.Drop_x0020_Shadow{fill:none;}
	.Round_x0020_Corners_x0020_2_x0020_pt{fill:#FFFFFF;stroke:#231F20;stroke-miterlimit:10;}
	.Live_x0020_Reflect_x0020_X{fill:none;}
	.Bevel_x0020_Soft{fill:url(#SVGID_1_);}
	.Dusk{fill:#FFFFFF;}
	.Foliage_GS{fill:#FFDD00;}
	.Pompadour_GS{fill-rule:evenodd;clip-rule:evenodd;fill:#44ADE2;}
</style>
<metadata>
	<sfw  xmlns="&ns_sfw;">
		<slices></slices>
		<sliceSourceBounds  bottomLeftOrigin="true" height="720" width="221.5" x="249.2" y="-720"></sliceSourceBounds>
	</sfw>
</metadata>
<linearGradient id="SVGID_1_" gradientUnits="userSpaceOnUse" x1="0" y1="0" x2="0.7071" y2="0.7071">
	<stop  offset="0" style="stop-color:#DEDFE3"/>
	<stop  offset="0.1783" style="stop-color:#DADBDF"/>
	<stop  offset="0.3611" style="stop-color:#CECFD3"/>
	<stop  offset="0.546" style="stop-color:#B9BCBF"/>
	<stop  offset="0.7324" style="stop-color:#9CA0A2"/>
	<stop  offset="0.9181" style="stop-color:#787D7E"/>
	<stop  offset="1" style="stop-color:#656B6C"/>
</linearGradient>
<path id="_x32_6" d="M396.7,225.7c-1.3,3.4-4,9.5-6.7,10.1c-3.8,0.8-17.6-4.9-19.9-8.6c-2.3-3.7-5,3.4,0.1,7.7
	c5.1,4.2,13.3,0.5,17.8,6.1c4.4,5.6,7.5,17.8-3.6,19.3c-13.4,1.8-25.9,0.3-26,4.6c0,0.6,0.3,1.1,0.9,1.5l-14.4-0.3l2.4-118.5
	c0,0,0.7-38.6,41-37.8c40.2,0.8,32.8,54,32.8,54l-0.2,11.6c-1.5-0.3-3.2-0.5-5.1-0.5c-16.7-0.3-18.2,17.5-18.2,17.5l0,1.4
	c-0.1,1.4-0.1,2.5-0.1,3.4L396.7,225.7L396.7,225.7z M324.3,356.6l-0.1,6.8c-0.1,5.1-0.3,10.1-0.5,15.1c-0.7-0.6-1.6-1.2-2.7-2
	c-19-11.4-27.7,8.2-28.7,14c-1,4.5,5.2,7,6,2.6c0.3-12.3,7.9-15.5,15.3-14c6,1.2,8.9,5.6,9.8,7.2c-2.8,75-6.8,147.4-15.4,223.9
	c-1.3,20.6-6.8,55.4-31.5,72.6c-36.6,15.8-34.6,23.2-4.7,32.9c20.6,6.7,64.7,5,95.2,0.1c14.3-1.9,25.9-4.5,30.9-7.4
	c14.3-8.3,11.9-14.6-8.3-24.5c-19.2-9.8-24.9-20.5-30.3-41c-7.4-28.7-10-59.6-11.5-89c5,1.2,11.2,2,18.8,2.3
	c22,1.4,40.5-1.9,48.5-14c0.9,2.3,3.1,4,5.7,4.1c3.5,0.1,6.3-2.7,6.4-6.1c0.1-3.5-2.7-6.3-6.1-6.4c-0.9,0-1.8,0.2-2.6,0.5
	c1.3-5.2,1.2-10.9,1.4-16.2c2.2-1.1,4.3-2.6,6-4.4c-0.1,0.4-0.2,0.9-0.2,1.3c-0.1,3.5,2.7,6.3,6.1,6.4c3.5,0.1,6.3-2.7,6.4-6.1
	c0.1-3.5-2.7-6.3-6.1-6.4c-1.3,0-2.4,0.3-3.4,0.9c0.7-1.5,1.2-3,1.2-4.6c0.2-8.1,3.3-140.6,3.5-146.3l26.5,0.6l0,1.6l0.6,0l0,0.8
	l8.3,0.2l0.6-29.1l-0.5,0l0-0.2l-8.4-0.2l0,0.3l-0.3,1.5l-6.5-0.1c0.2-1.7,0.5-6.3-2.1-6.6c-0.7-0.1-1.1-0.4-1.3-0.8l10.2,0.2l0,1.9
	l0.6,0v0.3l8.3,0.2l0.6-29.1l-8.9-0.2l-0.3,2l-26.6-0.5l0.2-11.5l7.4,0.1l-0.2,11.3l9.7,0.2l0.1-11.3l9.9,0.2l-0.1,2.8l8.4,0.2
	l0.1-5l0.5,0l0.4-21.4l-8.9-0.2l-0.3,1.5l-26.6-0.5l1.5-74.3c0-1.7-0.2-3.9-1-6.1l0.6-31.2c0.7-36.1-12.5-61.1-56.6-61.2
	c-16.8,0-27,5.8-33.4,13l0.6-26.8l-4.8-0.2l1.2-40.9l-3,0.3c0,0,0.1-5.3,0.2-9c2,0,11,0.9,10.3-13.8c2.3-0.3,11.4-17.5-13-17.7
	c-24.4-0.2-14.1,16.1-12.1,17.2c-0.3,15.4,7.4,14.2,7.4,14.2l-0.2,8.4l-2.3-0.1l-0.8,41l-2.5-0.1l-1.3,62.7l4.2,0.1
	c0,0-1.8,24.2-3.7,122.3l-0.7,0l0-0.1c0.6-3.6-13.5-5.3-14.8,3.3c-0.3,1.6-0.3,3-0.2,3.6l-18.9-0.4c0-1.8-0.2-5.4-3.3-5.4
	c-3.1-0.1-2.6,4.5-2.6,8.6c-0.1,4.1-1.4,8.3,2.3,8.4c4,0.1,3.5-6.3,3.5-6.3l18.9,0.4c-0.2,3.2-0.7,16.5,8.1,16.1
	c4.1-0.2,6.2-3,7.2-6.2l0.1,0l-0.2,11.5l-0.2,0c-0.3-0.6-0.6-1.2-1.1-1.7c-0.3-0.4-0.7-0.7-1.3-1.1c-1.1-0.7-2.6-1.2-4.6-1.3
	c-9.8-0.6-8.7,9.8-8.6,10.2c-0.1,1.9,0,3.3,0,3.3s-10.4-0.2-19-0.4c0.1-2.4-0.1-7.3-3.2-7.3c-3.1-0.1-2.6,6.2-2.7,11.7
	c-0.1,5.5-1.5,11.4,2.2,11.5c4,0.1,3.6-8.6,3.6-8.6l19,0.4c0,0-0.9,3.4,0.1,6.5c0.5,2.1,1.7,4.2,4.2,5.2c-5.7,2.1-4.9,10-4.9,10.4
	c-0.1,1.9,0,3.3,0,3.3s-10.4-0.2-19-0.4c0.1-2.4-0.2-7.3-3.2-7.3c-3.1-0.1-2.6,6.2-2.7,11.7c-0.1,5.5-1.5,11.3,2.2,11.5
	c4,0.1,3.6-8.6,3.6-8.6l19,0.4c-2.9,11.2,12.7,15.7,15,8.2L324.3,356.6L324.3,356.6z M406.9,519.2c-1,4.2-6.5,19.7-36.2,19.6
	c-10.6,0-17.9-1.5-23-3.7c-0.1-7.4-1.6-91.3-3.1-178.1l50.8,1.1l-3,144.4C392.2,513,401.2,517.5,406.9,519.2L406.9,519.2z
	 M436.3,498l9.9,0.2c0,0,0.8-2.9-0.5-2.9c-1.3,0-0.5-5.3-2.9-5.5l0.3,0l0.2-9.6c2.3-0.6,4-2.8,4-5.5c0.1-2.6-1.6-4.9-3.8-5.6
	l0.4-17.5c1.7-0.5,3.2-1.9,3.2-4.1c0-2.1-1.4-3.1-3.1-3.3l0.1-6.6c1.7-0.5,3.2-1.9,3.2-4.1c0.1-4.1-5.6-4-7.4-2.1
	c-2.5-0.1-3.4-0.5-3.7-1.6c-0.5-2.2-4.4-2-4.4-2l-0.3,12.3c2.9,0.3,4.1-0.7,4.5-2.1c0.4-1.2,2.1-1.8,3.7-0.9l-0.2,8.4
	c-2.5-0.1-3.4-0.5-3.7-1.6c-0.5-2.2-4.4-2-4.4-2l-0.3,12.3c2.9,0.3,4.1-0.7,4.5-2.1c0.4-1.3,2.1-1.8,3.7-1l-0.4,18.7
	c-1.5,1-2.6,2.8-2.6,4.8c0,2.1,0.9,3.9,2.4,4.9l-0.2,10.2l0.3,0c-0.5,0.6-2.1,2.6-1.5,4.3C434.8,493.7,434,497.5,436.3,498
	L436.3,498z M377.1,266.7c0.2-2.3,2.9-2.3,6-2.2c2.5,0.1,10.1-0.8,12.9-6.2l-0.2,8.8L377.1,266.7L377.1,266.7z M310.3,277.7
	L310.3,277.7C310.1,277.8,310,277.8,310.3,277.7L310.3,277.7z M435.1,326.5l7.6,0.2c-0.2,0.6-0.2,0.9-0.2,0.9s-3-1.6-3.3,6.3
	l-4.1-0.1V326.5L435.1,326.5z"/>
</svg>
