<?xml version="1.0" encoding="utf-8"?>
<!-- Generator: Adobe Illustrator 23.0.2, SVG Export Plug-In . SVG Version: 6.00 Build 0)  -->
<!DOCTYPE svg PUBLIC "-//W3C//DTD SVG 1.1//EN" "http://www.w3.org/Graphics/SVG/1.1/DTD/svg11.dtd" [
	<!ENTITY ns_extend "http://ns.adobe.com/Extensibility/1.0/">
	<!ENTITY ns_ai "http://ns.adobe.com/AdobeIllustrator/10.0/">
	<!ENTITY ns_graphs "http://ns.adobe.com/Graphs/1.0/">
	<!ENTITY ns_vars "http://ns.adobe.com/Variables/1.0/">
	<!ENTITY ns_imrep "http://ns.adobe.com/ImageReplacement/1.0/">
	<!ENTITY ns_sfw "http://ns.adobe.com/SaveForWeb/1.0/">
	<!ENTITY ns_custom "http://ns.adobe.com/GenericCustomNamespace/1.0/">
	<!ENTITY ns_adobe_xpath "http://ns.adobe.com/XPath/1.0/">
]>
<svg version="1.1" id="Layer_1" xmlns:x="&ns_extend;" xmlns:i="&ns_ai;" xmlns:graph="&ns_graphs;"
	 xmlns="http://www.w3.org/2000/svg" xmlns:xlink="http://www.w3.org/1999/xlink" x="0px" y="0px" viewBox="0 0 720 720"
	 style="enable-background:new 0 0 720 720;" xml:space="preserve">
<style type="text/css">
	.Drop_x0020_Shadow{fill:none;}
	.Round_x0020_Corners_x0020_2_x0020_pt{fill:#FFFFFF;stroke:#231F20;stroke-miterlimit:10;}
	.Live_x0020_Reflect_x0020_X{fill:none;}
	.Bevel_x0020_Soft{fill:url(#SVGID_1_);}
	.Dusk{fill:#FFFFFF;}
	.Foliage_GS{fill:#FFDD00;}
	.Pompadour_GS{fill-rule:evenodd;clip-rule:evenodd;fill:#44ADE2;}
</style>
<metadata>
	<sfw  xmlns="&ns_sfw;">
		<slices></slices>
		<sliceSourceBounds  bottomLeftOrigin="true" height="190.9" width="720" x="0" y="-455.5"></sliceSourceBounds>
	</sfw>
</metadata>
<linearGradient id="SVGID_1_" gradientUnits="userSpaceOnUse" x1="0" y1="0" x2="0.7071" y2="0.7071">
	<stop  offset="0" style="stop-color:#DEDFE3"/>
	<stop  offset="0.1783" style="stop-color:#DADBDF"/>
	<stop  offset="0.3611" style="stop-color:#CECFD3"/>
	<stop  offset="0.546" style="stop-color:#B9BCBF"/>
	<stop  offset="0.7324" style="stop-color:#9CA0A2"/>
	<stop  offset="0.9181" style="stop-color:#787D7E"/>
	<stop  offset="1" style="stop-color:#656B6C"/>
</linearGradient>
<path id="_x32_7" d="M692.1,378.9l-9.6,0c0-0.1,0-0.1,0-0.2c0-0.2-0.2-0.3-0.4-0.3h-7.6c-0.2,0-0.4,0.2-0.4,0.4L421.3,378
	c1.7-53-1.2-100.6-2-111.3c-0.1-1.3-1.1-2.2-2.4-2.2c-1.3,0-2.3,1-2.4,2.3l-0.3,6.6c-0.1,3-0.8,6-2,8.8
	c-4.4,9.8-17.8,30.6-55.1,37.9c-38.6,7.6-134.3,14.5-219.2,17c0,0,0-0.1,0-0.1c0.1-0.4-0.3-0.8-0.7-0.8c-3,0.1-13.5,0.5-16,0.5
	c-0.3,0-0.6,0.3-0.7,0.6c0,0.1,0,0.1,0,0.2c-12.6,0.3-24.9,0.5-36.5,0.5c0-0.1,0-0.1,0-0.2c0.1-0.4-0.3-0.8-0.7-0.8H67.4
	c-0.4,0-0.7,0.3-0.7,0.6c0,0.1,0,0.2,0,0.4H54c-29.8,0-54,24.2-54,54v0c0,32.7,26.5,59.3,59.3,59.3h19.6c0.4,0.6,1.1,0.9,1.9,0.9
	h46.8c0.6,0,1.2-0.4,1.4-0.9h53.7c0.4,2.4,2.4,4.2,4.9,4.2h4.1c1.2,0,2.1-0.9,2.1-2.1v-2.1H215c0.3,1.2,1.5,2.2,2.8,2.2h31.2
	c0.3,1.2,1.4,2,2.7,2h2c1.5,0,2.8-1.2,2.8-2.8v-1.4H667c0,0,0,0.1,0,0.1c0,0.2,0.1,0.4,0.4,0.4h7.6c0.2,0,0.4-0.1,0.4-0.3
	c0-0.1,0-0.1,0-0.2h5.6c21.6,0,39.1-17.5,39.1-39.1v-5.4C720,391.5,707.5,379,692.1,378.9z M384.4,377.9l-131-0.4v-1.9
	c0-1.7-1.3-3-3-3h-2.5c-1,0-1.9,0.6-2.3,1.5h-33.8c-1,0-1.9,0.7-2.1,1.7h-20.3c-1,0-1.8,0.8-1.8,1.8v0.5h-17.4l-7.4-22.6
	c78,1.9,159.6,6.5,194.4,13.3C368.1,370.9,377.1,374.1,384.4,377.9z M79,439.2H60.8c-25.6,0-46.3-20.7-46.3-46.3v0
	c0-21.3,17.3-38.6,38.6-38.6h13.5c0,0.2,0,0.3,0.1,0.5c0.1,0.4,0.4,0.6,0.7,0.6h4l12.2,83h-2.8C80.1,438.4,79.4,438.8,79,439.2z
	 M128.9,439.3c-0.3-0.5-0.8-0.8-1.4-0.8H91.4l-12.2-83h4c0.4,0,0.8-0.4,0.7-0.8c0-0.1,0-0.2,0-0.3c11.7,0,23.9,0.1,36.6,0.3
	c0,0,0,0,0,0c0,0.3,0.3,0.6,0.7,0.6l16,0.5c0.4,0,0.8-0.4,0.7-0.8c0,0,0-0.1,0-0.1c5.6,0.1,11.3,0.2,17,0.3l5.6,17.2
	c-3.9-1.8-8.3-2.1-10.7-2.1c-1.9,0-3.6-1.1-4.4-2.7c0,0,0,0,0-0.1c-0.4-1-1.4-1.6-2.5-1.6h-2.1c-2.6,0-4.6,2.1-4.6,4.6
	c0,6.5-0.1,18.4-0.1,25c0,2.6,2.1,4.6,4.6,4.6h2.1c1.1,0,2-0.6,2.5-1.6c0,0,0,0,0-0.1c0.8-1.7,2.5-2.7,4.4-2.7
	c3.6,0,12.1-0.7,16.2-6.5l5.3,16.2c3.2,9.7,2.1,20.4-2.9,29.3l-2.6,4.6L128.9,439.3z M215,439.4l-21.3,0v-2c0-1.2-0.9-2.1-2.1-2.1
	h-4.1c-2.5,0-4.5,1.8-4.9,4.1l-7.6,0l2.6-5.3c4.1-8.5,4.7-18.3,1.8-27.3l-6-18.5h14.1v0.3c0,1,0.8,1.8,1.8,1.8h8.4v14
	c0,13.5,7,26.2,18.6,33.1c0.1,0,0.1,0.1,0.2,0.1C215.8,437.9,215.3,438.5,215,439.4z M253.7,435.2h-2c-1.3,0-2.3,0.8-2.7,2H237
	c-4.4-1.6-8.7-3.2-12.6-4.7c-10.9-4.2-18.1-14.6-18.1-26.3v-15.9h3.4c0.2,1,1.1,1.7,2.1,1.7h33.8c0.4,0.9,1.3,1.5,2.3,1.5h2.5
	c1.7,0,3-1.3,3-3v-0.7l5.5,0v10.9c0,0.5,0.3,1,0.8,1.1v26.7c-0.5,0.2-0.8,0.6-0.8,1.1v9.9l-2.4,0V438
	C256.5,436.4,255.3,435.2,253.7,435.2z M707.5,411.9c0,15.4-12.5,27.9-27.9,27.9l-5,0c0-0.1-0.1-0.2-0.1-0.3c0-0.2-0.2-0.3-0.4-0.3
	h-7.6c-0.3,0-0.4,0.2-0.4,0.5c0,0,0,0.1,0,0.1l-398.1-0.4v-9.9c0-0.5-0.3-1-0.8-1.1v-26.7c0.5-0.2,0.8-0.6,0.8-1.1v-10.9l133.3,0.4
	c5,4.9,8.2,9.6,10.2,13.3c2,3.6,3.1,7.6,3.3,11.7l0.4,6.7c0.1,0.9,0.8,1.6,1.7,1.6c0.9,0,1.6-0.7,1.7-1.5
	c0.9-10.6,1.6-21.2,2.1-31.8l254,0.7c0,0,0,0,0,0c0,0.2,0.1,0.4,0.4,0.4h7.6c0.2,0,0.4-0.1,0.4-0.3c0,0,0-0.1,0-0.1l8.9,0
	c8.5,0,15.4,6.9,15.4,15.4V411.9z"/>
</svg>
