<?xml version="1.0" encoding="utf-8"?>
<!-- Generator: Adobe Illustrator 23.0.2, SVG Export Plug-In . SVG Version: 6.00 Build 0)  -->
<!DOCTYPE svg PUBLIC "-//W3C//DTD SVG 1.1//EN" "http://www.w3.org/Graphics/SVG/1.1/DTD/svg11.dtd" [
	<!ENTITY ns_extend "http://ns.adobe.com/Extensibility/1.0/">
	<!ENTITY ns_ai "http://ns.adobe.com/AdobeIllustrator/10.0/">
	<!ENTITY ns_graphs "http://ns.adobe.com/Graphs/1.0/">
	<!ENTITY ns_vars "http://ns.adobe.com/Variables/1.0/">
	<!ENTITY ns_imrep "http://ns.adobe.com/ImageReplacement/1.0/">
	<!ENTITY ns_sfw "http://ns.adobe.com/SaveForWeb/1.0/">
	<!ENTITY ns_custom "http://ns.adobe.com/GenericCustomNamespace/1.0/">
	<!ENTITY ns_adobe_xpath "http://ns.adobe.com/XPath/1.0/">
]>
<svg version="1.1" id="Layer_1" xmlns:x="&ns_extend;" xmlns:i="&ns_ai;" xmlns:graph="&ns_graphs;"
	 xmlns="http://www.w3.org/2000/svg" xmlns:xlink="http://www.w3.org/1999/xlink" x="0px" y="0px" viewBox="0 0 720 720"
	 style="enable-background:new 0 0 720 720;" xml:space="preserve">
<style type="text/css">
	.Drop_x0020_Shadow{fill:none;}
	.Round_x0020_Corners_x0020_2_x0020_pt{fill:#FFFFFF;stroke:#231F20;stroke-miterlimit:10;}
	.Live_x0020_Reflect_x0020_X{fill:none;}
	.Bevel_x0020_Soft{fill:url(#SVGID_1_);}
	.Dusk{fill:#FFFFFF;}
	.Foliage_GS{fill:#FFDD00;}
	.Pompadour_GS{fill-rule:evenodd;clip-rule:evenodd;fill:#44ADE2;}
</style>
<metadata>
	<sfw  xmlns="&ns_sfw;">
		<slices></slices>
		<sliceSourceBounds  bottomLeftOrigin="true" height="510.9" width="720" x="0" y="-615.5"></sliceSourceBounds>
	</sfw>
</metadata>
<linearGradient id="SVGID_1_" gradientUnits="userSpaceOnUse" x1="0" y1="0" x2="0.7071" y2="0.7071">
	<stop  offset="0" style="stop-color:#DEDFE3"/>
	<stop  offset="0.1783" style="stop-color:#DADBDF"/>
	<stop  offset="0.3611" style="stop-color:#CECFD3"/>
	<stop  offset="0.546" style="stop-color:#B9BCBF"/>
	<stop  offset="0.7324" style="stop-color:#9CA0A2"/>
	<stop  offset="0.9181" style="stop-color:#787D7E"/>
	<stop  offset="1" style="stop-color:#656B6C"/>
</linearGradient>
<path id="_x32_8" d="M626,105.2c-3.9,2.2-4.4,9.6-2.2,20.2c3.8,18.2-0.9,37.1-12.7,51.4c-4.3,5.2-9.6,10.9-16.2,17.1
	c-26,24.4-137,95.3-245.8,162.9c0.5-3.4-2.6-5.6-4.4-4.5c-1.4,0.8-1.3,1.9-1.1,2.5c0.1,0.4,0.1,0.8-0.2,1.2l-6.3,8
	c-0.3,0.4-0.7,0.7-1.1,0.9c-7.1,4.4-14.2,8.8-21.3,13.2l-5.7-9.8c3.5-3.2,5.1-7.1,3.6-9.8c-2-3.4-8.3-3.4-14.1-0.1
	c-5.8,3.4-8.9,8.8-7,12.2c1.5,2.7,5.7,3.3,10.2,1.8l5.8,10.1c-7.4,4.6-14.7,9.1-22,13.6l-6.4-11.1c3.5-3.2,5.1-7.1,3.6-9.8
	c-2-3.4-8.3-3.4-14.1-0.1c-5.8,3.4-8.9,8.8-7,12.2c1.5,2.7,5.7,3.3,10.2,1.8l6.5,11.3c-7.5,4.6-14.8,9.1-22,13.5l-6.3-11
	c3.5-3.2,5.1-7.1,3.6-9.8c-2-3.4-8.3-3.4-14.1-0.1c-5.8,3.4-8.9,8.8-7,12.2c1.5,2.7,5.7,3.3,10.2,1.8l6.4,11.2
	c-51.8,31.8-95.4,58.4-118.2,72.6c-15.3,9.6-26.2,25-29.5,42.8c-0.2,1-0.3,2-0.5,3l-20.4,11.8c-0.3,0.1-0.4,0.4-0.5,0.7
	c-0.1,0.3-0.2,0.6-0.5,0.8l-27.5,15.9c-0.2,0.1-0.3,0.3-0.4,0.5c-0.1,0.3-0.3,0.6-0.6,0.8l-7.1,4.1l-0.1-0.1
	c-0.2-0.4-0.8-0.6-1.2-0.3l-2.2,1.3c-0.7,0.4-1.1,1-1.3,1.6c-0.1,0.2-0.3,0.4-0.5,0.6l-5.1,2.9c-0.5,0.3-1.2,0.3-1.8,0
	c-4.7-2.2-11.6-0.2-15.3,1.9c-1.7,0.9-3.1,1.1-4.2,1c-0.7-0.1-1.4-0.4-1.7-1.1c-0.5-0.9-1.6-1.2-2.5-0.7L2.3,582
	c-1.8,1.1-2.7,3.2-2.1,5.2c1.5,5.3,5.5,16,15.7,26.8c1.5,1.6,3.8,1.9,5.7,0.8l5.9-3.4c0.9-0.5,1.2-1.6,0.7-2.5l0,0
	c-0.3-0.6-0.4-1.3-0.1-1.9c0.4-1,1.3-2.2,3-3.2c3.7-2.2,8.9-7.2,9.3-12.3c0.1-0.6,0.4-1.2,0.9-1.5l5.1-2.9c0.2-0.1,0.5-0.2,0.7-0.1
	c0.7,0.1,1.4,0,2.1-0.3l2.2-1.3c0.4-0.2,0.6-0.8,0.3-1.2l-0.1-0.1l7.1-4.1c0.3-0.2,0.6-0.2,0.9-0.1c0.2,0.1,0.4,0.1,0.7-0.1
	l27.5-15.9c0.3-0.2,0.7-0.2,1-0.1c0.3,0.1,0.6,0.1,0.8-0.1l12.3-7.1c1.2,5.7,3.3,11.6,6.7,17.5c21.3,36.9,65.8,43.6,108.5,9.8
	c10.7,7.6,23.9,1.3,23.9,1.3l69.9-40.4l6.8,11.5c1,1.6,1.5,3.4,1.7,5.3c0.1,0.7,0.3,1.4,0.7,2c2.4,4.2,10.5,4.1,17.9-0.2
	c7.5-4.3,11.5-11.2,9.1-15.4c-0.4-0.6-0.8-1.1-1.4-1.6c-1.5-1.1-2.8-2.5-3.8-4.1l-2.4-4.2l5.3-3.1l2.4,4.1c1,1.6,1.5,3.4,1.7,5.3
	c0.1,0.7,0.3,1.4,0.7,2c2.4,4.2,10.5,4.1,17.9-0.2c7.5-4.3,11.5-11.2,9.1-15.4c-0.4-0.6-0.8-1.1-1.4-1.6c-1.5-1.1-2.8-2.5-3.8-4.1
	l-2.4-4.2l5.3-3.1l2.4,4.1c1,1.6,1.5,3.4,1.7,5.3c0.1,0.7,0.3,1.4,0.7,2c2.4,4.2,10.5,4.1,17.9-0.2c7.5-4.3,11.5-11.2,9.1-15.4
	c-0.4-0.6-0.8-1.1-1.4-1.6c-1.5-1.1-2.8-2.5-3.8-4.1l-11.7-20.7l70.5-40.8c0,0.4,0.2,0.8,0.5,1.1c0.7,0.8,1.9,1,2.8,0.5l6.1-3.5
	c0.9-0.5,1.4-1.7,1-2.7c-0.2-0.4-0.4-0.7-0.7-1l66.9-38.6l2.1,1.6c1.5,1.2,3.6,1.1,4.9-0.3c1.5-1.5,3.1-3.9,3.5-7.5l10.7-6.2
	c0,0,43.9-20.8,18.5-70.4c-5.8-11.3-12.2-18.7-18.4-23.4c-8.6-6.5-19.6-8.5-29.7-6.1c35.2-17.8,71.3-35.1,101.6-45.7
	c6.3-2.2,12.2-3.7,17.8-4.7c18.2-3.2,36.9,2.1,50.7,14.3c7.9,7,14.4,10,18.2,7.8c10-5.8-2.1-45.6-27.1-88.8
	C664.4,129.9,636,99.5,626,105.2z M150.5,502.2c21.6-12.6,59-34,101.4-58.1l2.9,5L145,513.6L150.5,502.2z M141.4,508l-4.7,8.3
	c-0.1,0-0.2,0.1-0.3,0.1l-10.9,6.3C130.9,514.8,138.2,509.9,141.4,508z M275.3,511.7c0-0.1-0.1-0.2-0.1-0.2
	c-0.4-0.8-1.8-0.9-3.5-0.5c5.8-5.6,7.4-14.5,3.2-21.7c0,0-4.2-7.1-6.5-9.6c-1.4-1.6-2.7-4.5-3.4-6.4c-0.4-1-1.8-1.1-2.2-0.1
	c-2,4,2.3,8.5,2.3,8.5c1.8,2,6.2,9.4,6.2,9.4c3.8,6.6,1.4,15.1-5.3,18.9c-6.7,3.9-15.2,1.7-19-4.9c0,0-2.7-4.5-3.9-8.3
	c-2.6-7.7-5.7-8.7-7.7-8.4c-1,0.1-1.4,1.3-0.7,2c1.6,1.8,4.4,5.4,5.4,8.8c1.5,4.9,3.6,8.2,3.6,8.2c4.1,7.2,12.6,10.3,20.4,8
	c-1.2,1.3-1.8,2.5-1.4,3.3c0,0.1,0.1,0.1,0.2,0.2L218,544.8c0,0-14.2,9.5-10.4,24.5c-31.4,22.7-65.9,30.4-83.6-6.6
	c-2.8-5.9-4.3-11.3-4.7-16.3l25.8-14.9c0.5-0.3,0.6-0.9,0.4-1.3l-0.4-0.7l117.5-67.2l24.9,42.4L275.3,511.7z M278,429.3
	c1.2-0.7,2.4-1.4,3.7-2.1l2.6,4.5l-3.7,2.2L278,429.3z M288.3,447.6l3.9-2.2l15.6,26.6l-4.3,2.5L288.3,447.6z M315.9,496.2
	l-6.7-11.8l4.5-2.6l5.3,9C317.6,492.9,316.5,494.9,315.9,496.2z M307.7,412.5c1.2-0.7,2.4-1.4,3.7-2.1l2.4,4l-3.7,2.2L307.7,412.5z
	 M318,430.6l3.9-2.2l15.8,26.9l-4.3,2.5L318,430.6z M339.1,467.8l4.5-2.6l11.8,20.1l-4.8,2.8L339.1,467.8z M363.6,511l-4.5-7.9
	l5-2.9l4.6,7.9L363.6,511z M491.2,309.2c4.3-2.2,8.7-4.4,13.1-6.7l-126.2,74.2c-0.4-0.7-1.1-1-1.8-1c-0.7,0-1.4,0.2-2.1,0.6
	c-6.1,3.6-11.3,5.9-15.5,7.5C430.4,343.3,491.2,309.2,491.2,309.2z M337.4,395.7c1.8-1,3.6-2,5.4-3.1c1.4,1.5,2.8,2.1,3.8,2.4
	l-7.2,4.2L337.4,395.7z M453.8,426.9l-74.1,43.3l-3.7-6.5l13.6-8c0.9,0.9,1.7,1.3,2.1,1.1c0.4-0.2,0.4-1.1,0.1-2.4l58.2-34.2
	L453.8,426.9z M478.7,411l-2.5,1.4c-0.4,0.2-0.5,0.7-0.3,1.1l0.2,0.3l-19.8,11.6l-3.9-6.7l19.8-11.6l0.1,0.2
	c0.2,0.4,0.7,0.5,1.1,0.3l2.6-1.5c-0.7,1.2-0.9,2.4-0.3,3.4C476.4,410.5,477.5,411,478.7,411z M497.3,400.2l-2.4,1.4
	c-0.4,0.2-0.5,0.7-0.3,1.1l0.2,0.3l-6.6,3.9l-0.2-0.3c-0.2-0.4-0.7-0.5-1.1-0.3l-2.5,1.4c0.6-1.1,0.7-2.3,0.2-3.2
	c-0.6-1-1.7-1.5-3.1-1.4l2.6-1.5c0.4-0.2,0.5-0.7,0.3-1.1l-0.2-0.3l6.6-3.9l0.2,0.4c0.2,0.4,0.7,0.5,1.1,0.3l2.6-1.5
	c-0.7,1.1-0.8,2.4-0.3,3.3C495.1,399.6,496.1,400.1,497.3,400.2z M520.4,388l-13.5,7.9l-0.1-0.2c-0.2-0.4-0.7-0.5-1.1-0.3l-2.4,1.4
	c0.6-1.1,0.7-2.2,0.1-3.1c-0.6-1-1.7-1.5-3-1.4l2.6-1.5c0.4-0.2,0.5-0.7,0.3-1.1l-0.3-0.5l13.1-7.7c0,0,4.7-2.2,6.4,0.8
	C524.2,385.1,520.4,388,520.4,388z M532.3,366c-12.3-7.5-24.7-0.8-24.7-0.8l-83.6,48.9c-0.5-0.2-1.1-0.2-1.7,0.1l-5.8,3.3
	c3.8-5.5,4.3-12.9,0.8-19c-4.9-8.5-15.9-11.4-24.6-6.4c-8.6,5-11.7,15.9-6.7,24.5c3.5,6.1,10.1,9.3,16.8,8.8l-5.8,3.3
	c-0.6,0.3-0.9,1-1,1.6l-13.7,8c-0.9-0.9-1.7-1.3-2.1-1.1c-0.4,0.2-0.4,1.1-0.1,2.3l-13.5,7.9l-19.2-33.8l161.2-92.2l3.2,6.5
	c0.3,0.6,1.1,0.9,1.7,0.6l0.2-0.1L532.3,366z M408.1,418.7c-7.1,4.1-15.8,2.5-19.3-3.6c-3.5-6.1-0.6-14.4,6.5-18.5
	c7.1-4.1,15.8-2.5,19.3,3.6C418.1,406.3,415.2,414.6,408.1,418.7z M564.6,341c7.5,22.9-11.9,32.2-19.2,34.9l-2.7-5.6
	c-0.3-0.7-1.1-1-1.8-0.7l-0.3,0.1l-21.4-43.8l0,0c0.6-0.3,0.9-1.1,0.6-1.7l-3.5-6.9C543,297.5,555.5,313.1,564.6,341z"/>
</svg>
