<?xml version="1.0" encoding="utf-8"?>
<!-- Generator: Adobe Illustrator 23.0.2, SVG Export Plug-In . SVG Version: 6.00 Build 0)  -->
<!DOCTYPE svg PUBLIC "-//W3C//DTD SVG 1.1//EN" "http://www.w3.org/Graphics/SVG/1.1/DTD/svg11.dtd" [
	<!ENTITY ns_extend "http://ns.adobe.com/Extensibility/1.0/">
	<!ENTITY ns_ai "http://ns.adobe.com/AdobeIllustrator/10.0/">
	<!ENTITY ns_graphs "http://ns.adobe.com/Graphs/1.0/">
	<!ENTITY ns_vars "http://ns.adobe.com/Variables/1.0/">
	<!ENTITY ns_imrep "http://ns.adobe.com/ImageReplacement/1.0/">
	<!ENTITY ns_sfw "http://ns.adobe.com/SaveForWeb/1.0/">
	<!ENTITY ns_custom "http://ns.adobe.com/GenericCustomNamespace/1.0/">
	<!ENTITY ns_adobe_xpath "http://ns.adobe.com/XPath/1.0/">
]>
<svg version="1.1" id="Layer_1" xmlns:x="&ns_extend;" xmlns:i="&ns_ai;" xmlns:graph="&ns_graphs;"
	 xmlns="http://www.w3.org/2000/svg" xmlns:xlink="http://www.w3.org/1999/xlink" x="0px" y="0px" viewBox="0 0 720 720"
	 style="enable-background:new 0 0 720 720;" xml:space="preserve">
<style type="text/css">
	.Drop_x0020_Shadow{fill:none;}
	.Round_x0020_Corners_x0020_2_x0020_pt{fill:#FFFFFF;stroke:#231F20;stroke-miterlimit:10;}
	.Live_x0020_Reflect_x0020_X{fill:none;}
	.Bevel_x0020_Soft{fill:url(#SVGID_1_);}
	.Dusk{fill:#FFFFFF;}
	.Foliage_GS{fill:#FFDD00;}
	.Pompadour_GS{fill-rule:evenodd;clip-rule:evenodd;fill:#44ADE2;}
</style>
<metadata>
	<sfw  xmlns="&ns_sfw;">
		<slices></slices>
		<sliceSourceBounds  bottomLeftOrigin="true" height="720" width="573.4" x="73.3" y="-720"></sliceSourceBounds>
	</sfw>
</metadata>
<linearGradient id="SVGID_1_" gradientUnits="userSpaceOnUse" x1="0" y1="0" x2="0.7071" y2="0.7071">
	<stop  offset="0" style="stop-color:#DEDFE3"/>
	<stop  offset="0.1783" style="stop-color:#DADBDF"/>
	<stop  offset="0.3611" style="stop-color:#CECFD3"/>
	<stop  offset="0.546" style="stop-color:#B9BCBF"/>
	<stop  offset="0.7324" style="stop-color:#9CA0A2"/>
	<stop  offset="0.9181" style="stop-color:#787D7E"/>
	<stop  offset="1" style="stop-color:#656B6C"/>
</linearGradient>
<path id="_x32_9" d="M644.5,33.4l-71-13.4c-1.6-0.3-3.2,0.1-4.6,1c-2.1,1.4-5.9,3.1-10.8,1.5c-3.2-1-6.6-0.4-9.2,1.7
	c-0.1,0.1-0.2,0.1-0.3,0.1h0L530.2,24c-0.3,0-0.5,0.2-0.5,0.5v0.1c0,0.3-0.2,0.5-0.5,0.5l-33-1.3v-7.2c3.4-1.2,5.1-3.4,5.9-5.1
	c0.5-1.1,0-2.4-1.1-2.8c-6.8-2.7-31.5-11.4-54.6-8.1c-27.1,3.9-41.1,20.6-51.1,41c-5.5,11.2-3.6,26.6-0.8,38.2c0,0,0,0,0,0
	c-2.6,6.5-5.3,13.4-8,20.6l-0.5-4.2c-0.2-2-2-3.4-3.9-3.2c-0.1,0-0.2,0-0.4,0.1c-1.7,0.3-2.9,2-2.8,3.7l0.5,11
	c0.1,1.9,1.6,3.2,3.2,3.5c0,0,0,0,0,0c-3.5,9.7-6.9,19.9-10,30.3c0,0,0,0,0,0c-2,0.6-4.9,2.1-6.4,6.5c-1.8,5.2,0.4,7.9,1.9,9.1
	c-0.4,1.3-0.7,2.7-1.1,4c0,0,0,0,0,0c-0.6-1.7-1.7-3.1-3.4-3.1c-2.6,0-4.2,1-5,1.7c-0.5,0.5-1.2,0.8-1.9,1c-2.1,0.6-6.5,2.6-7.1,9.9
	c-0.6,8.1,5.4,11.6,7.4,12.5c0.4,0.2,0.5,0.6,0.4,0.9l-1.6,4.1c-0.2,0.4-0.7,0.6-1.1,0.3c-1.5-1.1-5.1-2.9-7.8,0.9
	c-2.8,3.8,0.2,6.9,1.7,8c0.4,0.3,0.6,0.9,0.3,1.4l-2.3,5.5c-0.2,0.5-0.8,0.5-1.1,0.1c0-0.1-0.1-0.1-0.1-0.2
	c-2.5-4.2-8.5-4.6-11.6-0.8c-6.5,7.7-5.1,14.4-4,17.3c0.4,1,1,1.8,1.9,2.3c2.3,1.5,5.4,0.8,6.9-1.5l0.1-0.2c0.2-0.4,0.7-0.5,1.2-0.3
	l0.8,0.4c0.4,0.2,0.6,0.8,0.4,1.2l-6.5,12.6c-0.2,0.4-0.7,0.3-0.9-0.1c-0.7-2.4-2.8-7.5-7.3-7.7c-4.2-0.1-6.4,2.8-7.3,4.5
	c-0.4,0.7-1.1,1.1-1.9,1.2c-8,1-10.8,9.9-10.8,15.1c0,3.4,1.9,4.8,3.2,5.4c0.9,0.4,1.6,1.1,1.8,2c1.9,8.1,7.8,8.2,10.1,7.9
	c0.6-0.1,1.1,0.2,1.5,0.7l1.1,1.6c0.4,0.6,0.3,1.3-0.1,1.8l-3.6,4.2c-0.5,0.5-1.4,0.4-1.6-0.3c-0.6-1.5-2-3.4-5.2-3.5
	c-2.8-0.1-4.3,0.6-5,1.4c-0.8,0.8-1.9,1.3-3,1.5c-3.1,0.6-8.8,2.4-11.5,8.9c-2.8,6.8-0.2,11,1.4,12.8c0.6,0.7,1,1.6,1,2.5
	c0.7,8,11.2,8.6,14.8,8.6c0.5,0,0.8,0.6,0.5,1c-2.5,3.2-7.3,3.8-10.6,3.8c-1.8,0-3.6-1-4.4-2.6c-1-1.9-2.6-3.7-4.2-5.1
	c-2-1.7-5.1-0.9-5.9,1.6c-1.4,4-3.6,8.7-5.2,11.9c-1,2,0,4.4,2.2,5.1h0c2,0.6,4.1-0.1,5.3-1.8c3.6-5.3,10.4-6.4,15.5-6.3
	c3.1,0,5.2,3.3,3.8,6.1c-0.8,1.8-2.9,2.6-4.7,1.9c-1.8-0.7-3.8,0-4.8,1.7l-1.6,2.6c-0.7,1.1-2,1.7-3.3,1.4c-14-3.3-21-0.4-24.3,2.6
	c-1.9,1.7-1.5,4.9,0.8,6l0,0c1.3,0.6,0.7,2.6-0.7,2.4c-0.9-0.1-1.7,0.4-2,1.2l-8.7,21.7c-0.7,1.8,0.1,3.8,1.9,4.5
	c1.3,0.5,1.8,2,1.3,3.3l-6,13.2c-1.1,2.4-0.1,5.2,2.2,6.4l20.1,10.7l0,0l-6.7,18.9l-11.8-5.6c-2.2-1-4.2-2.4-6.1-3.9
	c-3.1-2.6-8.3-6.5-11.9-7c-3.3-0.5-6.3,0.4-8,1.1c-1.3,0.5-2.7,0.6-4,0.3l-17.1-4.4c-2.5-10.4-6.6-32.2-0.2-43.2c0,0,0,0,0,0
	c11.5-4.1,18.2-7.5,17.7-9.3c-1-4.1-36.9,1-80.3,11.4c-43.4,10.4-77.7,22.1-76.8,26.2c0.5,1.9,8.9,1.8,22.3,0c0,0,0,0,0,0
	c7.7,5.9,21.3,20.9,24,55.5c2.5,32.6-7,87.1-13.7,119.8c0,0,0,0,0,0c-6.5,5.1-10.6,13-10.6,21.9c0,4.2,0.9,8.1,2.6,11.7c0,0,0,0,0,0
	c-3.7,12.1-10.4,39.3-5.2,64c6.9,33.1,41.2,68.4,90.1,65.6c18.1-1,32.6-10.8,43.6-22.7c7,6.1,15.6,10,21.1,12.2
	c3.5,1.4,7.5,0.6,10.3-2c15.2-13.9,22.3-34.4,25.2-45.6c1.2-4.6-1-9.4-5.2-11.5l-20.6-10.1l14.8-47.9l0,0c0,0,0.1,0,0.1,0.1l0.3,0.1
	c1.1,0.3,2.3-0.3,2.6-1.4l8.5-27.9c3.4-1.8,7.8-3.4,12.4-2.8c6.9,0.8,9.3,6.4,10.2,9.6c0.3,1.2,1.5,2,2.8,1.9c1.5-0.1,2.6-1.5,2.3-3
	c-0.7-4.3-3.1-12.3-12.1-13.9c-8.2-1.5-13.5,1.6-16.1,3.9l-0.5-0.3l32.9-106.4c6.5-0.8,12.2-5.3,14.3-11.9c2.1-6.7-0.1-13.8-5-18.2
	l0,0l7.4-23.9l0,0l3.3-0.5v0c0.4,3.6,2.6,6.8,6,8.2c5,2,10.9-0.8,13-6.2c2.1-5.4-0.3-11.4-5.3-13.3c-4.1-1.6-8.7-0.1-11.4,3.4
	c0,0,0,0,0,0l-2.4-2.1l19.2-62c0.5,0.4,1,0.8,1.7,1l-10.2,30.5c-0.7,2.1,0.4,4.3,2.5,5c2.1,0.7,4.3-0.5,5-2.6l9.8-30.8
	c2.1,0,4-1.3,4.6-3.3l0,0c0.7-2.1-0.1-4.3-1.8-5.5l6.4-20c4.3-2.6,7.1-7.2,7.1-12.6c0-6.1-3.8-11.4-9.1-13.6l0,0l4.8-15.5l0,0
	l4.5-2.8c1.2-0.7,2.5-1,3.9-0.8c0.7,0.1,1.1,0.7,1,1.4l-1.1,4.8c-0.2,1,0.4,2,1.3,2.3c1.1,0.4,2.3-0.3,2.6-1.4l4.9-18.6
	c0-0.1,0-0.1,0-0.2c2.8,0.5,7.6,0.8,10.3-2.5c2.5-3,15.6-63.7,25-108.8l0.6,0.2c3.1,1.1,6.4-0.5,7.6-3.5l0,0c1.1-3-0.3-6.4-3.4-7.6
	l-2.4-1c1.9-9.3,3.6-17.6,4.9-23.8c1,0.2,1.9,0.4,2.6,0.6c1.2,0.3,2.5-0.4,2.8-1.6c0.3-1.1-0.3-2.3-1.4-2.7c-1.1-0.4-2.1-0.9-3-1.4
	c0.6-2.7,1-4.8,1.2-6.1c0.2-0.9-0.2-1.9-1-2.4v0c-1.4-0.9-3.2-0.1-3.6,1.4c-0.3,1.1-0.6,2.5-1,4.2c-1.2-1-2.3-2-3.1-2.9l6.6-21.4
	c2.9-9.5,11.7-15.9,21.6-15.9l72,0.1c0.3,0,0.5,0.2,0.5,0.5c0,0.3,0.2,0.5,0.5,0.5l20.2,0.3c0.1,0,0.1,0,0.2,0
	c1.9,0.9,4.1,1.2,6.2,0.9c5.5-0.8,9.6,1.5,11.9,3.3c1.4,1.1,3.3,1.5,5,1.1l71.2-15.8C647.5,38,647.4,33.9,644.5,33.4z M413.6,23.9
	l5.8,8.6c-0.4,0.8-0.6,1.7-0.5,2.6l0.2,2.6c-4.2,3.7-8,8-11.1,12.9c0,0,0,0,0,0C407.2,45.2,407,34.1,413.6,23.9z M410.1,171.5
	c0.5,0.2,1.1,0.1,1.5-0.1c-2.3,8.9-4.6,17.6-6.8,25.9l-9.3-4.3l8.9-28.7l0,0l0.6-0.4c1.1-0.7,2.5-1,3.9-0.9c0.7,0.1,1.1,0.7,1,1.4
	l-1,4.8C408.5,170.2,409.1,171.2,410.1,171.5z M401.9,40.9c0,0,0.5,10,1.4,18.4c0,0,0,0,0,0c0,0.1-0.1,0.2-0.1,0.2
	c-1.5,3.4-3,7-4.6,10.7C397.4,62.9,396.1,49.1,401.9,40.9z M196.5,627.4L196.5,627.4l-9,0.8c-1.3,0.1-2.4-1.1-2.2-2.4l0.8-4.1
	c0.1-0.5,0.5-0.8,1-0.7l10.9,2.1l0,0L196.5,627.4z M167,591.2c3.7,0.9,10.4,2.6,14.3,3.7c1.8,0.5,3.2,1.9,3.6,3.6
	c0.4,1.7,1.3,3.9,3.2,5.2c0.6,0.4,0.8,1.1,0.6,1.8l-2.9,10.3c-0.2,0.8-1,1.3-1.8,1.3l-10.8-0.6c-0.7,0-1.2-0.4-1.5-1
	c-1.1-2.5-4.4-9.1-8.8-13.5C164.2,598.5,165.6,595,167,591.2z M173.9,637.2c-0.9,0-1.7-0.8-1.5-1.7c0.5-2.6,1.2-7.5,0.7-12.7
	c-0.1-1,0.7-1.8,1.7-1.7l2.9,0.2c1,0.1,1.7,1.1,1.4,2c-0.2,0.7-0.5,1.6-1,2.8c-1.4,3.5-0.4,7.9,4.1,6.9c3.7-0.8,8.1-0.9,11.4,2.2
	l-0.4,1.1c-0.9,2.5-2.2,4.7-3.9,6.6C186.2,640.8,179.8,636.9,173.9,637.2z M230.7,409.5c1.3-4.8,7-7.5,12.8-6
	c5.8,1.5,9.4,6.7,8.2,11.5c-1.3,4.8-7,7.5-12.8,6C233.1,419.5,229.4,414.4,230.7,409.5z M228,419.3c1.6,2,4.7,4.7,9.9,5.7
	c4.7,0.9,8.8,0.7,11.6,0.3c3-0.4,6,0.1,8.7,1.3l3.6,1.6l-6.8,0.1l-6.1,13.2c-0.4,0.8-1.2,1.2-2,1c-2-0.4-5.6-0.5-7.2,4
	c-1.5,4.5,0.9,8.3,2.4,10.1c0.5,0.6,0.4,1.4-0.1,1.9c-0.7,0.7-1.4,1.9-1.2,3.9c0.2,2,1.2,2.9,2,3.2c0.7,0.3,1,1.1,0.7,1.7l-1.3,3.9
	c-0.3,0.9-1,1.5-1.9,1.8c-1.7,0.5-4.6,1.9-5.7,5.4c-0.9,2.8-1.3,5.1-1.4,6.7c-0.1,1.1-1,2-2.2,2.1c-2,0.1-5,0.8-6.5,3.8
	c-1.7,3.4,0.2,7.4,1.3,9.3c0.4,0.7,0.5,1.6,0.2,2.4c-0.4,1-1.3,1.6-2.3,1.6c-0.8,0-1.6,0.3-2.3,1.3c-1.2,1.9-1.6,7.1,5.9,7.7
	c0.9,0.1,1.5,0.8,1.4,1.7l-0.5,4.6c-0.1,0.5-0.4,0.9-0.9,1c-1,0.3-2.8,1-4.1,3.1c-0.5,0.7-1.3,1.1-2.2,1c-1.2-0.1-2.9-0.1-3.7,0.8
	c-0.9,1-0.9,3.3-0.8,4.8c0,0.6-0.5,1.1-1.1,1c-1.4-0.2-3.7-0.2-4.9,1.7c-1.2,1.8-0.9,3.8-0.6,5.1c0.2,0.8,0,1.7-0.5,2.3l-1.7,2.1
	c-2.7,3.3-2.7,8,0,11.3l0,0.1c0.4,0.4,0.4,1,0.1,1.5c-0.9,1.3-2.5,4.4-1.5,8.3c0.5,1.9,2.7,2.9,4.4,2c0.1-0.1,0.2-0.1,0.3-0.2
	c0.2-0.1,0.4,0.1,0.4,0.3l-0.7,2.2c-0.1,0.4-0.5,0.7-0.9,0.7l-3.5,0c-0.5,0-0.9-0.3-0.9-0.8l-0.1-0.6c-0.1-0.5-0.5-1-1.1-0.9
	l-1.9,0.1c-0.4,0-0.7-0.3-0.7-0.6l-0.1-5.8c0-1-0.9-1.8-1.8-1.7c-0.8,0-1.4,0.5-1.6,1.3l-4.5,15.5c-0.4,1.4,0.4,2.9,1.9,3.3
	c1.9,0.5,2.4,2.9,1,4.1l-6.7,5.6c-0.9,0.7-2.1,1-3.2,0.8l-17.1-3.7c19.4-52.8,44.7-129.8,45.4-173.2l7.7,3.4
	C224.6,416,226.5,417.5,228,419.3z M250.2,704.9C250.2,704.9,250.2,704.9,250.2,704.9c-0.9,0.5-2,0.5-2.9,0.2
	c-8.3-2.4-15.3-8-18.4-10.9c2-2.3,3.8-4.6,5.5-6.9l0.2,0.2c0.3,0.2,0.3,0.7,0.1,1l-1,1.1c-0.8,0.9-0.7,2.3,0.2,3.1l4.6,4
	c0.9,0.8,2.3,0.7,3.1-0.2l2-2.2c0.5-0.6,1.5-0.7,2.1-0.2l5.1,4C253.1,700,252.8,703.6,250.2,704.9z M259.9,654.5
	c0.2-1.4,1.6-2.2,2.9-1.9c4.4,1.2,7,2.5,8.3,3.4c0.7,0.4,1.1,1.2,1.1,2c-0.5,15.9-10,23.6-12.6,25.3c-0.4,0.3-0.9,0.4-1.4,0.4
	c-3.7-0.2-7.3-3-9.3-5c-1-0.9-1-2.4,0-3.3C256.8,667.8,259.2,658.8,259.9,654.5z M348,388.8c3.7,1.5,5.5,5.9,3.9,9.9
	c-1.6,4-5.9,6-9.6,4.6c-3.7-1.5-5.5-5.9-3.9-9.9C340,389.4,344.3,387.4,348,388.8z M357,317.2l4.8-15.5c0.8,0.2,1.6,0.3,2.5,0.3
	l-5.1,15.4C358.4,317.2,357.7,317.1,357,317.2z M391,241.1c-0.8-0.1-1.6,0.4-1.8,1.2l-0.9,3.4c-0.2,1-1.1,1.6-2.1,1.6h-1.1
	c-0.9,0-1.6-0.5-2-1.3l-2.4-5.7l0,0l12.3-39.7l9.6,4.5C398.1,221.2,394,234.4,391,241.1z M417,150c-0.2-0.3-0.6-0.6-1-0.7
	c-0.9-0.2-1.8,0.4-2,1.2l-0.8,3.4c-0.2,1-1.1,1.6-2.1,1.7l-1.1,0c-0.9,0-1.6-0.5-2-1.3l-0.5-1l8-26l6.3,2.3
	C420.4,136.2,418.7,143,417,150z M430.1,95.5c-1.4,6.1-3.2,13.6-5.3,22.2l-5.5-2.2l6-19.5C427,95.7,428.6,95.5,430.1,95.5z
	 M461.9,22.6c-9.9-0.4-19.5,1.6-28.1,5.6c0,0,0,0,0,0l-2.6-1.4c-0.8-0.4-1.8-0.6-2.7-0.5l-7.4-10.7c11.1-8.7,28.4-9.8,43-8.6v15.6h0
	L461.9,22.6z M477.4,23.2L477.4,23.2l0-14.4c1.6,0.3,3,0.6,4.4,0.9c0,0-0.9,6.2,6.2,7.6v6.3h0L477.4,23.2z"/>
</svg>
