<?xml version="1.0" encoding="utf-8"?>
<!-- Generator: Adobe Illustrator 23.0.2, SVG Export Plug-In . SVG Version: 6.00 Build 0)  -->
<!DOCTYPE svg PUBLIC "-//W3C//DTD SVG 1.1//EN" "http://www.w3.org/Graphics/SVG/1.1/DTD/svg11.dtd" [
	<!ENTITY ns_extend "http://ns.adobe.com/Extensibility/1.0/">
	<!ENTITY ns_ai "http://ns.adobe.com/AdobeIllustrator/10.0/">
	<!ENTITY ns_graphs "http://ns.adobe.com/Graphs/1.0/">
	<!ENTITY ns_vars "http://ns.adobe.com/Variables/1.0/">
	<!ENTITY ns_imrep "http://ns.adobe.com/ImageReplacement/1.0/">
	<!ENTITY ns_sfw "http://ns.adobe.com/SaveForWeb/1.0/">
	<!ENTITY ns_custom "http://ns.adobe.com/GenericCustomNamespace/1.0/">
	<!ENTITY ns_adobe_xpath "http://ns.adobe.com/XPath/1.0/">
]>
<svg version="1.1" id="Layer_1" xmlns:x="&ns_extend;" xmlns:i="&ns_ai;" xmlns:graph="&ns_graphs;"
	 xmlns="http://www.w3.org/2000/svg" xmlns:xlink="http://www.w3.org/1999/xlink" x="0px" y="0px" viewBox="0 0 720 720"
	 style="enable-background:new 0 0 720 720;" xml:space="preserve">
<style type="text/css">
	.Drop_x0020_Shadow{fill:none;}
	.Round_x0020_Corners_x0020_2_x0020_pt{fill:#FFFFFF;stroke:#231F20;stroke-miterlimit:10;}
	.Live_x0020_Reflect_x0020_X{fill:none;}
	.Bevel_x0020_Soft{fill:url(#SVGID_1_);}
	.Dusk{fill:#FFFFFF;}
	.Foliage_GS{fill:#FFDD00;}
	.Pompadour_GS{fill-rule:evenodd;clip-rule:evenodd;fill:#44ADE2;}
	.st0{fill-rule:evenodd;clip-rule:evenodd;}
</style>
<metadata>
	<sfw  xmlns="&ns_sfw;">
		<slices></slices>
		<sliceSourceBounds  bottomLeftOrigin="true" height="720" width="255.3" x="232.3" y="-720"></sliceSourceBounds>
	</sfw>
</metadata>
<linearGradient id="SVGID_1_" gradientUnits="userSpaceOnUse" x1="0" y1="0" x2="0.7071" y2="0.7071">
	<stop  offset="0" style="stop-color:#DEDFE3"/>
	<stop  offset="0.1783" style="stop-color:#DADBDF"/>
	<stop  offset="0.3611" style="stop-color:#CECFD3"/>
	<stop  offset="0.546" style="stop-color:#B9BCBF"/>
	<stop  offset="0.7324" style="stop-color:#9CA0A2"/>
	<stop  offset="0.9181" style="stop-color:#787D7E"/>
	<stop  offset="1" style="stop-color:#656B6C"/>
</linearGradient>
<path class="st0" d="M320,61.4l5.2-0.8l-2.5-15.1l-5,0.9c-0.1,3.9-6.9,5.7-8.3,2c-0.7-1.6-1-4-0.8-5.7c0.6-5.5,7.5-4.3,8.6-0.3
	l4.9-0.8l-5.6-34.1c-2-7,3.6-10,7.6-4.8c6.9,9.8,13.8,22.3,20.7,32.1c2.8,3.5,4.7,4,6.5,4c1.9,0,3.7-0.5,6.5-4
	c6.9-9.8,13.8-22.3,20.7-32.1c4-5.2,9.6-2.1,7.6,4.8l-5.6,34l4.9,0.8l0,0c0.9-4.5,8.3-4.7,8.8,0.6c0.2,1.8-0.3,3.8-0.9,5.4
	c-1.8,3.6-8.4,2-8.4-2l-5.1-0.9l-2.5,15.1l5.4,0.8c1-5.4,7.4-4.8,8.6-1.5c0.6,1.9-0.3,6.3-0.8,7.5c-1.7,3.8-8.2,2-8.3-2l-5.5-0.8
	l-2.6,16.2l5.3,0.9c1.1-4.2,7.9-5.6,8.6,0.3c0.2,1.8-0.1,4.1-0.8,5.7c-1.5,4.2-8.6,2.5-8.3-2l-5.4-0.9l-1.5,9.2
	c-17,26.4-2.8,253.6-1.9,292c7.5,9,21,12.5,31.3,15.3c7.2,2,11,9.9,8.2,25.9c-3.6,21.4-12.2,43.9-4.3,65.2
	c28.5,67.6,51.7,133.5,79.9,201c2.7,6.3,4.7,21.5-3.7,25.7c-10.3,4.9-22.3-11.2-28.3-18.8c-25.9-32.6-52.3-65.8-78-98.4
	c-14.8-18.2-33.1-14.7-43.8-0.5c-23.5,29.4-45.6,57.6-69,87c-7.5,10.2-16.4,13.4-22.6,10.6c-12.7-5.9-6-25.7-3.2-35.3
	c15.2-51.7,30.5-103.6,45.7-155.3c6.3-18.8,3.7-30.5-2.8-44.6c-7.5-19.4-51.2-102.4-39.8-120.1c11.2-17.3,52.5,33.3,59.3,40.1
	c11.2,11.2,23.1,14.8,35.5,1.6C338.1,341,344.9,128,330.7,94l-1.5-9.2l-5.4,0.9c-0.1,4-6.5,5.5-8.3,2c-0.9-2.1-1.2-5.6-0.2-7.8
	c1.7-3.8,7.3-2.6,8,1.7l5.3-0.9l-2.6-16.2l-5.4,0.8c-0.2,4-6.6,5.8-8.3,2c-0.7-1.5-0.9-4.1-0.7-5.7C312.1,56.4,318.7,56.7,320,61.4
	L320,61.4z"/>
</svg>
