<?xml version="1.0" encoding="utf-8"?>
<!-- Generator: Adobe Illustrator 23.0.2, SVG Export Plug-In . SVG Version: 6.00 Build 0)  -->
<!DOCTYPE svg PUBLIC "-//W3C//DTD SVG 1.1//EN" "http://www.w3.org/Graphics/SVG/1.1/DTD/svg11.dtd" [
	<!ENTITY ns_extend "http://ns.adobe.com/Extensibility/1.0/">
	<!ENTITY ns_ai "http://ns.adobe.com/AdobeIllustrator/10.0/">
	<!ENTITY ns_graphs "http://ns.adobe.com/Graphs/1.0/">
	<!ENTITY ns_vars "http://ns.adobe.com/Variables/1.0/">
	<!ENTITY ns_imrep "http://ns.adobe.com/ImageReplacement/1.0/">
	<!ENTITY ns_sfw "http://ns.adobe.com/SaveForWeb/1.0/">
	<!ENTITY ns_custom "http://ns.adobe.com/GenericCustomNamespace/1.0/">
	<!ENTITY ns_adobe_xpath "http://ns.adobe.com/XPath/1.0/">
]>
<svg version="1.1" id="Layer_1" xmlns:x="&ns_extend;" xmlns:i="&ns_ai;" xmlns:graph="&ns_graphs;"
	 xmlns="http://www.w3.org/2000/svg" xmlns:xlink="http://www.w3.org/1999/xlink" x="0px" y="0px" viewBox="0 0 720 720"
	 style="enable-background:new 0 0 720 720;" xml:space="preserve">
<style type="text/css">
	.Drop_x0020_Shadow{fill:none;}
	.Round_x0020_Corners_x0020_2_x0020_pt{fill:#FFFFFF;stroke:#231F20;stroke-miterlimit:10;}
	.Live_x0020_Reflect_x0020_X{fill:none;}
	.Bevel_x0020_Soft{fill:url(#SVGID_1_);}
	.Dusk{fill:#FFFFFF;}
	.Foliage_GS{fill:#FFDD00;}
	.Pompadour_GS{fill-rule:evenodd;clip-rule:evenodd;fill:#44ADE2;}
</style>
<metadata>
	<sfw  xmlns="&ns_sfw;">
		<slices></slices>
		<sliceSourceBounds  bottomLeftOrigin="true" height="720" width="461.2" x="129.4" y="-720"></sliceSourceBounds>
	</sfw>
</metadata>
<linearGradient id="SVGID_1_" gradientUnits="userSpaceOnUse" x1="0" y1="0" x2="0.7071" y2="0.7071">
	<stop  offset="0" style="stop-color:#DEDFE3"/>
	<stop  offset="0.1783" style="stop-color:#DADBDF"/>
	<stop  offset="0.3611" style="stop-color:#CECFD3"/>
	<stop  offset="0.546" style="stop-color:#B9BCBF"/>
	<stop  offset="0.7324" style="stop-color:#9CA0A2"/>
	<stop  offset="0.9181" style="stop-color:#787D7E"/>
	<stop  offset="1" style="stop-color:#656B6C"/>
</linearGradient>
<g id="_x33_0">
	<path d="M590.2,700.6c-0.4-0.7-1.1-1.1-2.1-1.3c-1.2-0.3-2.2-1-2.8-2.1l-76.8-122.4c0.3-0.1,0.5-0.3,0.8-0.4c4.8-3,5.4-10.7,1.4-17
		c-4-6.4-11.2-9.1-16-6c-0.2,0.1-0.4,0.3-0.6,0.4l-2.3-3.7c0.4-2.4,0.5-5.4-0.9-7.6c-2-3.3-5.2-4.2-6.7-4.5l-0.5-0.9
		c1.1-0.1,2.3-0.5,3.3-1.1c4.9-2.8,6-10.2,2.4-16.4c-3.6-6.2-10.5-9-15.4-6.2c-1.3,0.8-2.4,1.8-3.1,3.2l-3.5-5.6l0,0
		c1.5-1.3,2.3-3.1,2.3-5.1l0-2.1c0-2.1-1.4-2.9-3.2-1.8l-3.4,2.1l-1-1.6c0.6-0.2,1.2-0.4,1.8-0.8c4.9-2.8,6-10.2,2.4-16.4
		c-3.6-6.2-10.5-9-15.4-6.2c-0.8,0.5-1.6,1.1-2.2,1.8l-6.8-10.8c0.9-0.2,1.7-0.5,2.5-1c5.1-2.9,6.3-10.4,2.7-16.6
		c-3.6-6.2-10.7-8.9-15.7-6c-1.1,0.6-2,1.4-2.7,2.4l-5.3-8.4c1-0.2,1.9-0.6,2.8-1.2c4.9-3.2,5.8-10.7,1.9-16.7
		c-3.9-6.1-11.1-8.4-16-5.2l0,0c-1.2,0.8-2.8,0.4-3.6-0.8l-0.2-0.3c0.1-1.1,0.3-2.2,0.5-3.2c0.2-1,1.1-1.7,2.1-1.5
		c3,0.4,5.3-0.3,6-3c2.7-10-8.2-15.8-8.2-15.8c2.3-1.7,3-7.8-1-13c-4-5.2-7.6-3.5-7.6-3.5c-2-6.7-10.5-13.8-16.4-12.4
		c-3.7,0.8-4.3,4.2-4.3,6.7l-4.7-7.5c0.7-0.2,1.4-0.5,2.1-0.9c5.1-2.9,6.5-10.1,3-16c-3.4-5.9-10.3-8.3-15.4-5.4
		c-0.9,0.5-1.7,1.2-2.4,2l-1.7-2.7c0.7-0.2,1.4-0.6,2-1c4.9-3.2,6.1-10.2,2.6-15.7c-3.5-5.5-10.4-7.3-15.3-4.1
		c-0.5,0.4-1,0.8-1.5,1.2l-1.7-2.7c4.4-3,6.1-8.6,3.8-13.1c-2.5-4.9-8.8-6.6-14.1-3.8c-0.1,0-0.1,0.1-0.2,0.1l-11-17.5
		c0.7-0.2,1.3-0.4,1.9-0.8c3.2-2.1,4-6.7,1.7-10.3c-2.3-3.6-6.8-4.8-10-2.7c-0.6,0.4-1,0.8-1.4,1.3l-39.2-62.5
		c0.7-1.3,0.9-2.3,0.5-3.1c-0.5-0.8-1.6-1.2-3.2-1.1l-22.4-35.7c0.8-1.3,1.1-2.5,0.6-3.4c-0.5-0.9-1.7-1.2-3.4-1.1L151.3,5.4
		c-0.4-0.6-0.5-1.4-0.3-2.2c0.2-0.8,0.2-1.5-0.1-2c-1.4-2.3-7.2-1.3-13,2.2c-5.8,3.5-9.5,8.2-8.1,10.4c0.4,0.6,1,1,1.9,1.1
		c0.7,0.1,1.4,0.6,1.8,1.2l20,32.6l-1.9,1.2c-1.5,0.9-1.9,2.9-1,4.4l21.2,33.7c0.9,1.5,2.9,1.9,4.4,1l1.5-0.9l52.4,85.5
		c-0.9,1.4-1.3,2.7-0.8,3.6c0.5,0.9,1.8,1.2,3.6,1.1l21.9,35.7c-0.8,1.3-1.1,2.5-0.6,3.3c0.5,0.8,1.7,1.2,3.3,1.1l11.2,18.3
		l-1.4,0.9l-2-3.3c-0.2-0.3-0.6-0.4-1-0.2l-0.6,0.4c-0.3,0.2-0.4,0.6-0.2,1l2,3.3l-1.8,1.1l-1.5-2.4c-0.2-0.3-0.6-0.4-1-0.2
		l-0.6,0.4c-0.3,0.2-0.4,0.6-0.2,1l1.5,2.4l-0.1,0.1c-0.3,0.2-0.4,0.6-0.2,0.9l0.4,0.7c0.2,0.3,0.6,0.4,0.9,0.2l0.1-0.1l4.5,7.4
		l-0.2,0.1c-0.3,0.2-0.4,0.6-0.2,0.9l0.4,0.7c0.2,0.3,0.6,0.4,0.9,0.2l0.2-0.1l8.3,13.5l-0.4,0.2c-0.3,0.2-0.4,0.6-0.2,0.9l0.4,0.7
		c0.2,0.3,0.6,0.4,0.9,0.2l0.4-0.2l33.6,55.1l-0.5-0.6c-1-1.1-2.8-0.9-3.4,0.5l-1.1,2.5c-0.6,1.4-0.4,3,0.4,4.3l21.2,30.1
		c1.2,1.7,2.6,3.3,4.1,4.8c3.1,3,8.8,8.6,12,12.8c0.5,0.7,1,1.3,1.5,1.9l29.8,48.9l-0.1,0.1c-0.3,0.2-0.4,0.6-0.2,0.9l0.4,0.7
		c0.2,0.3,0.6,0.4,0.9,0.2l0.1-0.1l35.5,58.1l-0.1,0c-0.3,0.2-0.4,0.6-0.2,0.9l0.4,0.7c0.2,0.3,0.6,0.4,0.9,0.2l0.1,0l19.9,32.6
		l-0.1,0.1c-0.3,0.2-0.4,0.6-0.2,0.9l0.4,0.7c0.2,0.3,0.6,0.4,0.9,0.2l0.1-0.1l5.5,9c0.2,0.3,0.6,0.4,0.9,0.2l6.6-4.3l13.5,22.1
		l-1.9,8.4c-0.2,0.9-1.2,1.2-1.9,0.6l-0.2-0.2c-1.6-1.4-4.1-0.9-5,1.1c-1,2.1-1.9,5-1.7,8c0.2,2.9,1.5,5.2,2.8,6.9
		c1.3,1.7,3.9,1.9,5.4,0.3l4.6-4.7c0.5-0.5,1.3,0,1.1,0.7c-0.5,1.5-0.8,2.8-1,3.8c0,0.2-0.1,0.4-0.1,0.6c-0.1,0.7-0.5,1.3-1.1,1.7
		c0,0,0,0,0,0c-2.5,1.6-2,6.9,1.2,11.7c3.1,4.9,7.7,7.6,10.2,6c0.1-0.1,0.2-0.2,0.3-0.2l4.6,7.1c0.8,1.2,2.4,1.5,3.6,0.6l7.7-5.9
		l8.8,14.4c-2.6-1.4-5.2-1.7-7.2-0.6c-4.1,2.4-4.1,10.1,0,17.3c4.1,7.2,10.8,11,14.9,8.7c2.2-1.3,3.2-4.1,3.1-7.6l16.3,26.6
		c-2.9-1.9-5.9-2.4-8.1-1.1c-4.1,2.4-4.1,10.1,0,17.3c4.1,7.2,10.8,11,14.9,8.7c2.5-1.4,3.4-4.7,3-8.7l25.3,41.4
		c0.6,1,0.8,2.1,0.6,3.2c-0.2,0.9-0.1,1.7,0.3,2.3c1.8,2.9,9.8,1.3,17.9-3.7C587,709.9,592.1,703.5,590.2,700.6z M283.5,261.3
		l-1.4,0.9l-8.3-13.5l1.4-0.9L283.5,261.3z M269.6,238.6l4.5,7.4l-1.4,0.9l-4.5-7.4L269.6,238.6z M264.6,241.6l1.8-1.1l4.5,7.4
		l-1.8,1.1L264.6,241.6z M270.2,250.8l1.8-1.1l8.3,13.5l-1.8,1.1L270.2,250.8z M315.7,325.4l-36.2-59.3l1.8-1.1l36,59L315.7,325.4z
		 M319,322.6l-35.9-58.7l1.5-0.9l35.8,58.5L319,322.6z M440.3,517.2l-1.8,1.1l-19.9-32.6l1.7-1.1L440.3,517.2z M383.7,424.9
		l35.6,58.1l-1.7,1.1l-35.5-58.1L383.7,424.9z M360,386.1l22.7,37l-1.7,1l-24.2-39.5L360,386.1z M349.8,381.2l3.5,1.7l25.9,42.4
		l-1.8,1.1L349.8,381.2z M378.4,428.1l1.8-1.1l35.5,58.1l-1.8,1.1L378.4,428.1z M415,488l1.8-1.1l19.9,32.6l-1.8,1.1L415,488z
		 M440.7,530.1l-4.8-7.8l1.8-1.1l4.7,7.7L440.7,530.1z M444.3,527.7l-4.7-7.7l1.8-1.1l4.7,7.6L444.3,527.7z"/>
</g>
</svg>
