<?xml version="1.0" encoding="utf-8"?>
<!-- Generator: Adobe Illustrator 23.0.2, SVG Export Plug-In . SVG Version: 6.00 Build 0)  -->
<!DOCTYPE svg PUBLIC "-//W3C//DTD SVG 1.1//EN" "http://www.w3.org/Graphics/SVG/1.1/DTD/svg11.dtd" [
	<!ENTITY ns_extend "http://ns.adobe.com/Extensibility/1.0/">
	<!ENTITY ns_ai "http://ns.adobe.com/AdobeIllustrator/10.0/">
	<!ENTITY ns_graphs "http://ns.adobe.com/Graphs/1.0/">
	<!ENTITY ns_vars "http://ns.adobe.com/Variables/1.0/">
	<!ENTITY ns_imrep "http://ns.adobe.com/ImageReplacement/1.0/">
	<!ENTITY ns_sfw "http://ns.adobe.com/SaveForWeb/1.0/">
	<!ENTITY ns_custom "http://ns.adobe.com/GenericCustomNamespace/1.0/">
	<!ENTITY ns_adobe_xpath "http://ns.adobe.com/XPath/1.0/">
]>
<svg version="1.1" id="Layer_1" xmlns:x="&ns_extend;" xmlns:i="&ns_ai;" xmlns:graph="&ns_graphs;"
	 xmlns="http://www.w3.org/2000/svg" xmlns:xlink="http://www.w3.org/1999/xlink" x="0px" y="0px" viewBox="0 0 720 720"
	 style="enable-background:new 0 0 720 720;" xml:space="preserve">
<style type="text/css">
	.Drop_x0020_Shadow{fill:none;}
	.Round_x0020_Corners_x0020_2_x0020_pt{fill:#FFFFFF;stroke:#231F20;stroke-miterlimit:10;}
	.Live_x0020_Reflect_x0020_X{fill:none;}
	.Bevel_x0020_Soft{fill:url(#SVGID_1_);}
	.Dusk{fill:#FFFFFF;}
	.Foliage_GS{fill:#FFDD00;}
	.Pompadour_GS{fill-rule:evenodd;clip-rule:evenodd;fill:#44ADE2;}
	.st0{fill:none;stroke:#000000;stroke-width:1.1559;stroke-miterlimit:10;}
	.st1{fill:#FFFFFF;}
</style>
<metadata>
	<sfw  xmlns="&ns_sfw;">
		<slices></slices>
		<sliceSourceBounds  bottomLeftOrigin="true" height="720" width="410.9" x="154.6" y="-720"></sliceSourceBounds>
	</sfw>
</metadata>
<linearGradient id="SVGID_1_" gradientUnits="userSpaceOnUse" x1="0" y1="0" x2="0.7071" y2="0.7071">
	<stop  offset="0" style="stop-color:#DEDFE3"/>
	<stop  offset="0.1783" style="stop-color:#DADBDF"/>
	<stop  offset="0.3611" style="stop-color:#CECFD3"/>
	<stop  offset="0.546" style="stop-color:#B9BCBF"/>
	<stop  offset="0.7324" style="stop-color:#9CA0A2"/>
	<stop  offset="0.9181" style="stop-color:#787D7E"/>
	<stop  offset="1" style="stop-color:#656B6C"/>
</linearGradient>
<g id="_x33_1">
	<g>
		<g>
			<line class="st0" x1="221.2" y1="71.4" x2="277.2" y2="599.3"/>
			<line class="st0" x1="230.2" y1="70.2" x2="285.4" y2="586.2"/>
			<line class="st0" x1="239.8" y1="70.2" x2="293.2" y2="575.7"/>
			<line class="st0" x1="249" y1="70.2" x2="301.1" y2="564.3"/>
			<line class="st0" x1="258.2" y1="70.2" x2="309.2" y2="551.5"/>
			<line class="st0" x1="267.8" y1="71.6" x2="316.8" y2="539.6"/>
			<line class="st0" x1="277.1" y1="74.3" x2="325.2" y2="528.2"/>
			<line class="st0" x1="286.7" y1="76.5" x2="333.4" y2="516.5"/>
			<line class="st0" x1="296.3" y1="80.9" x2="340.8" y2="503.8"/>
			<line class="st0" x1="306.9" y1="88.3" x2="349.2" y2="492.6"/>
			<line class="st0" x1="317.5" y1="98.3" x2="357.6" y2="480.6"/>
			<line class="st0" x1="327.5" y1="109.7" x2="365.5" y2="469.1"/>
			<line class="st0" x1="338.8" y1="125.1" x2="373.5" y2="457.4"/>
			<line class="st0" x1="349.6" y1="140.8" x2="381.5" y2="445.4"/>
			<line class="st0" x1="361.1" y1="158.1" x2="389.3" y2="433.4"/>
			<line class="st0" x1="524" y1="199.1" x2="524.8" y2="230.6"/>
			<line class="st0" x1="514.9" y1="205.7" x2="517.2" y2="243"/>
			<line class="st0" x1="506.1" y1="212.4" x2="508.9" y2="254.7"/>
			<line class="st0" x1="497.2" y1="218.5" x2="501.4" y2="266.5"/>
			<line class="st0" x1="488.7" y1="224" x2="493.1" y2="278.1"/>
			<line class="st0" x1="479.6" y1="228.8" x2="484.9" y2="290"/>
			<line class="st0" x1="470.6" y1="232.3" x2="477.2" y2="302.3"/>
			<line class="st0" x1="461.7" y1="235" x2="469.1" y2="314.4"/>
			<line class="st0" x1="452.4" y1="235.7" x2="461.5" y2="326.6"/>
			<line class="st0" x1="443.2" y1="235.1" x2="453.1" y2="337.7"/>
			<line class="st0" x1="433.5" y1="233.9" x2="445.1" y2="349.7"/>
			<line class="st0" x1="424" y1="229.7" x2="437.1" y2="361.4"/>
			<line class="st0" x1="414.2" y1="223.9" x2="429.2" y2="373.9"/>
			<line class="st0" x1="403.8" y1="215.5" x2="421.1" y2="384.7"/>
			<line class="st0" x1="393.7" y1="205.1" x2="413.2" y2="396.9"/>
			<line class="st0" x1="383.2" y1="191.8" x2="405.5" y2="410.1"/>
			<line class="st0" x1="397.3" y1="422.1" x2="371.9" y2="175.6"/>
		</g>
		<path d="M564.8,202.4c2.4-14.5-2.6-23.5-9.6-29c-10.8-8.6-26-8.6-37.1-0.3c-18.1,13.5-53.7,38.1-73.6,37.9
			c-27.4-0.2-46.5-38.2-59.5-62.8c-13-24.6-34.7-68.2-69.6-98c-29-24.7-81-24.1-98-23.2c-0.9,0-1.6-0.6-1.7-1.5l-1.6-16.3
			c-0.5-5.6-5.5-9.7-11.2-9.2l-39.2,3.8c-5.6,0.5-9.7,5.5-9.2,11.2l4,40.7c0.5,4.9,4.4,8.7,9.1,9.2c0.7,0.1,1.2,0.6,1.3,1.3
			l6.1,62.8c0.4,4.3,3.7,7.6,7.8,8.2c0.5,0.1,0.9,0.5,1,1l35.8,367.5c0.1,0.5-0.3,1-0.8,1.1c-3.8,1.1-6.5,4.8-6.1,8.9l8.6,88.2
			c0.1,0.9-0.4,1.7-1.3,2c-5.2,1.9-9.1,4.7-11.8,7.3c-3.6,3.5-5.6,8.4-5.5,13.5l0.7,32c0,1.7-0.5,3.4-1.4,4.9c-1.9,3.1-3,6.4-3,9.7
			c0,0.2,0,0.5,0,0.7c0.1,2.2,0.1,4.5,0,6.7c0,0.3,0,0.7,0,1c0,21.1,35.3,38.3,78.9,38.3c43.6,0,78.9-17.1,78.9-38.3
			c0-0.3,0-0.7,0-1c-0.1-2.2-0.1-4.5,0-6.7c0-0.2,0-0.5,0-0.7c0-1.1-0.1-2.2-0.3-3.3c-0.3-1.4,0.6-2.9,2.1-3.1
			c7.8-1.4,16.1-4.3,16.1-6.6c0-1.7-1.1-2.6-2-3c-0.6-0.3-1.3-0.4-2-0.5l-14.3-0.5c-0.6,0-0.7-0.9-0.1-1.1l26.4-5.7
			c1.6-0.3,3.1-1,4.3-1.9c1.1-0.8,2.1-1.9,2.1-3.2c0-1.1-0.5-1.9-1.2-2.5c-1.1-0.9-2.5-1.4-3.9-1.3l-27.2,0.7
			c-0.6,0-0.8-0.9-0.1-1.1l21.3-5.2c1.1-0.3,2.2-0.7,3.2-1.3c1.4-0.8,2.9-2.2,2.9-4c0-1.7-1.2-2.7-2.3-3.4c-1.1-0.6-2.3-0.8-3.5-0.8
			l-20.5,0.5c-0.4,0-0.7-0.4-0.5-0.8C414.7,518,547.2,241.7,562.5,209.7C563.6,207.4,564.4,204.9,564.8,202.4z M531.5,212.1
			L262.6,591.2c-0.4,0.5-1.2,0.3-1.3-0.3l-7.7-79.2c-0.4-4.1-3.7-7.2-7.7-7.5c-0.5,0-0.9-0.4-1-0.9l-35.8-367.5
			c-0.1-0.5,0.3-1,0.7-1.2c3.9-1.4,6.5-5.3,6-9.5l-1.5-15.5c-0.1-0.8,0.5-1.5,1.3-1.5c15.6-1.2,37.5-1.7,52.9,3.2
			c26.2,8.3,60,53.5,82.3,88.9s61.7,58.7,102.3,49.9c28.2-6.1,59.1-27.8,75.3-40.5C530.5,208,532.8,210.2,531.5,212.1z"/>
		<g>
			<circle class="st1" cx="525.2" cy="198.5" r="2.5"/>
			<path class="st1" d="M518.7,205c0,1.4-1.1,2.5-2.5,2.5c-1.4,0-2.5-1.1-2.5-2.5c0-1.4,1.1-2.5,2.5-2.5
				C517.6,202.6,518.7,203.7,518.7,205z"/>
			<path class="st1" d="M510,211.7c0,1.4-1.1,2.5-2.5,2.5c-1.4,0-2.5-1.1-2.5-2.5c0-1.4,1.1-2.5,2.5-2.5
				C508.8,209.3,510,210.4,510,211.7z"/>
			<circle class="st1" cx="498.6" cy="217.9" r="2.5"/>
			<path class="st1" d="M492.3,223.6c0,1.4-1.1,2.5-2.5,2.5c-1.4,0-2.5-1.1-2.5-2.5c0-1.4,1.1-2.5,2.5-2.5
				C491.2,221.1,492.3,222.2,492.3,223.6z"/>
			<path class="st1" d="M483.2,227.9c0,1.4-1.1,2.5-2.5,2.5c-1.4,0-2.5-1.1-2.5-2.5c0-1.4,1.1-2.5,2.5-2.5
				C482.1,225.4,483.2,226.5,483.2,227.9z"/>
			<path class="st1" d="M474.6,231.6c0,1.4-1.1,2.5-2.5,2.5c-1.4,0-2.5-1.1-2.5-2.5c0-1.4,1.1-2.5,2.5-2.5
				C473.4,229.1,474.6,230.2,474.6,231.6z"/>
			<path class="st1" d="M465.6,234c0,1.4-1.1,2.5-2.5,2.5c-1.4,0-2.5-1.1-2.5-2.5c0-1.4,1.1-2.5,2.5-2.5
				C464.5,231.5,465.6,232.6,465.6,234z"/>
			<path class="st1" d="M456.3,235.3c0,1.4-1.1,2.5-2.5,2.5c-1.4,0-2.5-1.1-2.5-2.5c0-1.4,1.1-2.5,2.5-2.5
				C455.2,232.9,456.3,234,456.3,235.3z"/>
			<path class="st1" d="M428,229.2c0,1.4-1.1,2.5-2.5,2.5s-2.5-1.1-2.5-2.5c0-1.4,1.1-2.5,2.5-2.5S428,227.9,428,229.2z"/>
			<path class="st1" d="M437.5,233.4c0,1.4-1.1,2.5-2.5,2.5c-1.4,0-2.5-1.1-2.5-2.5c0-1.4,1.1-2.5,2.5-2.5
				C436.4,230.9,437.5,232,437.5,233.4z"/>
			<path class="st1" d="M447.1,235c0,1.4-1.1,2.5-2.5,2.5c-1.4,0-2.5-1.1-2.5-2.5c0-1.4,1.1-2.5,2.5-2.5
				C446,232.5,447.1,233.6,447.1,235z"/>
			<path class="st1" d="M418.2,223.7c0,1.4-1.1,2.5-2.5,2.5c-1.4,0-2.5-1.1-2.5-2.5s1.1-2.5,2.5-2.5
				C417.1,221.2,418.2,222.3,418.2,223.7z"/>
			<path class="st1" d="M407.8,215.1c0,1.4-1.1,2.5-2.5,2.5c-1.4,0-2.5-1.1-2.5-2.5c0-1.4,1.1-2.5,2.5-2.5
				C406.7,212.6,407.8,213.7,407.8,215.1z"/>
			<circle class="st1" cx="395.1" cy="204.6" r="2.5"/>
			<path class="st1" d="M387,191.2c0,1.4-1.1,2.5-2.5,2.5c-1.4,0-2.5-1.1-2.5-2.5c0-1.4,1.1-2.5,2.5-2.5
				C385.9,188.7,387,189.9,387,191.2z"/>
			<path class="st1" d="M375.6,175.3c0,1.4-1.1,2.5-2.5,2.5c-1.4,0-2.5-1.1-2.5-2.5s1.1-2.5,2.5-2.5
				C374.5,172.8,375.6,173.9,375.6,175.3z"/>
			<path class="st1" d="M364.8,157.8c0,1.4-1.1,2.5-2.5,2.5s-2.5-1.1-2.5-2.5c0-1.4,1.1-2.5,2.5-2.5S364.8,156.5,364.8,157.8z"/>
			<circle class="st1" cx="351.3" cy="140.7" r="2.5"/>
			<path class="st1" d="M342.7,124.5c0,1.4-1.1,2.5-2.5,2.5c-1.4,0-2.5-1.1-2.5-2.5c0-1.4,1.1-2.5,2.5-2.5
				C341.6,122,342.7,123.1,342.7,124.5z"/>
			<path class="st1" d="M331.7,109.4c0,1.4-1.1,2.5-2.5,2.5c-1.4,0-2.5-1.1-2.5-2.5c0-1.4,1.1-2.5,2.5-2.5
				C330.6,106.9,331.7,108,331.7,109.4z"/>
			<path class="st1" d="M321.2,97.7c0,1.4-1.1,2.5-2.5,2.5s-2.5-1.1-2.5-2.5c0-1.4,1.1-2.5,2.5-2.5S321.2,96.3,321.2,97.7z"/>
			<circle class="st1" cx="308" cy="87.5" r="2.5"/>
			<circle class="st1" cx="297.9" cy="80.6" r="2.5"/>
			<path class="st1" d="M290.8,75.9c0,1.4-1.1,2.5-2.5,2.5c-1.4,0-2.5-1.1-2.5-2.5c0-1.4,1.1-2.5,2.5-2.5
				C289.7,73.4,290.8,74.5,290.8,75.9z"/>
			<circle class="st1" cx="278.5" cy="73" r="2.5"/>
			<path class="st1" d="M271.9,71.3c0,1.4-1.1,2.5-2.5,2.5c-1.4,0-2.5-1.1-2.5-2.5c0-1.4,1.1-2.5,2.5-2.5
				C270.8,68.8,271.9,69.9,271.9,71.3z"/>
			<circle class="st1" cx="259.7" cy="69.6" r="2.5"/>
			<path class="st1" d="M252.9,69.7c0,1.4-1.1,2.5-2.5,2.5s-2.5-1.1-2.5-2.5c0-1.4,1.1-2.5,2.5-2.5S252.9,68.3,252.9,69.7z"/>
			<circle class="st1" cx="241.1" cy="70" r="2.5"/>
			<path class="st1" d="M234.2,69.9c0,1.4-1.1,2.5-2.5,2.5c-1.4,0-2.5-1.1-2.5-2.5c0-1.4,1.1-2.5,2.5-2.5
				C233.1,67.4,234.2,68.5,234.2,69.9z"/>
			<circle class="st1" cx="222.8" cy="71.3" r="2.5"/>
		</g>
	</g>
	<path class="st1" d="M319.2,666.8h-4.5c-2.5,0-4.9,1.2-6.4,3.3c0,0-0.1,0.1-0.1,0.1c-2,2.9-0.9,7,2.4,8.3c0.4,0.2,0.8,0.3,1.2,0.4
		c0.5,0.2,0.9,0.6,0.9,1.1c0.1,1.3,0,3.8-2.3,4.5c-3.2,0.9-6.3-1.1-7-9.8s4.2-17,9.7-18.6c5.2-1.5,8.8,5.3,7.2,9.8
		C320.2,666.5,319.7,666.8,319.2,666.8z"/>
	<path class="st1" d="M326.6,667.2c0.2,0,0.3-0.2,0.2-0.4c-0.7-0.9-2-3.5,0.6-7.3c2.6-3.7,7.1-4.4,9.1-4.5c0.6,0,1-0.5,1-1.1
		l-0.1-5.4c0,0-0.2-2.9-3.7-2.9c-3.4,0-10.2,5.9-8.6,20.8c0,0.4,0.4,0.7,0.8,0.7L326.6,667.2z"/>
	<path class="st1" d="M341.2,654.9c-0.1,0-0.2-0.1-0.2-0.2c-0.1-1.4-0.3-9.6,0.7-13.3c0.6-2.2,1.8-4.2,2.9-5.6
		c0.8-1.1,2.6-1,3.2,0.3c0.6,1.3,1.1,3.3,0.8,6.3c-0.1,0.4-0.3,0.8-0.6,1c-1.4,0.8-5,3.7-4.8,11.3c0,0.1-0.1,0.2-0.2,0.2
		L341.2,654.9z"/>
</g>
</svg>
