<?xml version="1.0" encoding="utf-8"?>
<!-- Generator: Adobe Illustrator 23.0.2, SVG Export Plug-In . SVG Version: 6.00 Build 0)  -->
<!DOCTYPE svg PUBLIC "-//W3C//DTD SVG 1.1//EN" "http://www.w3.org/Graphics/SVG/1.1/DTD/svg11.dtd" [
	<!ENTITY ns_extend "http://ns.adobe.com/Extensibility/1.0/">
	<!ENTITY ns_ai "http://ns.adobe.com/AdobeIllustrator/10.0/">
	<!ENTITY ns_graphs "http://ns.adobe.com/Graphs/1.0/">
	<!ENTITY ns_vars "http://ns.adobe.com/Variables/1.0/">
	<!ENTITY ns_imrep "http://ns.adobe.com/ImageReplacement/1.0/">
	<!ENTITY ns_sfw "http://ns.adobe.com/SaveForWeb/1.0/">
	<!ENTITY ns_custom "http://ns.adobe.com/GenericCustomNamespace/1.0/">
	<!ENTITY ns_adobe_xpath "http://ns.adobe.com/XPath/1.0/">
]>
<svg version="1.1" id="Layer_1" xmlns:x="&ns_extend;" xmlns:i="&ns_ai;" xmlns:graph="&ns_graphs;"
	 xmlns="http://www.w3.org/2000/svg" xmlns:xlink="http://www.w3.org/1999/xlink" x="0px" y="0px" viewBox="0 0 720 720"
	 style="enable-background:new 0 0 720 720;" xml:space="preserve">
<style type="text/css">
	.Drop_x0020_Shadow{fill:none;}
	.Round_x0020_Corners_x0020_2_x0020_pt{fill:#FFFFFF;stroke:#231F20;stroke-miterlimit:10;}
	.Live_x0020_Reflect_x0020_X{fill:none;}
	.Bevel_x0020_Soft{fill:url(#SVGID_1_);}
	.Dusk{fill:#FFFFFF;}
	.Foliage_GS{fill:#FFDD00;}
	.Pompadour_GS{fill-rule:evenodd;clip-rule:evenodd;fill:#44ADE2;}
	.st0{fill:#FFFFFF;}
</style>
<metadata>
	<sfw  xmlns="&ns_sfw;">
		<slices></slices>
		<sliceSourceBounds  bottomLeftOrigin="true" height="365.8" width="720" x="0" y="-542.9"></sliceSourceBounds>
	</sfw>
</metadata>
<linearGradient id="SVGID_1_" gradientUnits="userSpaceOnUse" x1="0" y1="0" x2="0.7071" y2="0.7071">
	<stop  offset="0" style="stop-color:#DEDFE3"/>
	<stop  offset="0.1783" style="stop-color:#DADBDF"/>
	<stop  offset="0.3611" style="stop-color:#CECFD3"/>
	<stop  offset="0.546" style="stop-color:#B9BCBF"/>
	<stop  offset="0.7324" style="stop-color:#9CA0A2"/>
	<stop  offset="0.9181" style="stop-color:#787D7E"/>
	<stop  offset="1" style="stop-color:#656B6C"/>
</linearGradient>
<g id="_x33_2">
	<rect x="278.2" y="352.9" width="163.5" height="90.8"/>
	<g>
		<g>
			<g>
				<g>
					<path d="M344.2,257.7C344.2,257.6,344.2,257.6,344.2,257.7c0.1-0.3,0.2-0.5,0.3-0.7c0,0,0,0,0-0.1c0.1-0.2,0.2-0.4,0.3-0.6
						c0.1-0.2,0.2-0.5,0.3-0.7c0.2-0.5,0.4-0.9,0.6-1.4c0.1-0.3,0.2-0.5,0.3-0.8c0.2-0.5,0.3-1,0.4-1.5c0.1-0.3,0.1-0.5,0.2-0.8
						c0-0.2,0.1-0.4,0.1-0.7c0-0.1,0-0.1,0-0.2c0-0.2,0.1-0.4,0.1-0.6c0-0.1,0-0.1,0-0.2c0-0.2,0.1-0.5,0.1-0.7c0-0.2,0-0.5,0.1-0.7
						c0-0.3,0-0.5,0-0.8c0-0.3,0-0.5,0-0.8s0-0.5,0-0.8c0-0.3,0-0.5,0-0.8c0-0.2,0-0.5-0.1-0.7c0,0,0-0.1,0-0.1c0-0.2,0-0.4-0.1-0.6
						c0-0.1,0-0.2,0-0.3c0-0.2-0.1-0.4-0.1-0.6c0,0,0-0.1,0-0.1c0-0.2-0.1-0.3-0.1-0.5c0-0.2-0.1-0.3-0.1-0.5c0-0.1,0-0.1,0-0.2
						c0-0.2-0.1-0.4-0.2-0.6c0-0.1,0-0.2-0.1-0.3c0-0.1-0.1-0.3-0.1-0.4c0-0.1-0.1-0.3-0.1-0.4c0-0.1-0.1-0.2-0.1-0.3
						c0-0.2-0.1-0.3-0.2-0.4c0-0.1-0.1-0.3-0.2-0.4c-0.1-0.2-0.2-0.5-0.3-0.7c-0.1-0.2-0.1-0.3-0.2-0.5c-0.6-1.3-1.2-2.6-2-3.8
						c-0.2-0.3-0.3-0.5-0.5-0.8c-0.1-0.2-0.3-0.4-0.4-0.7c-0.1-0.2-0.2-0.4-0.4-0.5c-0.3-0.4-0.6-0.9-1-1.3
						c-0.1-0.2-0.3-0.3-0.4-0.5c-0.1-0.1-0.1-0.2-0.2-0.2c-0.2-0.2-0.3-0.4-0.5-0.6c-0.2-0.2-0.4-0.5-0.7-0.7c-0.5-0.5-1-1-1.5-1.6
						c-0.2-0.2-0.4-0.4-0.6-0.6c-0.1-0.1-0.1-0.1-0.2-0.2c-0.2-0.2-0.5-0.4-0.7-0.7c-0.6-0.5-1.1-1.1-1.7-1.6
						c-0.8-0.7-1.6-1.3-2.4-2c-0.9-0.7-1.8-1.4-2.7-2c-0.3-0.2-0.5-0.4-0.8-0.5c-0.4-0.3-0.8-0.6-1.2-0.8c-0.3-0.2-0.6-0.4-0.9-0.6
						c-0.4-0.3-0.8-0.6-1.3-0.8c-0.3-0.2-0.5-0.3-0.8-0.5c-0.3-0.2-0.7-0.4-1-0.6c-0.4-0.2-0.7-0.4-1.1-0.6
						c-1.4-0.8-2.9-1.6-4.4-2.4c-0.1-0.1-0.3-0.3-0.4-0.4c-4.9-4.4-11.5-8.5-19.4-12.4c-4-1.9-8.4-3.8-13.1-5.6
						c-29.3-11-68.4-17-110.1-17s-80.7,6-110.1,17c-4.7,1.7-9.1,3.6-13.1,5.6c-8,3.9-14.5,8-19.4,12.4c-0.2,0.1-0.3,0.3-0.4,0.4
						c-1.5,0.8-3,1.6-4.4,2.4c-0.4,0.2-0.7,0.4-1.1,0.6c-0.4,0.2-0.7,0.4-1,0.6c-0.3,0.2-0.5,0.3-0.8,0.5c-0.4,0.3-0.9,0.5-1.3,0.8
						c-0.3,0.2-0.6,0.4-0.9,0.6c-0.4,0.3-0.8,0.6-1.2,0.8c-0.3,0.2-0.5,0.4-0.8,0.5c-1,0.7-1.9,1.4-2.7,2c-0.8,0.7-1.7,1.3-2.4,2
						c-0.6,0.5-1.2,1-1.7,1.6c-0.2,0.2-0.5,0.4-0.7,0.7c-0.1,0.1-0.1,0.1-0.2,0.2c-0.2,0.2-0.4,0.4-0.6,0.6c-0.5,0.5-1,1-1.5,1.6
						c-0.2,0.2-0.4,0.5-0.7,0.7c-0.2,0.2-0.3,0.4-0.5,0.6c-0.1,0.1-0.1,0.2-0.2,0.2c-0.1,0.2-0.3,0.3-0.4,0.5
						c-0.3,0.4-0.7,0.9-1,1.3c-0.1,0.2-0.3,0.4-0.4,0.5c-0.2,0.2-0.3,0.4-0.4,0.7c-0.2,0.3-0.3,0.5-0.5,0.8c-0.8,1.3-1.5,2.5-2,3.8
						c-0.1,0.2-0.1,0.3-0.2,0.5c-0.1,0.2-0.2,0.5-0.3,0.7c-0.1,0.1-0.1,0.3-0.2,0.4c-0.1,0.2-0.1,0.3-0.2,0.4c0,0.1-0.1,0.2-0.1,0.3
						c0,0.1-0.1,0.3-0.1,0.4c0,0.1-0.1,0.3-0.1,0.4c0,0.1-0.1,0.2-0.1,0.3c-0.1,0.2-0.1,0.4-0.2,0.6c0,0.1,0,0.1,0,0.2
						c0,0.2-0.1,0.3-0.1,0.5c0,0.2-0.1,0.3-0.1,0.5c0,0,0,0.1,0,0.1c0,0.2-0.1,0.4-0.1,0.6c0,0.1,0,0.2,0,0.3c0,0.2-0.1,0.4-0.1,0.6
						c0,0,0,0.1,0,0.1c0,0.2,0,0.5-0.1,0.7c0,0.3,0,0.5,0,0.8c0,0.3,0,0.5,0,0.8s0,0.5,0,0.8c0,0.3,0,0.6,0,0.8c0,0.2,0,0.5,0.1,0.7
						c0,0.2,0.1,0.5,0.1,0.7c0,0.1,0,0.1,0,0.2c0,0.2,0.1,0.4,0.1,0.6c0,0.1,0,0.1,0,0.2c0,0.2,0.1,0.4,0.1,0.7
						c0.1,0.3,0.1,0.5,0.2,0.8c0.1,0.5,0.3,1,0.4,1.5c0.1,0.3,0.2,0.5,0.3,0.8c0.2,0.5,0.4,1,0.6,1.4c0.1,0.2,0.2,0.5,0.3,0.7
						c0.1,0.2,0.2,0.4,0.3,0.6c0,0,0,0,0,0.1c0.1,0.2,0.2,0.4,0.3,0.6c0,0,0,0.1,0,0.1c-3.5,4.8-5.4,9.9-5.4,15.1
						c0,6.2,2.6,12.1,7.5,17.7c10.4,11.9,18,25.9,21.8,41.3c1.1,4.6,2.3,9.6,3.5,14.9c0,0,0,0,0,0c0.9,3.9,1.8,7.9,2.7,12.1v0
						c2.5,11.7,4.9,24.5,7.1,38c0.2,1.3,0.4,2.7,0.6,4c1.4,9.2,2.7,18.7,3.7,28.3c0.9,8.4,1.7,16.9,2.2,25.5
						c0.1,1.4,0.2,2.9,0.2,4.3c0.1,1.5,0.2,3.1,0.2,4.6c0.3,7.5,3.4,14.6,8.8,19.8c0,0,0.1,0.1,0.1,0.1c1.4,1.4,3,2.7,4.6,4.1
						c1.6,1.3,3.2,2.6,4.9,3.8c1.1,0.8,2.3,1.6,3.4,2.4c8.6,5.7,18.8,10.6,30.3,14.6c20.9,7.4,46,11.6,72.9,11.6s52-4.3,72.9-11.6
						c11.4-4,21.7-8.9,30.3-14.6c1.2-0.8,2.3-1.6,3.4-2.4c1.7-1.2,3.4-2.5,4.9-3.8c1.6-1.3,3.1-2.7,4.6-4.1c0,0,0.1-0.1,0.1-0.1
						c5.4-5.2,8.5-12.3,8.8-19.8c0.1-1.5,0.1-3.1,0.2-4.6c0.1-1.4,0.2-2.9,0.2-4.3c0.5-8.6,1.3-17.1,2.2-25.5
						c1.1-9.6,2.3-19.1,3.7-28.3c0.2-1.3,0.4-2.7,0.6-4c2.2-13.5,4.6-26.3,7.1-38v0c0.9-4.2,1.8-8.2,2.7-12.1v0
						c1.2-5.3,2.4-10.2,3.5-14.9c3.8-15.3,11.5-29.4,21.8-41.3c4.9-5.6,7.5-11.5,7.5-17.7C349.6,267.5,347.7,262.5,344.2,257.7z
						 M27.9,222c1.6-2.4,3.8-4.9,6.6-7.3c1.4-1.2,2.9-2.5,4.6-3.7c2.9-2.1,6.3-4.2,10.1-6.2c1.3-0.7,2.6-1.4,4-2
						c3.9-1.9,8.2-3.7,12.8-5.4c29-10.8,67.6-16.8,108.9-16.8s79.9,6,108.9,16.8c4.6,1.7,8.9,3.5,12.8,5.4c1.4,0.7,2.7,1.3,4,2
						c3.8,2,7.1,4.1,10.1,6.2c1.7,1.2,3.2,2.4,4.6,3.7c2.8,2.5,5,4.9,6.6,7.3c2.1,3.2,3.2,6.4,3.2,9.6c0,3.3-1.2,6.7-3.5,10
						l-0.1,0.2c-1.5,2.2-3.6,4.5-6.1,6.7c-7.1,6.3-18,12.3-31.4,17.3c-29,10.8-67.6,16.8-108.9,16.8s-79.9-6-108.9-16.8
						c-13.4-5-24.3-11-31.4-17.3c-2.5-2.2-4.5-4.4-6-6.6l-0.2-0.3c-2.3-3.4-3.5-6.7-3.5-10C24.8,228.4,25.8,225.2,27.9,222z
						 M34.5,281.7c0.2,0.1,0.4,0.2,0.6,0.3c-0.1-0.1-0.2-0.1-0.3-0.2C34.6,281.8,34.5,281.8,34.5,281.7z M275.7,295.8
						c-0.1,0-0.2,0-0.3,0.1c0.1,0,0.3-0.1,0.4-0.1C275.7,295.7,275.7,295.8,275.7,295.8z M73.8,295.7c0.1,0,0.3,0.1,0.4,0.1
						c-0.1,0-0.2,0-0.3-0.1C73.9,295.8,73.8,295.7,73.8,295.7z M33.6,281.3c0.1,0,0.2,0.1,0.2,0.1C33.8,281.4,33.8,281.4,33.6,281.3
						C33.7,281.4,33.7,281.3,33.6,281.3z M336.6,257.8C336.6,257.8,336.6,257.8,336.6,257.8c-1.8,2.5-4.2,5-7.1,7.5
						c-8,6.7-20.1,13-35,18.2c-29.9,10.6-69.2,16.7-111.4,17.4c-1.4,0-2.7,0-4.1,0.1c-1.4,0-2.8,0-4.2,0c-1.4,0-2.8,0-4.2,0
						c-1.4,0-2.7,0-4.1-0.1c-42.2-0.7-81.5-6.8-111.4-17.4c-14.9-5.3-27-11.6-35-18.2c-3-2.5-5.4-5-7.1-7.5c0,0,0,0,0,0
						c-2.7-3.8-4.1-7.6-4.1-11.4c0-0.5,0-1,0.1-1.5c0.6-5.7,4.3-11.6,11.2-17.3c0.7-0.6,1.4-1.2,2.2-1.7c-0.6,1.9-0.9,3.8-0.9,5.7
						c0,3.8,1.3,7.7,3.8,11.5l0.3,0.4c1.7,2.5,4,5.1,6.8,7.5c7.5,6.6,18.7,12.8,32.5,18c29.3,11,68.4,17,110.1,17s80.7-6,110.1-17
						c13.8-5.2,25.1-11.4,32.5-18c2.8-2.5,5.1-5,6.8-7.5l0.3-0.4v0c2.5-3.8,3.8-7.7,3.8-11.5c0-1.9-0.3-3.8-0.9-5.7
						c0.8,0.6,1.5,1.2,2.2,1.7c6.9,5.7,10.6,11.5,11.2,17.3c0.1,0.5,0.1,1,0.1,1.5C340.8,250.2,339.4,254,336.6,257.8z"/>
					<g>
						<path d="M285.2,522.5v11.6c0,4.9-3.9,8.8-8.8,8.8c-2.4,0-4.6-1-6.2-2.6c-1.6-1.6-2.6-3.8-2.6-6.2v-11.4
							C270.7,524.5,277.3,527.3,285.2,522.5z"/>
						<path d="M289.1,495.1v18.2c0,1.7-0.9,3.2-2.3,4.1c-0.1,0-0.1,0.1-0.2,0.1l-1.3,0.7c-8,5-14.6,2.2-17.6,0.3v0l-0.1-0.1
							c0,0,0,0,0,0l-1.6-0.8l-22-11.4l34.3-26.3l6.8,6.1C287.6,488.4,289.1,491.7,289.1,495.1z"/>
						<path class="st0" d="M285.2,518.3v4.2c-8,4.9-14.6,2.1-17.6,0.2v-4.1C270.6,520.5,277.2,523.3,285.2,518.3z"/>
					</g>
					<g>
						<path d="M64.4,522.5v11.6c0,4.9,3.9,8.8,8.8,8.8c2.4,0,4.6-1,6.2-2.6c1.6-1.6,2.6-3.8,2.6-6.2v-11.4
							C78.9,524.5,72.3,527.3,64.4,522.5z"/>
						<path d="M60.5,495.1v18.2c0,1.7,0.9,3.2,2.3,4.1c0.1,0,0.1,0.1,0.2,0.1l1.4,0.7c8,5,14.6,2.2,17.6,0.3v0l0.1-0.1c0,0,0,0,0,0
							l1.6-0.8l22-11.4l-34.3-26.3l-6.8,6.1C62,488.4,60.5,491.7,60.5,495.1z"/>
						<path class="st0" d="M64.4,518.3v4.2c8,4.9,14.6,2.1,17.6,0.2v-4.1C78.9,520.5,72.4,523.3,64.4,518.3z"/>
					</g>
				</g>
				<g>
					<g>
						<g>
							<path class="st0" d="M278.5,493.6c-1.6,0-2.9-1.3-2.9-2.9v-55.2c0-6.7,1.5-13.4,4.4-19.4l30.2-63c1.1-2.4,1.2-5,0.2-7.5
								c-1-2.4-2.9-4.3-5.4-5.2l-12.4-4.5c-1.5-0.6-2.3-2.2-1.8-3.7c0.6-1.5,2.2-2.3,3.7-1.8L307,335c4,1.4,7.2,4.5,8.8,8.5
								c1.6,3.9,1.5,8.4-0.4,12.2l-30.2,63c-2.5,5.2-3.8,11-3.8,16.8v55.2C281.5,492.3,280.1,493.6,278.5,493.6z"/>
						</g>
						<g>
							<path class="st0" d="M71.1,493.6c-1.6,0-2.9-1.3-2.9-2.9v-55.2c0-5.8-1.3-11.6-3.8-16.8l-30.2-63c-1.8-3.8-2-8.3-0.4-12.2
								c1.6-3.9,4.8-7,8.8-8.5l12.4-4.5c1.5-0.6,3.2,0.2,3.7,1.8c0.6,1.5-0.2,3.2-1.8,3.7l-12.4,4.5c-2.5,0.9-4.4,2.7-5.4,5.2
								c-1,2.4-0.9,5.1,0.2,7.5l30.2,63c2.9,6,4.4,12.7,4.4,19.4v55.2C74,492.3,72.7,493.6,71.1,493.6z"/>
						</g>
					</g>
					<path class="st0" d="M49.2,454.5c0.1,1.4,0.2,2.9,0.2,4.3c6.6,6.1,14.9,11.8,24.9,16.8c26.8,13.5,62.5,21,100.4,21
						c37.9,0,73.6-7.4,100.4-21c10-5,18.3-10.7,24.9-16.8c0.1-1.4,0.2-2.9,0.2-4.3c-22.7,23.2-70.4,39.2-125.5,39.2
						S71.9,477.7,49.2,454.5z"/>
				</g>
			</g>
			<path class="st0" d="M324.8,231.6c0,3.3-1.2,6.7-3.5,10l-0.1,0.2c-1.5,2.2-3.6,4.5-6.1,6.7c-7.1,6.3-18,12.3-31.4,17.3
				c-29,10.8-67.6,16.8-108.9,16.8s-79.9-6-108.9-16.8c-13.4-5-24.3-11-31.4-17.3c-2.5-2.2-4.5-4.4-6-6.6l-0.2-0.3
				c-2.3-3.4-3.5-6.7-3.5-10c0-3.1,1.1-6.4,3.2-9.6c1.6-2.4,3.8-4.9,6.6-7.3c1.4-1.2,2.9-2.5,4.6-3.7c2.9-2.1,6.3-4.2,10.1-6.2
				c1.3-0.7,2.6-1.4,4-2c3.9-1.9,8.2-3.7,12.8-5.4c29-10.8,67.6-16.8,108.9-16.8s79.9,6,108.9,16.8c4.6,1.7,8.9,3.5,12.8,5.4
				c1.4,0.7,2.7,1.3,4,2c3.8,2,7.1,4.1,10.1,6.2c1.7,1.2,3.2,2.4,4.6,3.7c2.8,2.5,5,4.9,6.6,7.3
				C323.8,225.2,324.8,228.4,324.8,231.6z"/>
			<path class="st0" d="M340.8,246.4c0,3.8-1.4,7.6-4.1,11.4c0,0,0,0,0,0c-1.8,2.5-4.2,5-7.1,7.5c-8,6.7-20.1,13-35,18.2
				c-29.9,10.6-69.2,16.7-111.4,17.4c-1.4,0-2.7,0-4.1,0.1c-1.4,0-2.8,0-4.2,0c-1.4,0-2.8,0-4.2,0c-1.4,0-2.7,0-4.1-0.1
				c-42.2-0.7-81.5-6.8-111.4-17.4c-14.9-5.3-27-11.6-35-18.2c-3-2.5-5.4-5-7.1-7.5c0,0,0,0,0,0c-2.7-3.8-4.1-7.6-4.1-11.4
				c0-0.5,0-1,0.1-1.5c0.6-5.7,4.3-11.6,11.2-17.3c0.7-0.6,1.4-1.2,2.2-1.7c-0.6,1.9-0.9,3.8-0.9,5.7c0,3.8,1.3,7.7,3.8,11.5
				l0.3,0.4c1.7,2.5,4,5.1,6.8,7.5c7.5,6.6,18.7,12.8,32.5,18c29.3,11,68.4,17,110.1,17s80.7-6,110.1-17c13.8-5.2,25.1-11.4,32.5-18
				c2.8-2.5,5.1-5,6.8-7.5l0.3-0.4v0c2.5-3.8,3.8-7.7,3.8-11.5c0-1.9-0.3-3.8-0.9-5.7c0.8,0.6,1.5,1.2,2.2,1.7
				c6.9,5.7,10.6,11.5,11.2,17.3C340.7,245.4,340.8,245.9,340.8,246.4z"/>
		</g>
		<g>
			<g>
				<g>
					<path d="M714.6,257.7C714.6,257.6,714.6,257.6,714.6,257.7c0.1-0.3,0.2-0.5,0.3-0.7c0,0,0,0,0-0.1c0.1-0.2,0.2-0.4,0.3-0.6
						c0.1-0.2,0.2-0.5,0.3-0.7c0.2-0.5,0.4-0.9,0.6-1.4c0.1-0.3,0.2-0.5,0.3-0.8c0.2-0.5,0.3-1,0.4-1.5c0.1-0.3,0.1-0.5,0.2-0.8
						c0-0.2,0.1-0.4,0.1-0.7c0-0.1,0-0.1,0-0.2c0-0.2,0.1-0.4,0.1-0.6c0-0.1,0-0.1,0-0.2c0-0.2,0.1-0.5,0.1-0.7c0-0.2,0-0.5,0.1-0.7
						c0-0.3,0-0.5,0-0.8c0-0.3,0-0.5,0-0.8s0-0.5,0-0.8c0-0.3,0-0.5,0-0.8c0-0.2,0-0.5-0.1-0.7c0,0,0-0.1,0-0.1c0-0.2,0-0.4-0.1-0.6
						c0-0.1,0-0.2,0-0.3c0-0.2-0.1-0.4-0.1-0.6c0,0,0-0.1,0-0.1c0-0.2-0.1-0.3-0.1-0.5c0-0.2-0.1-0.3-0.1-0.5c0-0.1,0-0.1,0-0.2
						c0-0.2-0.1-0.4-0.2-0.6c0-0.1,0-0.2-0.1-0.3c0-0.1-0.1-0.3-0.1-0.4c0-0.1-0.1-0.3-0.1-0.4c0-0.1-0.1-0.2-0.1-0.3
						c0-0.2-0.1-0.3-0.2-0.4c0-0.1-0.1-0.3-0.2-0.4c-0.1-0.2-0.2-0.5-0.3-0.7c-0.1-0.2-0.1-0.3-0.2-0.5c-0.6-1.3-1.2-2.6-2-3.8
						c-0.2-0.3-0.3-0.5-0.5-0.8c-0.1-0.2-0.3-0.4-0.4-0.7c-0.1-0.2-0.2-0.4-0.4-0.5c-0.3-0.4-0.6-0.9-1-1.3
						c-0.1-0.2-0.3-0.3-0.4-0.5c-0.1-0.1-0.1-0.2-0.2-0.2c-0.2-0.2-0.3-0.4-0.5-0.6c-0.2-0.2-0.4-0.5-0.7-0.7c-0.5-0.5-1-1-1.5-1.6
						c-0.2-0.2-0.4-0.4-0.6-0.6c-0.1-0.1-0.1-0.1-0.2-0.2c-0.2-0.2-0.5-0.4-0.7-0.7c-0.6-0.5-1.1-1.1-1.7-1.6
						c-0.8-0.7-1.6-1.3-2.4-2c-0.9-0.7-1.8-1.4-2.7-2c-0.3-0.2-0.5-0.4-0.8-0.5c-0.4-0.3-0.8-0.6-1.2-0.8c-0.3-0.2-0.6-0.4-0.9-0.6
						c-0.4-0.3-0.8-0.6-1.3-0.8c-0.3-0.2-0.5-0.3-0.8-0.5c-0.3-0.2-0.7-0.4-1-0.6c-0.4-0.2-0.7-0.4-1.1-0.6
						c-1.4-0.8-2.9-1.6-4.4-2.4c-0.1-0.1-0.3-0.3-0.4-0.4c-4.9-4.4-11.5-8.5-19.4-12.4c-4-1.9-8.4-3.8-13.1-5.6
						c-29.3-11-68.4-17-110.1-17c-41.6,0-80.7,6-110.1,17c-4.7,1.7-9.1,3.6-13.1,5.6c-8,3.9-14.5,8-19.4,12.4
						c-0.2,0.1-0.3,0.3-0.4,0.4c-1.5,0.8-3,1.6-4.4,2.4c-0.4,0.2-0.7,0.4-1.1,0.6c-0.4,0.2-0.7,0.4-1,0.6c-0.3,0.2-0.5,0.3-0.8,0.5
						c-0.4,0.3-0.9,0.5-1.3,0.8c-0.3,0.2-0.6,0.4-0.9,0.6c-0.4,0.3-0.8,0.6-1.2,0.8c-0.3,0.2-0.5,0.4-0.8,0.5c-1,0.7-1.9,1.4-2.7,2
						c-0.8,0.7-1.7,1.3-2.4,2c-0.6,0.5-1.2,1-1.7,1.6c-0.2,0.2-0.5,0.4-0.7,0.7c-0.1,0.1-0.1,0.1-0.2,0.2c-0.2,0.2-0.4,0.4-0.6,0.6
						c-0.5,0.5-1,1-1.5,1.6c-0.2,0.2-0.4,0.5-0.7,0.7c-0.2,0.2-0.3,0.4-0.5,0.6c-0.1,0.1-0.1,0.2-0.2,0.2c-0.1,0.2-0.3,0.3-0.4,0.5
						c-0.3,0.4-0.7,0.9-1,1.3c-0.1,0.2-0.3,0.4-0.4,0.5c-0.2,0.2-0.3,0.4-0.4,0.7c-0.2,0.3-0.3,0.5-0.5,0.8c-0.8,1.3-1.5,2.5-2,3.8
						c-0.1,0.2-0.1,0.3-0.2,0.5c-0.1,0.2-0.2,0.5-0.3,0.7c-0.1,0.1-0.1,0.3-0.2,0.4c-0.1,0.2-0.1,0.3-0.2,0.4c0,0.1-0.1,0.2-0.1,0.3
						c0,0.1-0.1,0.3-0.1,0.4c0,0.1-0.1,0.3-0.1,0.4c0,0.1-0.1,0.2-0.1,0.3c-0.1,0.2-0.1,0.4-0.2,0.6c0,0.1,0,0.1,0,0.2
						c0,0.2-0.1,0.3-0.1,0.5c0,0.2-0.1,0.3-0.1,0.5c0,0,0,0.1,0,0.1c0,0.2-0.1,0.4-0.1,0.6c0,0.1,0,0.2,0,0.3c0,0.2-0.1,0.4-0.1,0.6
						c0,0,0,0.1,0,0.1c0,0.2,0,0.5-0.1,0.7c0,0.3,0,0.5,0,0.8c0,0.3,0,0.5,0,0.8s0,0.5,0,0.8c0,0.3,0,0.6,0,0.8c0,0.2,0,0.5,0.1,0.7
						c0,0.2,0.1,0.5,0.1,0.7c0,0.1,0,0.1,0,0.2c0,0.2,0.1,0.4,0.1,0.6c0,0.1,0,0.1,0,0.2c0,0.2,0.1,0.4,0.1,0.7
						c0.1,0.3,0.1,0.5,0.2,0.8c0.1,0.5,0.3,1,0.4,1.5c0.1,0.3,0.2,0.5,0.3,0.8c0.2,0.5,0.4,1,0.6,1.4c0.1,0.2,0.2,0.5,0.3,0.7
						c0.1,0.2,0.2,0.4,0.3,0.6c0,0,0,0,0,0.1c0.1,0.2,0.2,0.4,0.3,0.6c0,0,0,0.1,0,0.1c-3.5,4.8-5.4,9.9-5.4,15.1
						c0,6.2,2.6,12.1,7.5,17.7c10.4,11.9,18,25.9,21.8,41.3c1.1,4.6,2.3,9.6,3.5,14.9c0,0,0,0,0,0c0.9,3.9,1.8,7.9,2.7,12.1v0
						c2.5,11.7,4.9,24.5,7.1,38c0.2,1.3,0.4,2.7,0.6,4c1.4,9.2,2.7,18.7,3.7,28.3c0.9,8.4,1.7,16.9,2.2,25.5
						c0.1,1.4,0.2,2.9,0.2,4.3c0.1,1.5,0.2,3.1,0.2,4.6c0.3,7.5,3.4,14.6,8.8,19.8c0,0,0.1,0.1,0.1,0.1c1.4,1.4,3,2.7,4.6,4.1
						c1.6,1.3,3.2,2.6,4.9,3.8c1.1,0.8,2.3,1.6,3.4,2.4c8.6,5.7,18.8,10.6,30.3,14.6c20.9,7.4,46,11.6,72.9,11.6
						c26.9,0,52-4.3,72.9-11.6c11.4-4,21.7-8.9,30.3-14.6c1.2-0.8,2.3-1.6,3.4-2.4c1.7-1.2,3.4-2.5,4.9-3.8c1.6-1.3,3.1-2.7,4.6-4.1
						c0,0,0.1-0.1,0.1-0.1c5.4-5.2,8.5-12.3,8.8-19.8c0.1-1.5,0.1-3.1,0.2-4.6c0.1-1.4,0.2-2.9,0.2-4.3c0.5-8.6,1.3-17.1,2.2-25.5
						c1.1-9.6,2.3-19.1,3.7-28.3c0.2-1.3,0.4-2.7,0.6-4c2.2-13.5,4.6-26.3,7.1-38v0c0.9-4.2,1.8-8.2,2.7-12.1v0
						c1.2-5.3,2.4-10.2,3.5-14.9c3.8-15.3,11.5-29.4,21.8-41.3c4.9-5.6,7.5-11.5,7.5-17.7C720,267.5,718.1,262.5,714.6,257.7z
						 M398.4,222c1.6-2.4,3.8-4.9,6.6-7.3c1.4-1.2,2.9-2.5,4.6-3.7c2.9-2.1,6.3-4.2,10.1-6.2c1.3-0.7,2.6-1.4,4-2
						c3.9-1.9,8.2-3.7,12.8-5.4c29-10.8,67.6-16.8,108.9-16.8c41.2,0,79.9,6,108.9,16.8c4.6,1.7,8.9,3.5,12.8,5.4
						c1.4,0.7,2.7,1.3,4,2c3.8,2,7.1,4.1,10.1,6.2c1.7,1.2,3.2,2.4,4.6,3.7c2.8,2.5,5,4.9,6.6,7.3c2.1,3.2,3.2,6.4,3.2,9.6
						c0,3.3-1.2,6.7-3.5,10l-0.1,0.2c-1.5,2.2-3.6,4.5-6.1,6.7c-7.1,6.3-18,12.3-31.4,17.3c-29,10.8-67.6,16.8-108.9,16.8
						c-41.2,0-79.9-6-108.9-16.8c-13.4-5-24.3-11-31.4-17.3c-2.5-2.2-4.5-4.4-6-6.6l-0.2-0.3c-2.3-3.4-3.5-6.7-3.5-10
						C395.2,228.4,396.2,225.2,398.4,222z M404.9,281.7c0.2,0.1,0.4,0.2,0.6,0.3c-0.1-0.1-0.2-0.1-0.3-0.2
						C405,281.8,405,281.8,404.9,281.7z M646.1,295.8c-0.1,0-0.2,0-0.3,0.1c0.1,0,0.3-0.1,0.4-0.1
						C646.2,295.7,646.1,295.8,646.1,295.8z M444.2,295.7c0.1,0,0.3,0.1,0.4,0.1c-0.1,0-0.2,0-0.3-0.1
						C444.3,295.8,444.3,295.7,444.2,295.7z M404.1,281.3c0.1,0,0.2,0.1,0.2,0.1C404.3,281.4,404.2,281.4,404.1,281.3
						C404.1,281.4,404.1,281.3,404.1,281.3z M707.1,257.8C707.1,257.8,707.1,257.8,707.1,257.8c-1.8,2.5-4.2,5-7.1,7.5
						c-8,6.7-20.1,13-35,18.2c-29.9,10.6-69.2,16.7-111.4,17.4c-1.4,0-2.7,0-4.1,0.1c-1.4,0-2.8,0-4.2,0c-1.4,0-2.8,0-4.2,0
						c-1.4,0-2.7,0-4.1-0.1c-42.2-0.7-81.5-6.8-111.4-17.4c-14.9-5.3-27-11.6-35-18.2c-3-2.5-5.4-5-7.1-7.5c0,0,0,0,0,0
						c-2.7-3.8-4.1-7.6-4.1-11.4c0-0.5,0-1,0.1-1.5c0.6-5.7,4.3-11.6,11.2-17.3c0.7-0.6,1.4-1.2,2.2-1.7c-0.6,1.9-0.9,3.8-0.9,5.7
						c0,3.8,1.3,7.7,3.8,11.5l0.3,0.4c1.7,2.5,4,5.1,6.8,7.5c7.5,6.6,18.7,12.8,32.5,18c29.3,11,68.4,17,110.1,17
						c41.6,0,80.7-6,110.1-17c13.8-5.2,25.1-11.4,32.5-18c2.8-2.5,5.1-5,6.8-7.5l0.3-0.4v0c2.5-3.8,3.8-7.7,3.8-11.5
						c0-1.9-0.3-3.8-0.9-5.7c0.8,0.6,1.5,1.2,2.2,1.7c6.9,5.7,10.6,11.5,11.2,17.3c0.1,0.5,0.1,1,0.1,1.5
						C711.2,250.2,709.8,254,707.1,257.8z"/>
					<g>
						<path d="M655.6,522.5v11.6c0,4.9-3.9,8.8-8.8,8.8c-2.4,0-4.6-1-6.2-2.6c-1.6-1.6-2.6-3.8-2.6-6.2v-11.4
							C641.1,524.5,647.7,527.3,655.6,522.5z"/>
						<path d="M659.5,495.1v18.2c0,1.7-0.9,3.2-2.3,4.1c-0.1,0-0.1,0.1-0.2,0.1l-1.4,0.7c-8,5-14.6,2.2-17.6,0.3v0l-0.1-0.1
							c0,0,0,0,0,0l-1.6-0.8l-22-11.4l34.3-26.3l6.8,6.1C658.1,488.4,659.5,491.7,659.5,495.1z"/>
						<path class="st0" d="M655.6,518.3v4.2c-8,4.9-14.6,2.1-17.6,0.2v-4.1C641.1,520.5,647.7,523.3,655.6,518.3z"/>
					</g>
					<g>
						<path d="M434.8,522.5v11.6c0,4.9,3.9,8.8,8.8,8.8c2.4,0,4.6-1,6.2-2.6c1.6-1.6,2.6-3.8,2.6-6.2v-11.4
							C449.3,524.5,442.7,527.3,434.8,522.5z"/>
						<path d="M430.9,495.1v18.2c0,1.7,0.9,3.2,2.3,4.1c0.1,0,0.1,0.1,0.2,0.1l1.4,0.7c8,5,14.6,2.2,17.6,0.3v0l0.1-0.1c0,0,0,0,0,0
							l1.6-0.8l22-11.4l-34.3-26.3l-6.8,6.1C432.4,488.4,430.9,491.7,430.9,495.1z"/>
						<path class="st0" d="M434.8,518.3v4.2c8,4.9,14.6,2.1,17.6,0.2v-4.1C449.4,520.5,442.8,523.3,434.8,518.3z"/>
					</g>
				</g>
				<g>
					<g>
						<g>
							<path class="st0" d="M648.9,493.6c-1.6,0-2.9-1.3-2.9-2.9v-55.2c0-6.7,1.5-13.4,4.4-19.4l30.2-63c1.1-2.4,1.2-5,0.2-7.5
								c-1-2.4-2.9-4.3-5.4-5.2L663,336c-1.5-0.6-2.3-2.2-1.8-3.7c0.6-1.5,2.2-2.3,3.7-1.8l12.4,4.5c4,1.4,7.2,4.5,8.8,8.5
								c1.6,3.9,1.5,8.4-0.4,12.2l-30.2,63c-2.5,5.2-3.8,11-3.8,16.8v55.2C651.9,492.3,650.6,493.6,648.9,493.6z"/>
						</g>
						<g>
							<path class="st0" d="M441.5,493.6c-1.6,0-2.9-1.3-2.9-2.9v-55.2c0-5.8-1.3-11.6-3.8-16.8l-30.2-63c-1.8-3.8-2-8.3-0.4-12.2
								c1.6-3.9,4.8-7,8.8-8.5l12.4-4.5c1.5-0.6,3.2,0.2,3.7,1.8c0.6,1.5-0.2,3.2-1.8,3.7l-12.4,4.5c-2.5,0.9-4.4,2.7-5.4,5.2
								c-1,2.4-0.9,5.1,0.2,7.5l30.2,63c2.9,6,4.4,12.7,4.4,19.4v55.2C444.4,492.3,443.1,493.6,441.5,493.6z"/>
						</g>
					</g>
					<path class="st0" d="M419.7,454.5c0.1,1.4,0.2,2.9,0.2,4.3c6.6,6.1,14.9,11.8,24.9,16.8c26.8,13.5,62.5,21,100.4,21
						c37.9,0,73.6-7.4,100.4-21c10-5,18.3-10.7,24.9-16.8c0.1-1.4,0.2-2.9,0.2-4.3c-22.7,23.2-70.4,39.2-125.5,39.2
						S442.4,477.7,419.7,454.5z"/>
				</g>
			</g>
			<path class="st0" d="M695.2,231.6c0,3.3-1.2,6.7-3.5,10l-0.1,0.2c-1.5,2.2-3.6,4.5-6.1,6.7c-7.1,6.3-18,12.3-31.4,17.3
				c-29,10.8-67.6,16.8-108.9,16.8c-41.2,0-79.9-6-108.9-16.8c-13.4-5-24.3-11-31.4-17.3c-2.5-2.2-4.5-4.4-6-6.6l-0.2-0.3
				c-2.3-3.4-3.5-6.7-3.5-10c0-3.1,1.1-6.4,3.2-9.6c1.6-2.4,3.8-4.9,6.6-7.3c1.4-1.2,2.9-2.5,4.6-3.7c2.9-2.1,6.3-4.2,10.1-6.2
				c1.3-0.7,2.6-1.4,4-2c3.9-1.9,8.2-3.7,12.8-5.4c29-10.8,67.6-16.8,108.9-16.8c41.2,0,79.9,6,108.9,16.8c4.6,1.7,8.9,3.5,12.8,5.4
				c1.4,0.7,2.7,1.3,4,2c3.8,2,7.1,4.1,10.1,6.2c1.7,1.2,3.2,2.4,4.6,3.7c2.8,2.5,5,4.9,6.6,7.3
				C694.2,225.2,695.2,228.4,695.2,231.6z"/>
			<path class="st0" d="M711.2,246.4c0,3.8-1.4,7.6-4.1,11.4c0,0,0,0,0,0c-1.8,2.5-4.2,5-7.1,7.5c-8,6.7-20.1,13-35,18.2
				c-29.9,10.6-69.2,16.7-111.4,17.4c-1.4,0-2.7,0-4.1,0.1c-1.4,0-2.8,0-4.2,0c-1.4,0-2.8,0-4.2,0c-1.4,0-2.7,0-4.1-0.1
				c-42.2-0.7-81.5-6.8-111.4-17.4c-14.9-5.3-27-11.6-35-18.2c-3-2.5-5.4-5-7.1-7.5c0,0,0,0,0,0c-2.7-3.8-4.1-7.6-4.1-11.4
				c0-0.5,0-1,0.1-1.5c0.6-5.7,4.3-11.6,11.2-17.3c0.7-0.6,1.4-1.2,2.2-1.7c-0.6,1.9-0.9,3.8-0.9,5.7c0,3.8,1.3,7.7,3.8,11.5
				l0.3,0.4c1.7,2.5,4,5.1,6.8,7.5c7.5,6.6,18.7,12.8,32.5,18c29.3,11,68.4,17,110.1,17c41.6,0,80.7-6,110.1-17
				c13.8-5.2,25.1-11.4,32.5-18c2.8-2.5,5.1-5,6.8-7.5l0.3-0.4v0c2.5-3.8,3.8-7.7,3.8-11.5c0-1.9-0.3-3.8-0.9-5.7
				c0.8,0.6,1.5,1.2,2.2,1.7c6.9,5.7,10.6,11.5,11.2,17.3C711.1,245.4,711.2,245.9,711.2,246.4z"/>
		</g>
	</g>
</g>
</svg>
