<?xml version="1.0" encoding="utf-8"?>
<!-- Generator: Adobe Illustrator 23.0.2, SVG Export Plug-In . SVG Version: 6.00 Build 0)  -->
<!DOCTYPE svg PUBLIC "-//W3C//DTD SVG 1.1//EN" "http://www.w3.org/Graphics/SVG/1.1/DTD/svg11.dtd" [
	<!ENTITY ns_extend "http://ns.adobe.com/Extensibility/1.0/">
	<!ENTITY ns_ai "http://ns.adobe.com/AdobeIllustrator/10.0/">
	<!ENTITY ns_graphs "http://ns.adobe.com/Graphs/1.0/">
	<!ENTITY ns_vars "http://ns.adobe.com/Variables/1.0/">
	<!ENTITY ns_imrep "http://ns.adobe.com/ImageReplacement/1.0/">
	<!ENTITY ns_sfw "http://ns.adobe.com/SaveForWeb/1.0/">
	<!ENTITY ns_custom "http://ns.adobe.com/GenericCustomNamespace/1.0/">
	<!ENTITY ns_adobe_xpath "http://ns.adobe.com/XPath/1.0/">
]>
<svg version="1.1" id="Layer_1" xmlns:x="&ns_extend;" xmlns:i="&ns_ai;" xmlns:graph="&ns_graphs;"
	 xmlns="http://www.w3.org/2000/svg" xmlns:xlink="http://www.w3.org/1999/xlink" x="0px" y="0px" viewBox="0 0 720 720"
	 style="enable-background:new 0 0 720 720;" xml:space="preserve">
<style type="text/css">
	.Drop_x0020_Shadow{fill:none;}
	.Round_x0020_Corners_x0020_2_x0020_pt{fill:#FFFFFF;stroke:#231F20;stroke-miterlimit:10;}
	.Live_x0020_Reflect_x0020_X{fill:none;}
	.Bevel_x0020_Soft{fill:url(#SVGID_1_);}
	.Dusk{fill:#FFFFFF;}
	.Foliage_GS{fill:#FFDD00;}
	.Pompadour_GS{fill-rule:evenodd;clip-rule:evenodd;fill:#44ADE2;}
	.st0{fill-rule:evenodd;clip-rule:evenodd;}
</style>
<metadata>
	<sfw  xmlns="&ns_sfw;">
		<slices></slices>
		<sliceSourceBounds  bottomLeftOrigin="true" height="720" width="246.7" x="236.7" y="-720"></sliceSourceBounds>
	</sfw>
</metadata>
<linearGradient id="SVGID_1_" gradientUnits="userSpaceOnUse" x1="0" y1="0" x2="0.7071" y2="0.7071">
	<stop  offset="0" style="stop-color:#DEDFE3"/>
	<stop  offset="0.1783" style="stop-color:#DADBDF"/>
	<stop  offset="0.3611" style="stop-color:#CECFD3"/>
	<stop  offset="0.546" style="stop-color:#B9BCBF"/>
	<stop  offset="0.7324" style="stop-color:#9CA0A2"/>
	<stop  offset="0.9181" style="stop-color:#787D7E"/>
	<stop  offset="1" style="stop-color:#656B6C"/>
</linearGradient>
<path class="st0" d="M404.9,428.1c9.2-0.7,19.5-7,24.9-20.9c2.5-7.6,2.8-16.2,3.9-23.1c0.9-5.4,2.8-12.9,9.2-14
	c4.8-0.7,10.9,2.8,17.2,11.8c16.6,25.2,5.5,64.6-9.6,106c-10.9,32.3,4.5,54.6,15.7,83.3c9.9,24.9,17.6,48.7,17.2,70.4
	c-0.6,25.6-10.6,47.3-36.2,61.1c-45.1,20-117.3,23.7-164.5,5.7c-36.7-14-48.7-40.3-45.4-74.5c4-42.3,54.9-102.9,32-139.9
	c-12.7-28.8-12.4-51.5-4.7-70.8c6.4-13.4,20.7-13.8,24.9,5.5c8.3,29.6,37.8,40.1,53,17.9c7.6-38.2,11.4-249.5-4.5-339.7
	c-3.9-3.4-9.6-4.8-9.9-10.8l7.6-51.2c-4.8-2.8-8.7-6-11.8-9.7c-7.9-10-7.3-26.1,4.4-32.7c9.3-5.4,23.1-2,28.1,10.2
	c0.9,2.3,1.7,4.5,2.6,6.8h2.9c-0.3-4.4,3.4-7.5,7.3-4.2c1.9,1.6,2.9,5.7,2.5,7.8c-0.1,4.1-7.3,4.7-8.8,0.6h-2.3
	c1.5,4,2.9,8,4.4,12.1h2.4c-0.2-3.5,3.5-8,7-4.5c2.2,1.3,3.1,6.5,2.8,8.3c-0.5,3.8-7.6,3.5-8.8,0.4h-1.8c1.4,4,2.8,8,4.1,12.1h2.6
	c-0.4-5.7,6.7-7.4,8.7-2c0.6,1.5,1.2,4.2,1,5.8c-0.5,3.8-7.6,3.6-8.8,0.4h-2.1c1.2,3.8,2.5,7.5,3.7,11.3h2.7c-0.4-4.8,5.9-7.9,8.8-2
	c0.6,1.5,1.2,4.2,0.9,5.8c-0.5,3.9-7.4,3.5-8.7,0.4h-2.3c1.2,3.9,2.4,7.8,3.7,11.8h2.5c0-0.3-0.1-0.7-0.1-1v0v0v0v0v0v0v0v0v0v0v0
	c0.6-5.2,6.5-5.7,8.9-1c0.6,1.5,1.2,4.4,0.9,6c-0.5,3.8-7.6,3.4-8.8,0.4h-2.1c1.4,4.5,2.7,9.1,4.1,13.7h2.9
	c-0.4-4.9,4.9-7.3,7.7-3.9c1.6,1.9,2.2,5.6,2,7.6c-0.5,3.9-7.6,3.5-8.8,0.4h-2.5c2.4,8-5.3,11.3-10.5,15.2
	C376.9,159.3,384.2,429.9,404.9,428.1L404.9,428.1z"/>
</svg>
