<?xml version="1.0" encoding="utf-8"?>
<!-- Generator: Adobe Illustrator 23.0.2, SVG Export Plug-In . SVG Version: 6.00 Build 0)  -->
<!DOCTYPE svg PUBLIC "-//W3C//DTD SVG 1.1//EN" "http://www.w3.org/Graphics/SVG/1.1/DTD/svg11.dtd" [
	<!ENTITY ns_extend "http://ns.adobe.com/Extensibility/1.0/">
	<!ENTITY ns_ai "http://ns.adobe.com/AdobeIllustrator/10.0/">
	<!ENTITY ns_graphs "http://ns.adobe.com/Graphs/1.0/">
	<!ENTITY ns_vars "http://ns.adobe.com/Variables/1.0/">
	<!ENTITY ns_imrep "http://ns.adobe.com/ImageReplacement/1.0/">
	<!ENTITY ns_sfw "http://ns.adobe.com/SaveForWeb/1.0/">
	<!ENTITY ns_custom "http://ns.adobe.com/GenericCustomNamespace/1.0/">
	<!ENTITY ns_adobe_xpath "http://ns.adobe.com/XPath/1.0/">
]>
<svg version="1.1" id="Layer_1" xmlns:x="&ns_extend;" xmlns:i="&ns_ai;" xmlns:graph="&ns_graphs;"
	 xmlns="http://www.w3.org/2000/svg" xmlns:xlink="http://www.w3.org/1999/xlink" x="0px" y="0px" viewBox="0 0 720 720"
	 style="enable-background:new 0 0 720 720;" xml:space="preserve">
<style type="text/css">
	.Drop_x0020_Shadow{fill:none;}
	.Round_x0020_Corners_x0020_2_x0020_pt{fill:#FFFFFF;stroke:#231F20;stroke-miterlimit:10;}
	.Live_x0020_Reflect_x0020_X{fill:none;}
	.Bevel_x0020_Soft{fill:url(#SVGID_1_);}
	.Dusk{fill:#FFFFFF;}
	.Foliage_GS{fill:#FFDD00;}
	.Pompadour_GS{fill-rule:evenodd;clip-rule:evenodd;fill:#44ADE2;}
</style>
<metadata>
	<sfw  xmlns="&ns_sfw;">
		<slices></slices>
		<sliceSourceBounds  bottomLeftOrigin="true" height="720" width="271.6" x="224.2" y="-720"></sliceSourceBounds>
	</sfw>
</metadata>
<linearGradient id="SVGID_1_" gradientUnits="userSpaceOnUse" x1="0" y1="0" x2="0.7071" y2="0.7071">
	<stop  offset="0" style="stop-color:#DEDFE3"/>
	<stop  offset="0.1783" style="stop-color:#DADBDF"/>
	<stop  offset="0.3611" style="stop-color:#CECFD3"/>
	<stop  offset="0.546" style="stop-color:#B9BCBF"/>
	<stop  offset="0.7324" style="stop-color:#9CA0A2"/>
	<stop  offset="0.9181" style="stop-color:#787D7E"/>
	<stop  offset="1" style="stop-color:#656B6C"/>
</linearGradient>
<path d="M494.4,720c-34.1-40.2-138.8-140.3-202.6-127.5c-28.5,5.7-40,33.2-50.5,40.9c-5.4-29.4,5.4-71.5,26.9-117.3
	c13.1-42-43.3-100.5-43.9-145.2c0-2.8,5-23.7,6.7-24.1c1.8-0.4,14.5,25.9,35.9,50.9c21.5,25.1,27.9,28.5,40.2,28.3
	c8.9-0.1,14.4-8.6,16.7-13.4c-1.3-93.7-1.7-255.8-9.2-342.8C306,43,280.8,0,280.8,0l22.7,7.3l62.7,74.9c-6.4,3.9-10.5,5.8-13.7,13.6
	c-4.4,44.5,1.2,188.1,2.4,236.4c0.7,22.8,3.2,41.8,3.6,53.4c3.8-2,4.7,8.1,15.1,6c11.2-2.3,18.4-26.1,20.3-37.3
	c18.2,68.4,9.1,89.4-3.7,138.9c-0.1,15.5-3.4,8.1,32.7,71.4c36.1,63.3,73,131.5,73,131.5L494.4,720L494.4,720z M360.2,67.7
	c2.1-2.4,5.3-1.7,7.5-0.1c2.5,1.9,3.4,6.1,1.1,8c-2.2,2-5.7,0.4-6.6-0.4C360.3,73.6,358.2,70,360.2,67.7L360.2,67.7z M350.1,55.5
	c2.1-2.4,5.3-1.7,7.5-0.1c2.5,1.9,3.4,6.1,1.1,8c-2.2,2-5.7,0.4-6.6-0.4C350.2,61.4,348.1,57.8,350.1,55.5L350.1,55.5z M340.1,44.3
	c2.1-2.4,5.3-1.7,7.5-0.1c2.5,1.9,3.4,6.1,1.1,8c-2.2,2-5.7,0.4-6.6-0.4C340.2,50.3,338.1,46.6,340.1,44.3L340.1,44.3z M330.6,32.3
	c2.1-2.4,5.3-1.7,7.5-0.1c2.5,1.9,3.4,6.1,1.1,8c-2.2,2-5.7,0.4-6.6-0.4C330.8,38.3,328.6,34.6,330.6,32.3L330.6,32.3z M321,20.9
	c2.1-2.4,5.3-1.7,7.5-0.1c2.5,1.9,3.4,6.1,1.1,8c-2.2,2-5.7,0.4-6.6-0.4C321.1,26.9,319,23.2,321,20.9L321,20.9z M311.4,9.5
	c2.1-2.4,5.3-1.7,7.5-0.1c2.5,1.9,3.4,6.1,1.1,8c-2.2,2-5.7,0.4-6.6-0.4C311.5,15.5,309.4,11.8,311.4,9.5L311.4,9.5z"/>
</svg>
