<?xml version="1.0" encoding="utf-8"?>
<!-- Generator: Adobe Illustrator 23.0.2, SVG Export Plug-In . SVG Version: 6.00 Build 0)  -->
<!DOCTYPE svg PUBLIC "-//W3C//DTD SVG 1.1//EN" "http://www.w3.org/Graphics/SVG/1.1/DTD/svg11.dtd" [
	<!ENTITY ns_extend "http://ns.adobe.com/Extensibility/1.0/">
	<!ENTITY ns_ai "http://ns.adobe.com/AdobeIllustrator/10.0/">
	<!ENTITY ns_graphs "http://ns.adobe.com/Graphs/1.0/">
	<!ENTITY ns_vars "http://ns.adobe.com/Variables/1.0/">
	<!ENTITY ns_imrep "http://ns.adobe.com/ImageReplacement/1.0/">
	<!ENTITY ns_sfw "http://ns.adobe.com/SaveForWeb/1.0/">
	<!ENTITY ns_custom "http://ns.adobe.com/GenericCustomNamespace/1.0/">
	<!ENTITY ns_adobe_xpath "http://ns.adobe.com/XPath/1.0/">
]>
<svg version="1.1" id="Layer_1" xmlns:x="&ns_extend;" xmlns:i="&ns_ai;" xmlns:graph="&ns_graphs;"
	 xmlns="http://www.w3.org/2000/svg" xmlns:xlink="http://www.w3.org/1999/xlink" x="0px" y="0px" viewBox="0 0 720 720"
	 style="enable-background:new 0 0 720 720;" xml:space="preserve">
<style type="text/css">
	.Drop_x0020_Shadow{fill:none;}
	.Round_x0020_Corners_x0020_2_x0020_pt{fill:#FFFFFF;stroke:#231F20;stroke-miterlimit:10;}
	.Live_x0020_Reflect_x0020_X{fill:none;}
	.Bevel_x0020_Soft{fill:url(#SVGID_1_);}
	.Dusk{fill:#FFFFFF;}
	.Foliage_GS{fill:#FFDD00;}
	.Pompadour_GS{fill-rule:evenodd;clip-rule:evenodd;fill:#44ADE2;}
</style>
<metadata>
	<sfw  xmlns="&ns_sfw;">
		<slices></slices>
		<sliceSourceBounds  bottomLeftOrigin="true" height="720" width="544.1" x="88" y="-720"></sliceSourceBounds>
	</sfw>
</metadata>
<linearGradient id="SVGID_1_" gradientUnits="userSpaceOnUse" x1="0" y1="0" x2="0.7071" y2="0.7071">
	<stop  offset="0" style="stop-color:#DEDFE3"/>
	<stop  offset="0.1783" style="stop-color:#DADBDF"/>
	<stop  offset="0.3611" style="stop-color:#CECFD3"/>
	<stop  offset="0.546" style="stop-color:#B9BCBF"/>
	<stop  offset="0.7324" style="stop-color:#9CA0A2"/>
	<stop  offset="0.9181" style="stop-color:#787D7E"/>
	<stop  offset="1" style="stop-color:#656B6C"/>
</linearGradient>
<g id="_x35_2">
	<path d="M610.8,417c-34.2-52.7-96.8-62.9-99.5-63.3l-8-1.2V629c-13.8-7.4-31.2-11.5-49.6-11.5c-43.9,0-78.3,22.5-78.3,51.2
		c0,28.7,34.4,51.2,78.3,51.2c43.9,0,78.3-22.5,78.3-51.2V458.6c2.3-0.4,4.6-0.6,6.8-0.6c48.9,0,70.5,96,70.8,96.9l6,27.4l7.4-27.1
		C638.3,499.5,634.2,453,610.8,417z"/>
	<path d="M399.1,367.5c43.9,0,78.3-22.5,78.3-51.2V106.1c2.3-0.4,4.6-0.6,6.8-0.6c48.9,0,70.5,96,70.8,96.9l6,27.4l7.4-27.1
		c15.2-55.8,11.1-102.3-12.2-138.2C522,11.8,459.3,1.6,456.7,1.2l-8-1.2v276.5c-13.8-7.4-31.2-11.5-49.6-11.5
		c-43.9,0-78.3,22.5-78.3,51.2S355.2,367.5,399.1,367.5z"/>
	<path d="M223.8,353.7l-8-1.2V629c-13.8-7.4-31.2-11.5-49.6-11.5c-43.9,0-78.3,22.5-78.3,51.2c0,28.7,34.4,51.2,78.3,51.2
		c43.9,0,78.3-22.5,78.3-51.2V458.6c2.3-0.4,4.6-0.6,6.8-0.6c48.9,0,70.5,96,70.7,96.9l6,27.4l7.4-27.1
		c15.2-55.8,11.1-102.3-12.2-138.2C289.1,364.3,226.4,354.2,223.8,353.7z"/>
</g>
</svg>
