<?xml version="1.0" encoding="utf-8"?>
<!-- Generator: Adobe Illustrator 23.0.2, SVG Export Plug-In . SVG Version: 6.00 Build 0)  -->
<!DOCTYPE svg PUBLIC "-//W3C//DTD SVG 1.1//EN" "http://www.w3.org/Graphics/SVG/1.1/DTD/svg11.dtd" [
	<!ENTITY ns_extend "http://ns.adobe.com/Extensibility/1.0/">
	<!ENTITY ns_ai "http://ns.adobe.com/AdobeIllustrator/10.0/">
	<!ENTITY ns_graphs "http://ns.adobe.com/Graphs/1.0/">
	<!ENTITY ns_vars "http://ns.adobe.com/Variables/1.0/">
	<!ENTITY ns_imrep "http://ns.adobe.com/ImageReplacement/1.0/">
	<!ENTITY ns_sfw "http://ns.adobe.com/SaveForWeb/1.0/">
	<!ENTITY ns_custom "http://ns.adobe.com/GenericCustomNamespace/1.0/">
	<!ENTITY ns_adobe_xpath "http://ns.adobe.com/XPath/1.0/">
]>
<svg version="1.1" id="Layer_1" xmlns:x="&ns_extend;" xmlns:i="&ns_ai;" xmlns:graph="&ns_graphs;"
	 xmlns="http://www.w3.org/2000/svg" xmlns:xlink="http://www.w3.org/1999/xlink" x="0px" y="0px" viewBox="0 0 720 720"
	 style="enable-background:new 0 0 720 720;" xml:space="preserve">
<style type="text/css">
	.Drop_x0020_Shadow{fill:none;}
	.Round_x0020_Corners_x0020_2_x0020_pt{fill:#FFFFFF;stroke:#231F20;stroke-miterlimit:10;}
	.Live_x0020_Reflect_x0020_X{fill:none;}
	.Bevel_x0020_Soft{fill:url(#SVGID_1_);}
	.Dusk{fill:#FFFFFF;}
	.Foliage_GS{fill:#FFDD00;}
	.Pompadour_GS{fill-rule:evenodd;clip-rule:evenodd;fill:#44ADE2;}
</style>
<metadata>
	<sfw  xmlns="&ns_sfw;">
		<slices></slices>
		<sliceSourceBounds  bottomLeftOrigin="true" height="676.2" width="720" x="0" y="-698.1"></sliceSourceBounds>
	</sfw>
</metadata>
<linearGradient id="SVGID_1_" gradientUnits="userSpaceOnUse" x1="0" y1="0" x2="0.7071" y2="0.7071">
	<stop  offset="0" style="stop-color:#DEDFE3"/>
	<stop  offset="0.1783" style="stop-color:#DADBDF"/>
	<stop  offset="0.3611" style="stop-color:#CECFD3"/>
	<stop  offset="0.546" style="stop-color:#B9BCBF"/>
	<stop  offset="0.7324" style="stop-color:#9CA0A2"/>
	<stop  offset="0.9181" style="stop-color:#787D7E"/>
	<stop  offset="1" style="stop-color:#656B6C"/>
</linearGradient>
<g id="_x35_6">
	<g>
		<path d="M7.2,269.2c8,0,0,175,0,175h183l214.8,236V41.2L206.1,282.5L7.2,269.2z"/>
		<path d="M411.9,698.1l-224.8-247H0l0.3-7.2C3.8,368.1,5.5,282.4,1.9,273c0.3,0.9,1.9,2.7,4.5,3.1l0.6-5.7l0.3-8l0.7,0l195.1,13
			L411.9,21.9V698.1z M14.5,437.3h178.8l204.8,225V60.4L209.2,289.6L16.5,276.8c0.5,4.8,0.8,11.5,1,20.1c0.3,14.7,0.2,35-0.4,60.4
			C16.4,390.1,15.1,423.1,14.5,437.3z"/>
	</g>
	<g>
		<g>
			<path d="M705.9,360.2C698.7,230.3,598.1,130,481.6,136.4l-0.8-13.8c60.3-3.3,118.4,19.5,163.5,64.4
				c44.9,44.7,71.7,105.9,75.4,172.4L705.9,360.2z"/>
		</g>
		<g>
			<path d="M481.6,599.1l-0.8-13.8c57.5-3.2,115.5-29.1,159.1-71.1c45.6-43.9,69-98.6,65.9-154l13.8-0.8
				c3.3,59.5-21.6,118-70.2,164.7C603.6,568.4,542.4,595.7,481.6,599.1z"/>
		</g>
	</g>
	<g>
		<g>
			<path d="M651.1,360.4c-2.6-47.8-21.8-91.7-54-123.7c-32-31.8-73-48-115.6-45.6l-0.8-13.8c46.5-2.6,91.3,15.1,126.1,49.6
				c34.6,34.4,55.2,81.5,58,132.7L651.1,360.4z"/>
		</g>
		<g>
			<path d="M481.6,544.3l-0.8-13.8c84.6-4.7,175.4-78.4,170.3-170.1l13.8-0.8c2.5,45.9-16.7,91-54.1,127
				C575.5,520.7,528.4,541.8,481.6,544.3z"/>
		</g>
	</g>
	<g>
		<g>
			<path d="M610,360.5c-4.1-74.5-61.7-132.1-128.5-128.5l-0.8-13.8c74.3-4.1,138.5,59.4,143,141.5L610,360.5z"/>
		</g>
		<g>
			<path d="M481.6,503.3l-0.8-13.8c33-1.8,66.4-16.7,91.4-40.9c26.1-25.1,39.5-56.4,37.8-88l13.8-0.8c2,35.7-12.9,70.8-42,98.8
				C554.4,485,517.9,501.3,481.6,503.3z"/>
		</g>
	</g>
</g>
</svg>
