<?xml version="1.0" encoding="utf-8"?>
<!-- Generator: Adobe Illustrator 23.0.2, SVG Export Plug-In . SVG Version: 6.00 Build 0)  -->
<!DOCTYPE svg PUBLIC "-//W3C//DTD SVG 1.1//EN" "http://www.w3.org/Graphics/SVG/1.1/DTD/svg11.dtd" [
	<!ENTITY ns_extend "http://ns.adobe.com/Extensibility/1.0/">
	<!ENTITY ns_ai "http://ns.adobe.com/AdobeIllustrator/10.0/">
	<!ENTITY ns_graphs "http://ns.adobe.com/Graphs/1.0/">
	<!ENTITY ns_vars "http://ns.adobe.com/Variables/1.0/">
	<!ENTITY ns_imrep "http://ns.adobe.com/ImageReplacement/1.0/">
	<!ENTITY ns_sfw "http://ns.adobe.com/SaveForWeb/1.0/">
	<!ENTITY ns_custom "http://ns.adobe.com/GenericCustomNamespace/1.0/">
	<!ENTITY ns_adobe_xpath "http://ns.adobe.com/XPath/1.0/">
]>
<svg version="1.1" id="Layer_1" xmlns:x="&ns_extend;" xmlns:i="&ns_ai;" xmlns:graph="&ns_graphs;"
	 xmlns="http://www.w3.org/2000/svg" xmlns:xlink="http://www.w3.org/1999/xlink" x="0px" y="0px" viewBox="0 0 720 720"
	 style="enable-background:new 0 0 720 720;" xml:space="preserve">
<style type="text/css">
	.Drop_x0020_Shadow{fill:none;}
	.Round_x0020_Corners_x0020_2_x0020_pt{fill:#FFFFFF;stroke:#231F20;stroke-miterlimit:10;}
	.Live_x0020_Reflect_x0020_X{fill:none;}
	.Bevel_x0020_Soft{fill:url(#SVGID_1_);}
	.Dusk{fill:#FFFFFF;}
	.Foliage_GS{fill:#FFDD00;}
	.Pompadour_GS{fill-rule:evenodd;clip-rule:evenodd;fill:#44ADE2;}
	.st0{fill:#FFFFFF;}
</style>
<metadata>
	<sfw  xmlns="&ns_sfw;">
		<slices></slices>
		<sliceSourceBounds  bottomLeftOrigin="true" height="720" width="413.7" x="153.2" y="-720"></sliceSourceBounds>
	</sfw>
</metadata>
<linearGradient id="SVGID_1_" gradientUnits="userSpaceOnUse" x1="0" y1="0" x2="0.7071" y2="0.7071">
	<stop  offset="0" style="stop-color:#DEDFE3"/>
	<stop  offset="0.1783" style="stop-color:#DADBDF"/>
	<stop  offset="0.3611" style="stop-color:#CECFD3"/>
	<stop  offset="0.546" style="stop-color:#B9BCBF"/>
	<stop  offset="0.7324" style="stop-color:#9CA0A2"/>
	<stop  offset="0.9181" style="stop-color:#787D7E"/>
	<stop  offset="1" style="stop-color:#656B6C"/>
</linearGradient>
<g id="_x35_8">
	<g>
		<path d="M499,713.1H221c-33.6,0-60.9-27.3-60.9-60.9V67.8c0-33.6,27.3-60.9,60.9-60.9h278c33.6,0,60.9,27.3,60.9,60.9v584.4
			C559.9,685.8,532.7,713.1,499,713.1z"/>
		<path d="M499,720H221c-37.4,0-67.8-30.4-67.8-67.8V67.8C153.2,30.4,183.6,0,221,0h278c37.4,0,67.8,30.4,67.8,67.8v584.4
			C566.8,689.6,536.4,720,499,720z M221,13.8c-29.8,0-54,24.2-54,54v584.4c0,29.8,24.2,54,54,54h278c29.8,0,54-24.2,54-54V67.8
			c0-29.8-24.2-54-54-54H221z"/>
	</g>
	<g>
		
			<ellipse transform="matrix(0.7071 -0.7071 0.7071 0.7071 -242.0289 398.4856)" class="st0" cx="360" cy="491.4" rx="150.7" ry="150.7"/>
		<path d="M360,649.1c-86.9,0-157.7-70.7-157.7-157.7c0-86.9,70.7-157.7,157.7-157.7s157.7,70.7,157.7,157.7
			C517.7,578.3,446.9,649.1,360,649.1z M360,347.6c-79.3,0-143.8,64.5-143.8,143.8c0,79.3,64.5,143.8,143.8,143.8
			c79.3,0,143.8-64.5,143.8-143.8C503.8,412.1,439.3,347.6,360,347.6z"/>
	</g>
	<g>
		
			<ellipse transform="matrix(0.7071 -0.7071 0.7071 0.7071 -29.4145 310.4178)" class="st0" cx="360" cy="190.7" rx="112.9" ry="112.9"/>
		<path d="M360,310.5c-66,0-119.8-53.7-119.8-119.8S294,70.9,360,70.9c66,0,119.8,53.7,119.8,119.8S426,310.5,360,310.5z M360,84.8
			c-58.4,0-105.9,47.5-105.9,105.9c0,58.4,47.5,105.9,105.9,105.9c58.4,0,105.9-47.5,105.9-105.9C465.9,132.3,418.4,84.8,360,84.8z"
			/>
	</g>
	<g>
		<circle cx="360" cy="494.6" r="58"/>
		<path d="M360,559.6c-35.8,0-65-29.1-65-65c0-35.8,29.1-65,65-65c35.8,0,65,29.1,65,65C425,530.4,395.8,559.6,360,559.6z
			 M360,443.5c-28.2,0-51.1,22.9-51.1,51.1c0,28.2,22.9,51.1,51.1,51.1c28.2,0,51.1-22.9,51.1-51.1
			C411.1,466.4,388.2,443.5,360,443.5z"/>
	</g>
	<g>
		<path d="M403.1,190.7c0,23.8-19.3,43.1-43.1,43.1c-23.8,0-43.1-19.3-43.1-43.1c0-23.8,19.3-43.1,43.1-43.1
			C383.8,147.6,403.1,166.9,403.1,190.7z"/>
		<path d="M360,240.8c-27.6,0-50-22.5-50-50s22.5-50,50-50c27.6,0,50,22.5,50,50S387.6,240.8,360,240.8z M360,154.5
			c-20,0-36.2,16.2-36.2,36.2c0,20,16.2,36.2,36.2,36.2c20,0,36.2-16.2,36.2-36.2C396.2,170.8,380,154.5,360,154.5z"/>
	</g>
	<g>
		<ellipse class="st0" cx="517.5" cy="676.2" rx="6.8" ry="6.7"/>
		<path class="st0" d="M517.5,689.8c-7.5,0-13.7-6.1-13.7-13.6c0-7.5,6.1-13.6,13.7-13.6c7.5,0,13.7,6.1,13.7,13.6
			C531.2,683.7,525,689.8,517.5,689.8z M517.5,675.9c-0.1,0-0.2,0.2-0.2,0.3s0.1,0.3,0.2,0.3c0.1,0,0.2-0.2,0.2-0.3
			S517.6,675.9,517.5,675.9z"/>
	</g>
	<g>
		<ellipse class="st0" cx="199.6" cy="676.2" rx="6.8" ry="6.7"/>
		<path class="st0" d="M199.6,689.8c-7.5,0-13.7-6.1-13.7-13.6c0-7.5,6.1-13.6,13.7-13.6c7.5,0,13.7,6.1,13.7,13.6
			C213.3,683.7,207.1,689.8,199.6,689.8z M199.6,675.9c-0.1,0-0.2,0.2-0.2,0.3s0.1,0.3,0.2,0.3c0.1,0,0.2-0.2,0.2-0.3
			S199.7,675.9,199.6,675.9z"/>
	</g>
	<g>
		<ellipse class="st0" cx="517.5" cy="51.9" rx="6.8" ry="6.7"/>
		<path class="st0" d="M517.5,65.4c-7.5,0-13.7-6.1-13.7-13.6c0-7.5,6.1-13.6,13.7-13.6c7.5,0,13.7,6.1,13.7,13.6
			C531.2,59.3,525,65.4,517.5,65.4z M517.5,51.6c-0.1,0-0.2,0.2-0.2,0.3c0,0.1,0.1,0.3,0.2,0.3c0.1,0,0.2-0.2,0.2-0.3
			C517.7,51.8,517.6,51.6,517.5,51.6z"/>
	</g>
	<g>
		<ellipse class="st0" cx="199.6" cy="51.9" rx="6.8" ry="6.7"/>
		<path class="st0" d="M199.6,65.4c-7.5,0-13.7-6.1-13.7-13.6c0-7.5,6.1-13.6,13.7-13.6c7.5,0,13.7,6.1,13.7,13.6
			C213.3,59.3,207.1,65.4,199.6,65.4z M199.6,51.6c-0.1,0-0.2,0.2-0.2,0.3c0,0.1,0.1,0.3,0.2,0.3c0.1,0,0.2-0.2,0.2-0.3
			C199.8,51.8,199.7,51.6,199.6,51.6z"/>
	</g>
</g>
</svg>
