<?xml version="1.0" encoding="utf-8"?>
<!-- Generator: Adobe Illustrator 23.0.2, SVG Export Plug-In . SVG Version: 6.00 Build 0)  -->
<!DOCTYPE svg PUBLIC "-//W3C//DTD SVG 1.1//EN" "http://www.w3.org/Graphics/SVG/1.1/DTD/svg11.dtd" [
	<!ENTITY ns_extend "http://ns.adobe.com/Extensibility/1.0/">
	<!ENTITY ns_ai "http://ns.adobe.com/AdobeIllustrator/10.0/">
	<!ENTITY ns_graphs "http://ns.adobe.com/Graphs/1.0/">
	<!ENTITY ns_vars "http://ns.adobe.com/Variables/1.0/">
	<!ENTITY ns_imrep "http://ns.adobe.com/ImageReplacement/1.0/">
	<!ENTITY ns_sfw "http://ns.adobe.com/SaveForWeb/1.0/">
	<!ENTITY ns_custom "http://ns.adobe.com/GenericCustomNamespace/1.0/">
	<!ENTITY ns_adobe_xpath "http://ns.adobe.com/XPath/1.0/">
]>
<svg version="1.1" id="Layer_1" xmlns:x="&ns_extend;" xmlns:i="&ns_ai;" xmlns:graph="&ns_graphs;"
	 xmlns="http://www.w3.org/2000/svg" xmlns:xlink="http://www.w3.org/1999/xlink" x="0px" y="0px" viewBox="0 0 720 720"
	 style="enable-background:new 0 0 720 720;" xml:space="preserve">
<style type="text/css">
	.Drop_x0020_Shadow{fill:none;}
	.Round_x0020_Corners_x0020_2_x0020_pt{fill:#FFFFFF;stroke:#231F20;stroke-miterlimit:10;}
	.Live_x0020_Reflect_x0020_X{fill:none;}
	.Bevel_x0020_Soft{fill:url(#SVGID_1_);}
	.Dusk{fill:#FFFFFF;}
	.Foliage_GS{fill:#FFDD00;}
	.Pompadour_GS{fill-rule:evenodd;clip-rule:evenodd;fill:#44ADE2;}
</style>
<metadata>
	<sfw  xmlns="&ns_sfw;">
		<slices></slices>
		<sliceSourceBounds  bottomLeftOrigin="true" height="720" width="228.5" x="245.7" y="-720"></sliceSourceBounds>
	</sfw>
</metadata>
<linearGradient id="SVGID_1_" gradientUnits="userSpaceOnUse" x1="0" y1="0" x2="0.7071" y2="0.7071">
	<stop  offset="0" style="stop-color:#DEDFE3"/>
	<stop  offset="0.1783" style="stop-color:#DADBDF"/>
	<stop  offset="0.3611" style="stop-color:#CECFD3"/>
	<stop  offset="0.546" style="stop-color:#B9BCBF"/>
	<stop  offset="0.7324" style="stop-color:#9CA0A2"/>
	<stop  offset="0.9181" style="stop-color:#787D7E"/>
	<stop  offset="1" style="stop-color:#656B6C"/>
</linearGradient>
<path d="M391.4,119.7c7.8-7,16-10,16-10l-8.4-12l1.1-1c0,0,1.6,1.4,2.6,1.1c1-0.3,5.7-5,6.1-5.8c0.4-0.9-2.7-4.5-4-4.8
	c-1.3-0.3-5.3,4.1-6,5c-0.7,0.9,0,2.7,0,2.7l-1.1,1l-9.6-13.8l0.6-0.6c0,0,1.6,1.4,2.6,1.1c1-0.3,5.7-5,6.1-5.8
	c0.4-0.9-2.7-4.5-4-4.8c-1.3-0.3-5.3,4.1-6,5c-0.7,0.9,0,2.7,0,2.7l-0.6,0.6l-9.6-13.8l1.9-1.7c0,0,1.6,1.4,2.6,1.1
	c1-0.3,5.7-5,6.1-5.8c0.4-0.9-2.7-4.5-4-4.8c-1.3-0.3-5.3,4.1-6,5c-0.7,0.9,0,2.7,0,2.7l-1.9,1.6l-8.4-12.1l1.8-1.6
	c0,0,1.6,1.4,2.6,1.1c1-0.3,5.7-5,6.1-5.8c0.4-0.8-2.7-4.5-4-4.8c-1.3-0.3-5.3,4.1-6,5c-0.7,0.8,0,2.7,0,2.7l-1.8,1.6l-9.4-13.5
	l1.3-1.2c0,0,1.6,1.4,2.6,1.1c1-0.3,5.7-5,6.1-5.8c0.4-0.9-2.7-4.5-4-4.8c-1.3-0.3-5.3,4.1-6,5c-0.7,0.9,0,2.7,0,2.7l-1.3,1.1
	l-8.3-11.9l1.1-1c0,0,1.6,1.4,2.6,1.1c1-0.3,5.7-5,6.1-5.8c0.4-0.9-2.7-4.5-4-4.8c-1.3-0.3-5.3,4.1-6,5c-0.7,0.9,0,2.7,0,2.7
	l-1.1,0.9l-4.5-6.5L308.2,0c0,0,14.4,29,24.9,56.2c7.8,20.5,15.9,42.7,19.8,55.7c-2.8,122.8-5.5,245.8-9.9,368.4
	c0,0-9.3,20-34.8,11.1c-25.5-8.8-21.3-34-21.8-40.4c-0.5-5.7-4.6-13.1-12.6-7.6c-8,5.4-15.2,21.4-8.6,49.7
	c6.6,28.3,23.3,32.5,14.8,59.3c-8.4,26.9-30.3,55.1-33.5,82.8c-3.2,27.7,3.4,47.6,23.2,62.1c28.8,21,86.1,26.8,125.3,19.8
	c40.4-7.2,68.1-28.1,76.4-49.9c8.2-21.8-3-50.7-9-61.7c-6-11-25.7-43.7-25.3-67.5c0.4-23.8,21.1-55.2,26.7-68.3
	c11-26.3,4-47.1-3.4-58.7c-7.4-11.6-18.4-12-18.4-0.4c0,11.6-1.8,32.3-18.4,44.7c-8.2,6.1-38.7,12.7-38.1-6
	C385.5,432.6,387.1,273.3,391.4,119.7L391.4,119.7z"/>
</svg>
