<?xml version="1.0" encoding="utf-8"?>
<!-- Generator: Adobe Illustrator 23.0.2, SVG Export Plug-In . SVG Version: 6.00 Build 0)  -->
<!DOCTYPE svg PUBLIC "-//W3C//DTD SVG 1.1//EN" "http://www.w3.org/Graphics/SVG/1.1/DTD/svg11.dtd" [
	<!ENTITY ns_extend "http://ns.adobe.com/Extensibility/1.0/">
	<!ENTITY ns_ai "http://ns.adobe.com/AdobeIllustrator/10.0/">
	<!ENTITY ns_graphs "http://ns.adobe.com/Graphs/1.0/">
	<!ENTITY ns_vars "http://ns.adobe.com/Variables/1.0/">
	<!ENTITY ns_imrep "http://ns.adobe.com/ImageReplacement/1.0/">
	<!ENTITY ns_sfw "http://ns.adobe.com/SaveForWeb/1.0/">
	<!ENTITY ns_custom "http://ns.adobe.com/GenericCustomNamespace/1.0/">
	<!ENTITY ns_adobe_xpath "http://ns.adobe.com/XPath/1.0/">
]>
<svg version="1.1" id="Layer_1" xmlns:x="&ns_extend;" xmlns:i="&ns_ai;" xmlns:graph="&ns_graphs;"
	 xmlns="http://www.w3.org/2000/svg" xmlns:xlink="http://www.w3.org/1999/xlink" x="0px" y="0px" viewBox="0 0 720 720"
	 style="enable-background:new 0 0 720 720;" xml:space="preserve">
<style type="text/css">
	.Drop_x0020_Shadow{fill:none;}
	.Round_x0020_Corners_x0020_2_x0020_pt{fill:#FFFFFF;stroke:#231F20;stroke-miterlimit:10;}
	.Live_x0020_Reflect_x0020_X{fill:none;}
	.Bevel_x0020_Soft{fill:url(#SVGID_1_);}
	.Dusk{fill:#FFFFFF;}
	.Foliage_GS{fill:#FFDD00;}
	.Pompadour_GS{fill-rule:evenodd;clip-rule:evenodd;fill:#44ADE2;}
	.st0{fill:none;stroke:#FFFFFF;stroke-width:0.4924;stroke-miterlimit:10;}
	.st1{fill:#FFFFFF;}
</style>
<metadata>
	<sfw  xmlns="&ns_sfw;">
		<slices></slices>
		<sliceSourceBounds  bottomLeftOrigin="true" height="720" width="64" x="328" y="-720"></sliceSourceBounds>
	</sfw>
</metadata>
<linearGradient id="SVGID_1_" gradientUnits="userSpaceOnUse" x1="0" y1="0" x2="0.7071" y2="0.7071">
	<stop  offset="0" style="stop-color:#DEDFE3"/>
	<stop  offset="0.1783" style="stop-color:#DADBDF"/>
	<stop  offset="0.3611" style="stop-color:#CECFD3"/>
	<stop  offset="0.546" style="stop-color:#B9BCBF"/>
	<stop  offset="0.7324" style="stop-color:#9CA0A2"/>
	<stop  offset="0.9181" style="stop-color:#787D7E"/>
	<stop  offset="1" style="stop-color:#656B6C"/>
</linearGradient>
<g id="_x36_0">
	<g>
		<path d="M331.9,62.7c0.1,0.8,0.7,1.4,1.5,1.4h53.2c0.8,0,1.5-0.6,1.5-1.4c0.8-11,1.4-19.6,1.8-24.6c0.2-3-0.3-6.1-1.4-8.9
			L378.1,3.8c-0.9-2.3-3.2-3.8-5.6-3.8h-24.9c-2.5,0-4.7,1.5-5.6,3.8l-10.4,25.5c-1.1,2.8-1.6,5.9-1.4,8.9
			C330.5,43.1,331.1,51.7,331.9,62.7z"/>
		<path d="M390.4,706.8c-1-1.2-2.4-2-4.1-2.3l-0.7-0.1c-0.8,0-1.5-0.3-2-0.9c-1.6-1.9-1.6-4-1.4-5.5c0.2-1.3,0-2.7-0.6-3.8
			c-6.9-13.4-6.5-42.1-6.2-50.3c0-1.2,1-2.2,2.3-2.2c0.7,0,1.3-0.3,1.6-0.9c0.7-1.4-0.3-2.8-1.6-2.8h-0.3c-0.6,0-1-0.5-1-1.1
			c0.7-10,5.9-12.9,9-13.7c1.4-0.4,2.3-1.6,2.3-3v-0.1c0-1.7-1.4-3.1-3.1-3.1c-0.5,0-1-0.4-1.1-0.9c-1.4-8.4-1.9-36.9-2-39.5
			c0-0.1,0.1-0.2,0.2-0.2c1.4,0,2.6-1.2,2.6-2.6v-0.2c0-1.4-1.2-2.6-2.6-2.6h-0.4c-0.3,0-0.5-0.2-0.5-0.5v-0.3
			c0-0.6-0.5-1.1-1.1-1.1c-0.3,0-0.5-0.2-0.5-0.5v-1.4c0-0.4-0.3-0.7-0.7-0.7c-0.3,0-0.5-0.2-0.5-0.5c0.1-13.3,2.4-282.8,3.1-286.4
			c0.5-2.6,3-4.5,4.4-5.3c0.5-0.3,0.9-0.9,0.9-1.5c0-1-0.7-1.8-1.7-1.8c-0.4,0-0.8-0.3-0.9-0.8c0-0.1,0-0.2,0-0.3
			c-0.1-1.2,0.3-2.4,1.1-3.4c3.4-4.5,5.4-11.2,4.1-18c-1.3-7.4-3.9-14.3-3.9-19.5c-0.1-3.8-1.1-12.9-1.6-17.4
			c-0.1-0.7,0.1-1.4,0.4-2c0.3-0.5,0.5-1.2,0.3-1.8c-0.1-0.6-0.4-1.1-0.8-1.4c-0.7-0.6-1-1.4-1-2.3c-0.5-32,1.8-79.3,4.1-116
			c0.1-1.3,0.5-2.6,1.3-3.7c0.6-0.8,1-1.9,1.1-3c0.1-1.2-0.2-2.3-0.7-3.3c-0.7-1.2-0.9-2.6-0.8-4c0.1-2.2,0.3-4.3,0.4-6.4
			c0.1-0.9-0.6-1.6-1.5-1.6h-52.5c-0.9,0-1.6,0.7-1.5,1.6c0.1,2.1,0.3,4.2,0.4,6.4c0.1,1.4-0.2,2.8-0.8,4c-0.5,1-0.8,2.1-0.7,3.3
			c0.1,1.1,0.5,2.1,1.1,3c0.8,1.1,1.2,2.4,1.3,3.7c2.3,36.7,4.6,84,4.1,116c0,0.9-0.4,1.8-1,2.3c-0.4,0.4-0.7,0.8-0.8,1.4
			c-0.1,0.7,0,1.3,0.3,1.8c0.4,0.6,0.5,1.3,0.4,2c-0.5,4.5-1.6,13.5-1.6,17.4c-0.1,5.2-2.6,12.2-3.9,19.5c-1.2,6.8,0.7,13.5,4.1,18
			c0.7,1,1.2,2.2,1.1,3.4c0,0.1,0,0.2,0,0.3c-0.1,0.4-0.4,0.8-0.9,0.8c-1,0-1.7,0.8-1.7,1.8c0,0.6,0.4,1.2,0.9,1.5
			c1.4,0.8,3.9,2.6,4.4,5.3c0.7,3.6,3,273.1,3.1,286.4c0,0.3-0.2,0.5-0.5,0.5c-0.4,0-0.7,0.3-0.7,0.7v1.4c0,0.3-0.2,0.5-0.5,0.5
			c-0.6,0-1.1,0.5-1.1,1.1v0.3c0,0.3-0.2,0.5-0.5,0.5h-0.4c-1.4,0-2.6,1.2-2.6,2.6v0.2c0,1.4,1.2,2.6,2.6,2.6c0.1,0,0.2,0.1,0.2,0.2
			c0,2.5-0.5,31.1-2,39.5c-0.1,0.5-0.6,0.9-1.1,0.9c-1.7,0-3.1,1.4-3.1,3.1v0.1c0,1.4,1,2.7,2.3,3c3.1,0.9,8.3,3.8,9,13.7
			c0,0.6-0.4,1.1-1,1.1h-0.2c-0.9,0-1.7,0.6-1.9,1.5c-0.2,1.2,0.7,2.2,1.8,2.2c1.2,0,2.2,1,2.3,2.2c0.3,8.2,0.6,37-6.3,50.3
			c-0.6,1.2-0.8,2.5-0.6,3.8c0.3,1.5,0.2,3.6-1.4,5.5c-0.5,0.6-1.3,0.9-2,0.9l-0.7,0.1c-3.3,0.5-5.7,3.3-5.7,6.6v0.3
			c0,3.2,2.3,6,5.5,6.6c8.7,1.5,27.2,3.6,52.8-0.3c3.3-0.5,5.7-3.3,5.7-6.6C392,709.5,391.4,708,390.4,706.8z"/>
	</g>
	<circle class="st0" cx="360" cy="552.5" r="7.9"/>
	<path class="st0" d="M360,597.2c0,3.6-3.5,6.5-7.9,6.5c-4.4,0-7.9-2.9-7.9-6.5c0-3.6,3.5-6.5,7.9-6.5
		C356.4,590.7,360,593.6,360,597.2z"/>
	<g>
		<g>
			<path class="st1" d="M364.1,318.7c0,2.3-1.8,4.1-4.1,4.1c-2.3,0-4.1-1.8-4.1-4.1c0-2.3,1.8-4.1,4.1-4.1
				C362.3,314.6,364.1,316.4,364.1,318.7z"/>
			<path class="st1" d="M364.1,363.3c0,2.3-1.8,4.1-4.1,4.1c-2.3,0-4.1-1.8-4.1-4.1s1.8-4.1,4.1-4.1
				C362.3,359.2,364.1,361,364.1,363.3z"/>
			<path class="st1" d="M364.1,407.9c0,2.3-1.8,4.1-4.1,4.1c-2.3,0-4.1-1.8-4.1-4.1s1.8-4.1,4.1-4.1
				C362.3,403.8,364.1,405.7,364.1,407.9z"/>
			<path class="st1" d="M363.9,459.9c0,2.2-1.7,3.9-3.9,3.9s-3.9-1.7-3.9-3.9s1.7-3.9,3.9-3.9S363.9,457.7,363.9,459.9z"/>
			<path class="st1" d="M364.1,512c0,2.3-1.8,4.1-4.1,4.1c-2.3,0-4.1-1.8-4.1-4.1c0-2.3,1.8-4.1,4.1-4.1
				C362.3,507.9,364.1,509.7,364.1,512z"/>
		</g>
		<g>
			<circle class="st1" cx="356.9" cy="551.6" r="3.2"/>
			<circle class="st1" cx="364.1" cy="554.5" r="2.3"/>
		</g>
		<g>
			<path class="st1" d="M351.6,597.1c-0.6,1.7-2.1,2.7-3.2,2.2c-1.1-0.4-1.5-2.1-0.9-3.8c0.6-1.7,2.1-2.7,3.2-2.2
				C351.9,593.7,352.3,595.4,351.6,597.1z"/>
			<path class="st1" d="M358.3,599.7c-0.5,1.1-1.5,1.8-2.3,1.5c-0.8-0.3-1-1.5-0.6-2.7c0.5-1.1,1.5-1.8,2.3-1.5
				C358.5,597.3,358.7,598.5,358.3,599.7z"/>
		</g>
		<path class="st1" d="M368.7,90.1h-17.4c-0.6,0-1.1,0.5-1.1,1.1v0.1v5.6v15c0,0.1,0.1,0.1,0.2,0l3-13.9c0.1-0.7,0.7-1.1,1.4-1.1
			h10.3c0.7,0,1.2,0.5,1.4,1.1l3,13.9c0,0.1,0.2,0.1,0.2,0v-15v-5.6v-0.1C369.7,90.6,369.3,90.1,368.7,90.1z"/>
	</g>
</g>
</svg>
