<?xml version="1.0" encoding="utf-8"?>
<!-- Generator: Adobe Illustrator 23.0.2, SVG Export Plug-In . SVG Version: 6.00 Build 0)  -->
<!DOCTYPE svg PUBLIC "-//W3C//DTD SVG 1.1//EN" "http://www.w3.org/Graphics/SVG/1.1/DTD/svg11.dtd" [
	<!ENTITY ns_extend "http://ns.adobe.com/Extensibility/1.0/">
	<!ENTITY ns_ai "http://ns.adobe.com/AdobeIllustrator/10.0/">
	<!ENTITY ns_graphs "http://ns.adobe.com/Graphs/1.0/">
	<!ENTITY ns_vars "http://ns.adobe.com/Variables/1.0/">
	<!ENTITY ns_imrep "http://ns.adobe.com/ImageReplacement/1.0/">
	<!ENTITY ns_sfw "http://ns.adobe.com/SaveForWeb/1.0/">
	<!ENTITY ns_custom "http://ns.adobe.com/GenericCustomNamespace/1.0/">
	<!ENTITY ns_adobe_xpath "http://ns.adobe.com/XPath/1.0/">
]>
<svg version="1.1" id="Layer_1" xmlns:x="&ns_extend;" xmlns:i="&ns_ai;" xmlns:graph="&ns_graphs;"
	 xmlns="http://www.w3.org/2000/svg" xmlns:xlink="http://www.w3.org/1999/xlink" x="0px" y="0px" viewBox="0 0 720 720"
	 style="enable-background:new 0 0 720 720;" xml:space="preserve">
<style type="text/css">
	.Drop_x0020_Shadow{fill:none;}
	.Round_x0020_Corners_x0020_2_x0020_pt{fill:#FFFFFF;stroke:#231F20;stroke-miterlimit:10;}
	.Live_x0020_Reflect_x0020_X{fill:none;}
	.Bevel_x0020_Soft{fill:url(#SVGID_1_);}
	.Dusk{fill:#FFFFFF;}
	.Foliage_GS{fill:#FFDD00;}
	.Pompadour_GS{fill-rule:evenodd;clip-rule:evenodd;fill:#44ADE2;}
	.st0{fill-rule:evenodd;clip-rule:evenodd;}
</style>
<metadata>
	<sfw  xmlns="&ns_sfw;">
		<slices></slices>
		<sliceSourceBounds  bottomLeftOrigin="true" height="720" width="267.9" x="226" y="-720"></sliceSourceBounds>
	</sfw>
</metadata>
<linearGradient id="SVGID_1_" gradientUnits="userSpaceOnUse" x1="0" y1="0" x2="0.7071" y2="0.7071">
	<stop  offset="0" style="stop-color:#DEDFE3"/>
	<stop  offset="0.1783" style="stop-color:#DADBDF"/>
	<stop  offset="0.3611" style="stop-color:#CECFD3"/>
	<stop  offset="0.546" style="stop-color:#B9BCBF"/>
	<stop  offset="0.7324" style="stop-color:#9CA0A2"/>
	<stop  offset="0.9181" style="stop-color:#787D7E"/>
	<stop  offset="1" style="stop-color:#656B6C"/>
</linearGradient>
<path class="st0" d="M338,605c-18.7,22.2-37.4,44.5-56.1,66.7c-2.4,2.5-3.5,2.8-3.5-0.6c0.2-7.4-1.8-9.9-6.4-4.9
	c-13.9,16.9-27.9,33.9-41.8,50.8c-4.2,4.8-4.9,3.4-3.4-2.1c24.9-74.4,49.5-147.3,75.6-221c2.1-4.1,2.1-8.2,0.7-12.3
	c-17.1-47.3-34.3-94.6-51.4-141.9c-1.2-3.5,0.3-5.3,3.3-1.6c10.6,12.3,21.2,24.6,31.8,36.9c4.2,4.5,6.2,2.6,6-3.7
	c0.1-1.5,1.7-1.4,2.6-0.2c3.8,4.1,7.9,8,11.5,12.4c12.7,15.5,23.8,17.6,36.6,1.9l4-268.1c0.4-5.9-5.6-12.4-6.4-13.1
	c-2-1.2-2.1-3-2.6-5.4l-0.1-0.6l-0.8,0.2c0.4,2.8,0.1,5-2.1,5.6c-2.8,0.7-5.9-1.9-6.9-5.9c-1-3.9,0.5-7.7,3.3-8.4
	c2.3-0.6,3.6,1.3,4.6,4.1l0.8-0.2c-1.1-4.3-2-8.5-2.9-12.7c-0.1,1.7-0.7,2.9-2.3,3.3c-2.8,0.7-5.9-1.9-6.9-5.9
	c-1-3.9,0.5-7.7,3.3-8.4c2.1-0.5,3.4,1,4.4,3.4c-0.7-3.8-1.4-7.5-2.1-11.3c-0.2,1.3-0.9,2.2-2.2,2.6c-2.8,0.7-5.9-1.9-6.9-5.9
	c-1-3.9,0.5-7.7,3.3-8.4c2-0.5,3.4,0.9,4.3,3.3c-2.9-16.1-5.7-32.2-10-48.6c-1-3.7,0.4-4.8,3.2-1.4c5.5,6.7,9,12.6,14.5,19.4
	c2.6,2.5,5.8-0.4,7.7,2c6.7,6.7,14.3,19.1,18.6,19.7c4.3-0.6,13.6-13.7,20.3-20.3c1.9-2.4,5.1,0.6,7.7-2c5.5-6.7,11-13.5,16.5-20.2
	c2.8-3.5,4.2-2.3,3.2,1.4l-12.6,47.9l2.5,0.6c1-2.8,2.4-4.6,4.6-4.1c2.8,0.7,4.3,4.5,3.3,8.4c-1,3.9-4.1,6.6-6.9,5.9
	c-2.2-0.6-2.6-2.7-2.2-5.6l-2.6-0.7l-4.3,16.2l2,0.5c1-2.8,2.4-4.6,4.6-4.1c2.8,0.7,4.3,4.5,3.3,8.4c-1,3.9-4.1,6.6-6.9,5.9
	c-2.2-0.6-2.6-2.8-2.1-5.6l-2.1-0.5l-3.8,14.5l2.5,0.6c1-2.8,2.4-4.6,4.6-4.1c2.8,0.7,4.3,4.5,3.3,8.4c-1,3.9-4.1,6.6-6.9,5.9
	c-2.2-0.6-2.6-2.7-2.2-5.6l-2.6-0.7l-0.8,2.9c-0.5,2.5-1.3,4.6-3.4,5.8c-1.9,1.7-7.6,7.3-8.6,12.9l3.2,252.4l1.6-0.7
	c5.5,10,13.5,18,25.5,22.7c2.2,1.2,3.9,3.3,4.7,5.3c8.6,26.6,17.2,53.1,25.7,79.7c1,2.6-0.4,3-1.8,1.4c-6.9-7.3-13.9-14.5-20.8-21.8
	c-2.6-2.3-5.9-1-4.9,2.9c29.8,86.6,57.2,168.2,86.5,255.6c1.6,5.6,0.8,6.9-3.4,2.1c-13.9-16.9-27.9-33.9-41.8-50.8
	c-4.6-5-6.7-2.4-6.4,4.9c-0.1,3.4-1.2,3.1-3.5,0.6c-18.7-22.3-37.4-44.5-56-66.8C363.5,583.8,356.4,584,338,605L338,605z"/>
</svg>
