<?xml version="1.0" encoding="utf-8"?>
<!-- Generator: Adobe Illustrator 23.0.2, SVG Export Plug-In . SVG Version: 6.00 Build 0)  -->
<!DOCTYPE svg PUBLIC "-//W3C//DTD SVG 1.1//EN" "http://www.w3.org/Graphics/SVG/1.1/DTD/svg11.dtd" [
	<!ENTITY ns_extend "http://ns.adobe.com/Extensibility/1.0/">
	<!ENTITY ns_ai "http://ns.adobe.com/AdobeIllustrator/10.0/">
	<!ENTITY ns_graphs "http://ns.adobe.com/Graphs/1.0/">
	<!ENTITY ns_vars "http://ns.adobe.com/Variables/1.0/">
	<!ENTITY ns_imrep "http://ns.adobe.com/ImageReplacement/1.0/">
	<!ENTITY ns_sfw "http://ns.adobe.com/SaveForWeb/1.0/">
	<!ENTITY ns_custom "http://ns.adobe.com/GenericCustomNamespace/1.0/">
	<!ENTITY ns_adobe_xpath "http://ns.adobe.com/XPath/1.0/">
]>
<svg version="1.1" id="Layer_1" xmlns:x="&ns_extend;" xmlns:i="&ns_ai;" xmlns:graph="&ns_graphs;"
	 xmlns="http://www.w3.org/2000/svg" xmlns:xlink="http://www.w3.org/1999/xlink" x="0px" y="0px" viewBox="0 0 720 720"
	 style="enable-background:new 0 0 720 720;" xml:space="preserve">
<style type="text/css">
	.Drop_x0020_Shadow{fill:none;}
	.Round_x0020_Corners_x0020_2_x0020_pt{fill:#FFFFFF;stroke:#231F20;stroke-miterlimit:10;}
	.Live_x0020_Reflect_x0020_X{fill:none;}
	.Bevel_x0020_Soft{fill:url(#SVGID_1_);}
	.Dusk{fill:#FFFFFF;}
	.Foliage_GS{fill:#FFDD00;}
	.Pompadour_GS{fill-rule:evenodd;clip-rule:evenodd;fill:#44ADE2;}
	.st0{fill-rule:evenodd;clip-rule:evenodd;}
</style>
<metadata>
	<sfw  xmlns="&ns_sfw;">
		<slices></slices>
		<sliceSourceBounds  bottomLeftOrigin="true" height="720" width="241" x="239.5" y="-720"></sliceSourceBounds>
	</sfw>
</metadata>
<linearGradient id="SVGID_1_" gradientUnits="userSpaceOnUse" x1="0" y1="0" x2="0.7071" y2="0.7071">
	<stop  offset="0" style="stop-color:#DEDFE3"/>
	<stop  offset="0.1783" style="stop-color:#DADBDF"/>
	<stop  offset="0.3611" style="stop-color:#CECFD3"/>
	<stop  offset="0.546" style="stop-color:#B9BCBF"/>
	<stop  offset="0.7324" style="stop-color:#9CA0A2"/>
	<stop  offset="0.9181" style="stop-color:#787D7E"/>
	<stop  offset="1" style="stop-color:#656B6C"/>
</linearGradient>
<path class="st0" d="M362.9,8.3c2.1-0.4,4.1-0.9,6.2-1.3c3.3,7.9,12.6-6.7,7.5-6.4c-2.4,0.1-8.1-0.3-8,3.9c-2.1,0.6-4.1,1.1-6.2,1.7
	c-0.5-2.1-1.1-4.1-1.6-6.2c-4.5,2.1-9.1,4.2-13.6,6.2C342,35.1,336.9,64,331.8,92.8c14.2,7.2,19.8,19.3,19.7,34.5
	c-3,111-5.9,221.9-8.9,332.9c-21.7,16-48.3,13.7-54.5-20.4c-6.2-34.3-48.3-15.6-18.2,57.8c24.1,58.7-53.1,111.2-23.6,175.9
	c31.2,68.3,213.5,60.8,231.8-18.3c15.7-67.6-52.6-90.1-17.4-198.7c12.3-38-3.8-96.1-21.2-78.6c-1.7,1.7-7.5,81.2-54.4,53.3l-4.5-3.2
	c0.1-31.6-4-297.5,1.8-306c9.8-14.4,9.3-10.2,4.1-28.5c2.1-0.5,4.1-1.1,6.2-1.6c0,8.8,16.5-7.5,5.1-6c-2,0.3-6,0.8-5.7,3.9
	c-2,0.5-4.1,1.1-6.1,1.6c-1.5-5.1-2.9-10.2-4.4-15.3c2.1-0.4,4.3-0.7,6.4-1.1c0,9.7,16.7-8.7,4.8-6.4c-1.9,0.4-6.3,1-5.3,4.1
	c-2.1,0.5-4.1,1.1-6.2,1.6c-1.4-5-2.9-10-4.3-15c2-0.4,4.1-0.9,6.1-1.3c2.9,8.7,14.1-7.2,6.8-6.6c-2.1,0.2-7-0.1-7.3,4.4
	c-2.1,0.5-4.1,1-6.2,1.4c-1.4-5-2.7-10-4.1-15c2.1-0.4,4.1-0.7,6.2-1.1c0,9.5,19.7-10.8,1-5.3c-1.3,0.4-1.8,1.7-1.6,2.9
	c-2,0.5-4.1,1.1-6.1,1.6c-1.3-4.9-2.7-9.8-4-14.7c2-0.6,4.1-1.1,6.1-1.7c0,9.2,19.6-11.3,0.6-4.4c-1.1,0.4-1.5,1.2-1.2,2.3
	c-2.1,0.6-4.1,1.1-6.2,1.7C365.8,18.3,364.4,13.3,362.9,8.3L362.9,8.3z M399.3,449.7c11.2,0.6-4.8,32.2-1.2,60.3
	c7.1,55.1,60.7,120.3-59.7,103.4c-56.5-7.9-78.8,52.4-87.2,23.3c-10.1-35.1,42-74.5,31.2-125.1c-1.8-8.2-33.3-83.3-6-79.4
	c2.5,0.4,5.6,30.9,17.2,41.4c12.7,11.5,36.1,8.9,47.9-2.4C350.8,520.4,382.2,448.8,399.3,449.7L399.3,449.7z"/>
</svg>
