<?xml version="1.0" encoding="utf-8"?>
<!-- Generator: Adobe Illustrator 23.0.2, SVG Export Plug-In . SVG Version: 6.00 Build 0)  -->
<!DOCTYPE svg PUBLIC "-//W3C//DTD SVG 1.1//EN" "http://www.w3.org/Graphics/SVG/1.1/DTD/svg11.dtd" [
	<!ENTITY ns_extend "http://ns.adobe.com/Extensibility/1.0/">
	<!ENTITY ns_ai "http://ns.adobe.com/AdobeIllustrator/10.0/">
	<!ENTITY ns_graphs "http://ns.adobe.com/Graphs/1.0/">
	<!ENTITY ns_vars "http://ns.adobe.com/Variables/1.0/">
	<!ENTITY ns_imrep "http://ns.adobe.com/ImageReplacement/1.0/">
	<!ENTITY ns_sfw "http://ns.adobe.com/SaveForWeb/1.0/">
	<!ENTITY ns_custom "http://ns.adobe.com/GenericCustomNamespace/1.0/">
	<!ENTITY ns_adobe_xpath "http://ns.adobe.com/XPath/1.0/">
]>
<svg version="1.1" id="Layer_1" xmlns:x="&ns_extend;" xmlns:i="&ns_ai;" xmlns:graph="&ns_graphs;"
	 xmlns="http://www.w3.org/2000/svg" xmlns:xlink="http://www.w3.org/1999/xlink" x="0px" y="0px" viewBox="0 0 720 720"
	 style="enable-background:new 0 0 720 720;" xml:space="preserve">
<style type="text/css">
	.Drop_x0020_Shadow{fill:none;}
	.Round_x0020_Corners_x0020_2_x0020_pt{fill:#FFFFFF;stroke:#231F20;stroke-miterlimit:10;}
	.Live_x0020_Reflect_x0020_X{fill:none;}
	.Bevel_x0020_Soft{fill:url(#SVGID_1_);}
	.Dusk{fill:#FFFFFF;}
	.Foliage_GS{fill:#FFDD00;}
	.Pompadour_GS{fill-rule:evenodd;clip-rule:evenodd;fill:#44ADE2;}
	.st0{fill:#FFFFFF;}
</style>
<metadata>
	<sfw  xmlns="&ns_sfw;">
		<slices></slices>
		<sliceSourceBounds  bottomLeftOrigin="true" height="720" width="277.2" x="221.4" y="-720"></sliceSourceBounds>
	</sfw>
</metadata>
<linearGradient id="SVGID_1_" gradientUnits="userSpaceOnUse" x1="0" y1="0" x2="0.7071" y2="0.7071">
	<stop  offset="0" style="stop-color:#DEDFE3"/>
	<stop  offset="0.1783" style="stop-color:#DADBDF"/>
	<stop  offset="0.3611" style="stop-color:#CECFD3"/>
	<stop  offset="0.546" style="stop-color:#B9BCBF"/>
	<stop  offset="0.7324" style="stop-color:#9CA0A2"/>
	<stop  offset="0.9181" style="stop-color:#787D7E"/>
	<stop  offset="1" style="stop-color:#656B6C"/>
</linearGradient>
<g>
	<g>
		<path d="M489.8,663.9c-31.4,58.7-109.5,54.9-126.5,53.3l0.6,0.8c0.6,0.9,0,2-1.1,2h-5.6c-1,0-1.7-1.2-1.1-2l0.6-0.8
			c-17,1.6-95,5.5-126.5-53.3c-23.2-43.3,4.1-105.5,25-142.2c10.9-19.2,14-41.8,8.4-63.2c-3.7-14.4-6.6-31.4-5.4-46.5
			c2.9-35,28.6-52.7,81.7-48.7c1-88.7,2.6-234.1,2.2-253.2c0-0.7,0-1.3-0.1-1.6c0-0.5-0.1-1.1-0.1-1.6c-1.1-9.3-6.9-15.9-9.7-18.6
			c-1-0.9-1.4-2.3-1.2-3.6c0.3-1.7,0.5-3.3,0.8-5c0.2-1.1,0.3-2.1,0.5-3.2c1.4-9.6,2.3-18.1,2.8-25.6c0.1-1.1,0.1-2.1,0.2-3.2
			c0.6-10.5,0.6-18.9,0.2-25.5c-0.1-1.1-0.1-2.2-0.2-3.2c-0.5-6.1-1.2-10.2-1.7-12.8c-0.3-1.5,0.8-3,2.3-3.2c3.7-0.3,9.9-1.1,14-2.7
			c1.1-0.4,2.3-0.3,3.2,0.3c1.7,1.2,5,2.4,9.5-0.2c0.9-0.5,2-0.6,3-0.2c4.1,1.7,10.5,2.5,14.2,2.8c1.6,0.1,2.7,1.6,2.3,3.2
			c-0.5,2.5-1.3,6.7-1.7,12.8c-0.1,1-0.1,2.1-0.2,3.2c-0.4,6.6-0.4,15,0.2,25.5c0.1,1,0.1,2.1,0.2,3.2c0.5,7.5,1.4,16,2.8,25.6
			c0.1,1,0.3,2.1,0.5,3.2c0.2,1.6,0.5,3.3,0.8,5c0.2,1.3-0.2,2.7-1.2,3.6c-2.8,2.7-8.5,9.3-9.7,18.6c-0.1,0.5-0.1,1.1-0.1,1.6
			c0,0.3,0,0.9,0,1.6c-0.3,19.1,2.5,164.8,4.2,253.4c54.6-4.7,81,13,83.9,48.5c1.2,15.1-1.6,32.1-5.4,46.5
			c-5.6,21.3-2.5,44,8.4,63.2C485.6,558.4,512.9,620.6,489.8,663.9z"/>
		<g>
			<g>
				<path d="M323.5,14l-0.7,1.5c-1.5,3.2-1.5,7,0,10.2l0.7,1.5c0.3,0.6,0.9,1,1.6,1.1l4.2,0.1c0.8,0,1.6-0.5,1.8-1.3l1.4-4.2
					c0.5-1.6,0.5-3.2-0.1-4.8l-1.5-4.1c-0.3-0.8-1-1.3-1.8-1.2l-4,0.1C324.4,13,323.8,13.4,323.5,14z"/>
				<rect x="330.8" y="19" width="7" height="3.2"/>
			</g>
			<g>
				<path d="M323.3,42.7l-0.7,1.5c-1.5,3.2-1.5,7,0,10.2l0.7,1.5c0.3,0.6,0.9,1,1.6,1.1l4.2,0.1c0.8,0,1.6-0.5,1.8-1.3l1.4-4.2
					c0.5-1.6,0.5-3.2-0.1-4.8l-1.5-4.1c-0.3-0.8-1-1.3-1.8-1.2l-4,0.1C324.2,41.6,323.6,42.1,323.3,42.7z"/>
				<rect x="330.6" y="47.7" width="7" height="3.2"/>
			</g>
			<g>
				<path d="M321,71.5l-0.7,1.5c-1.5,3.2-1.5,7,0,10.2l0.7,1.5c0.3,0.6,0.9,1,1.6,1.1l4.2,0.1c0.8,0,1.6-0.5,1.8-1.3l1.4-4.2
					c0.5-1.6,0.5-3.2-0.1-4.8l-1.5-4.1c-0.3-0.8-1-1.3-1.8-1.2l-4,0.1C321.9,70.4,321.3,70.8,321,71.5z"/>
				<rect x="328.3" y="76.5" width="7" height="3.2"/>
			</g>
		</g>
		<g>
			<g>
				<path d="M391.8,14l0.7,1.5c1.5,3.2,1.5,7,0,10.2l-0.7,1.5c-0.3,0.6-0.9,1-1.6,1.1l-4.2,0.1c-0.8,0-1.6-0.5-1.8-1.3l-1.4-4.2
					c-0.5-1.6-0.5-3.2,0.1-4.8l1.5-4.1c0.3-0.8,1-1.3,1.8-1.2l4,0.1C390.9,13,391.5,13.4,391.8,14z"/>
				<rect x="377.5" y="19" transform="matrix(-1 -1.224647e-16 1.224647e-16 -1 761.9522 41.232)" width="7" height="3.2"/>
			</g>
			<g>
				<path d="M392,42.7l0.7,1.5c1.5,3.2,1.5,7,0,10.2l-0.7,1.5c-0.3,0.6-0.9,1-1.6,1.1l-4.2,0.1c-0.8,0-1.6-0.5-1.8-1.3l-1.4-4.2
					c-0.5-1.6-0.5-3.2,0.1-4.8l1.5-4.1c0.3-0.8,1-1.3,1.8-1.2l4,0.1C391.1,41.6,391.7,42.1,392,42.7z"/>
				<rect x="377.7" y="47.7" transform="matrix(-1 -1.224647e-16 1.224647e-16 -1 762.4023 98.5575)" width="7" height="3.2"/>
			</g>
			<g>
				<path d="M394.3,71.5L395,73c1.5,3.2,1.5,7,0,10.2l-0.7,1.5c-0.3,0.6-0.9,1-1.6,1.1l-4.2,0.1c-0.8,0-1.6-0.5-1.8-1.3l-1.4-4.2
					c-0.5-1.6-0.5-3.2,0.1-4.8l1.5-4.1c0.3-0.8,1-1.3,1.8-1.2l4,0.1C393.4,70.4,394,70.8,394.3,71.5z"/>
				<rect x="380" y="76.5" transform="matrix(-1 -1.224647e-16 1.224647e-16 -1 766.9606 156.1081)" width="7" height="3.2"/>
			</g>
		</g>
	</g>
	<path class="st0" d="M395.2,467.4c0,6.7-1.9,13-5.2,18.4c-1.2,2-2.7,3.9-4.3,5.6c-2.1,2.3-4.6,4.3-7.3,5.9l-0.1-5.9h-0.9l0.1,6.5
		c-1.9,1.1-3.9,2-6,2.8l-0.1-9.2h-0.9l0.1,9.5c-2,0.6-4,1.1-6.2,1.4l-0.1-10.9h-0.9l0.1,11c-1.2,0.1-2.4,0.2-3.7,0.2c-1,0-2,0-3-0.1
		l0-11.1h-0.9l0,11c-2.2-0.2-4.4-0.7-6.4-1.3l0-9.7h-0.9l0,9.4c-2.5-0.8-4.8-1.9-7-3.2l0.1-6.1H341l-0.1,5.6
		c-2.5-1.6-4.7-3.5-6.7-5.6c-1.6-1.7-3-3.6-4.3-5.6c-3.3-5.3-5.2-11.6-5.2-18.4c0-12.7,6.7-23.8,16.8-30l-0.5,48.4h0.9l0.5-48.9
		c2.1-1.2,4.3-2.2,6.6-2.9l-0.2,51.8h0.9l0.2-52.1c1.9-0.6,3.9-1,6-1.2l0.2,53.3h0.9l-0.2-53.4c1-0.1,2.1-0.1,3.2-0.1c1,0,2,0,3,0.1
		l0.5,53.4h0.9l-0.5-53.4c2,0.2,3.9,0.6,5.8,1.1l0.8,52.2h0.9l-0.8-52c2,0.6,3.9,1.4,5.7,2.4l1,49.6h0.9l-1-49.1
		C387.9,442.8,395.2,454.3,395.2,467.4z"/>
	<path class="st0" d="M360,427.3c-22.2,0-40.1,18-40.1,40.1s18,40.1,40.1,40.1c22.1,0,40.1-18,40.1-40.1S382.1,427.3,360,427.3z
		 M360,505.5c-21,0-38-17-38-38c0-21,17-38,38-38c21,0,38,17,38,38C398,488.4,381,505.5,360,505.5z"/>
	<path class="st0" d="M360,423.5c-24.3,0-44,19.7-44,44c0,24.3,19.7,44,44,44c24.3,0,44-19.7,44-44C404,443.2,384.3,423.5,360,423.5
		z M360,509.8c-23.4,0-42.3-18.9-42.3-42.3c0-23.4,18.9-42.3,42.3-42.3c23.4,0,42.3,18.9,42.3,42.3
		C402.3,490.8,383.4,509.8,360,509.8z"/>
	<path class="st0" d="M360,423.5c-24.3,0-44,19.7-44,44c0,24.3,19.7,44,44,44c24.3,0,44-19.7,44-44C404,443.2,384.3,423.5,360,423.5
		z M360,509.8c-23.4,0-42.3-18.9-42.3-42.3c0-23.4,18.9-42.3,42.3-42.3c23.4,0,42.3,18.9,42.3,42.3
		C402.3,490.8,383.4,509.8,360,509.8z"/>
	<path class="st0" d="M360,421c-25.7,0-46.4,20.8-46.4,46.4c0,25.7,20.8,46.4,46.4,46.4c25.7,0,46.4-20.8,46.4-46.4
		C406.4,441.8,385.7,421,360,421z M360,512.5c-24.9,0-45.1-20.2-45.1-45.1s20.2-45.1,45.1-45.1c24.9,0,45.1,20.2,45.1,45.1
		S384.9,512.5,360,512.5z M360,423.5c-24.3,0-44,19.7-44,44c0,24.3,19.7,44,44,44c24.3,0,44-19.7,44-44
		C404,443.2,384.3,423.5,360,423.5z M360,509.8c-23.4,0-42.3-18.9-42.3-42.3c0-23.4,18.9-42.3,42.3-42.3c23.4,0,42.3,18.9,42.3,42.3
		C402.3,490.8,383.4,509.8,360,509.8z"/>
	<path d="M360,422.3c-24.9,0-45.1,20.2-45.1,45.1s20.2,45.1,45.1,45.1c24.9,0,45.1-20.2,45.1-45.1S384.9,422.3,360,422.3z
		 M360,511.4c-24.3,0-44-19.7-44-44c0-24.3,19.7-44,44-44c24.3,0,44,19.7,44,44C404,491.7,384.3,511.4,360,511.4z"/>
	<path class="st0" d="M412.3,582.3h-9.2c-4,0-8,0.7-11.8,2.1h0c-20.2,7.6-42.5,7.6-62.7,0h0c-3.8-1.4-7.8-2.1-11.8-2.1h-9.2
		c-1.1,0-1.9-0.9-1.9-1.9v-14.7c0-1.1,0.9-1.9,1.9-1.9h104.7c1.1,0,1.9,0.9,1.9,1.9v14.7C414.2,581.4,413.4,582.3,412.3,582.3z"/>
	<path d="M383.7,571h-47.5c-0.7,0-1.2-0.5-1.2-1.2v-0.1c0-0.7,0.5-1.2,1.2-1.2h47.5c0.7,0,1.2,0.5,1.2,1.2v0.1
		C384.9,570.4,384.4,571,383.7,571z"/>
	<polygon points="390.3,485.8 387.6,491.5 332.2,491.5 329.6,485.8 	"/>
	<g>
		<g>
			<g>
				<g>
					<path class="st0" d="M360.3,172.3c0,1.1-0.9,2-2,2s-2-0.9-2-2s0.9-2,2-2S360.3,171.1,360.3,172.3z"/>
					<path class="st0" d="M360.6,215.1c0,1.2-1,2.1-2.1,2.1c-1.2,0-2.1-1-2.1-2.1c0-1.2,1-2.1,2.1-2.1
						C359.7,213,360.6,214,360.6,215.1z"/>
				</g>
				<path class="st0" d="M360.9,252.9c0,1.2-1,2.1-2.1,2.1s-2.1-1-2.1-2.1c0-1.2,1-2.1,2.1-2.1S360.9,251.7,360.9,252.9z"/>
				<path class="st0" d="M361.1,287.4c0,1.2-1,2.1-2.1,2.1s-2.1-1-2.1-2.1s1-2.1,2.1-2.1S361.1,286.2,361.1,287.4z"/>
			</g>
			<g>
				<g>
					<path class="st0" d="M352,331.5c0,1.2-1,2.1-2.1,2.1c-1.2,0-2.1-1-2.1-2.1c0-1.2,1-2.1,2.1-2.1C351,329.3,352,330.3,352,331.5z
						"/>
					<path class="st0" d="M370.7,331.5c0,1.2-1,2.1-2.1,2.1c-1.2,0-2.1-1-2.1-2.1c0-1.2,1-2.1,2.1-2.1
						C369.8,329.3,370.7,330.3,370.7,331.5z"/>
				</g>
				<path class="st0" d="M361.9,389.9c0,1.2-1,2.1-2.1,2.1s-2.1-1-2.1-2.1c0-1.2,1-2.1,2.1-2.1S361.9,388.7,361.9,389.9z"/>
				<path class="st0" d="M361.6,368.7c0,1.2-1,2.1-2.1,2.1c-1.2,0-2.1-1-2.1-2.1c0-1.2,1-2.1,2.1-2.1
					C360.7,366.6,361.6,367.5,361.6,368.7z"/>
			</g>
		</g>
		<g>
			<g>
				<g>
					<path d="M342.5,436.9l-0.5,48.9h-0.9l0.5-48.4C341.9,437.3,342.2,437.1,342.5,436.9z"/>
					<path d="M341.9,491.5l-0.1,6.1c-0.3-0.2-0.6-0.4-0.9-0.5l0.1-5.6H341.9z"/>
					<path class="st0" d="M341,497.1c0.3,0.2,0.6,0.4,0.9,0.5l-0.8,78.6l-0.9,0L341,497.1z"/>
					<polygon class="st0" points="342,485.8 341.9,491.5 341,491.5 341.1,485.8 					"/>
					<path class="st0" d="M346.4,75.5l-3.9,361.5c-0.3,0.2-0.6,0.3-0.9,0.5l3.9-362L346.4,75.5z"/>
				</g>
				<g>
					<path d="M349.9,433.7l-0.2,52.1h-0.9l0.2-51.8C349.3,433.9,349.6,433.8,349.9,433.7z"/>
					<path d="M349.8,491.5l0,9.7c-0.3-0.1-0.6-0.2-0.9-0.3l0-9.4H349.8z"/>
					<path class="st0" d="M348.9,500.8c0.3,0.1,0.6,0.2,0.9,0.3l-0.2,74.7h-0.9L348.9,500.8z"/>
					<polygon class="st0" points="349.8,485.8 349.8,491.5 348.9,491.5 348.9,485.8 					"/>
					<path class="st0" d="M350.9,108.6l-1,325.1c-0.3,0.1-0.6,0.2-0.9,0.3l1-325.4l-3-62.1l0.9,0L350.9,108.6z"/>
				</g>
				<g>
					<path d="M378.2,485.8h-0.9l-1-49.6c0.3,0.2,0.6,0.3,0.9,0.5L378.2,485.8z"/>
					<path class="st0" d="M370.5,108.5l6.7,328.2c-0.3-0.2-0.6-0.3-0.9-0.5l-6.7-327.7l0.1-33.4l0.9,0L370.5,108.5z"/>
					<path d="M378.5,497.4c-0.3,0.2-0.6,0.4-0.9,0.5l-0.1-6.5h0.9L378.5,497.4z"/>
					<polygon class="st0" points="378.3,491.5 377.5,491.5 377.4,485.8 378.2,485.8 					"/>
					<path class="st0" d="M380.1,575.4l-0.9,0l-1.6-77.5c0.3-0.2,0.6-0.3,0.9-0.5L380.1,575.4z"/>
				</g>
				<g>
					<path d="M371.4,485.8h-0.9l-0.8-52.2c0.3,0.1,0.6,0.2,0.9,0.3L371.4,485.8z"/>
					<path class="st0" d="M370.6,433.9c-0.3-0.1-0.6-0.2-0.9-0.3l-4.9-325l3.3-61.9l0.9,0l-3.3,61.8L370.6,433.9z"/>
					<path d="M371.6,500.7c-0.3,0.1-0.6,0.2-0.9,0.3l-0.1-9.5h0.9L371.6,500.7z"/>
					<polygon class="st0" points="371.5,491.5 370.6,491.5 370.5,485.8 371.4,485.8 					"/>
					<path class="st0" d="M372.7,576l-0.9,0l-1.1-75.1c0.3-0.1,0.6-0.2,0.9-0.3L372.7,576z"/>
				</g>
				<g>
					<path d="M357,485.8h-0.9l-0.2-53.3c0.3,0,0.6-0.1,0.9-0.1L357,485.8z"/>
					<path class="st0" d="M356.8,432.4c-0.3,0-0.6,0.1-0.9,0.1l-1.1-323.8l-8.1-90l0.9-0.1l8.1,90.1L356.8,432.4z"/>
					<path d="M357,502.5c-0.3,0-0.6-0.1-0.9-0.1l0-11h0.9L357,502.5z"/>
					<polygon class="st0" points="357,491.5 356.1,491.5 356.1,485.8 357,485.8 					"/>
					<path class="st0" d="M357.3,575.7l-0.9,0l-0.2-73.3c0.3,0,0.6,0.1,0.9,0.1L357.3,575.7z"/>
				</g>
				<g>
					<path d="M364.4,485.8h-0.9l-0.5-53.4c0.3,0,0.6,0.1,0.9,0.1L364.4,485.8z"/>
					<path d="M364.6,502.3c-0.3,0-0.6,0.1-0.9,0.1l-0.1-11h0.9L364.6,502.3z"/>
					<polygon class="st0" points="364.5,491.5 363.6,491.5 363.5,485.8 364.4,485.8 					"/>
					<path class="st0" d="M365.3,575.7l-0.9,0l-0.7-73.3c0.3,0,0.6-0.1,0.9-0.1L365.3,575.7z"/>
					<path class="st0" d="M363.9,432.5c-0.3,0-0.6-0.1-0.9-0.1l-3.2-324.1l0,0l8.3-90l0.9,0.1l-8.3,89.9L363.9,432.5z"/>
				</g>
			</g>
			<g>
				<g>
					<g>
						<path class="st0" d="M347.4,16.8c0,1.5-1.2,2.6-2.6,2.6c-1.5,0-2.6-1.2-2.6-2.6c0-1.5,1.2-2.6,2.6-2.6
							C346.3,14.2,347.4,15.3,347.4,16.8z"/>
						<path class="st0" d="M348.4,18.9c0,1.6-1.6,2.9-3.6,2.9s-3.6-1.3-3.6-2.9c0-1.6,1.6-2.9,3.6-2.9S348.4,17.3,348.4,18.9z"/>
					</g>
					<g>
						<circle class="st0" cx="344.8" cy="45.7" r="2.6"/>
						<path class="st0" d="M348.4,47.8c0,1.6-1.6,2.9-3.6,2.9c-2,0-3.6-1.3-3.6-2.9s1.6-2.9,3.6-2.9
							C346.8,44.9,348.4,46.2,348.4,47.8z"/>
					</g>
					<g>
						<path class="st0" d="M345.8,74.2c0,1.5-1.2,2.6-2.6,2.6c-1.5,0-2.6-1.2-2.6-2.6c0-1.5,1.2-2.6,2.6-2.6
							C344.6,71.6,345.8,72.8,345.8,74.2z"/>
						<path class="st0" d="M346.7,76.3c0,1.6-1.6,2.9-3.6,2.9s-3.6-1.3-3.6-2.9c0-1.6,1.6-2.9,3.6-2.9S346.7,74.7,346.7,76.3z"/>
					</g>
				</g>
				<g>
					<g>
						<path class="st0" d="M368.4,16.8c0,1.5,1.2,2.6,2.6,2.6s2.6-1.2,2.6-2.6c0-1.5-1.2-2.6-2.6-2.6S368.4,15.3,368.4,16.8z"/>
						<ellipse class="st0" cx="371" cy="18.9" rx="3.6" ry="2.9"/>
					</g>
					<g>
						<circle class="st0" cx="371" cy="45.7" r="2.6"/>
						<path class="st0" d="M367.4,47.8c0,1.6,1.6,2.9,3.6,2.9s3.6-1.3,3.6-2.9s-1.6-2.9-3.6-2.9S367.4,46.2,367.4,47.8z"/>
					</g>
					<g>
						<path class="st0" d="M370,74.2c0,1.5,1.2,2.6,2.6,2.6c1.5,0,2.6-1.2,2.6-2.6c0-1.5-1.2-2.6-2.6-2.6
							C371.2,71.6,370,72.8,370,74.2z"/>
						<path class="st0" d="M369.1,76.3c0,1.6,1.6,2.9,3.6,2.9c2,0,3.6-1.3,3.6-2.9c0-1.6-1.6-2.9-3.6-2.9
							C370.7,73.4,369.1,74.7,369.1,76.3z"/>
					</g>
				</g>
			</g>
			<path class="st0" d="M373.8,106.8c-0.1,0.5-0.1,1.1-0.1,1.6c0,0.3,0,0.9,0,1.6h-31.5c0-0.7,0-1.3-0.1-1.6c0-0.5-0.1-1.1-0.1-1.6
				H373.8z"/>
		</g>
	</g>
	<g>
		<path d="M343.3,577.6c0,1.6-1.3,2.9-2.9,2.9c-1.6,0-2.9-1.3-2.9-2.9c0-1.6,1.3-2.9,2.9-2.9C342,574.7,343.3,576,343.3,577.6z"/>
		<path d="M351.1,577.6c0,1.6-1.3,2.9-2.9,2.9c-1.6,0-2.9-1.3-2.9-2.9c0-1.6,1.3-2.9,2.9-2.9C349.8,574.7,351.1,576,351.1,577.6z"/>
		<path d="M359,577.6c0,1.6-1.3,2.9-2.9,2.9c-1.6,0-2.9-1.3-2.9-2.9c0-1.6,1.3-2.9,2.9-2.9C357.7,574.7,359,576,359,577.6z"/>
		<path d="M366.8,577.6c0,1.6-1.3,2.9-2.9,2.9s-2.9-1.3-2.9-2.9c0-1.6,1.3-2.9,2.9-2.9S366.8,576,366.8,577.6z"/>
		<path d="M374.7,577.6c0,1.6-1.3,2.9-2.9,2.9c-1.6,0-2.9-1.3-2.9-2.9c0-1.6,1.3-2.9,2.9-2.9C373.4,574.7,374.7,576,374.7,577.6z"/>
		<path d="M382.5,577.6c0,1.6-1.3,2.9-2.9,2.9s-2.9-1.3-2.9-2.9c0-1.6,1.3-2.9,2.9-2.9S382.5,576,382.5,577.6z"/>
	</g>
</g>
</svg>
