<?xml version="1.0" encoding="utf-8"?>
<!-- Generator: Adobe Illustrator 23.0.2, SVG Export Plug-In . SVG Version: 6.00 Build 0)  -->
<!DOCTYPE svg PUBLIC "-//W3C//DTD SVG 1.1//EN" "http://www.w3.org/Graphics/SVG/1.1/DTD/svg11.dtd" [
	<!ENTITY ns_extend "http://ns.adobe.com/Extensibility/1.0/">
	<!ENTITY ns_ai "http://ns.adobe.com/AdobeIllustrator/10.0/">
	<!ENTITY ns_graphs "http://ns.adobe.com/Graphs/1.0/">
	<!ENTITY ns_vars "http://ns.adobe.com/Variables/1.0/">
	<!ENTITY ns_imrep "http://ns.adobe.com/ImageReplacement/1.0/">
	<!ENTITY ns_sfw "http://ns.adobe.com/SaveForWeb/1.0/">
	<!ENTITY ns_custom "http://ns.adobe.com/GenericCustomNamespace/1.0/">
	<!ENTITY ns_adobe_xpath "http://ns.adobe.com/XPath/1.0/">
]>
<svg version="1.1" id="Layer_1" xmlns:x="&ns_extend;" xmlns:i="&ns_ai;" xmlns:graph="&ns_graphs;"
	 xmlns="http://www.w3.org/2000/svg" xmlns:xlink="http://www.w3.org/1999/xlink" x="0px" y="0px" viewBox="0 0 720 720"
	 style="enable-background:new 0 0 720 720;" xml:space="preserve">
<style type="text/css">
	.Drop_x0020_Shadow{fill:none;}
	.Round_x0020_Corners_x0020_2_x0020_pt{fill:#FFFFFF;stroke:#231F20;stroke-miterlimit:10;}
	.Live_x0020_Reflect_x0020_X{fill:none;}
	.Bevel_x0020_Soft{fill:url(#SVGID_1_);}
	.Dusk{fill:#FFFFFF;}
	.Foliage_GS{fill:#FFDD00;}
	.Pompadour_GS{fill-rule:evenodd;clip-rule:evenodd;fill:#44ADE2;}
</style>
<metadata>
	<sfw  xmlns="&ns_sfw;">
		<slices></slices>
		<sliceSourceBounds  bottomLeftOrigin="true" height="720" width="454.9" x="132.6" y="-720"></sliceSourceBounds>
	</sfw>
</metadata>
<linearGradient id="SVGID_1_" gradientUnits="userSpaceOnUse" x1="0" y1="0" x2="0.7071" y2="0.7071">
	<stop  offset="0" style="stop-color:#DEDFE3"/>
	<stop  offset="0.1783" style="stop-color:#DADBDF"/>
	<stop  offset="0.3611" style="stop-color:#CECFD3"/>
	<stop  offset="0.546" style="stop-color:#B9BCBF"/>
	<stop  offset="0.7324" style="stop-color:#9CA0A2"/>
	<stop  offset="0.9181" style="stop-color:#787D7E"/>
	<stop  offset="1" style="stop-color:#656B6C"/>
</linearGradient>
<path id="_x31_02" d="M484.3,6.9c-13.2,5.8-30.5,17.3-37.9,26.4c-14.8,16.5-80.8,151.8-80.8,165c0,17.3-30.5,33.8-71.8,37.9
	c-41.2,4.9-76.7,19.8-76.7,32.2c0,4.1,28,6.6,62.7,6.6h62.7l-4.9,22.3c-3.3,13.2-26.4,89.9-51.1,171.6
	c-39.6,130.3-48.7,151.8-73.4,174.9c-33,31.3-41.2,33-53.6,10.7c-10.7-19.8-4.1-33,15.7-33c30.5,0,55.3-51.1,42.1-87.4
	c-9.9-24.7-41.2-26.4-61-4.1c-34.6,37.9-29.7,128.7,7.4,169.1c42.9,46.2,105.6,14,144.4-73.4c25.6-56.9,72.6-193,99.8-287.1
	c18.1-63.5,18.1-63.5,46.2-63.5c30.5,0,85-19.8,85-31.3c0-3.3-22.3-6.6-49.5-5.8c-33.8,0.8-49.5-1.6-49.5-9.1
	c0-5.8,9.1-37.1,19.8-69.3C490,71.2,540.4,26.7,563.5,67.9c11.5,22.3,10.7,25.6-8.2,25.6c-47,0-79.2,86.6-41.2,107.2
	c71.8,37.9,103.9-125.4,36.3-182.3C526.3-2.2,511.5-4.7,484.3,6.9z"/>
</svg>
