<?xml version="1.0" encoding="utf-8"?>
<!-- Generator: Adobe Illustrator 23.0.2, SVG Export Plug-In . SVG Version: 6.00 Build 0)  -->
<!DOCTYPE svg PUBLIC "-//W3C//DTD SVG 1.1//EN" "http://www.w3.org/Graphics/SVG/1.1/DTD/svg11.dtd" [
	<!ENTITY ns_extend "http://ns.adobe.com/Extensibility/1.0/">
	<!ENTITY ns_ai "http://ns.adobe.com/AdobeIllustrator/10.0/">
	<!ENTITY ns_graphs "http://ns.adobe.com/Graphs/1.0/">
	<!ENTITY ns_vars "http://ns.adobe.com/Variables/1.0/">
	<!ENTITY ns_imrep "http://ns.adobe.com/ImageReplacement/1.0/">
	<!ENTITY ns_sfw "http://ns.adobe.com/SaveForWeb/1.0/">
	<!ENTITY ns_custom "http://ns.adobe.com/GenericCustomNamespace/1.0/">
	<!ENTITY ns_adobe_xpath "http://ns.adobe.com/XPath/1.0/">
]>
<svg version="1.1" id="Layer_1" xmlns:x="&ns_extend;" xmlns:i="&ns_ai;" xmlns:graph="&ns_graphs;"
	 xmlns="http://www.w3.org/2000/svg" xmlns:xlink="http://www.w3.org/1999/xlink" x="0px" y="0px" viewBox="0 0 720 720"
	 style="enable-background:new 0 0 720 720;" xml:space="preserve">
<style type="text/css">
	.Drop_x0020_Shadow{fill:none;}
	.Round_x0020_Corners_x0020_2_x0020_pt{fill:#FFFFFF;stroke:#231F20;stroke-miterlimit:10;}
	.Live_x0020_Reflect_x0020_X{fill:none;}
	.Bevel_x0020_Soft{fill:url(#SVGID_1_);}
	.Dusk{fill:#FFFFFF;}
	.Foliage_GS{fill:#FFDD00;}
	.Pompadour_GS{fill-rule:evenodd;clip-rule:evenodd;fill:#44ADE2;}
</style>
<metadata>
	<sfw  xmlns="&ns_sfw;">
		<slices></slices>
		<sliceSourceBounds  bottomLeftOrigin="true" height="720" width="479.3" x="120.4" y="-720"></sliceSourceBounds>
	</sfw>
</metadata>
<linearGradient id="SVGID_1_" gradientUnits="userSpaceOnUse" x1="0" y1="0" x2="0.7071" y2="0.7071">
	<stop  offset="0" style="stop-color:#DEDFE3"/>
	<stop  offset="0.1783" style="stop-color:#DADBDF"/>
	<stop  offset="0.3611" style="stop-color:#CECFD3"/>
	<stop  offset="0.546" style="stop-color:#B9BCBF"/>
	<stop  offset="0.7324" style="stop-color:#9CA0A2"/>
	<stop  offset="0.9181" style="stop-color:#787D7E"/>
	<stop  offset="1" style="stop-color:#656B6C"/>
</linearGradient>
<path id="_x31_13" d="M351.1,5.8c-3.4,2.5-5.9,121.3-5.9,263.8c0,242.6-0.8,257.9-14.4,251.1c-35.6-16.1-95-13.6-134,5.1
	c-63.6,30.5-90.8,86.5-68.7,140c30.5,72.1,159.5,72.1,225.7,0.8l21.2-23.8l2.5-257.9c1.7-141.7,4.2-257.9,7.6-257.9
	c2.5,0,26.3,11.9,53.4,26.3c65.3,34.8,115.4,87.4,140,148.5l21.2,50.1v-38.2c0-45-18.7-120.5-37.3-148.5
	c-24.6-37.3-73.8-78.9-122.2-103.5c-27.1-13.6-51.8-33.1-56.8-43.3C374.8-0.2,361.2-5.3,351.1,5.8z"/>
</svg>
